<?xml version="1.0" encoding="utf-8"?>
<!-- Generator: Adobe Illustrator 27.5.0, SVG Export Plug-In . SVG Version: 6.00 Build 0)  -->
<svg version="1.1" xmlns="http://www.w3.org/2000/svg" xmlns:xlink="http://www.w3.org/1999/xlink" x="0px" y="0px"
	 viewBox="0 0 500 500" style="enable-background:new 0 0 500 500;" xml:space="preserve">
<g id="Background_Complete">
	<g>
		<g>
			<g>
				<g>
					<g>
						<path style="fill:#F5F5F5;" d="M66.594,133.589l-35.297-27.633c-2.267-1.775-2.666-5.051-0.891-7.319l58.568-74.813
							c1.775-2.267,5.051-2.666,7.319-0.891l35.297,27.633c2.267,1.775,2.666,5.051,0.891,7.318l-58.569,74.813
							C72.138,134.965,68.861,135.364,66.594,133.589z"/>
					</g>
				</g>
			</g>
			<g>
				<g>
					<g>
						<g>
							<path style="fill:#E0E0E0;" d="M67.788,123.555c-0.055,0.07-5.785-4.325-12.798-9.815
								c-7.015-5.492-12.656-9.999-12.601-10.069c0.055-0.07,5.784,4.324,12.799,9.816
								C62.201,118.977,67.843,123.485,67.788,123.555z"/>
						</g>
					</g>
				</g>
			</g>
			<g>
				<g>
					<g>
						<g>
							<path style="fill:#E0E0E0;" d="M120.876,52.816c-0.055,0.07-5.785-4.325-12.798-9.815
								c-7.015-5.492-12.656-9.999-12.601-10.069c0.055-0.07,5.784,4.324,12.799,9.816
								C115.289,48.238,120.931,52.746,120.876,52.816z"/>
						</g>
					</g>
				</g>
			</g>
			<g>
				<g>
					<g>
						<g>
							<path style="fill:#E0E0E0;" d="M54.374,112.838c-0.07-0.055,12.053-15.657,27.075-34.844
								c15.026-19.194,27.26-34.704,27.33-34.65c0.07,0.055-12.051,15.654-27.077,34.847
								C66.68,97.379,54.444,112.893,54.374,112.838z"/>
						</g>
					</g>
				</g>
			</g>
		</g>
		<g>
			<g>
				<g>
					<path style="fill:#EBEBEB;" d="M87.884,48.129l3.188-4.279l4.035,3.006c1.182,0.88,1.426,2.552,0.546,3.733l0,0
						c-0.88,1.181-2.552,1.426-3.733,0.545L87.884,48.129z"/>
				</g>
			</g>
			<g>
				<g>
					<path style="fill:#E0E0E0;" d="M91.79,44.386l-3.188,4.279l-4.035-3.006c-1.182-0.88-1.426-2.552-0.545-3.733l0,0
						c0.88-1.181,2.552-1.426,3.733-0.545L91.79,44.386z"/>
				</g>
			</g>
		</g>
		<g>
			<g>
				<g>
					<path style="fill:#EBEBEB;" d="M108.54,63.905l3.188-4.278l4.035,3.006c1.182,0.88,1.426,2.552,0.545,3.733l0,0
						c-0.88,1.182-2.552,1.426-3.733,0.546L108.54,63.905z"/>
				</g>
			</g>
			<g>
				<g>
					<path style="fill:#E0E0E0;" d="M112.446,60.162l-3.188,4.279l-4.035-3.006c-1.182-0.88-1.426-2.552-0.546-3.733l0,0
						c0.88-1.181,2.552-1.426,3.733-0.545L112.446,60.162z"/>
				</g>
			</g>
		</g>
		<g>
			<g>
				<g>
					<path style="fill:#EBEBEB;" d="M78.929,59.925l3.188-4.279l4.035,3.006c1.181,0.88,1.426,2.552,0.545,3.733l0,0
						c-0.88,1.181-2.552,1.426-3.733,0.546L78.929,59.925z"/>
				</g>
			</g>
			<g>
				<g>
					<path style="fill:#E0E0E0;" d="M82.834,56.182l-3.188,4.279l-4.035-3.006c-1.181-0.88-1.426-2.552-0.545-3.733l0,0
						c0.88-1.182,2.552-1.426,3.733-0.545L82.834,56.182z"/>
				</g>
			</g>
		</g>
		<g>
			<g>
				<g>
					<path style="fill:#EBEBEB;" d="M100.058,76.054l3.188-4.279l4.035,3.006c1.182,0.88,1.426,2.552,0.545,3.733l0,0
						c-0.88,1.181-2.552,1.426-3.733,0.545L100.058,76.054z"/>
				</g>
			</g>
			<g>
				<g>
					<path style="fill:#E0E0E0;" d="M103.963,72.31l-3.188,4.278l-4.035-3.006c-1.182-0.88-1.426-2.552-0.545-3.733l0,0
						c0.88-1.182,2.552-1.426,3.733-0.546L103.963,72.31z"/>
				</g>
			</g>
		</g>
		<g>
			<g>
				<g>
					<path style="fill:#EBEBEB;" d="M69.973,71.721l3.188-4.279l4.035,3.006c1.181,0.88,1.426,2.552,0.545,3.733l0,0
						c-0.88,1.181-2.552,1.426-3.733,0.546L69.973,71.721z"/>
				</g>
			</g>
			<g>
				<g>
					<path style="fill:#E0E0E0;" d="M73.879,67.978l-3.188,4.279l-4.035-3.006c-1.181-0.88-1.426-2.552-0.545-3.733l0,0
						c0.88-1.181,2.552-1.426,3.733-0.545L73.879,67.978z"/>
				</g>
			</g>
		</g>
		<g>
			<g>
				<g>
					<path style="fill:#EBEBEB;" d="M91.576,88.202l3.188-4.279l4.035,3.006c1.181,0.88,1.426,2.551,0.545,3.733l0,0
						c-0.88,1.182-2.552,1.426-3.733,0.545L91.576,88.202z"/>
				</g>
			</g>
			<g>
				<g>
					<path style="fill:#E0E0E0;" d="M95.481,84.459l-3.188,4.279l-4.035-3.006c-1.182-0.88-1.426-2.552-0.545-3.733l0,0
						c0.88-1.181,2.552-1.426,3.733-0.546L95.481,84.459z"/>
				</g>
			</g>
		</g>
		<g>
			<g>
				<g>
					<path style="fill:#EBEBEB;" d="M59.816,83.838l3.188-4.279l4.035,3.006c1.181,0.88,1.426,2.552,0.545,3.733l0,0
						c-0.88,1.181-2.552,1.426-3.733,0.545L59.816,83.838z"/>
				</g>
			</g>
			<g>
				<g>
					<path style="fill:#E0E0E0;" d="M63.722,80.094l-3.188,4.279l-4.035-3.006c-1.181-0.88-1.426-2.552-0.545-3.733l0,0
						c0.88-1.181,2.552-1.426,3.733-0.546L63.722,80.094z"/>
				</g>
			</g>
		</g>
		<g>
			<g>
				<g>
					<path style="fill:#EBEBEB;" d="M81.601,100.068l3.188-4.278l4.035,3.006c1.181,0.88,1.426,2.552,0.546,3.733l0,0
						c-0.88,1.182-2.552,1.426-3.733,0.545L81.601,100.068z"/>
				</g>
			</g>
			<g>
				<g>
					<path style="fill:#E0E0E0;" d="M85.507,96.325l-3.188,4.278l-4.035-3.006c-1.182-0.88-1.426-2.552-0.546-3.733l0,0
						c0.88-1.182,2.552-1.426,3.733-0.545L85.507,96.325z"/>
				</g>
			</g>
		</g>
		<g>
			<g>
				<g>
					<path style="fill:#EBEBEB;" d="M50.844,97.486l3.188-4.279l4.035,3.006c1.181,0.88,1.426,2.552,0.546,3.733l0,0
						c-0.88,1.181-2.552,1.426-3.733,0.546L50.844,97.486z"/>
				</g>
			</g>
			<g>
				<g>
					<path style="fill:#E0E0E0;" d="M54.75,93.742l-3.188,4.279l-4.035-3.006c-1.181-0.88-1.426-2.552-0.545-3.733l0,0
						c0.88-1.182,2.552-1.426,3.733-0.545L54.75,93.742z"/>
				</g>
			</g>
		</g>
		<g>
			<g>
				<g>
					<path style="fill:#EBEBEB;" d="M71.571,112.928l3.188-4.279l4.035,3.006c1.181,0.88,1.426,2.552,0.545,3.733l0,0
						c-0.88,1.181-2.552,1.426-3.733,0.545L71.571,112.928z"/>
				</g>
			</g>
			<g>
				<g>
					<path style="fill:#E0E0E0;" d="M75.477,109.185l-3.188,4.279l-4.035-3.006c-1.181-0.88-1.426-2.552-0.545-3.733l0,0
						c0.88-1.181,2.552-1.426,3.733-0.545L75.477,109.185z"/>
				</g>
			</g>
		</g>
	</g>
	<g>
		<g>
			<g>
				<g>
					<path style="fill:#EBEBEB;" d="M469.461,301.464l-64.236,21.883c-2.725,0.928-5.687-0.528-6.616-3.254L353.797,188.55
						c-0.928-2.726,0.528-5.688,3.254-6.616l64.236-21.883c2.725-0.928,5.687,0.528,6.616,3.254l44.813,131.543
						C473.643,297.573,472.187,300.535,469.461,301.464z"/>
				</g>
			</g>
		</g>
		<g>
			<g>
				<g>
					<path style="fill:#FAFAFA;" d="M386.415,200.14c1.019,2.991-0.58,6.242-3.571,7.261c-2.991,1.019-6.242-0.58-7.26-3.571
						c-1.019-2.991,0.58-6.242,3.571-7.261C382.146,195.55,385.396,197.149,386.415,200.14z"/>
				</g>
			</g>
		</g>
		<g>
			<g>
				<g>
					<path style="fill:#FAFAFA;" d="M417.924,189.406c1.019,2.991-0.58,6.242-3.571,7.26c-2.991,1.019-6.242-0.58-7.261-3.571
						c-1.019-2.991,0.58-6.242,3.571-7.26C413.655,184.816,416.906,186.415,417.924,189.406z"/>
				</g>
			</g>
		</g>
		<g>
			<g>
				<g>
					<path style="fill:#FAFAFA;" d="M396.395,229.434c1.019,2.991-0.58,6.242-3.571,7.261c-2.991,1.019-6.242-0.58-7.261-3.571
						c-1.019-2.991,0.58-6.242,3.571-7.261C392.125,224.844,395.376,226.442,396.395,229.434z"/>
				</g>
			</g>
		</g>
		<g>
			<g>
				<g>
					<path style="fill:#FAFAFA;" d="M427.904,218.699c1.019,2.991-0.58,6.242-3.571,7.26c-2.991,1.019-6.242-0.58-7.26-3.571
						c-1.019-2.991,0.58-6.242,3.571-7.261C423.634,214.11,426.885,215.708,427.904,218.699z"/>
				</g>
			</g>
		</g>
		<g>
			<g>
				<g>
					<path style="fill:#FAFAFA;" d="M406.374,258.727c1.019,2.991-0.58,6.242-3.571,7.26c-2.991,1.019-6.242-0.58-7.261-3.571
						c-1.019-2.991,0.58-6.242,3.571-7.261C402.104,254.137,405.355,255.736,406.374,258.727z"/>
				</g>
			</g>
		</g>
		<g>
			<g>
				<g>
					<path style="fill:#FAFAFA;" d="M437.883,247.993c1.019,2.991-0.58,6.242-3.571,7.261c-2.991,1.019-6.242-0.58-7.261-3.571
						c-1.019-2.991,0.58-6.242,3.571-7.26C433.614,243.403,436.864,245.002,437.883,247.993z"/>
				</g>
			</g>
		</g>
		<g>
			<g>
				<g>
					<path style="fill:#FAFAFA;" d="M416.354,288.021c1.019,2.991-0.58,6.242-3.571,7.261c-2.991,1.019-6.242-0.58-7.26-3.571
						c-1.019-2.991,0.58-6.242,3.571-7.261C412.084,283.431,415.335,285.03,416.354,288.021z"/>
				</g>
			</g>
		</g>
		<g>
			<g>
				<g>
					<path style="fill:#FAFAFA;" d="M447.863,277.286c1.019,2.991-0.58,6.242-3.571,7.26c-2.991,1.019-6.242-0.58-7.26-3.571
						c-1.019-2.991,0.58-6.242,3.571-7.26C443.593,272.697,446.844,274.296,447.863,277.286z"/>
				</g>
			</g>
		</g>
		<g>
			<g>
				<g>
					<g>
						<path style="fill:#E0E0E0;" d="M383.346,197.068c0.112,0.057-0.888,2.253-2.234,4.905c-1.346,2.653-2.527,4.756-2.639,4.699
							c-0.112-0.057,0.888-2.252,2.234-4.905C382.052,199.115,383.234,197.011,383.346,197.068z"/>
					</g>
				</g>
			</g>
		</g>
		<g>
			<g>
				<g>
					<g>
						<path style="fill:#E0E0E0;" d="M414.202,186.304c0.112,0.057-0.888,2.253-2.234,4.905c-1.346,2.653-2.527,4.756-2.639,4.7
							c-0.112-0.057,0.888-2.253,2.234-4.905C412.908,188.351,414.09,186.247,414.202,186.304z"/>
					</g>
				</g>
			</g>
		</g>
		<g>
			<g>
				<g>
					<g>
						<path style="fill:#E0E0E0;" d="M393.616,226.363c0.115,0.05-0.77,2.356-1.978,5.151c-1.208,2.796-2.28,5.021-2.395,4.971
							c-0.115-0.05,0.77-2.356,1.978-5.151C392.428,228.538,393.5,226.313,393.616,226.363z"/>
					</g>
				</g>
			</g>
		</g>
		<g>
			<g>
				<g>
					<g>
						<path style="fill:#E0E0E0;" d="M424.745,215.561c0.117,0.046-0.647,2.293-1.707,5.018c-1.06,2.727-2.014,4.9-2.131,4.854
							c-0.117-0.045,0.647-2.292,1.707-5.019C423.674,217.689,424.628,215.515,424.745,215.561z"/>
					</g>
				</g>
			</g>
		</g>
		<g>
			<g>
				<g>
					<g>
						<path style="fill:#E0E0E0;" d="M402.656,255.533c0.115,0.05-0.695,2.163-1.81,4.718c-1.115,2.556-2.111,4.587-2.227,4.537
							c-0.115-0.05,0.695-2.163,1.81-4.719C401.544,257.514,402.541,255.483,402.656,255.533z"/>
					</g>
				</g>
			</g>
		</g>
		<g>
			<g>
				<g>
					<g>
						<path style="fill:#E0E0E0;" d="M434.932,245.294c0.111,0.059-0.871,2.134-2.193,4.635c-1.322,2.502-2.484,4.482-2.595,4.423
							c-0.111-0.059,0.87-2.134,2.193-4.636C433.66,247.215,434.821,245.235,434.932,245.294z"/>
					</g>
				</g>
			</g>
		</g>
		<g>
			<g>
				<g>
					<g>
						<path style="fill:#E0E0E0;" d="M413.492,285.239c0.11,0.06-0.951,2.214-2.37,4.811c-1.419,2.597-2.659,4.653-2.769,4.593
							c-0.11-0.06,0.951-2.214,2.37-4.811C412.142,287.235,413.382,285.179,413.492,285.239z"/>
					</g>
				</g>
			</g>
		</g>
		<g>
			<g>
				<g>
					<g>
						<path style="fill:#E0E0E0;" d="M444.931,273.562c0.116,0.048-0.777,2.503-1.995,5.484c-1.218,2.982-2.3,5.36-2.416,5.313
							c-0.116-0.047,0.777-2.503,1.995-5.485C443.733,275.893,444.815,273.514,444.931,273.562z"/>
					</g>
				</g>
			</g>
		</g>
		<g>
			<g>
				<g>
					<g>
						<path style="fill:#E0E0E0;" d="M456.423,292.977c0.04,0.119-9.612,3.515-21.557,7.584
							c-11.949,4.071-21.665,7.273-21.705,7.154c-0.041-0.119,9.61-3.514,21.559-7.584
							C446.665,296.061,456.383,292.858,456.423,292.977z"/>
					</g>
				</g>
			</g>
		</g>
		<g>
			<g>
				<g>
					<g>
						<path style="fill:#E0E0E0;" d="M413.601,175.206c0.041,0.119-9.612,3.514-21.557,7.584
							c-11.949,4.07-21.665,7.273-21.705,7.154c-0.04-0.119,9.61-3.514,21.559-7.584
							C403.843,178.29,413.561,175.087,413.601,175.206z"/>
					</g>
				</g>
			</g>
		</g>
		<g>
			<g>
				<g>
					<g>
						<path style="fill:#E0E0E0;" d="M392.586,188.446c-0.06,0.02-0.118,0.023-0.166,0.012c-0.024-0.006-0.044-0.015-0.061-0.028
							l-0.021-0.021c-0.004-0.005-0.008-0.012-0.008-0.012l-0.003-0.007l-0.001-0.003l-0.001-0.002l0,0l0,0l0.43-0.147l0-0.001
							C392.781,188.311,392.705,188.406,392.586,188.446c-0.119,0.041-0.236,0.012-0.262-0.064l0,0.001l0.431-0.146v0l0,0.001
							l0.001,0.002l0.001,0.004l0.002,0.007c0,0,0.001,0.008,0.001,0.015l-0.004,0.03c-0.005,0.02-0.016,0.04-0.031,0.059
							C392.694,188.392,392.646,188.426,392.586,188.446z"/>
					</g>
				</g>
			</g>
		</g>
		<g>
			<g>
				<g>
					<g>
						<path style="fill:#E0E0E0;" d="M433.319,300.594c-0.119,0.041-9.243-26.427-20.376-59.108
							c-11.137-32.693-20.067-59.22-19.948-59.261c0.119-0.04,9.241,26.421,20.378,59.114
							C424.507,274.021,433.438,300.553,433.319,300.594z"/>
					</g>
				</g>
			</g>
		</g>
	</g>
	<g>
		<g>
			<g>
				<g>
					<path style="fill:#F5F5F5;" d="M305.227,434.983l-2.597,38.974c-0.231,3.461-3.223,6.079-6.684,5.849l-100.669-6.708
						l3.432-51.506l100.668,6.708C302.839,428.53,305.457,431.522,305.227,434.983z"/>
				</g>
			</g>
		</g>
		<g>
			<g>
				<g>
					
						<rect x="232.606" y="437.215" transform="matrix(0.0665 -0.9978 0.9978 0.0665 -227.1041 678.0726)" style="fill:#E0E0E0;" width="32.444" height="46.383"/>
				</g>
			</g>
		</g>
		<g>
			<g>
				<g>
					<path style="fill:#EBEBEB;" d="M207.218,419.781l-3.847,57.724c-0.077,1.155-1.075,2.028-2.23,1.951l-13.697-0.913
						c-1.155-0.077-2.028-1.075-1.951-2.23l3.846-57.724c0.077-1.155,1.075-2.028,2.23-1.951l13.697,0.913
						C206.421,417.628,207.295,418.626,207.218,419.781z"/>
				</g>
			</g>
		</g>
		<g>
			<g>
				<g>
					<g>
						<path style="fill:#E0E0E0;" d="M203.561,474.659c-0.01,0.151-4.021,0.007-8.957-0.322c-4.938-0.329-8.932-0.718-8.922-0.87
							c0.01-0.151,4.02-0.007,8.958,0.322C199.577,474.118,203.571,474.508,203.561,474.659z"/>
					</g>
				</g>
			</g>
		</g>
		<g>
			<g>
				<g>
					<g>
						<path style="fill:#E0E0E0;" d="M203.894,469.664c-0.01,0.151-4.021,0.007-8.957-0.322c-4.938-0.329-8.932-0.718-8.922-0.869
							c0.01-0.151,4.02-0.007,8.958,0.322C199.91,469.124,203.904,469.513,203.894,469.664z"/>
					</g>
				</g>
			</g>
		</g>
		<g>
			<g>
				<g>
					<g>
						<path style="fill:#E0E0E0;" d="M204.227,464.669c-0.01,0.151-4.021,0.007-8.957-0.322c-4.938-0.329-8.932-0.718-8.922-0.869
							c0.01-0.151,4.02-0.007,8.958,0.322C200.242,464.129,204.237,464.518,204.227,464.669z"/>
					</g>
				</g>
			</g>
		</g>
		<g>
			<g>
				<g>
					<g>
						<path style="fill:#E0E0E0;" d="M204.56,459.674c-0.01,0.151-4.021,0.007-8.957-0.322c-4.938-0.329-8.932-0.718-8.922-0.869
							c0.01-0.151,4.02-0.007,8.958,0.322C200.575,459.133,204.57,459.523,204.56,459.674z"/>
					</g>
				</g>
			</g>
		</g>
		<g>
			<g>
				<g>
					<g>
						<path style="fill:#E0E0E0;" d="M204.892,454.679c-0.01,0.151-4.021,0.007-8.957-0.322c-4.938-0.329-8.932-0.718-8.921-0.869
							c0.01-0.151,4.02-0.007,8.958,0.322C200.908,454.138,204.903,454.528,204.892,454.679z"/>
					</g>
				</g>
			</g>
		</g>
		<g>
			<g>
				<g>
					<g>
						<path style="fill:#E0E0E0;" d="M205.225,449.684c-0.01,0.151-4.021,0.007-8.957-0.322c-4.938-0.329-8.932-0.718-8.922-0.869
							c0.01-0.151,4.02-0.007,8.958,0.322C201.241,449.143,205.235,449.533,205.225,449.684z"/>
					</g>
				</g>
			</g>
		</g>
		<g>
			<g>
				<g>
					<g>
						<path style="fill:#E0E0E0;" d="M205.558,444.689c-0.01,0.151-4.021,0.007-8.957-0.322c-4.938-0.329-8.932-0.718-8.921-0.87
							c0.01-0.151,4.02-0.007,8.958,0.322C201.574,444.148,205.568,444.538,205.558,444.689z"/>
					</g>
				</g>
			</g>
		</g>
		<g>
			<g>
				<g>
					<g>
						<path style="fill:#E0E0E0;" d="M205.891,439.694c-0.01,0.151-4.021,0.007-8.957-0.322c-4.938-0.329-8.932-0.718-8.922-0.869
							c0.01-0.151,4.02-0.007,8.958,0.322C201.907,439.153,205.901,439.543,205.891,439.694z"/>
					</g>
				</g>
			</g>
		</g>
		<g>
			<g>
				<g>
					<g>
						<path style="fill:#E0E0E0;" d="M206.224,434.698c-0.01,0.151-4.021,0.007-8.957-0.322c-4.938-0.329-8.932-0.718-8.922-0.869
							c0.01-0.151,4.02-0.007,8.958,0.322C202.239,434.158,206.234,434.547,206.224,434.698z"/>
					</g>
				</g>
			</g>
		</g>
		<g>
			<g>
				<g>
					<g>
						<path style="fill:#E0E0E0;" d="M206.557,429.703c-0.01,0.151-4.021,0.007-8.957-0.322c-4.938-0.329-8.932-0.718-8.921-0.869
							c0.01-0.151,4.02-0.007,8.958,0.322C202.572,429.163,206.567,429.552,206.557,429.703z"/>
					</g>
				</g>
			</g>
		</g>
		<g>
			<g>
				<g>
					<g>
						<path style="fill:#E0E0E0;" d="M206.89,424.708c-0.01,0.151-4.021,0.007-8.957-0.322c-4.938-0.329-8.931-0.718-8.921-0.869
							c0.01-0.151,4.02-0.007,8.958,0.322C202.905,424.168,206.9,424.557,206.89,424.708z"/>
					</g>
				</g>
			</g>
		</g>
		<g>
			<g>
				<g>
					<g>
						<path style="fill:#E0E0E0;" d="M207.222,419.713c-0.01,0.151-4.021,0.007-8.957-0.322c-4.938-0.329-8.932-0.718-8.921-0.869
							c0.01-0.151,4.02-0.007,8.958,0.322C203.238,419.173,207.232,419.562,207.222,419.713z"/>
					</g>
				</g>
			</g>
		</g>
		<g>
			<g>
				<g>
					<g>
						<path style="fill:#EBEBEB;" d="M287.706,456.37l8.938,0.596l-0.658,9.882c-0.111,1.665-1.551,2.926-3.217,2.815l-2.906-0.194
							c-1.665-0.111-2.926-1.551-2.815-3.216L287.706,456.37z"/>
					</g>
				</g>
			</g>
			<g>
				<g>
					<g>
						<path style="fill:#E0E0E0;" d="M296.544,458.466l-8.938-0.596l0.659-9.882c0.111-1.665,1.551-2.926,3.216-2.815l2.906,0.194
							c1.665,0.111,2.926,1.551,2.815,3.217L296.544,458.466z"/>
					</g>
				</g>
			</g>
		</g>
		<g>
			<g>
				<g>
					<g>
						<path style="fill:#EBEBEB;" d="M259.77,439.938l2.316-8.653l9.567,2.561c1.612,0.432,2.57,2.089,2.138,3.701l-0.753,2.814
							c-0.432,1.613-2.089,2.57-3.701,2.138L259.77,439.938z"/>
					</g>
				</g>
			</g>
			<g>
				<g>
					<g>
						<path style="fill:#E0E0E0;" d="M263.539,431.674l-2.316,8.653l-9.567-2.561c-1.612-0.432-2.57-2.089-2.138-3.701l0.753-2.814
							c0.432-1.612,2.089-2.57,3.701-2.138L263.539,431.674z"/>
					</g>
				</g>
			</g>
		</g>
		<g>
			<g>
				<g>
					<g>
						<path style="fill:#EBEBEB;" d="M286.632,442.517l-2.396-8.631l9.543-2.649c1.609-0.446,3.274,0.496,3.721,2.104l0.779,2.807
							c0.446,1.608-0.496,3.274-2.104,3.72L286.632,442.517z"/>
					</g>
				</g>
			</g>
			<g>
				<g>
					<g>
						<path style="fill:#E0E0E0;" d="M285.685,433.484l2.396,8.631l-9.543,2.649c-1.608,0.446-3.274-0.496-3.721-2.104l-0.779-2.807
							c-0.446-1.608,0.496-3.274,2.104-3.721L285.685,433.484z"/>
					</g>
				</g>
			</g>
		</g>
		<g>
			<g>
				<g>
					<g>
						<path style="fill:#EBEBEB;" d="M276.094,454.973l8.294,3.383l-3.74,9.17c-0.63,1.546-2.395,2.288-3.94,1.657l-2.697-1.1
							c-1.546-0.63-2.288-2.395-1.657-3.94L276.094,454.973z"/>
					</g>
				</g>
			</g>
			<g>
				<g>
					<g>
						<path style="fill:#E0E0E0;" d="M283.82,459.748l-8.294-3.383l3.74-9.17c0.63-1.546,2.394-2.287,3.94-1.657l2.697,1.1
							c1.546,0.63,2.287,2.394,1.657,3.94L283.82,459.748z"/>
					</g>
				</g>
			</g>
		</g>
	</g>
	<g>
		<g>
			<g>
				<path style="fill:#EBEBEB;" d="M416.235,75.963l6.716,8.636c0.261,0.335,0.2,0.819-0.135,1.079l-8.682,6.752
					c-2.72,2.115-6.64,1.625-8.756-1.095l0,0c-2.115-2.72-1.625-6.64,1.095-8.756l8.682-6.752
					C415.491,75.567,415.975,75.628,416.235,75.963z"/>
			</g>
		</g>
		<g>
			<g>
				<path style="fill:#E0E0E0;" d="M421.298,85.885l-6.716-8.636c-0.261-0.335-0.2-0.819,0.135-1.079l8.682-6.752
					c2.72-2.115,6.64-1.625,8.755,1.094l0,0c2.116,2.72,1.626,6.641-1.094,8.756l-8.683,6.752
					C422.042,86.281,421.559,86.22,421.298,85.885z"/>
			</g>
		</g>
	</g>
	<g>
		<g>
			<g>
				<path style="fill:#EBEBEB;" d="M31.325,280.765l10.283,3.736c0.399,0.145,0.605,0.586,0.46,0.986l-3.756,10.338
					c-1.177,3.239-4.756,4.91-7.995,3.734l0,0c-3.239-1.177-4.91-4.756-3.733-7.995l3.756-10.338
					C30.484,280.826,30.926,280.62,31.325,280.765z"/>
			</g>
		</g>
		<g>
			<g>
				<path style="fill:#E0E0E0;" d="M40.892,286.47l-10.283-3.736c-0.399-0.145-0.605-0.586-0.46-0.986l3.756-10.338
					c1.177-3.238,4.756-4.91,7.994-3.734l0,0c3.239,1.176,4.911,4.756,3.734,7.995l-3.757,10.338
					C41.733,286.409,41.291,286.615,40.892,286.47z"/>
			</g>
		</g>
	</g>
</g>
<g id="Background_Simple" style="display:none;">
	<g style="display:inline;">
		<path style="fill:#F5F5F5;" d="M410.024,45.625l-1.465,0.18c-12.35,1.515-22.991,9.52-27.337,21.058
			c-0.559,1.483-1.011,3.007-1.346,4.56c-2.413,11.184,1.3,23.535,9.521,31.665c4.835,4.782,11.251,8.401,14.012,14.584
			c3.594,8.048-0.306,17.204-4.149,25.068s-7.722,17.037-4.093,25.069c2.273,5.031,7.162,8.507,12.336,10.516
			c13.7,5.318,29.864,1.387,41.153-7.79c11.289-9.177,18.113-22.896,21.345-37.051c4.528-19.829,2.255-41.651-8.605-59.047
			C450.536,57.043,430.546,44.871,410.024,45.625z"/>
	</g>
	<g style="display:inline;">
		<path style="fill:#F5F5F5;" d="M266.717,416.499l-0.036-1.096c-0.298-9.243-5.516-17.654-13.768-21.64
			c-1.061-0.512-2.159-0.948-3.286-1.3c-8.118-2.532-17.509-0.605-24.075,4.939c-3.862,3.26-6.968,7.77-11.73,9.402
			c-6.197,2.124-12.716-1.373-18.281-4.741c-5.565-3.369-12.098-6.851-18.286-4.7c-3.875,1.347-6.775,4.735-8.607,8.432
			c-4.85,9.787-3.016,22.015,3.025,30.984s15.743,14.934,26.006,18.269c14.378,4.673,30.683,4.444,44.284-2.437
			C255.565,445.729,265.908,431.741,266.717,416.499z"/>
	</g>
	<g style="display:inline;">
		<circle style="fill:#F5F5F5;" cx="435.016" cy="250.248" r="30.571"/>
	</g>
	<g style="display:inline;">
		<circle style="fill:#F5F5F5;" cx="64.756" cy="92.297" r="30.571"/>
	</g>
</g>
<g id="Floor">
	<g>
		<g>
			<path style="fill:#263238;" d="M463.041,478.942c0,0.144-95.837,0.26-214.031,0.26c-118.235,0-214.051-0.117-214.051-0.26
				s95.817-0.26,214.051-0.26C367.204,478.682,463.041,478.798,463.041,478.942z"/>
		</g>
	</g>
</g>
<g id="Medical_Prescription">
	<g>
		<path style="fill:#455A64;" d="M381.286,382.121h-240.97c-5.579,0-10.101-4.522-10.101-10.101V47.268
			c0-5.579,4.522-10.101,10.101-10.101h240.97c5.579,0,10.101,4.522,10.101,10.101V372.02
			C391.387,377.599,386.864,382.121,381.286,382.121z"/>
	</g>
	<g>
		<g>
			<g>
				<g>
					<rect x="147.704" y="53.469" style="fill:#FFFFFF;" width="226.193" height="304.949"/>
				</g>
				<g>
					<g>
						<path style="fill:#263238;" d="M373.897,358.418c-0.002-2.08-0.096-124.386-0.236-304.949l0.235,0.235
							c-67.97,0.007-144.941,0.016-226.167,0.025h-0.025l0.26-0.26c-0.018,113.735-0.034,219.108-0.047,304.949l-0.213-0.213
							C284.696,358.334,372.136,358.416,373.897,358.418c-1.76,0.002-89.201,0.084-226.193,0.213l-0.213,0l0-0.213
							c-0.013-85.84-0.03-191.214-0.047-304.949l0-0.26h0.261h0.025c81.226,0.009,158.198,0.017,226.167,0.025h0.236l0,0.236
							C373.993,234.032,373.899,356.34,373.897,358.418z"/>
					</g>
				</g>
			</g>
			<g>
				<g>
					<path style="fill:#FF725E;" d="M195.324,104.647l-5.278-7.927h-0.313h-5.512v7.927h-6.333V76.19h11.846
						c2.424,0,4.528,0.42,6.314,1.26c1.785,0.84,3.16,2.033,4.124,3.578c0.964,1.545,1.447,3.374,1.447,5.488
						c0,2.114-0.489,3.937-1.466,5.468c-0.977,1.531-2.365,2.703-4.164,3.517l6.138,9.146H195.324z M193.721,82.837
						c-0.991-0.854-2.438-1.28-4.339-1.28h-5.161v9.919h5.161c1.902,0,3.349-0.433,4.339-1.301c0.99-0.867,1.486-2.086,1.486-3.659
						C195.207,84.917,194.711,83.691,193.721,82.837z"/>
				</g>
				<g>
					<path style="fill:#FF725E;" d="M209.171,124.323l-6.261-9.36l-6.149,9.36h-6.89l9.594-13.713l-9.113-13.251h6.816l5.964,8.744
						l5.853-8.744h6.483l-9.039,13.02l9.669,13.944H209.171z"/>
				</g>
			</g>
			<g>
				<g>
					<rect x="256.53" y="82.995" style="fill:#E0E0E0;" width="38.816" height="9.61"/>
				</g>
				<g>
					<g>
						<path style="fill:#263238;" d="M352.275,89.063c0,0.144-10.618,0.26-23.713,0.26c-13.1,0-23.716-0.117-23.716-0.26
							c0-0.144,10.616-0.26,23.716-0.26C341.657,88.802,352.275,88.919,352.275,89.063z"/>
					</g>
				</g>
				<g>
					<g>
						<path style="fill:#263238;" d="M351.389,100.585c0,0.144-21.236,0.26-47.427,0.26c-26.199,0-47.431-0.117-47.431-0.26
							c0-0.144,21.232-0.26,47.431-0.26C330.152,100.325,351.389,100.441,351.389,100.585z"/>
					</g>
				</g>
				<g>
					<g>
						<path style="fill:#263238;" d="M351.389,111.875c0,0.144-21.236,0.261-47.427,0.261c-26.199,0-47.431-0.117-47.431-0.261
							c0-0.144,21.232-0.26,47.431-0.26C330.152,111.615,351.389,111.732,351.389,111.875z"/>
					</g>
				</g>
			</g>
			<g>
				<g>
					<path style="fill:#263238;" d="M366.185,141.975c0,0.144-47.186,0.26-105.379,0.26c-58.214,0-105.39-0.117-105.39-0.26
						s47.176-0.26,105.39-0.26C318.999,141.715,366.185,141.831,366.185,141.975z"/>
				</g>
			</g>
			<g>
				<g>
					<path style="fill:#263238;" d="M366.185,312.456c0,0.144-47.186,0.26-105.379,0.26c-58.214,0-105.39-0.116-105.39-0.26
						c0-0.144,47.176-0.26,105.39-0.26C318.999,312.195,366.185,312.312,366.185,312.456z"/>
				</g>
			</g>
			<g>
				<rect x="172.78" y="159.234" style="fill:#E0E0E0;" width="65.034" height="12.197"/>
			</g>
			<g>
				<rect x="172.78" y="329.862" style="fill:#E0E0E0;" width="28.155" height="12.197"/>
			</g>
			<g>
				<rect x="267.296" y="329.862" style="fill:#E0E0E0;" width="28.155" height="12.197"/>
			</g>
			<g>
				<g>
					<path style="fill:#263238;" d="M248.111,338.311c0,0.144-8.791,0.26-19.633,0.26c-10.846,0-19.635-0.117-19.635-0.26
						s8.789-0.26,19.635-0.26C239.32,338.051,248.111,338.168,248.111,338.311z"/>
				</g>
			</g>
			<g>
				<g>
					<path style="fill:#263238;" d="M349.189,338.311c0,0.144-8.791,0.26-19.633,0.26c-10.846,0-19.635-0.117-19.635-0.26
						s8.789-0.26,19.635-0.26C340.398,338.051,349.189,338.168,349.189,338.311z"/>
				</g>
			</g>
			<g>
				<g>
					<path style="fill:#263238;" d="M346.857,189.798c0,0.144-38.522,0.26-86.031,0.26c-47.525,0-86.039-0.117-86.039-0.26
						c0-0.144,38.514-0.26,86.039-0.26C308.334,189.538,346.857,189.654,346.857,189.798z"/>
				</g>
			</g>
			<g>
				<g>
					<path style="fill:#263238;" d="M350.204,203.722c0,0.144-39.272,0.26-87.705,0.26c-48.45,0-87.713-0.117-87.713-0.26
						c0-0.144,39.264-0.26,87.713-0.26C310.932,203.462,350.204,203.578,350.204,203.722z"/>
				</g>
			</g>
			<g>
				<g>
					<path style="fill:#263238;" d="M259.817,217.646c0,0.144-19.486,0.26-43.518,0.26c-24.04,0-43.522-0.117-43.522-0.26
						s19.482-0.26,43.522-0.26C240.331,217.385,259.817,217.502,259.817,217.646z"/>
				</g>
			</g>
			<g>
				<g>
					<path style="fill:#263238;" d="M348.91,268.155c0,0-0.192,0.075-0.576,0.197c-0.383,0.121-0.953,0.303-1.707,0.517
						c-1.507,0.43-3.738,1.067-6.682,1.563c-1.47,0.248-3.124,0.451-4.945,0.465c-1.816,0.018-3.813-0.135-5.865-0.727
						c-2.051-0.582-4.125-1.662-5.935-3.287c-1.764-1.65-3.199-3.965-3.575-6.669c-0.174-1.342-0.064-2.781,0.499-4.107
						c0.571-1.312,1.527-2.49,2.777-3.312c1.232-0.831,2.832-1.266,4.388-0.932c0.772,0.183,1.482,0.559,2.124,1.037
						c0.616,0.514,1.123,1.15,1.521,1.853c0.749,1.434,1.072,3.072,1.067,4.714c0.012,1.645-0.296,3.315-0.904,4.899
						c-1.262,3.127-3.388,6.03-6.225,8.186c-1.401,1.103-2.985,1.985-4.647,2.732c-1.694,0.66-3.458,1.258-5.318,1.464
						c-1.844,0.236-3.755,0.286-5.633-0.064c-0.951-0.101-1.862-0.43-2.789-0.678c-0.89-0.367-1.807-0.688-2.654-1.172
						c-1.696-0.952-3.247-2.203-4.516-3.728c-1.256-1.525-2.252-3.333-2.665-5.323c-0.455-1.963-0.268-4.15,0.704-5.981
						c0.938-1.833,2.485-3.381,4.416-4.224c0.958-0.428,2.032-0.63,3.085-0.532c1.051,0.097,2.074,0.485,2.916,1.099
						c1.717,1.236,2.681,3.197,3.162,5.134c0.482,1.959,0.557,3.984,0.327,5.939c-0.203,1.958-0.635,3.875-1.288,5.698
						c-1.287,3.645-3.423,6.95-6.281,9.367c-2.829,2.456-6.42,3.836-9.975,4.084c-3.557,0.272-7.132-0.66-9.889-2.65
						c-2.766-1.991-4.606-4.925-5.486-7.961c-0.883-3.04-0.81-6.283,0.336-9.019c0.539-1.384,1.46-2.59,2.623-3.432
						c0.585-0.414,1.25-0.733,1.965-0.839c0.715-0.104,1.456,0.047,2.064,0.398c1.266,0.713,1.806,2.126,1.98,3.377
						c0.18,1.281,0.094,2.551-0.15,3.732c-0.427,2.376-1.158,4.548-2.045,6.479c-0.882,1.936-1.937,3.623-3.037,5.07
						c-1.097,1.45-2.222,2.684-3.335,3.681c-2.201,2.028-4.221,3.222-5.621,3.922c-0.69,0.377-1.256,0.581-1.624,0.741
						c-0.372,0.154-0.566,0.22-0.566,0.22s0.182-0.1,0.546-0.269c0.361-0.177,0.917-0.395,1.596-0.785
						c1.379-0.727,3.368-1.942,5.531-3.977c1.094-1.001,2.198-2.235,3.274-3.681c1.079-1.443,2.112-3.122,2.971-5.043
						c0.865-1.916,1.575-4.067,1.984-6.415c0.234-1.164,0.308-2.395,0.13-3.622c-0.173-1.205-0.693-2.49-1.816-3.109
						c-0.545-0.31-1.191-0.439-1.828-0.345c-0.637,0.097-1.25,0.39-1.796,0.78c-1.088,0.795-1.967,1.947-2.475,3.269
						c-1.098,2.646-1.161,5.793-0.294,8.747c0.864,2.95,2.665,5.796,5.338,7.708c2.667,1.916,6.132,2.815,9.589,2.544
						c3.456-0.249,6.94-1.593,9.686-3.985c2.779-2.355,4.866-5.588,6.122-9.158c0.638-1.785,1.06-3.664,1.257-5.581
						c0.224-1.91,0.146-3.874-0.318-5.759c-0.464-1.865-1.386-3.706-2.963-4.837c-1.556-1.15-3.701-1.345-5.492-0.511
						c-1.8,0.784-3.275,2.252-4.158,3.982c-0.915,1.729-1.092,3.754-0.661,5.637c0.83,3.807,3.664,6.889,6.922,8.713
						c0.819,0.469,1.709,0.779,2.571,1.138c0.9,0.24,1.782,0.563,2.707,0.661c1.824,0.344,3.684,0.296,5.483,0.069
						c1.814-0.197,3.538-0.781,5.193-1.421c1.624-0.727,3.174-1.586,4.545-2.662c2.776-2.102,4.853-4.93,6.091-7.973
						c0.59-1.524,0.894-3.143,0.885-4.732c0.01-1.587-0.302-3.159-1.002-4.509c-0.373-0.66-0.842-1.252-1.408-1.728
						c-0.589-0.439-1.247-0.792-1.95-0.961c-1.418-0.308-2.907,0.079-4.075,0.861c-1.184,0.771-2.099,1.89-2.643,3.128
						c-0.535,1.245-0.65,2.618-0.488,3.907c0.348,2.597,1.727,4.861,3.437,6.475c1.754,1.591,3.78,2.664,5.789,3.248
						c2.012,0.595,3.983,0.761,5.781,0.758c1.804,0.001,3.449-0.185,4.915-0.417c2.935-0.463,5.172-1.067,6.686-1.464
						c0.743-0.202,1.314-0.357,1.721-0.467C348.707,268.196,348.91,268.155,348.91,268.155z"/>
				</g>
			</g>
		</g>
	</g>
	<g>
		<g>
			<rect x="223.06" y="34.236" style="fill:#E0E0E0;" width="75.481" height="28.856"/>
		</g>
		<g>
			<g>
				<path style="fill:#263238;" d="M298.542,63.092c0,0-0.012-0.183-0.018-0.522c-0.005-0.358-0.011-0.855-0.019-1.498
					c-0.01-1.33-0.025-3.256-0.044-5.733c-0.023-4.979-0.056-12.169-0.097-21.103l0.179,0.179
					c-18.864,0.02-45.715,0.049-75.476,0.081h-0.002h-0.001h-0.001h0h0l0.26-0.26c-0.004,10.082-0.007,19.83-0.01,28.856l-0.25-0.25
					c21.798,0.047,40.631,0.088,54.039,0.117c6.701,0.03,12.044,0.053,15.736,0.07c1.826,0.014,3.242,0.024,4.225,0.032
					c0.469,0.007,0.831,0.012,1.098,0.016C298.407,63.082,298.542,63.092,298.542,63.092c0.005,0.005-0.114,0.01-0.352,0.016
					c-0.26,0.004-0.612,0.009-1.069,0.016c-0.97,0.007-2.369,0.018-4.173,0.032c-3.678,0.016-9.002,0.04-15.678,0.07
					c-13.45,0.029-32.343,0.07-54.209,0.117l-0.25,0l0-0.251c-0.003-9.026-0.007-18.774-0.01-28.856l0.261-0.261h0h0.001h0.001
					h0.002c29.761,0.032,56.612,0.061,75.476,0.081l0.18,0l-0.001,0.179c-0.041,8.98-0.074,16.206-0.097,21.211
					c-0.019,2.46-0.034,4.373-0.044,5.693c-0.008,0.629-0.015,1.116-0.019,1.465C298.554,62.934,298.542,63.092,298.542,63.092z"/>
			</g>
		</g>
	</g>
</g>
<g id="Medication">
	<g>
		<g>
			<path style="fill:#FF725E;" d="M388.943,478.503h-48.88c-2.18,0-3.952-1.757-3.972-3.936l-1.184-131.827h56.824l1.184,131.756
				C392.934,476.702,391.15,478.503,388.943,478.503z"/>
		</g>
		<g style="opacity:0.3;">
			<path style="fill:#FFFFFF;" d="M381.753,371.977V473.49c0,0,7.994,2.66,8.389-4.344c0.395-7.004,0.175-97.169,0.175-97.169
				H381.753z"/>
		</g>
		<g>
			<g>
				<g>
					<path style="fill:#FAFAFA;" d="M386.344,336.055h-46.05c-1.649,0-2.986,1.337-2.986,2.986v2.916h52.023v-2.916
						C389.33,337.392,387.993,336.055,386.344,336.055z"/>
				</g>
				<g>
					<g>
						<path style="fill:#263238;" d="M386.344,336.055c0,0,0.17-0.034,0.5,0.01c0.324,0.047,0.831,0.16,1.361,0.558
							c0.522,0.384,1.074,1.082,1.202,2.06c0.055,0.965,0.033,2.04,0.052,3.274l0.002,0.128l-0.131,0.001
							c-9.531,0.079-27.937,0.132-49.034,0.132c-1.024,0-2.042,0-2.989,0h-0.26v-0.26c0-0.935,0.001-1.865,0.001-2.787
							c-0.043-0.984,0.41-1.998,1.172-2.623c0.38-0.315,0.832-0.538,1.308-0.654c0.487-0.126,0.968-0.087,1.4-0.093
							c0.894,0.001,1.781,0.002,2.659,0.003c3.512,0.006,6.894,0.011,10.112,0.017c6.425,0.021,12.193,0.04,17.041,0.056
							c4.808,0.034,8.699,0.062,11.429,0.081c1.317,0.02,2.352,0.036,3.097,0.047c0.33,0.01,0.594,0.018,0.804,0.025
							C386.251,336.038,386.344,336.046,386.344,336.055s-0.093,0.017-0.274,0.026c-0.21,0.007-0.474,0.015-0.804,0.025
							c-0.744,0.011-1.78,0.027-3.097,0.048c-2.73,0.019-6.621,0.047-11.429,0.081c-4.848,0.016-10.616,0.035-17.041,0.057
							c-3.218,0.005-6.6,0.011-10.112,0.016c-0.878,0.001-1.765,0.002-2.659,0.003c-0.459,0.005-0.888-0.025-1.279,0.081
							c-0.4,0.098-0.779,0.286-1.099,0.551c-1.442,1.091-0.861,3.186-0.983,5.014l-0.26-0.26c0.948,0,1.965,0,2.989,0
							c21.097,0,39.503,0.053,49.034,0.132l-0.129,0.129c0-1.224,0.04-2.332,0.008-3.251c-0.1-0.917-0.601-1.591-1.088-1.975
							C387.092,335.963,386.315,336.122,386.344,336.055z"/>
					</g>
				</g>
			</g>
			<g>
				<g>
					<path style="fill:#FAFAFA;" d="M395.072,371.977h-63.507c-1.459,0-2.641-1.183-2.641-2.641v-26.127
						c0-1.459,1.183-2.641,2.641-2.641h63.507c1.459,0,2.641,1.183,2.641,2.641v26.127
						C397.714,370.794,396.531,371.977,395.072,371.977z"/>
				</g>
				<g>
					<g>
						<path style="fill:#263238;" d="M395.072,371.977c-0.001-0.018,0.173-0.007,0.497-0.075c0.318-0.07,0.807-0.235,1.272-0.68
							c1.164-0.88,0.697-3.006,0.771-5.434c-0.02-4.978-0.048-12.143-0.083-20.987c-0.003-0.552-0.006-1.11-0.009-1.675
							c-0.013-0.528-0.216-1.048-0.553-1.466c-0.345-0.412-0.826-0.72-1.363-0.835c-0.52-0.104-1.151-0.039-1.748-0.056
							c-2.419,0.005-4.934,0.01-7.539,0.015c-5.211,0.008-10.777,0.016-16.634,0.024c-11.718,0.006-24.596,0.013-38.115,0.02
							c-0.766-0.003-1.513,0.383-1.948,1.008c-0.224,0.306-0.358,0.671-0.413,1.044c-0.046,0.356-0.018,0.809-0.026,1.217
							c0,1.669-0.001,3.328-0.001,4.974c-0.001,3.293-0.003,6.537-0.004,9.725c-0.002,3.188-0.004,6.319-0.006,9.386l-0.001,1.147
							c-0.001,0.348,0.075,0.691,0.218,1.003c0.285,0.624,0.846,1.119,1.503,1.303c0.331,0.101,0.656,0.102,1.043,0.099l1.115,0.001
							c0.741,0.001,1.478,0.002,2.21,0.002c11.713,0.021,22.262,0.04,31.129,0.056c8.844,0.035,16.009,0.063,20.986,0.083
							c2.46,0.021,4.378,0.038,5.706,0.049c0.635,0.011,1.128,0.02,1.484,0.026C394.901,371.959,395.072,371.977,395.072,371.977
							s-0.171,0.018-0.506,0.027c-0.356,0.006-0.849,0.015-1.484,0.026c-1.328,0.011-3.246,0.028-5.706,0.049
							c-4.978,0.02-12.142,0.048-20.986,0.083c-8.868,0.016-19.417,0.035-31.129,0.056c-0.732,0.001-1.469,0.001-2.21,0.002
							l-1.115,0.001c-0.356,0.005-0.79,0.005-1.18-0.116c-0.792-0.222-1.468-0.814-1.814-1.567
							c-0.174-0.376-0.266-0.793-0.265-1.208l-0.001-1.147c-0.002-3.067-0.004-6.198-0.006-9.386
							c-0.001-3.188-0.003-6.432-0.004-9.725c0-1.646-0.001-3.305-0.001-4.974c0.01-0.426-0.025-0.812,0.03-1.288
							c0.065-0.454,0.231-0.899,0.503-1.273c0.528-0.76,1.442-1.233,2.373-1.228c13.518,0.007,26.397,0.014,38.115,0.02
							c5.857,0.008,11.423,0.017,16.634,0.024c2.604,0.005,5.12,0.01,7.539,0.015c0.608,0.023,1.187-0.051,1.833,0.073
							c0.624,0.137,1.18,0.497,1.576,0.975c0.389,0.484,0.619,1.09,0.631,1.698c0,0.569,0,1.132,0,1.687
							c-0.035,8.844-0.063,16.009-0.083,20.987c-0.009,1.236-0.017,2.336-0.024,3.293c0.056,0.98-0.381,1.786-0.878,2.218
							c-0.496,0.45-1.006,0.601-1.334,0.656C395.245,372.006,395.072,371.977,395.072,371.977z"/>
					</g>
				</g>
			</g>
			<g>
				<g>
					<path style="fill:#263238;" d="M332.916,371.46c-0.144,0-0.26-6.686-0.26-14.932c0-8.249,0.116-14.933,0.26-14.933
						c0.144,0,0.26,6.685,0.26,14.933C333.177,364.774,333.06,371.46,332.916,371.46z"/>
				</g>
			</g>
			<g>
				<g>
					<path style="fill:#263238;" d="M338.119,371.46c-0.144,0-0.26-6.686-0.26-14.932c0-8.249,0.117-14.933,0.26-14.933
						s0.26,6.685,0.26,14.933C338.379,364.774,338.262,371.46,338.119,371.46z"/>
				</g>
			</g>
			<g>
				<g>
					<path style="fill:#263238;" d="M343.321,371.46c-0.144,0-0.26-6.686-0.26-14.932c0-8.249,0.117-14.933,0.26-14.933
						c0.144,0,0.26,6.685,0.26,14.933C343.581,364.774,343.465,371.46,343.321,371.46z"/>
				</g>
			</g>
			<g>
				<g>
					<path style="fill:#263238;" d="M348.523,371.46c-0.144,0-0.26-6.686-0.26-14.932c0-8.249,0.117-14.933,0.26-14.933
						s0.26,6.685,0.26,14.933C348.784,364.774,348.667,371.46,348.523,371.46z"/>
				</g>
			</g>
			<g>
				<g>
					<path style="fill:#263238;" d="M353.726,371.46c-0.144,0-0.26-6.686-0.26-14.932c0-8.249,0.117-14.933,0.26-14.933
						s0.26,6.685,0.26,14.933C353.986,364.774,353.869,371.46,353.726,371.46z"/>
				</g>
			</g>
			<g>
				<g>
					<path style="fill:#263238;" d="M358.928,371.46c-0.144,0-0.261-6.686-0.261-14.932c0-8.249,0.117-14.933,0.261-14.933
						c0.144,0,0.26,6.685,0.26,14.933C359.188,364.774,359.072,371.46,358.928,371.46z"/>
				</g>
			</g>
			<g>
				<g>
					<path style="fill:#263238;" d="M364.13,371.46c-0.144,0-0.26-6.686-0.26-14.932c0-8.249,0.117-14.933,0.26-14.933
						c0.144,0,0.26,6.685,0.26,14.933C364.391,364.774,364.274,371.46,364.13,371.46z"/>
				</g>
			</g>
			<g>
				<g>
					<path style="fill:#263238;" d="M369.333,371.46c-0.144,0-0.26-6.686-0.26-14.932c0-8.249,0.117-14.933,0.26-14.933
						c0.144,0,0.26,6.685,0.26,14.933C369.593,364.774,369.476,371.46,369.333,371.46z"/>
				</g>
			</g>
			<g>
				<g>
					<path style="fill:#263238;" d="M374.535,371.46c-0.144,0-0.26-6.686-0.26-14.932c0-8.249,0.117-14.933,0.26-14.933
						c0.144,0,0.26,6.685,0.26,14.933C374.795,364.774,374.679,371.46,374.535,371.46z"/>
				</g>
			</g>
			<g>
				<g>
					<path style="fill:#263238;" d="M379.737,371.46c-0.144,0-0.26-6.686-0.26-14.932c0-8.249,0.117-14.933,0.26-14.933
						c0.144,0,0.26,6.685,0.26,14.933C379.997,364.774,379.881,371.46,379.737,371.46z"/>
				</g>
			</g>
			<g>
				<g>
					<path style="fill:#263238;" d="M384.939,371.46c-0.144,0-0.26-6.686-0.26-14.932c0-8.249,0.117-14.933,0.26-14.933
						c0.144,0,0.26,6.685,0.26,14.933C385.2,364.774,385.083,371.46,384.939,371.46z"/>
				</g>
			</g>
			<g>
				<g>
					<path style="fill:#263238;" d="M390.142,371.46c-0.144,0-0.26-6.686-0.26-14.932c0-8.249,0.117-14.933,0.26-14.933
						s0.26,6.685,0.26,14.933C390.402,364.774,390.286,371.46,390.142,371.46z"/>
				</g>
			</g>
			<g>
				<g>
					<path style="fill:#263238;" d="M395.344,371.46c-0.144,0-0.26-6.686-0.26-14.932c0-8.249,0.117-14.933,0.26-14.933
						s0.26,6.685,0.26,14.933C395.604,364.774,395.488,371.46,395.344,371.46z"/>
				</g>
			</g>
		</g>
		<g>
			<g>
				<rect x="339.358" y="395.636" style="fill:#FFFFFF;" width="49.186" height="39.385"/>
			</g>
			<g>
				<g>
					<path style="fill:#263238;" d="M347.807,408.178l-1.145-1.653h-0.067h-1.196v1.653h-1.373v-5.936h2.569
						c0.525,0,0.981,0.088,1.369,0.263c0.387,0.176,0.686,0.424,0.895,0.746c0.209,0.322,0.313,0.704,0.313,1.145
						c0,0.44-0.105,0.82-0.318,1.14c-0.212,0.319-0.513,0.564-0.902,0.733l1.331,1.908H347.807z M347.46,403.629
						c-0.215-0.179-0.528-0.268-0.941-0.268h-1.119v2.069h1.119c0.413,0,0.727-0.091,0.941-0.272
						c0.215-0.181,0.322-0.436,0.322-0.763C347.782,404.063,347.674,403.807,347.46,403.629z"/>
				</g>
				<g>
					<path style="fill:#263238;" d="M350.811,412.281l-1.357-1.952l-1.334,1.952h-1.494l2.081-2.86l-1.977-2.764h1.478l1.294,1.824
						l1.27-1.824h1.406l-1.961,2.716l2.098,2.908H350.811z"/>
				</g>
			</g>
			<g>
				<rect x="356.852" y="402.225" style="fill:#E0E0E0;" width="28.088" height="4.27"/>
			</g>
			<g>
				<g>
					<path style="fill:#263238;" d="M381.753,417.096c0,0.144-8.204,0.26-18.321,0.26c-10.121,0-18.323-0.117-18.323-0.26
						s8.202-0.26,18.323-0.26C373.549,416.836,381.753,416.953,381.753,417.096z"/>
				</g>
			</g>
			<g>
				<g>
					<path style="fill:#263238;" d="M381.753,421.544c0,0.144-8.204,0.26-18.321,0.26c-10.121,0-18.323-0.116-18.323-0.26
						c0-0.144,8.202-0.26,18.323-0.26C373.549,421.284,381.753,421.401,381.753,421.544z"/>
				</g>
			</g>
			<g>
				<rect x="342.465" y="427.107" style="fill:#E0E0E0;" width="18.98" height="3.66"/>
			</g>
		</g>
		<g>
			<g>
				<path style="fill:#263238;" d="M387.431,433.814c0,0-0.016-0.247-0.024-0.703c-0.006-0.478-0.014-1.145-0.025-2.003
					c-0.013-1.77-0.032-4.323-0.056-7.567c-0.027-6.517-0.065-15.805-0.112-27.002l0.216,0.216
					c-13.471,0.013-29.689,0.028-47.147,0.044c-0.061,0.055,0.489-0.491,0.256-0.255v0.01v0.02v0.039v0.079v0.158v0.315v0.629
					l0,1.255c0,0.835,0,1.667,0,2.495c-0.001,1.657-0.001,3.301-0.001,4.929c-0.002,3.257-0.004,6.455-0.005,9.58
					c-0.007,6.249-0.014,12.205-0.02,17.761l-0.233-0.233c13.96,0.048,25.714,0.088,34.006,0.117
					c4.134,0.026,7.404,0.047,9.668,0.062c1.105,0.012,1.965,0.021,2.574,0.028c0.278,0.006,0.497,0.01,0.668,0.013
					C387.348,433.805,387.427,433.81,387.431,433.814c0.005,0.004-0.066,0.009-0.208,0.013c-0.165,0.003-0.375,0.008-0.642,0.013
					c-0.598,0.007-1.442,0.016-2.528,0.028c-2.252,0.014-5.504,0.035-9.616,0.062c-8.329,0.029-20.135,0.069-34.157,0.117
					l-0.233,0.001l0-0.234c-0.006-5.556-0.013-11.512-0.02-17.761c-0.002-3.125-0.004-6.323-0.005-9.58
					c0-1.629-0.001-3.272-0.001-4.929c0-0.828,0-1.66,0-2.495l0-1.255v-0.629v-0.315v-0.158v-0.079v-0.039v-0.02v-0.01
					c-0.233,0.229,0.317-0.324,0.264-0.266c17.458,0.016,33.677,0.032,47.147,0.044l0.217,0l-0.001,0.216
					c-0.046,11.254-0.085,20.588-0.112,27.138c-0.024,3.223-0.043,5.76-0.056,7.519c-0.01,0.84-0.019,1.494-0.025,1.962
					C387.447,433.599,387.431,433.814,387.431,433.814z"/>
			</g>
		</g>
		<g>
			<g>
				<path style="fill:#FFFFFF;" d="M338.119,467.752c-0.144,0-0.26-20.561-0.26-45.918c0-25.366,0.117-45.922,0.26-45.922
					s0.26,20.556,0.26,45.922C338.379,447.191,338.262,467.752,338.119,467.752z"/>
			</g>
		</g>
		<g>
			<g>
				<path style="fill:#263238;" d="M388.597,476.361c0,0.144-10.73,0.26-23.964,0.26c-13.238,0-23.966-0.117-23.966-0.26
					s10.728-0.26,23.966-0.26C377.867,476.1,388.597,476.217,388.597,476.361z"/>
			</g>
		</g>
	</g>
	<g>
		<g>
			<path style="fill:#455A64;" d="M437.347,478.438h-39.598c-1.766,0-3.202-1.423-3.217-3.189l-0.959-106.793h46.034l0.959,106.736
				C440.58,476.979,439.135,478.438,437.347,478.438z"/>
		</g>
		<g style="opacity:0.3;">
			<path style="fill:#FFFFFF;" d="M431.522,392.141v82.236c0,0,6.476,2.155,6.796-3.519c0.32-5.674,0.142-78.717,0.142-78.717
				H431.522z"/>
		</g>
		<g>
			<g>
				<g>
					<path style="fill:#FAFAFA;" d="M434.674,363.04h-36.171c-1.649,0-2.986,1.337-2.986,2.986v1.795h42.144v-1.795
						C437.661,364.378,436.324,363.04,434.674,363.04z"/>
				</g>
				<g>
					<g>
						<path style="fill:#263238;" d="M434.674,363.04c0,0,0.145-0.029,0.429-0.002c0.282,0.026,0.712,0.114,1.196,0.403
							c0.479,0.284,1.014,0.8,1.296,1.589c0.147,0.386,0.192,0.857,0.182,1.312c0.005,0.464,0.01,0.957,0.015,1.478l0.001,0.131
							l-0.134,0.001c-7.79,0.077-22.422,0.128-39.155,0.128c-1.024,0-2.04,0-2.989,0l-0.265,0l0.006-0.26
							c0.016-0.761-0.035-1.451,0.037-2.255c0.11-0.792,0.525-1.529,1.132-2.03c0.601-0.507,1.398-0.765,2.156-0.751
							c0.712,0.001,1.418,0.002,2.117,0.003c2.796,0.006,5.486,0.012,8.046,0.017c5.107,0.021,9.689,0.04,13.545,0.057
							c3.806,0.034,6.89,0.061,9.073,0.081c1.033,0.02,1.852,0.036,2.456,0.047C434.381,363.006,434.674,363.023,434.674,363.04
							c0,0.017-0.294,0.034-0.855,0.05c-0.604,0.012-1.423,0.027-2.456,0.047c-2.183,0.02-5.267,0.047-9.073,0.081
							c-3.856,0.016-8.438,0.035-13.545,0.057c-2.56,0.005-5.251,0.011-8.046,0.017c-0.699,0.001-1.405,0.002-2.117,0.003
							c-0.665-0.009-1.315,0.208-1.826,0.636c-0.511,0.423-0.858,1.043-0.949,1.708c-0.061,0.659-0.016,1.454-0.03,2.182l-0.26-0.26
							c0.949,0,1.965,0,2.989-0.001c16.733,0,31.365,0.051,39.155,0.128l-0.132,0.132c0.005-0.521,0.01-1.013,0.015-1.478
							c0.018-0.468-0.013-0.873-0.141-1.246c-0.243-0.743-0.731-1.249-1.177-1.537C435.3,362.983,434.656,363.101,434.674,363.04z"
							/>
					</g>
				</g>
			</g>
			<g>
				<g>
					<path style="fill:#FAFAFA;" d="M441.811,392.141h-50.444c-1.459,0-2.641-1.183-2.641-2.641v-20.162
						c0-1.459,1.183-2.641,2.641-2.641h50.444c1.459,0,2.641,1.183,2.641,2.641v20.162
						C444.452,390.958,443.27,392.141,441.811,392.141z"/>
				</g>
				<g>
					<g>
						<path style="fill:#263238;" d="M441.811,392.141c-0.02-0.052,0.605,0.068,1.476-0.516c0.414-0.297,0.856-0.813,1.02-1.548
							c0.09-0.361,0.054-0.772,0.056-1.218c-0.004-0.444-0.008-0.915-0.012-1.413c-0.02-4.021-0.048-9.791-0.083-16.91
							c-0.005-0.441,0.005-0.909-0.012-1.343c-0.02-0.425-0.166-0.842-0.402-1.204c-0.485-0.732-1.356-1.164-2.298-1.092
							c-1.949,0.005-3.976,0.01-6.074,0.015c-4.199,0.008-8.684,0.016-13.402,0.024c-9.442,0.006-19.817,0.013-30.709,0.02
							c-1.252-0.031-2.374,1.065-2.381,2.299c-0.002,1.342-0.004,2.675-0.005,3.999c-0.001,2.653-0.003,5.267-0.004,7.835
							c-0.002,2.568-0.004,5.091-0.006,7.563c0.012,0.633-0.06,1.224,0.168,1.729c0.204,0.514,0.589,0.953,1.069,1.218
							c0.498,0.278,1.008,0.321,1.629,0.299c0.597,0.001,1.191,0.002,1.781,0.002c9.435,0.021,17.933,0.04,25.081,0.056
							c7.119,0.035,12.888,0.063,16.909,0.083c1.974,0.021,3.518,0.038,4.597,0.049c0.505,0.011,0.901,0.02,1.195,0.026
							C441.673,392.123,441.811,392.132,441.811,392.141s-0.138,0.018-0.407,0.027c-0.294,0.006-0.69,0.015-1.195,0.026
							c-1.079,0.012-2.623,0.028-4.597,0.049c-4.02,0.02-9.79,0.048-16.909,0.083c-7.148,0.016-15.646,0.035-25.081,0.056
							c-0.59,0.001-1.184,0.002-1.781,0.002c-0.566,0.027-1.3-0.021-1.865-0.356c-0.58-0.318-1.044-0.844-1.292-1.465
							c-0.126-0.31-0.195-0.644-0.201-0.979l-0.005-0.931c-0.002-2.471-0.004-4.994-0.006-7.563
							c-0.001-2.569-0.003-5.183-0.004-7.835c0.001-1.329,0.002-2.668,0.004-4.016c0.008-1.505,1.375-2.839,2.901-2.802
							c10.891,0.007,21.267,0.014,30.709,0.021c4.718,0.008,9.203,0.016,13.402,0.024c2.098,0.005,4.125,0.01,6.074,0.015
							c1.013-0.079,2.085,0.432,2.62,1.282c0.271,0.421,0.437,0.906,0.457,1.395c0.015,0.478,0.002,0.914,0.004,1.365
							c-0.035,7.119-0.063,12.889-0.083,16.91c-0.004,0.498-0.008,0.969-0.012,1.413c-0.01,0.436,0.02,0.863-0.084,1.253
							c-0.191,0.775-0.671,1.305-1.111,1.599c-0.449,0.297-0.859,0.389-1.127,0.422C441.95,392.166,441.811,392.141,441.811,392.141
							z"/>
					</g>
				</g>
			</g>
			<g>
				<g>
					<path style="fill:#263238;" d="M391.96,391.722c-0.144,0-0.26-5.416-0.26-12.096c0-6.682,0.117-12.097,0.26-12.097
						s0.26,5.415,0.26,12.097C392.22,386.306,392.104,391.722,391.96,391.722z"/>
				</g>
			</g>
			<g>
				<g>
					<path style="fill:#263238;" d="M396.174,391.722c-0.144,0-0.26-5.416-0.26-12.096c0-6.682,0.117-12.097,0.26-12.097
						s0.26,5.415,0.26,12.097C396.435,386.306,396.318,391.722,396.174,391.722z"/>
				</g>
			</g>
			<g>
				<g>
					<path style="fill:#263238;" d="M400.389,391.722c-0.144,0-0.26-5.416-0.26-12.096c0-6.682,0.117-12.097,0.26-12.097
						s0.26,5.415,0.26,12.097C400.649,386.306,400.533,391.722,400.389,391.722z"/>
				</g>
			</g>
			<g>
				<g>
					<path style="fill:#263238;" d="M404.603,391.722c-0.144,0-0.26-5.416-0.26-12.096c0-6.682,0.117-12.097,0.26-12.097
						s0.26,5.415,0.26,12.097C404.863,386.306,404.747,391.722,404.603,391.722z"/>
				</g>
			</g>
			<g>
				<g>
					<path style="fill:#263238;" d="M408.818,391.722c-0.144,0-0.26-5.416-0.26-12.096c0-6.682,0.117-12.097,0.26-12.097
						c0.144,0,0.26,5.415,0.26,12.097C409.078,386.306,408.961,391.722,408.818,391.722z"/>
				</g>
			</g>
			<g>
				<g>
					<path style="fill:#263238;" d="M413.032,391.722c-0.144,0-0.26-5.416-0.26-12.096c0-6.682,0.117-12.097,0.26-12.097
						s0.26,5.415,0.26,12.097C413.292,386.306,413.176,391.722,413.032,391.722z"/>
				</g>
			</g>
			<g>
				<g>
					<path style="fill:#263238;" d="M417.246,391.722c-0.144,0-0.26-5.416-0.26-12.096c0-6.682,0.117-12.097,0.26-12.097
						s0.26,5.415,0.26,12.097C417.507,386.306,417.39,391.722,417.246,391.722z"/>
				</g>
			</g>
			<g>
				<g>
					<path style="fill:#263238;" d="M421.461,391.722c-0.144,0-0.26-5.416-0.26-12.096c0-6.682,0.117-12.097,0.26-12.097
						s0.26,5.415,0.26,12.097C421.721,386.306,421.604,391.722,421.461,391.722z"/>
				</g>
			</g>
			<g>
				<g>
					<path style="fill:#263238;" d="M425.675,391.722c-0.144,0-0.26-5.416-0.26-12.096c0-6.682,0.117-12.097,0.26-12.097
						s0.26,5.415,0.26,12.097C425.935,386.306,425.819,391.722,425.675,391.722z"/>
				</g>
			</g>
			<g>
				<g>
					<path style="fill:#263238;" d="M429.889,391.722c-0.144,0-0.26-5.416-0.26-12.096c0-6.682,0.117-12.097,0.26-12.097
						s0.26,5.415,0.26,12.097C430.15,386.306,430.033,391.722,429.889,391.722z"/>
				</g>
			</g>
			<g>
				<g>
					<path style="fill:#263238;" d="M434.104,391.722c-0.144,0-0.26-5.416-0.26-12.096c0-6.682,0.117-12.097,0.26-12.097
						s0.26,5.415,0.26,12.097C434.364,386.306,434.248,391.722,434.104,391.722z"/>
				</g>
			</g>
			<g>
				<g>
					<path style="fill:#263238;" d="M438.318,391.722c-0.144,0-0.26-5.416-0.26-12.096c0-6.682,0.117-12.097,0.26-12.097
						s0.26,5.415,0.26,12.097C438.579,386.306,438.462,391.722,438.318,391.722z"/>
				</g>
			</g>
			<g>
				<g>
					<path style="fill:#263238;" d="M442.533,391.722c-0.144,0-0.26-5.416-0.26-12.096c0-6.682,0.117-12.097,0.26-12.097
						s0.26,5.415,0.26,12.097C442.793,386.306,442.676,391.722,442.533,391.722z"/>
				</g>
			</g>
		</g>
		<g>
			<g>
				<rect x="397.179" y="411.307" style="fill:#FFFFFF;" width="39.846" height="31.906"/>
			</g>
			<g>
				<g>
					<path style="fill:#263238;" d="M404.023,421.467l-0.928-1.34h-0.055h-0.969v1.34h-1.112v-4.809h2.081
						c0.426,0,0.796,0.071,1.109,0.213c0.314,0.143,0.556,0.344,0.725,0.604c0.17,0.262,0.254,0.57,0.254,0.928
						c0,0.358-0.086,0.665-0.257,0.924c-0.172,0.259-0.416,0.457-0.732,0.594l1.079,1.546H404.023z M403.742,417.782
						c-0.175-0.144-0.429-0.216-0.763-0.216h-0.907v1.676h0.907c0.334,0,0.588-0.073,0.763-0.22
						c0.174-0.146,0.261-0.352,0.261-0.618C404.003,418.133,403.916,417.926,403.742,417.782z"/>
				</g>
				<g>
					<path style="fill:#263238;" d="M406.457,424.791l-1.1-1.582l-1.08,1.582h-1.211l1.685-2.317l-1.601-2.238h1.197l1.048,1.478
						l1.028-1.478h1.139l-1.588,2.199l1.699,2.356H406.457z"/>
				</g>
			</g>
			<g>
				<rect x="411.35" y="416.645" style="fill:#E0E0E0;" width="22.754" height="3.459"/>
			</g>
			<g>
				<g>
					<path style="fill:#263238;" d="M431.522,428.692c0,0.144-6.646,0.26-14.842,0.26c-8.199,0-14.843-0.117-14.843-0.26
						s6.644-0.26,14.843-0.26C424.876,428.432,431.522,428.548,431.522,428.692z"/>
				</g>
			</g>
			<g>
				<g>
					<path style="fill:#263238;" d="M431.522,432.296c0,0.144-6.646,0.26-14.842,0.26c-8.199,0-14.843-0.117-14.843-0.26
						s6.644-0.26,14.843-0.26C424.876,432.035,431.522,432.152,431.522,432.296z"/>
				</g>
			</g>
			<g>
				<rect x="399.695" y="436.802" style="fill:#E0E0E0;" width="15.376" height="2.965"/>
			</g>
		</g>
		<g>
			<g>
				<path style="fill:#263238;" d="M436.123,442.236c0,0-0.016-0.203-0.024-0.574c-0.006-0.397-0.014-0.938-0.025-1.627
					c-0.013-1.446-0.032-3.513-0.056-6.135c-0.027-5.287-0.066-12.804-0.112-21.862l0.216,0.216
					c-10.915,0.013-24.054,0.028-38.194,0.044c-0.06,0.056,0.49-0.491,0.257-0.256v0.008v0.016v0.032v0.064v0.128v0.255v0.509
					l0,1.016c0,0.676,0,1.35,0,2.021c-0.001,1.342-0.001,2.674-0.001,3.993c-0.002,2.639-0.004,5.229-0.005,7.761
					c-0.007,5.062-0.014,9.887-0.02,14.388l-0.233-0.233c11.296,0.048,20.809,0.088,27.534,0.117
					c3.343,0.026,5.991,0.047,7.837,0.062c0.89,0.012,1.585,0.021,2.089,0.028c0.222,0.005,0.399,0.01,0.544,0.013
					C436.053,442.226,436.118,442.231,436.123,442.236c0.005,0.004-0.052,0.009-0.166,0.013c-0.138,0.004-0.307,0.008-0.518,0.014
					c-0.493,0.007-1.173,0.016-2.043,0.028c-1.834,0.015-4.464,0.036-7.785,0.062c-6.762,0.029-16.327,0.069-27.685,0.117
					l-0.233,0.001l0-0.234c-0.006-4.502-0.013-9.327-0.02-14.388c-0.002-2.531-0.004-5.122-0.005-7.761
					c0-1.319-0.001-2.651-0.001-3.993c0-0.671,0-1.345,0-2.021l0-1.016l0-0.509v-0.255v-0.128V412.1v-0.032v-0.016v-0.008
					c-0.233,0.23,0.317-0.323,0.264-0.265c14.14,0.017,27.279,0.032,38.194,0.044l0.217,0l-0.001,0.216
					c-0.046,9.114-0.085,16.678-0.112,21.997c-0.024,2.601-0.043,4.652-0.056,6.086c-0.01,0.672-0.019,1.198-0.025,1.586
					C436.138,442.064,436.131,442.243,436.123,442.236z"/>
			</g>
		</g>
		<g>
			<g>
				<path style="fill:#FFFFFF;" d="M396.174,469.729c-0.144,0-0.26-16.656-0.26-37.198c0-20.549,0.117-37.202,0.26-37.202
					s0.26,16.653,0.26,37.202C396.435,453.073,396.318,469.729,396.174,469.729z"/>
			</g>
		</g>
		<g>
			<g>
				<path style="fill:#263238;" d="M437.067,476.703c0,0.144-8.693,0.26-19.413,0.26c-10.724,0-19.415-0.117-19.415-0.26
					c0-0.144,8.691-0.26,19.415-0.26C428.374,476.442,437.067,476.559,437.067,476.703z"/>
			</g>
		</g>
	</g>
</g>
<g id="Character">
	<g>
		<g>
			<g>
				<g>
					<g>
						<g>
							<g>
								<g>
									<g>
										<g>
											<g>
												<g>
													<g>
														<g>
															<g>
																<g>
																	<path style="fill:#455A64;" d="M117.313,435.734l-6.635,23.546c0,0,21.133,14.817,20.32,19.291l-45.025-11.54
																		l8.868-37.123L117.313,435.734z"/>
																</g>
															</g>
														</g>
													</g>
												</g>
											</g>
										</g>
									</g>
								</g>
							</g>
						</g>
						<g>
							<g>
								<g>
									<g>
										<g>
											<g>
												<g>
													<g>
														<g>
															<g>
																<g>
																	<g>
																		<path style="fill:#E0E0E0;" d="M97.244,453.714c-0.931,0.021-1.778,0.87-1.796,1.824
																			c-0.018,0.954,0.818,1.844,1.749,1.84c0.931-0.004,1.979-0.992,1.892-1.942c-0.086-0.95-1.123-1.94-2.026-1.707"
																			/>
																	</g>
																</g>
															</g>
														</g>
													</g>
												</g>
											</g>
										</g>
									</g>
								</g>
							</g>
						</g>
						<g style="opacity:0.6;">
							<g>
								<g>
									<g>
										<g>
											<g>
												<g>
													<g>
														<g>
															<g>
																<g>
																	<path style="fill:#FFFFFF;" d="M85.974,467.032l1.037-3.706l42.782,12.45c0,0,1.786,1.408,1.206,2.796
																		L85.974,467.032z"/>
																</g>
															</g>
														</g>
													</g>
												</g>
											</g>
										</g>
									</g>
								</g>
							</g>
						</g>
						<g>
							<g>
								<g>
									<g>
										<g>
											<g>
												<g>
													<g>
														<g>
															<g>
																<g>
																	<g>
																		<path style="fill:#263238;" d="M111.466,459.233c-0.062,0.224-1.186,0.044-2.445,0.491
																			c-1.27,0.413-2.066,1.246-2.247,1.105c-0.192-0.096,0.465-1.358,1.998-1.872
																			C110.3,458.429,111.564,459.039,111.466,459.233z"/>
																	</g>
																</g>
															</g>
														</g>
													</g>
												</g>
											</g>
										</g>
									</g>
								</g>
							</g>
						</g>
						<g>
							<g>
								<g>
									<g>
										<g>
											<g>
												<g>
													<g>
														<g>
															<g>
																<g>
																	<g>
																		<path style="fill:#263238;" d="M115.7,462.445c-0.003,0.231-1.049,0.37-2.028,1.131
																			c-1.001,0.732-1.441,1.714-1.658,1.648c-0.215-0.017-0.045-1.376,1.19-2.298
																			C114.431,461.992,115.747,462.229,115.7,462.445z"/>
																	</g>
																</g>
															</g>
														</g>
													</g>
												</g>
											</g>
										</g>
									</g>
								</g>
							</g>
						</g>
						<g>
							<g>
								<g>
									<g>
										<g>
											<g>
												<g>
													<g>
														<g>
															<g>
																<g>
																	<g>
																		<path style="fill:#263238;" d="M116.968,468.922c-0.212-0.003-0.243-1.207,0.623-2.296
																			c0.858-1.095,2.014-1.316,2.061-1.105c0.079,0.217-0.75,0.708-1.448,1.613
																			C117.487,468.023,117.192,468.957,116.968,468.922z"/>
																	</g>
																</g>
															</g>
														</g>
													</g>
												</g>
											</g>
										</g>
									</g>
								</g>
							</g>
						</g>
						<g>
							<g>
								<g>
									<g>
										<g>
											<g>
												<g>
													<g>
														<g>
															<g>
																<g>
																	<g>
																		<path style="fill:#263238;" d="M112.397,453.695c-0.142,0.182-1.075-0.388-2.339-0.62
																			c-1.259-0.258-2.331-0.079-2.398-0.302c-0.088-0.195,1.06-0.787,2.545-0.492
																			C111.691,452.565,112.548,453.546,112.397,453.695z"/>
																	</g>
																</g>
															</g>
														</g>
													</g>
												</g>
											</g>
										</g>
									</g>
								</g>
							</g>
						</g>
					</g>
				</g>
			</g>
			<g>
				<g>
					<g>
						<g>
							<g>
								<g>
									<g>
										<g>
											<g>
												<g>
													<g>
														<g>
															<g>
																<g>
																	<path style="fill:#455A64;" d="M101.529,441.278l-1.045,24.485c0,0,23.941,9.311,24.178,13.855l-46.411-0.37
																		l0.1-38.219L101.529,441.278z"/>
																</g>
															</g>
														</g>
													</g>
												</g>
											</g>
										</g>
									</g>
								</g>
							</g>
						</g>
						<g>
							<g>
								<g>
									<g>
										<g>
											<g>
												<g>
													<g>
														<g>
															<g>
																<g>
																	<g>
																		<path style="fill:#E0E0E0;" d="M86.149,463.588c-0.9,0.245-1.529,1.274-1.328,2.206
																			c0.201,0.931,1.218,1.595,2.123,1.367c0.904-0.228,1.696-1.44,1.394-2.343c-0.302-0.903-1.537-1.615-2.361-1.171"
																			/>
																	</g>
																</g>
															</g>
														</g>
													</g>
												</g>
											</g>
										</g>
									</g>
								</g>
							</g>
						</g>
						<g style="opacity:0.6;">
							<g>
								<g>
									<g>
										<g>
											<g>
												<g>
													<g>
														<g>
															<g>
																<g>
																	<path style="fill:#FFFFFF;" d="M78.251,479.248l0.157-3.852l44.44,1.796c0,0,2.059,0.937,1.814,2.427
																		L78.251,479.248z"/>
																</g>
															</g>
														</g>
													</g>
												</g>
											</g>
										</g>
									</g>
								</g>
							</g>
						</g>
						<g>
							<g>
								<g>
									<g>
										<g>
											<g>
												<g>
													<g>
														<g>
															<g>
																<g>
																	<g>
																		<path style="fill:#263238;" d="M101.238,465.527c-0.009,0.232-1.143,0.328-2.264,1.066
																			c-1.14,0.708-1.722,1.709-1.93,1.615c-0.208-0.047,0.14-1.432,1.512-2.301
																			C99.921,465.026,101.289,465.314,101.238,465.527z"/>
																	</g>
																</g>
															</g>
														</g>
													</g>
												</g>
											</g>
										</g>
									</g>
								</g>
							</g>
						</g>
						<g>
							<g>
								<g>
									<g>
										<g>
											<g>
												<g>
													<g>
														<g>
															<g>
																<g>
																	<g>
																		<path style="fill:#263238;" d="M106.091,467.629c0.05,0.225-0.934,0.613-1.712,1.588
																			c-0.805,0.952-1.007,2.013-1.233,2.001c-0.213,0.035-0.36-1.326,0.629-2.521
																			C104.753,467.494,106.087,467.407,106.091,467.629z"/>
																	</g>
																</g>
															</g>
														</g>
													</g>
												</g>
											</g>
										</g>
									</g>
								</g>
							</g>
						</g>
						<g>
							<g>
								<g>
									<g>
										<g>
											<g>
												<g>
													<g>
														<g>
															<g>
																<g>
																	<g>
																		<path style="fill:#263238;" d="M108.81,473.62c-0.206,0.048-0.513-1.115,0.079-2.382
																			c0.583-1.271,1.655-1.764,1.75-1.57c0.127,0.192-0.567,0.869-1.037,1.917
																			C109.108,472.62,109.035,473.599,108.81,473.62z"/>
																	</g>
																</g>
															</g>
														</g>
													</g>
												</g>
											</g>
										</g>
									</g>
								</g>
							</g>
						</g>
						<g>
							<g>
								<g>
									<g>
										<g>
											<g>
												<g>
													<g>
														<g>
															<g>
																<g>
																	<g>
																		<path style="fill:#263238;" d="M100.872,459.92c-0.097,0.211-1.134-0.118-2.416-0.039
																			c-1.283,0.052-2.283,0.485-2.4,0.285c-0.13-0.169,0.85-1.021,2.361-1.092
																			C99.927,458.991,100.985,459.738,100.872,459.92z"/>
																	</g>
																</g>
															</g>
														</g>
													</g>
												</g>
											</g>
										</g>
									</g>
								</g>
							</g>
						</g>
					</g>
				</g>
			</g>
			<g>
				<g>
					<g>
						<g>
							<g>
								<g>
									<g>
										<g>
											<g>
												<path style="fill:#263238;" d="M72.818,262.11v19.36l5.075,75.425c0,0-3.159,36.589-5.098,57.242
													c-1.684,17.937,1.069,49.174,1.069,49.174h29.541l10.569-104.176l6.56-64.97l11.413-29.57L72.818,262.11z"/>
											</g>
										</g>
									</g>
								</g>
							</g>
						</g>
					</g>
				</g>
				<g>
					<g>
						<g>
							<g>
								<g>
									<g>
										<g>
											<g>
												<polygon style="fill:#263238;" points="150.611,265.482 144.953,370.71 115.068,449.496 113.695,454.24 96.045,449.869 
													109.171,263.432 												"/>
											</g>
										</g>
									</g>
								</g>
							</g>
						</g>
					</g>
				</g>
				<g>
					<g>
						<g>
							<g>
								<g>
									<g>
										<g>
											<g>
												<g>
													<path style="fill:#455A64;" d="M120.456,294.942c0.009,0,0.013,0.148,0.01,0.438c-0.006,0.316-0.014,0.741-0.025,1.283
														c-0.035,1.159-0.085,2.814-0.149,4.932c-0.119,4.284-0.419,10.478-0.843,18.129
														c-0.891,15.298-2.554,36.41-5.146,59.643c-2.552,23.245-5.371,44.222-7.431,59.399
														c-1.046,7.564-1.894,13.694-2.484,17.967c-0.301,2.096-0.537,3.735-0.701,4.881c-0.083,0.535-0.148,0.955-0.196,1.268
														c-0.047,0.285-0.076,0.431-0.086,0.429c-0.009-0.001,0.001-0.149,0.03-0.437c0.035-0.314,0.082-0.736,0.142-1.275
														c0.141-1.15,0.342-2.793,0.599-4.895c0.55-4.278,1.338-10.417,2.312-17.991c1.961-15.19,4.718-36.171,7.269-59.408
														c2.592-23.225,4.315-44.319,5.305-59.605c0.474-7.644,0.833-13.833,1.018-18.114c0.108-2.116,0.193-3.77,0.252-4.927
														c0.034-0.541,0.06-0.966,0.079-1.281C120.431,295.089,120.446,294.941,120.456,294.942z"/>
												</g>
											</g>
										</g>
									</g>
								</g>
							</g>
						</g>
					</g>
				</g>
				<g>
					<g>
						<g>
							<g>
								<g>
									<g>
										<g>
											<g>
												<path style="fill:#455A64;" d="M122.327,268.618c0,0.86-0.681,1.557-1.52,1.557c-0.839,0-1.52-0.697-1.52-1.557
													c0-0.86,0.681-1.557,1.52-1.557C121.647,267.061,122.327,267.758,122.327,268.618z"/>
											</g>
										</g>
									</g>
								</g>
							</g>
						</g>
					</g>
				</g>
				<g>
					<g>
						<g>
							<g>
								<g>
									<g>
										<g>
											<g>
												<g>
													<path style="fill:#455A64;" d="M148.298,283.316c-0.04,0.046-0.908-0.643-2.083-2.001
														c-1.175-1.352-2.604-3.421-3.715-5.954c-1.104-2.537-1.659-5.008-1.861-6.806c-0.206-1.802-0.13-2.924-0.07-2.924
														c0.092-0.004,0.154,1.108,0.455,2.865c0.297,1.756,0.899,4.152,1.979,6.635c1.088,2.478,2.432,4.533,3.512,5.93
														C147.594,282.461,148.362,283.249,148.298,283.316z"/>
												</g>
											</g>
										</g>
									</g>
								</g>
							</g>
						</g>
					</g>
				</g>
			</g>
		</g>
		<g>
			<g>
				<path style="fill:#E0E0E0;" d="M144.767,167.184c0,0,5.657,2.217,8.272,10.498c1.819,5.761,10.345,48.64,10.345,48.64
					l-11.882,7.831l-4.827-40.109L144.767,167.184z"/>
			</g>
			<g>
				<g>
					<g>
						<path style="fill:#E0E0E0;" d="M99.591,146.697l-3.722,6.604c0,0-24.86,12.637-24.774,13.883c0,0,1.382,47.178,1.646,81.782
							c0.1,13.071-0.381,25.08-0.644,30.854c-0.69,15.147-1.225,73.981-1.225,73.981l90.005-2.132l-16.11-184.484l-12.694-5.554
							l-1.621-3.314l-5.833-4.735L99.591,146.697z"/>
					</g>
				</g>
				<g>
					<g>
						<g>
							<path style="fill:#263238;" d="M139.027,352.185c0.009-0.001,0.01-0.137,0.001-0.402c-0.012-0.292-0.029-0.681-0.05-1.177
								c-0.058-1.065-0.139-2.582-0.244-4.522c-0.234-3.957-0.57-9.629-0.984-16.625c-0.849-14.063-2.018-33.441-3.309-54.845
								c-1.233-21.415-2.349-40.798-3.158-54.863c-0.375-6.998-0.68-12.672-0.892-16.629c-0.109-1.939-0.195-3.456-0.255-4.521
								c-0.034-0.495-0.06-0.884-0.08-1.175c-0.021-0.265-0.036-0.4-0.046-0.4c-0.009,0-0.012,0.137-0.01,0.402
								c0.006,0.292,0.015,0.682,0.026,1.177c0.036,1.066,0.087,2.584,0.153,4.526c0.136,3.93,0.393,9.615,0.719,16.639
								c0.666,14.048,1.721,33.449,2.999,54.875c1.276,21.419,2.523,40.806,3.468,54.838c0.486,6.992,0.881,12.661,1.156,16.615
								c0.148,1.937,0.264,3.452,0.346,4.516c0.044,0.494,0.078,0.882,0.104,1.173C138.999,352.051,139.017,352.186,139.027,352.185
								z"/>
						</g>
					</g>
				</g>
				<g>
					<g>
						<polyline style="fill:#FF725E;" points="124.619,153.581 126.711,168.027 130.452,197.028 114.154,169.052 100.001,150.513 
							123.316,166.851 123.612,153.307 						"/>
					</g>
				</g>
				<g>
					<g>
						<g>
							<path style="fill:#263238;" d="M95.758,154.178c-0.024,0.011,0.133,0.407,0.448,1.135c0.351,0.787,0.817,1.834,1.394,3.129
								c1.26,2.742,3,6.526,5.058,11.003l0.064,0.139l0.157,0.001c1.08,0.004,2.226,0.009,3.404,0.013l-0.163-0.455
								c-0.793,0.649-1.639,1.341-2.502,2.048l-0.229,0.187l0.212,0.207c1.516,1.485,3.108,3.044,4.743,4.645
								c5.929,5.752,11.294,10.956,15.242,14.786c1.929,1.835,3.508,3.338,4.662,4.436c0.523,0.482,0.949,0.875,1.287,1.186
								c0.298,0.267,0.461,0.401,0.475,0.387c0.013-0.013-0.124-0.173-0.398-0.466c-0.319-0.331-0.721-0.748-1.216-1.259
								c-1.124-1.129-2.663-2.674-4.542-4.56c-3.919-3.859-9.245-9.104-15.131-14.9c-1.638-1.598-3.233-3.153-4.752-4.635
								l-0.017,0.394c0.859-0.711,1.701-1.407,2.491-2.061l0.553-0.458l-0.716,0.003c-1.178,0.005-2.324,0.009-3.404,0.013
								l0.22,0.14c-2.13-4.442-3.932-8.199-5.236-10.919c-0.628-1.271-1.136-2.298-1.518-3.071
								C95.986,154.54,95.782,154.167,95.758,154.178z"/>
						</g>
					</g>
				</g>
				<g>
					<g>
						<g>
							<path style="fill:#263238;" d="M130.452,197.028c0.037,0.005,0.152-0.635,0.327-1.795c0.176-1.251,0.409-2.911,0.692-4.921
								c0.561-4.158,1.298-9.907,2.079-16.26c0.249-2.049,0.49-4.035,0.719-5.921l0.028-0.234l-0.227-0.054
								c-1.426-0.339-2.792-0.663-4.086-0.97l-0.016,0.478c1.471-0.264,2.843-0.51,4.106-0.736l0.273-0.049l-0.114-0.247
								c-1.105-2.398-2.02-4.386-2.701-5.865c-0.308-0.639-0.563-1.166-0.771-1.597c-0.183-0.363-0.289-0.551-0.309-0.542
								c-0.02,0.009,0.048,0.213,0.194,0.593c0.179,0.443,0.399,0.986,0.666,1.643c0.638,1.497,1.496,3.511,2.532,5.94l0.159-0.296
								c-1.267,0.208-2.642,0.433-4.117,0.675l-1.174,0.192l1.158,0.286c1.291,0.319,2.654,0.655,4.078,1.006l-0.199-0.287
								c-0.235,1.885-0.482,3.87-0.737,5.918c-0.781,6.353-1.458,12.11-1.921,16.28c-0.213,2.018-0.388,3.685-0.52,4.942
								C130.458,196.375,130.415,197.023,130.452,197.028z"/>
						</g>
					</g>
				</g>
				<g>
					<g>
						<g>
							<path style="fill:#263238;" d="M116.544,274.21c0.008-0.01-0.189-0.003-0.579,0.02c-0.426,0.028-1.003,0.066-1.736,0.114
								c-1.57,0.114-3.809,0.276-6.637,0.481c-5.789,0.445-13.986,1.075-23.784,1.828l-0.238,0.018l0.021,0.239
								c0.382,4.473,0.798,9.326,1.236,14.454c0.222,2.565,0.449,5.198,0.682,7.887c0.117,1.344,0.235,2.703,0.354,4.073
								c0.052,0.674,0.127,1.405,0.325,2.098c0.214,0.69,0.529,1.351,0.939,1.953c1.312,1.895,3.452,2.998,5.594,3.379
								c2.162,0.298,4.26,0.34,6.34,0.337c4.148-0.05,8.158-0.403,11.886-1.303c0.928-0.238,1.841-0.507,2.708-0.884
								c0.438-0.176,0.857-0.397,1.261-0.646c0.209-0.105,0.384-0.308,0.573-0.459c0.177-0.17,0.299-0.376,0.449-0.563
								c0.987-1.617,1.293-3.396,1.555-5.067c0.472-3.372,0.487-6.535,0.469-9.411c-0.091-5.756-0.503-10.395-0.81-13.594
								c-0.159-1.6-0.303-2.839-0.411-3.679c-0.055-0.395-0.099-0.709-0.133-0.954C116.578,274.322,116.55,274.2,116.544,274.21
								c-0.006,0.01-0.007,0.108,0.01,0.329c0.02,0.246,0.046,0.562,0.079,0.959c0.074,0.879,0.177,2.114,0.31,3.686
								c0.242,3.201,0.595,7.841,0.636,13.578c-0.006,2.864-0.046,6.018-0.531,9.341c-0.26,1.64-0.596,3.4-1.506,4.867
								c-0.445,0.727-1.233,1.135-2.079,1.484c-0.833,0.358-1.726,0.618-2.637,0.848c-3.666,0.872-7.656,1.215-11.768,1.257
								c-2.05,0.001-4.174-0.05-6.242-0.337c-2.033-0.363-4.036-1.409-5.243-3.155c-0.377-0.555-0.667-1.162-0.865-1.798
								c-0.182-0.644-0.251-1.294-0.306-1.991c-0.12-1.371-0.239-2.729-0.357-4.073c-0.237-2.688-0.469-5.322-0.695-7.886
								c-0.457-5.126-0.889-9.978-1.287-14.449l-0.217,0.257c9.728-0.846,17.868-1.554,23.616-2.054
								c2.846-0.26,5.099-0.466,6.679-0.61c0.75-0.073,1.34-0.131,1.776-0.174C116.323,274.246,116.536,274.22,116.544,274.21z"/>
						</g>
					</g>
				</g>
				<g style="opacity:0.3;">
					<g>
						<g>
							<path d="M86.222,304.743c2.535,6.613,9.172,7.013,16.303,5.97c6.715-0.983,13.175-2.394,13.67-4.316
								c-0.174,3.508-2.759,6.205-5.978,7.609c-3.22,1.404-6.817,1.603-10.326,1.449c-3.672-0.161-6.843-0.002-9.873-2.083
								C86.988,311.291,86.213,307.756,86.222,304.743z"/>
						</g>
					</g>
				</g>
			</g>
			<g>
				<g>
					<path style="fill:#263238;" d="M154.292,276.258c-0.009,0.001-0.025-0.082-0.049-0.245c-0.025-0.194-0.055-0.432-0.092-0.725
						c-0.073-0.68-0.174-1.613-0.301-2.792c-0.242-2.471-0.585-5.971-1.007-10.277c-0.825-8.68-1.924-20.676-3.086-33.929
						c-1.161-13.258-2.162-25.263-2.824-33.958c-0.331-4.348-0.577-7.868-0.716-10.303c-0.079-1.216-0.109-2.164-0.13-2.806
						c-0.006-0.295-0.012-0.535-0.016-0.73c-0.001-0.165,0.003-0.249,0.012-0.249c0.246,2.817,1.914,21.923,4.192,48.001
						c1.144,13.235,2.18,25.216,2.934,33.941c0.353,4.312,0.639,7.817,0.842,10.292c0.086,1.183,0.154,2.118,0.204,2.801
						c0.016,0.295,0.029,0.535,0.04,0.73C154.302,276.173,154.301,276.258,154.292,276.258z"/>
				</g>
			</g>
			<g>
				<path style="fill:#E0E0E0;" d="M167.334,227.268c0,0,0.624,2.081,0.416,4.266c-0.208,2.185-0.312,7.565-6.139,9.401
					c-5.827,1.836-8.656,0.088-10.455-2.382l-0.881-10.702l6.237-4.122L167.334,227.268z"/>
			</g>
			<g style="opacity:0.3;">
				<path d="M118.618,234.152c0,0-14.91,14.731-26.491,16.854s-15.717-2.021-18.799-12.369L118.618,234.152z"/>
			</g>
			<g>
				<g>
					<path style="fill:#E0E0E0;" d="M71.364,166.818c0,0-9.474,8.786-6.777,29.573c2.506,19.315,6.955,46.222,12.886,49.344
						c5.931,3.122,18.729,1.561,28.094-3.746c9.365-5.307,36.522-19.666,36.522-19.666l-11.238-19.978l-36.21,14.047
						c0,0-4.682-32.04-7.492-37.559"/>
				</g>
			</g>
			<g>
				<g>
					<g>
						<path style="fill:#263238;" d="M87.035,178.395c0,0,0.103,0.202,0.282,0.612c0.087,0.205,0.204,0.458,0.324,0.767
							c0.103,0.317,0.221,0.682,0.355,1.094c0.532,1.659,1.167,4.152,1.857,7.389c1.396,6.474,3.082,15.919,4.866,27.669
							l-0.263-0.153c10.233-3.986,22.552-8.786,36.19-14.099l0.202-0.079l0.107,0.189c3.559,6.317,7.337,13.022,11.251,19.97
							l0.133,0.236l-0.24,0.13c-7.468,4.023-15.245,8.213-23.218,12.509c-3.845,2.07-7.644,4.115-11.389,6.131
							c-1.869,0.998-3.73,2.05-5.667,2.883c-1.941,0.824-3.923,1.496-5.919,2.05c-4.001,1.049-8.078,1.636-12.077,1.398
							c-1.991-0.126-3.979-0.444-5.808-1.219l-0.678-0.303c-0.225-0.104-0.435-0.271-0.652-0.406
							c-0.396-0.32-0.747-0.677-1.054-1.064c-0.603-0.777-1.109-1.607-1.533-2.464c-1.699-3.432-2.702-7.015-3.631-10.48
							c-0.91-3.476-1.631-6.886-2.282-10.191c-1.282-6.614-2.233-12.815-3.028-18.485c-0.795-5.658-1.493-10.83-1.282-15.398
							c0.155-4.56,0.975-8.449,2.055-11.471c1.099-3.023,2.421-5.171,3.432-6.519c0.501-0.68,0.941-1.154,1.24-1.466
							c0.305-0.308,0.484-0.44,0.484-0.44s-0.154,0.159-0.444,0.478c-0.285,0.323-0.709,0.806-1.193,1.493
							c-0.976,1.362-2.26,3.512-3.32,6.525c-1.041,3.013-1.825,6.879-1.951,11.411c-0.181,4.538,0.538,9.672,1.359,15.333
							c0.818,5.661,1.791,11.854,3.09,18.452c0.658,3.296,1.388,6.697,2.301,10.157c0.931,3.445,1.944,7.016,3.615,10.374
							c0.415,0.838,0.909,1.64,1.48,2.374c0.29,0.365,0.615,0.691,0.968,0.978c0.194,0.116,0.363,0.258,0.576,0.356l0.647,0.288
							c1.746,0.737,3.688,1.05,5.639,1.17c3.922,0.229,7.955-0.353,11.907-1.394c1.972-0.549,3.93-1.215,5.845-2.029
							c1.913-0.826,3.732-1.854,5.613-2.861c3.745-2.017,7.546-4.064,11.391-6.135c7.978-4.293,15.76-8.481,23.232-12.503
							l-0.107,0.365c-3.905-6.953-7.674-13.664-11.224-19.985l0.308,0.111c-13.653,5.274-25.986,10.038-36.23,13.995l-0.227,0.088
							l-0.035-0.241c-1.734-11.75-3.361-21.202-4.691-27.681c-0.658-3.241-1.258-5.737-1.754-7.401
							c-0.123-0.413-0.233-0.78-0.328-1.099c-0.116-0.302-0.215-0.559-0.296-0.772C87.105,178.614,87.035,178.395,87.035,178.395z"
							/>
					</g>
				</g>
			</g>
			<g>
				
					<rect x="100.001" y="196.375" transform="matrix(-1 -1.224647e-16 1.224647e-16 -1 217.9693 398.7347)" style="fill:#FFFFFF;" width="17.968" height="5.984"/>
			</g>
			<g>
				<g>
					<path style="fill:#263238;" d="M103.721,199.005c0-0.144,2.509-0.26,5.603-0.26c3.095,0,5.604,0.117,5.604,0.26
						s-2.508,0.26-5.604,0.26C106.23,199.266,103.721,199.149,103.721,199.005z"/>
				</g>
			</g>
			<g style="opacity:0.3;">
				<polygon points="129.536,196.639 103.092,175.182 103.721,173.307 101.415,173.307 97.6,158.442 103.099,169.238 
					106.283,169.085 103.972,171.206 				"/>
			</g>
			<g>
				<g>
					<g>
						<g>
							<g>
								<g>
									<path style="fill:#455A64;" d="M96.866,172.18l0.964-0.403c-0.021-0.052-2.175-5.217-4.296-10.693
										c-0.841-2.171-1.144-3.982-0.901-5.383c0.21-1.212,1.281-2.032,2.532-2.032l0.702-0.368l0.361-0.64
										c-1.85-0.399-4.328,1.147-4.625,2.861c-0.276,1.59,0.045,3.588,0.955,5.939C94.686,166.95,96.845,172.128,96.866,172.18z"
										/>
								</g>
							</g>
						</g>
					</g>
					<g>
						<g>
							<g>
								<path style="fill:#455A64;" d="M95.312,184.256l1.329-0.517c-1.09-2.805-2.58-7.777-1.938-9.176
									c0.388-0.846,1.509-1.587,2.857-1.888c1.589-0.353,3.109-0.043,4.171,0.855c1.522,1.287,3.821,5.833,4.579,7.477
									l1.295-0.596c-0.117-0.253-2.878-6.215-4.953-7.969c-1.405-1.188-3.374-1.608-5.402-1.157
									c-1.795,0.4-3.267,1.429-3.843,2.684C92.329,176.32,94.804,182.951,95.312,184.256z"/>
							</g>
						</g>
					</g>
					<g>
						<g>
							<g>
								<path style="fill:#263238;" d="M109.668,205.944c1.645,0,3.258-0.88,4.808-2.627l-0.533-0.473
									c-1.706,1.923-3.458,2.687-5.207,2.278c-7.11-1.672-12.521-21.426-12.575-21.625l-0.688,0.185
									c0.224,0.831,5.58,20.365,13.1,22.134C108.939,205.9,109.304,205.944,109.668,205.944z"/>
							</g>
						</g>
					</g>
				</g>
				<g>
					<g>
						<g>
							<path style="fill:#263238;" d="M113.109,204.134L113.109,204.134c0.3,0.295,0.77,0.327,1.108,0.076l1.544-1.147
								c0.474-0.312,0.603-0.949,0.288-1.421l0,0c-0.358-0.536-1.117-0.61-1.572-0.154l-1.386,1.445
								C112.767,203.271,112.775,203.806,113.109,204.134z"/>
						</g>
					</g>
				</g>
				<g>
					<g>
						<g>
							<g>
								<g>
									<path style="fill:#263238;" d="M106.649,206.587c2.196,0,3.824-0.725,4.85-2.163c4.372-6.131-3.869-23.151-4.222-23.873
										l-0.64,0.313c0.085,0.173,8.409,17.359,4.282,23.146c-1.075,1.507-2.966,2.107-5.619,1.777l-0.088,0.707
										C105.715,206.557,106.194,206.587,106.649,206.587z"/>
								</g>
							</g>
						</g>
					</g>
					<g>
						<g>
							<g>
								<path style="fill:#263238;" d="M106.778,206.204L106.778,206.204c-0.03,0.42-0.362,0.755-0.781,0.79l-1.917,0.159
									c-0.561,0.079-1.08-0.314-1.155-0.876l0,0c-0.086-0.639,0.435-1.196,1.078-1.155l1.995,0.169
									C106.464,205.331,106.812,205.738,106.778,206.204z"/>
							</g>
						</g>
					</g>
				</g>
			</g>
			<g>
				<g>
					<g>
						<circle style="fill:#263238;" cx="141.001" cy="180.244" r="5.084"/>
					</g>
				</g>
			</g>
			<g>
				<g>
					<g>
						<circle style="fill:#263238;" cx="141.001" cy="180.244" r="5.084"/>
					</g>
				</g>
			</g>
			<g>
				<g>
					<g>
						<path style="fill:#E0E0E0;" d="M137.245,180.244c0,2.074,1.681,3.755,3.755,3.755c2.074,0,3.755-1.681,3.755-3.755
							c0-2.074-1.682-3.755-3.755-3.755C138.927,176.488,137.245,178.17,137.245,180.244z"/>
					</g>
				</g>
			</g>
			<g>
				<g>
					<g>
						<g>
							<path style="fill:#455A64;" d="M130.223,158.111c0.473,0.693,5.785,11.899,8.69,17.549l0.847-0.435
								c-0.428-0.831-8.147-16.766-8.75-17.65l-5.62-4.61l-0.198,1.067L130.223,158.111z"/>
						</g>
					</g>
				</g>
			</g>
		</g>
		<g>
			<g>
				<g>
					<g>
						<path style="fill:#263238;" d="M128.088,180.116c3.679,3.67,12.992,13.228,12.992,13.228l2.494-1.503l-13.128-14.009
							c-0.548-0.585-1.438-0.689-2.106-0.245v0C127.476,178.16,127.353,179.383,128.088,180.116z"/>
					</g>
				</g>
				<g>
					<g>
						<g>
							<path style="fill:#FFBF9D;" d="M130.737,201.907l3.13-8.812c0.686-1.933,2.46-3.368,4.511-3.385
								c0.16-0.001,0.319,0.006,0.475,0.023c1.873,0.208,11.446,0.832,11.446,0.832l3.705,4.151c0.634,0.71,0.651,1.778,0.041,2.508
								l0,0l1.063,7.492l-2.104,1.423l0.208,5.236c0,0-1.873,1.249-2.705,0.832c-0.832-0.416-0.832-0.416-0.832-0.416l-1.249-1.249
								l-3.538,4.994l-4.892,2.83L130.737,201.907z"/>
						</g>
					</g>
					<g>
						<g>
							<g>
								<path style="fill:#FF9A6C;" d="M154.056,197.623c-0.079,0.042-0.409-0.672-1.34-1.457c-0.457-0.381-1.073-0.816-1.787-1.078
									c-0.721-0.24-1.643-0.246-2.589-0.35c-3.788-0.356-6.847-0.765-6.833-0.915c0.014-0.149,3.096,0.018,6.884,0.373
									c0.939,0.108,1.858,0.115,2.704,0.419c0.825,0.338,1.416,0.82,1.88,1.267C153.899,196.798,154.116,197.611,154.056,197.623z
									"/>
							</g>
						</g>
					</g>
					<g>
						<g>
							<g>
								<path style="fill:#FF9A6C;" d="M153.851,204.515c-0.099,0.015-0.139-0.816-0.77-1.917c-0.609-1.095-1.905-2.391-3.701-3.101
									c-1.805-0.706-3.612-0.795-4.895-0.822c-1.292-0.019-2.101,0.013-2.108-0.069c-0.006-0.068,0.788-0.235,2.101-0.315
									c1.301-0.07,3.182-0.048,5.103,0.701c1.926,0.761,3.279,2.208,3.84,3.427C154.005,203.651,153.9,204.526,153.851,204.515z"
									/>
							</g>
						</g>
					</g>
					<g>
						<g>
							<g>
								<path style="fill:#FF9A6C;" d="M152.909,210.941c-0.078,0.037-0.402-0.757-0.5-2.065c-0.071-0.643-0.137-1.411-0.47-2.145
									c-0.309-0.757-1.022-1.27-1.965-1.493c-1.877-0.502-3.688-0.53-4.984-0.718c-1.302-0.158-2.087-0.413-2.068-0.482
									c0.018-0.077,0.809,0.04,2.103,0.099c1.286,0.091,3.114,0.051,5.092,0.577c0.493,0.135,0.99,0.324,1.402,0.643
									c0.417,0.317,0.702,0.75,0.878,1.173c0.352,0.857,0.37,1.674,0.395,2.32C152.793,210.153,152.97,210.914,152.909,210.941z"
									/>
							</g>
						</g>
					</g>
				</g>
				<g>
					<g>
						<polygon style="fill:#455A64;" points="158.125,194.397 116.85,237.027 118.439,238.637 148.01,235.307 187.802,197.401 
							187.758,195.576 						"/>
					</g>
				</g>
				<g style="opacity:0.3;">
					<g>
						<g>
							<path d="M165.86,214.283c-1.887-1.824-4.629-2.635-7.245-2.425c-2.617,0.21-5.101,1.373-7.148,3.017
								c-1.645,1.321-3.077,3.038-3.557,5.092c-0.837,3.586,2.111,8.595,5.359,10.33l0,0c4.12-3.308,8.127-8.382,12.247-11.691
								c0.616-0.494,1.271-1.052,1.431-1.825C167.139,215.852,166.542,214.942,165.86,214.283z"/>
						</g>
					</g>
				</g>
				<g>
					<g>
						<g>
							<path style="fill:#263238;" d="M187.64,197.319c0,0.015-0.186,0.025-0.544,0.03c-0.402,0.001-0.924,0.002-1.576,0.003
								c-1.429-0.016-3.425-0.04-5.916-0.068c-5.113-0.098-12.248-0.235-20.574-0.395l0.19-0.078
								c-3.196,3.314-6.693,6.941-10.343,10.725c-8.359,8.604-15.923,16.39-21.443,22.071c-2.735,2.777-4.96,5.038-6.543,6.645
								c-0.754,0.749-1.353,1.344-1.799,1.788c-0.416,0.404-0.64,0.611-0.654,0.598c-0.014-0.013,0.185-0.245,0.575-0.674
								c0.428-0.461,1.003-1.08,1.725-1.859c1.552-1.636,3.736-3.938,6.419-6.765c5.49-5.71,13.014-13.535,21.328-22.182
								c3.658-3.776,7.163-7.395,10.367-10.702l0.078-0.081l0.111,0.003c8.324,0.239,15.457,0.444,20.569,0.591
								c2.49,0.091,4.484,0.163,5.912,0.215c0.651,0.033,1.172,0.059,1.574,0.079C187.455,197.286,187.64,197.305,187.64,197.319z"
								/>
						</g>
					</g>
				</g>
			</g>
			<g>
				<g>
					<g>
						<path style="fill:#FFBF9D;" d="M161.805,209.824c0,0,4.004,0.077,5.307,0.728c1.302,0.652,4.891,4.474,4.891,4.474
							s0,2.601-1.041,2.705c0,0,0.104,0.312,0.208,1.769c0.104,1.457,0.312,2.289-1.665,3.538c0,0,0.208,2.393-0.52,3.018
							c-0.728,0.624-1.561,1.145-1.561,1.145s-0.113,2.634-3.642,2.601l-3.307,1.457c0,0-7.36-0.691-6.584-1.554
							c0.776-0.863,2.547-5.181,2.547-5.181s-5.038-3.671-4.934-4.815c0.104-1.145,0.52-1.249,0.52-1.249s-0.208-2.185,1.561-2.393
							c0,0,1.353-2.705,2.705-2.809c1.353-0.104,10.509,3.226,10.509,3.226l-3.434-2.913c0,0-3.434-0.52-3.33-1.665
							C160.14,210.76,161.805,209.824,161.805,209.824z"/>
					</g>
				</g>
				<g>
					<g>
						<g>
							<path style="fill:#FF9A6C;" d="M161.197,223.532c-0.085,0.133-2.085-1.024-4.644-2.255c-2.556-1.24-4.705-2.088-4.654-2.236
								c0.043-0.136,2.299,0.49,4.891,1.747C159.383,222.035,161.277,223.414,161.197,223.532z"/>
						</g>
					</g>
				</g>
				<g>
					<g>
						<g>
							<path style="fill:#FF9A6C;" d="M165.962,220.346c-0.053,0.141-2.726-0.726-5.971-1.937c-3.246-1.21-5.834-2.305-5.782-2.446
								c0.052-0.141,2.726,0.726,5.972,1.937C163.426,219.11,166.014,220.205,165.962,220.346z"/>
						</g>
					</g>
				</g>
			</g>
		</g>
		<g>
			<g>
				<g>
					<g>
						<g>
							<g>
								<g>
									<g>
										<g>
											<g>
												<g>
													<g>
														<path style="fill:#263238;" d="M100.823,128.198c-1.228-4.564-2.436-9.161-2.86-13.868
															c-0.424-4.707-0.031-9.571,1.841-13.911c0.284-0.658,2.641-5.048,3.349-4.941c0.507,0.076-1.019,4.207-0.784,4.662
															c2.239,4.344,2.645,9.451,2.002,14.296C103.728,119.28,102.491,123.604,100.823,128.198"/>
													</g>
												</g>
											</g>
										</g>
									</g>
								</g>
							</g>
							<g>
								<g>
									<path style="fill:#FFBF9D;" d="M101.286,110.165c0.225-11.851,7.31-21.598,19.15-21.045l1.091,0.115
										c10.981,1.158,19.237,10.551,18.966,21.59c-0.252,10.271-0.663,21.616-1.306,27.073
										c-1.332,11.296-12.83,11.863-12.83,11.863c-0.025-0.001-2.613,17.423-2.613,17.423l-24.153-16.773L101.286,110.165z"/>
								</g>
							</g>
							<g>
								<g>
									<g>
										<g>
											<g>
												<g>
													<g>
														<g>
															<g>
																<path style="fill:#FF9A6C;" d="M126.357,149.848c0,0-7.174-0.333-14.268-5.906c0,0,2.26,9.672,13.653,9.843
																	L126.357,149.848z"/>
															</g>
														</g>
													</g>
												</g>
											</g>
										</g>
									</g>
								</g>
							</g>
							<g>
								<g>
									<g>
										<g>
											<g>
												<g>
													<g>
														<g>
															<g>
																<g>
																	<g>
																		<g>
																			<g>
																				<g>
																					<g>
																						<path style="fill:#263238;" d="M136.181,120.286c-0.06,0.856-0.834,1.512-1.729,1.466
																							c-0.894-0.046-1.571-0.776-1.511-1.632c0.06-0.856,0.834-1.513,1.728-1.467
																							C135.563,118.699,136.24,119.43,136.181,120.286z"/>
																					</g>
																				</g>
																			</g>
																		</g>
																	</g>
																</g>
															</g>
														</g>
													</g>
												</g>
											</g>
										</g>
									</g>
								</g>
							</g>
							<g>
								<g>
									<g>
										<g>
											<g>
												<g>
													<g>
														<g>
															<g>
																<g>
																	<g>
																		<g>
																			<g>
																				<g>
																					<g>
																						<g>
																							<path style="fill:#263238;" d="M137.581,115.265c-0.222,0.189-1.351-0.845-3.089-1.024
																								c-1.734-0.203-3.104,0.556-3.27,0.324c-0.083-0.104,0.162-0.463,0.759-0.809
																								c0.589-0.345,1.563-0.638,2.645-0.52c1.082,0.12,1.951,0.615,2.431,1.078
																								C137.549,114.781,137.69,115.181,137.581,115.265z"/>
																						</g>
																					</g>
																				</g>
																			</g>
																		</g>
																	</g>
																</g>
															</g>
														</g>
													</g>
												</g>
											</g>
										</g>
									</g>
								</g>
							</g>
							<g>
								<g>
									<g>
										<g>
											<g>
												<g>
													<g>
														<g>
															<g>
																<g>
																	<g>
																		<g>
																			<g>
																				<g>
																					<g>
																						<path style="fill:#263238;" d="M121.313,119.591c-0.06,0.856-0.834,1.511-1.729,1.465
																							c-0.893-0.046-1.571-0.775-1.511-1.632c0.06-0.856,0.834-1.512,1.728-1.466
																							C120.696,118.004,121.373,118.736,121.313,119.591z"/>
																					</g>
																				</g>
																			</g>
																		</g>
																	</g>
																</g>
															</g>
														</g>
													</g>
												</g>
											</g>
										</g>
									</g>
								</g>
							</g>
							<g>
								<g>
									<g>
										<g>
											<g>
												<g>
													<g>
														<g>
															<g>
																<g>
																	<g>
																		<g>
																			<g>
																				<g>
																					<g>
																						<g>
																							<path style="fill:#263238;" d="M120.481,114.174c-0.223,0.189-1.353-0.845-3.09-1.024
																								c-1.734-0.203-3.104,0.556-3.27,0.323c-0.082-0.104,0.16-0.463,0.76-0.808
																								c0.589-0.346,1.563-0.639,2.645-0.52c1.082,0.12,1.951,0.615,2.432,1.078
																								C120.447,113.69,120.589,114.09,120.481,114.174z"/>
																						</g>
																					</g>
																				</g>
																			</g>
																		</g>
																	</g>
																</g>
															</g>
														</g>
													</g>
												</g>
											</g>
										</g>
									</g>
								</g>
							</g>
							<g>
								<g>
									<g>
										<g>
											<g>
												<g>
													<g>
														<g>
															<g>
																<g>
																	<g>
																		<g>
																			<g>
																				<g>
																					<g>
																						<path style="fill:#263238;" d="M125.308,128.188c0.002-0.1,1.103-0.173,2.877-0.212
																							c0.449,0.001,0.878-0.043,0.985-0.338c0.138-0.309,0.003-0.808-0.158-1.347
																							c-0.304-1.118-0.622-2.29-0.956-3.518c-1.316-5.004-2.218-9.1-2.017-9.151
																							c0.202-0.051,1.433,3.963,2.748,8.968c0.314,1.233,0.614,2.408,0.899,3.533
																							c0.115,0.522,0.343,1.125,0.047,1.766c-0.154,0.319-0.506,0.525-0.798,0.572
																							c-0.294,0.057-0.544,0.035-0.765,0.025C126.398,128.394,125.305,128.287,125.308,128.188z"/>
																					</g>
																				</g>
																			</g>
																		</g>
																	</g>
																</g>
															</g>
														</g>
													</g>
												</g>
											</g>
										</g>
									</g>
								</g>
							</g>
							<g>
								<g>
									<g>
										<g>
											<g>
												<g>
													<g>
														<g>
															<g>
																<g>
																	<g>
																		<g>
																			<g>
																				<g>
																					<g>
																						<path style="fill:#263238;" d="M120.066,128.85c0.285,0.014,0.089,1.901,1.563,3.41
																							c1.47,1.513,3.504,1.513,3.491,1.779c0.014,0.121-0.487,0.319-1.338,0.253
																							c-0.836-0.059-2.024-0.455-2.925-1.378c-0.898-0.925-1.207-2.066-1.189-2.846
																							C119.678,129.271,119.938,128.826,120.066,128.85z"/>
																					</g>
																				</g>
																			</g>
																		</g>
																	</g>
																</g>
															</g>
														</g>
													</g>
												</g>
											</g>
										</g>
									</g>
								</g>
							</g>
							<g>
								<g>
									<g>
										<g>
											<g>
												<g>
													<g>
														<g>
															<g>
																<g>
																	<g>
																		<path style="fill:#263238;" d="M121.129,107.11c-0.221,0.455-1.933,0.048-3.998,0.078
																			c-2.066-0.011-3.773,0.413-3.999-0.039c-0.099-0.215,0.235-0.63,0.948-1.017c0.707-0.387,1.804-0.711,3.043-0.718
																			c1.238-0.005,2.339,0.308,3.05,0.688C120.888,106.483,121.226,106.894,121.129,107.11z"/>
																	</g>
																</g>
															</g>
														</g>
													</g>
												</g>
											</g>
										</g>
									</g>
								</g>
							</g>
							<g>
								<g>
									<g>
										<g>
											<g>
												<g>
													<g>
														<g>
															<g>
																<g>
																	<g>
																		<path style="fill:#263238;" d="M137.472,109.412c-0.347,0.363-1.502-0.174-2.939-0.345
																			c-1.432-0.221-2.687-0.015-2.924-0.458c-0.102-0.213,0.132-0.588,0.704-0.906
																			c0.564-0.317,1.475-0.529,2.461-0.395c0.986,0.136,1.805,0.584,2.264,1.041
																			C137.503,108.809,137.627,109.233,137.472,109.412z"/>
																	</g>
																</g>
															</g>
														</g>
													</g>
												</g>
											</g>
										</g>
									</g>
								</g>
							</g>
							<g>
								<g>
									<g>
										<g>
											<g>
												<g>
													<g>
														<path style="fill:#FFBF9D;" d="M101.327,118.638c-0.184-0.104-7.53-3.118-8.098,4.641
															c-0.568,7.759,7.339,6.729,7.369,6.507C100.627,129.565,101.327,118.638,101.327,118.638z"/>
													</g>
												</g>
											</g>
										</g>
									</g>
								</g>
							</g>
							<g>
								<g>
									<g>
										<g>
											<g>
												<g>
													<g>
														<g>
															<path style="fill:#FF9A6C;" d="M98.443,126.674c-0.032-0.027-0.142,0.085-0.378,0.173
																c-0.23,0.086-0.619,0.128-1.012-0.053c-0.798-0.361-1.393-1.713-1.328-3.114c0.032-0.707,0.229-1.369,0.52-1.907
																c0.279-0.55,0.675-0.92,1.093-0.963c0.418-0.065,0.692,0.204,0.771,0.429c0.088,0.225,0.027,0.376,0.068,0.392
																c0.02,0.021,0.176-0.118,0.137-0.443c-0.021-0.157-0.099-0.346-0.27-0.509c-0.175-0.165-0.443-0.262-0.733-0.252
																c-0.601-0.003-1.18,0.508-1.5,1.099c-0.353,0.592-0.591,1.334-0.627,2.129c-0.065,1.567,0.629,3.089,1.727,3.495
																c0.535,0.183,1.003,0.051,1.251-0.115C98.415,126.86,98.469,126.69,98.443,126.674z"/>
														</g>
													</g>
												</g>
											</g>
										</g>
									</g>
								</g>
							</g>
							<g>
								<g>
									<g>
										<g>
											<g>
												<g>
													<g>
														<path style="fill:#263238;" d="M136.298,97.641c1.301-0.612-2.208-4.924-5.205-6.524
															c-4.53-2.418-11.573-4.18-15.954-3.237c-5.275,1.135-9.745,3.436-12.649,7.984c-2.905,4.548-4.236,9.978-4.431,15.371
															c-0.06,1.646,0,3.368,0.788,4.814c0.974,1.786,2.985,3.001,2.741,5.363c-0.089,0.863,0.102,1.753,0.654,2.422
															c1.323,1.603,3.152,0.295,4.043-1.078c1.902-2.931,2.326-6.549,2.7-10.023c0.266-2.469,0.529-4.992-0.016-7.415
															c-0.296-1.318-0.828-2.58-1.051-3.913s-0.087-2.821,0.799-3.84c0.144-0.166,0.378-0.372,0.672-0.597
															c2.322-1.786,5.438-2.164,8.131-1.012c4.272,1.828,11.59,4.619,13.635,3.26c2.943-1.954,3.703-3.303,3.703-3.303
															L136.298,97.641z"/>
													</g>
												</g>
											</g>
										</g>
									</g>
								</g>
							</g>
						</g>
					</g>
				</g>
			</g>
		</g>
	</g>
</g>
</svg>
