<?xml version="1.0" encoding="utf-8"?>
<!-- Generator: Adobe Illustrator 27.5.0, SVG Export Plug-In . SVG Version: 6.00 Build 0)  -->
<svg version="1.1" xmlns="http://www.w3.org/2000/svg" xmlns:xlink="http://www.w3.org/1999/xlink" x="0px" y="0px"
	 viewBox="0 0 500 500" style="enable-background:new 0 0 500 500;" xml:space="preserve">
<g id="Background_Complete">
	<g>
		<path style="fill:#EBEBEB;" d="M140.557,461.079c-3.262,1.685-5.886,4.571-7.253,7.978c-3.585-3.771-5.741-8.871-5.947-14.071
			c-4.106,1.649-6.86,6.168-6.444,10.573c-6.372-5.944-12.743-11.888-19.115-17.832c-0.982,7.019-1.965,14.038-2.947,21.057
			c-3.654-10.397-8.963-20.211-15.666-28.959c-0.137,7.949-0.273,15.899-0.41,23.848c-9.157-18.439-22.994-34.53-39.853-46.345
			c4.997,11.063,10.03,22.234,12.529,34.113c-4.677-9.415-12.587-17.187-22.083-21.698c10.342,13.984,17.647,29.73,21.478,46.695
			l91.67,0.061c0,0-3.894-10.093,2.904-13.489L140.557,461.079z"/>
	</g>
	<g>
		
			<ellipse transform="matrix(0.7071 -0.7071 0.7071 0.7071 -46.6413 100.6797)" style="fill:#EBEBEB;" cx="98.21" cy="106.641" rx="59.598" ry="59.598"/>
	</g>
	<g>
		<path style="fill:#EBEBEB;" d="M478.714,388.451c-19.351,10.731-33.116,30.979-35.976,52.921
			c0.271-18.447,3.288-36.852,8.92-54.42c-13.279,16.09-21.293,36.455-22.541,57.28c-0.839-11.595-1.678-23.19-2.517-34.785
			c-8.244,15.967-8.966,34.618-9.517,52.579c-3.525-7.424-8.46-14.176-14.464-19.787c2.32,11.033,4.684,23.341,7.004,34.374
			l47.543-0.113l-0.883-9.503C453.42,439.246,461.627,410.505,478.714,388.451z"/>
	</g>
	<g>
		<g>
			<path style="fill:#F5F5F5;" d="M435.353,170.729c0.634-4.604-5.864-8.392-10.747-8.786c-2.328-0.188-4.747,0.168-6.953-0.601
				c-4.78-1.666-6.689-7.841-11.352-9.808c-3.487-1.471-7.501-0.161-10.881,1.54c-3.38,1.701-6.72,3.842-10.497,4.084
				c-3.285,0.21-6.852-1.008-9.726,0.597c-2.142,1.196-3.263,3.663-5.237,5.119c-1.931,1.424-4.45,1.726-6.846,1.856
				c-2.396,0.13-4.877,0.155-7.058,1.153c-2.182,0.999-3.987,3.306-3.534,5.662L435.353,170.729z"/>
		</g>
	</g>
	<g>
		<g>
			<path style="fill:#EBEBEB;" d="M311.07,87.144c0.551-4.005-5.102-7.3-9.349-7.643c-2.026-0.163-4.13,0.146-6.049-0.522
				c-4.158-1.449-5.819-6.821-9.876-8.532c-3.033-1.279-6.525-0.14-9.465,1.339c-2.94,1.48-5.846,3.342-9.131,3.552
				c-2.857,0.183-5.96-0.877-8.461,0.519c-1.863,1.04-2.839,3.187-4.556,4.453c-1.68,1.239-3.871,1.501-5.956,1.615
				c-2.084,0.113-4.242,0.134-6.14,1.003c-1.898,0.869-3.468,2.876-3.074,4.926L311.07,87.144z"/>
		</g>
	</g>
	<g>
		<g>
			<path style="fill:#EBEBEB;" d="M154.926,247.617c0.77-5.592-7.122-10.192-13.052-10.669c-2.828-0.228-5.765,0.204-8.444-0.729
				c-5.804-2.023-8.123-9.522-13.786-11.911c-4.234-1.786-9.109-0.196-13.214,1.87c-4.105,2.066-8.161,4.666-12.747,4.959
				c-3.989,0.255-8.321-1.224-11.811,0.725c-2.601,1.452-3.963,4.449-6.36,6.217c-2.345,1.73-5.404,2.096-8.314,2.254
				c-2.91,0.158-5.922,0.188-8.571,1.401c-2.65,1.213-4.841,4.015-4.292,6.876L154.926,247.617z"/>
		</g>
	</g>
	<g>
		<g>
			<g>
				<g>
					<g>
						<g>
							<g>
								<g>
									<g>
										
											<ellipse transform="matrix(0.9435 -0.3315 0.3315 0.9435 -50.0963 145.6314)" style="fill:#EBEBEB;" cx="401.851" cy="219.666" rx="28.413" ry="28.413"/>
									</g>
								</g>
							</g>
						</g>
					</g>
				</g>
			</g>
			<g>
				<g>
					<g>
						<g>
							<g>
								<g>
									<g>
										<path style="fill:#FFFFFF;" d="M392.301,220.711c-2.242,1.235-5.06,0.419-6.295-1.822
											c-1.235-2.242-0.419-5.06,1.822-6.295c2.242-1.235,5.06-0.419,6.295,1.822
											C395.358,216.658,394.543,219.476,392.301,220.711z"/>
									</g>
								</g>
							</g>
						</g>
					</g>
				</g>
			</g>
			<g>
				<g>
					<g>
						<g>
							<g>
								<g>
									<g>
										<path style="fill:#FFFFFF;" d="M400.841,208.501c-1.304,0.718-2.943,0.244-3.662-1.06
											c-0.718-1.304-0.244-2.943,1.06-3.662c1.304-0.719,2.944-0.244,3.662,1.06
											C402.62,206.143,402.145,207.783,400.841,208.501z"/>
									</g>
								</g>
							</g>
						</g>
					</g>
				</g>
			</g>
		</g>
		<g>
			<g>
				<g>
					<g>
						<g>
							<g>
								<g>
									<path style="fill:#E0E0E0;" d="M382.497,198.859c-0.37,0.349-32.71-9.742-34.046-1.811
										c-1.336,7.93,22.683,24.959,49.573,35.942c26.889,10.983,56.26,18.366,58.672,10.587
										c2.412-7.779-26.429-24.129-26.429-24.129l-0.256,3.994c0,0,17.833,9.667,16.716,16.449
										c-1.118,6.782-23.091,1.312-47.468-10.063c-24.377-11.375-44.259-24.388-42.026-29.34
										c2.233-4.951,22.349,1.522,22.349,1.522L382.497,198.859z"/>
								</g>
							</g>
						</g>
					</g>
				</g>
			</g>
		</g>
		<g>
			<g>
				<g>
					<g>
						<g>
							<g>
								<g>
									<g>
										<path style="fill:#FFFFFF;" d="M411.824,196.294c-0.129,0.333-2.491-0.565-6.416-0.891
											c-3.882-0.351-9.464,0.12-14.721,2.874c-5.253,2.767-8.808,7.097-10.722,10.493c-1.959,3.417-2.559,5.87-2.907,5.788
											c-0.243-0.03-0.19-2.667,1.524-6.497c0.85-1.904,2.158-4.057,3.998-6.143c1.833-2.085,4.232-4.07,7.085-5.587
											c2.867-1.488,5.862-2.336,8.619-2.662c2.761-0.332,5.276-0.187,7.326,0.193
											C409.735,194.624,411.937,196.077,411.824,196.294z"/>
									</g>
								</g>
							</g>
						</g>
					</g>
				</g>
			</g>
		</g>
	</g>
	<g>
		<g>
			<g>
				<g>
					<g>
						<g>
							<g>
								<g>
									
										<ellipse transform="matrix(0.9436 -0.331 0.331 0.9436 -12.3795 153.4364)" style="fill:#E0E0E0;" cx="444.343" cy="113.068" rx="18.57" ry="18.57"/>
								</g>
							</g>
						</g>
					</g>
				</g>
			</g>
		</g>
		<g>
			<g>
				<g>
					<g>
						<g>
							<g>
								<g>
									<path style="fill:#F5F5F5;" d="M450.394,105.955c0.04-1.672,1.427-2.996,3.1-2.956c1.672,0.04,2.996,1.427,2.956,3.1
										c-0.04,1.672-1.427,2.996-3.1,2.956C451.678,109.015,450.354,107.627,450.394,105.955z"/>
								</g>
							</g>
						</g>
					</g>
				</g>
			</g>
		</g>
		<g>
			<g>
				<g>
					<g>
						<g>
							<g>
								<g>
									<path style="fill:#F5F5F5;" d="M456.451,113.026c0.023-0.973,0.83-1.743,1.803-1.72c0.973,0.023,1.743,0.83,1.72,1.803
										c-0.023,0.973-0.83,1.743-1.803,1.719C457.198,114.806,456.428,113.999,456.451,113.026z"/>
								</g>
							</g>
						</g>
					</g>
				</g>
			</g>
		</g>
		<g>
			<g>
				<g>
					<g>
						<g>
							<g>
								<g>
									<path style="fill:#F5F5F5;" d="M454.087,118.436c0.359,0.008,0.643,0.306,0.634,0.665
										c-0.009,0.359-0.306,0.643-0.665,0.634s-0.643-0.306-0.634-0.665C453.431,118.712,453.728,118.428,454.087,118.436z"/>
								</g>
							</g>
						</g>
					</g>
				</g>
			</g>
		</g>
	</g>
</g>
<g id="Background_Simple" style="display:none;">
	<path style="display:inline;fill:#EBEBEB;" d="M439.021,108.694l-2.457-3.998c-20.714-33.706-58.164-54.025-97.649-51.559
		c-5.076,0.317-10.13,0.995-15.116,2.049c-35.9,7.588-67.138,34.396-80.085,68.729c-7.615,20.192-9.742,43.44-24.193,59.467
		c-18.807,20.859-50.736,21.514-78.807,20.649c-28.072-0.864-60.022-0.127-78.737,20.814C50.255,237.96,46.53,256.61,47.475,274.174
		c2.502,46.5,35.316,88.079,77.046,108.745s90.864,22.517,136.535,13.426c63.98-12.736,124.825-47.711,161.398-101.731
		C459.027,240.595,468.283,166.998,439.021,108.694z"/>
</g>
<g id="Floor">
	<g>
		<g>
			<path style="fill:#263238;" d="M467.274,476.5c0,0.144-97.285,0.26-217.264,0.26c-120.021,0-217.284-0.116-217.284-0.26
				s97.264-0.26,217.284-0.26C369.989,476.24,467.274,476.357,467.274,476.5z"/>
		</g>
	</g>
</g>
<g id="Plant">
	<g>
		<g>
			<g>
				<path style="fill:#263238;" d="M100.088,476.5c-0.018,0.003-0.063-0.168-0.132-0.496c-0.075-0.387-0.166-0.861-0.277-1.435
					c-0.22-1.249-0.578-3.049-1.071-5.26c-0.983-4.419-2.622-10.482-5.29-16.856c-1.349-3.18-2.832-6.118-4.308-8.72
					c-0.779-1.276-1.48-2.514-2.241-3.605c-0.369-0.551-0.727-1.085-1.072-1.599c-0.365-0.496-0.716-0.973-1.052-1.43
					c-0.651-0.927-1.318-1.704-1.881-2.405c-0.554-0.709-1.064-1.293-1.492-1.76c-0.384-0.441-0.701-0.804-0.96-1.101
					c-0.215-0.256-0.323-0.397-0.31-0.409c0.013-0.013,0.145,0.103,0.385,0.336c0.279,0.279,0.62,0.622,1.034,1.037
					c0.453,0.447,0.987,1.014,1.565,1.709c0.587,0.687,1.277,1.453,1.952,2.37c0.347,0.454,0.71,0.927,1.086,1.419
					c0.365,0.503,0.722,1.042,1.103,1.592c0.783,1.088,1.502,2.326,2.298,3.605c1.508,2.606,3.016,5.56,4.373,8.759
					c2.685,6.415,4.276,12.528,5.17,16.981c0.448,2.229,0.752,4.044,0.911,5.305c0.072,0.581,0.132,1.061,0.181,1.452
					C100.096,476.322,100.106,476.498,100.088,476.5z"/>
			</g>
		</g>
		<g>
			<g>
				<path style="fill:#263238;" d="M72.263,446.416c0.012-0.034,0.539,0.145,1.484,0.498c0.476,0.168,1.051,0.394,1.692,0.718
					c0.643,0.315,1.399,0.634,2.169,1.109c0.788,0.443,1.645,0.94,2.509,1.561c0.899,0.572,1.774,1.299,2.712,2.04
					c1.819,1.552,3.685,3.421,5.392,5.595c1.68,2.196,3.024,4.471,4.072,6.62c0.484,1.094,0.969,2.123,1.298,3.136
					c0.386,0.992,0.652,1.946,0.885,2.82c0.267,0.864,0.388,1.676,0.532,2.377c0.153,0.701,0.228,1.314,0.272,1.817
					c0.106,1.004,0.147,1.558,0.111,1.561c-0.118,0.016-0.282-2.218-1.271-5.657c-0.253-0.858-0.536-1.794-0.935-2.768
					c-0.342-0.994-0.837-2.004-1.326-3.078c-1.059-2.109-2.395-4.344-4.052-6.509c-1.683-2.144-3.512-3.996-5.29-5.548
					c-0.918-0.741-1.772-1.472-2.649-2.052c-0.843-0.629-1.679-1.138-2.447-1.597C74.341,447.243,72.218,446.526,72.263,446.416z"/>
			</g>
		</g>
		<g>
			<g>
				<path style="fill:#263238;" d="M97.741,416.464c0.018,0,0.041,0.212,0.067,0.617c0.023,0.46,0.053,1.047,0.09,1.77
					c0.06,1.537,0.172,3.761,0.342,6.505c0.335,5.488,1.007,13.06,2.247,21.357c1.249,8.298,2.829,15.735,4.119,21.08
					c0.643,2.673,1.188,4.832,1.582,6.319c0.177,0.702,0.32,1.272,0.433,1.718c0.093,0.395,0.134,0.604,0.117,0.609
					c-0.017,0.005-0.092-0.195-0.218-0.58c-0.137-0.44-0.312-1.001-0.528-1.693c-0.454-1.472-1.054-3.618-1.744-6.284
					c-1.383-5.331-3.024-12.774-4.276-21.091c-1.243-8.316-1.858-15.912-2.1-21.414c-0.123-2.751-0.179-4.98-0.177-6.52
					c0.003-0.725,0.006-1.312,0.008-1.773C97.711,416.678,97.723,416.465,97.741,416.464z"/>
			</g>
		</g>
		<g>
			<g>
				<path style="fill:#263238;" d="M62.819,461.41c0.018-0.031,0.284,0.092,0.75,0.342c0.469,0.245,1.125,0.641,1.914,1.163
					c1.577,1.043,3.656,2.666,5.633,4.788c1.972,2.127,3.439,4.32,4.364,5.969c0.463,0.826,0.809,1.509,1.02,1.994
					c0.215,0.483,0.318,0.757,0.286,0.773c-0.075,0.038-0.624-0.991-1.622-2.579c-0.998-1.586-2.488-3.71-4.43-5.804
					c-1.946-2.089-3.954-3.731-5.463-4.841C63.762,462.105,62.776,461.482,62.819,461.41z"/>
			</g>
		</g>
		<g>
			<g>
				<path style="fill:#263238;" d="M78.699,459.992c0.074-0.004,0.18,0.92,0.328,2.411c0.149,1.491,0.35,3.55,0.624,5.817
					c0.275,2.268,0.571,4.315,0.782,5.799c0.212,1.484,0.329,2.406,0.257,2.42c-0.068,0.013-0.314-0.885-0.619-2.357
					c-0.305-1.472-0.66-3.52-0.936-5.799c-0.275-2.278-0.419-4.352-0.474-5.854C78.605,460.927,78.63,459.996,78.699,459.992z"/>
			</g>
		</g>
		<g>
			<g>
				<path style="fill:#263238;" d="M228.647,423.98c0.018,0.002,0.018,0.188,0.003,0.54c-0.024,0.41-0.055,0.918-0.091,1.538
					c-0.098,1.333-0.212,3.264-0.318,5.65c-0.218,4.772-0.294,11.377,0.156,18.65c0.46,7.275,1.36,13.82,2.171,18.527
					c0.403,2.354,0.757,4.256,1.02,5.566c0.114,0.61,0.207,1.11,0.282,1.514c0.059,0.348,0.082,0.532,0.064,0.536
					c-0.018,0.004-0.074-0.173-0.166-0.513c-0.101-0.399-0.226-0.892-0.378-1.494c-0.325-1.299-0.734-3.193-1.185-5.544
					c-0.906-4.701-1.866-11.261-2.328-18.56c-0.452-7.297-0.317-13.925-0.005-18.702c0.154-2.389,0.324-4.319,0.484-5.648
					c0.076-0.616,0.139-1.122,0.189-1.53C228.595,424.16,228.63,423.978,228.647,423.98z"/>
			</g>
		</g>
		<g>
			<g>
				<path style="fill:#263238;" d="M236.735,452.48c0.076,0.02-0.208,1.331-0.612,3.458c-0.405,2.126-0.9,5.075-1.263,8.355
					c-0.359,3.281-0.516,6.268-0.582,8.431c-0.068,2.164-0.075,3.506-0.154,3.508c-0.036,0.001-0.077-0.333-0.121-0.94
					c-0.047-0.606-0.08-1.485-0.093-2.572c-0.027-2.174,0.072-5.182,0.433-8.484c0.365-3.3,0.921-6.258,1.42-8.374
					c0.249-1.058,0.472-1.909,0.65-2.491C236.587,452.788,236.7,452.471,236.735,452.48z"/>
			</g>
		</g>
		<g>
			<g>
				<path style="fill:#263238;" d="M335.304,429.616c0.018,0,0.038,0.165,0.06,0.48c0.019,0.375,0.042,0.83,0.069,1.377
					c0.053,1.278,0.123,2.987,0.209,5.062c0.186,4.273,0.525,10.171,1.112,16.669c0.592,6.499,1.32,12.363,1.905,16.6
					c0.289,2.056,0.527,3.75,0.705,5.016c0.072,0.543,0.131,0.994,0.18,1.367c0.035,0.313,0.046,0.48,0.028,0.483
					c-0.018,0.003-0.062-0.157-0.131-0.465c-0.075-0.368-0.167-0.814-0.276-1.351c-0.232-1.175-0.531-2.882-0.87-4.996
					c-0.68-4.228-1.467-10.096-2.06-16.607c-0.588-6.509-0.869-12.422-0.961-16.703c-0.048-2.141-0.06-3.874-0.043-5.071
					c0.011-0.548,0.021-1.003,0.029-1.379C335.271,429.782,335.286,429.616,335.304,429.616z"/>
			</g>
		</g>
		<g>
			<g>
				<path style="fill:#263238;" d="M346.506,452.736c0.078,0.028-0.347,1.322-0.917,3.44c-0.57,2.117-1.243,5.074-1.657,8.391
					c-0.408,3.318-0.477,6.35-0.441,8.543c0.036,2.193,0.132,3.551,0.05,3.559c-0.036,0.004-0.099-0.332-0.182-0.944
					c-0.088-0.611-0.171-1.5-0.236-2.602c-0.131-2.203-0.12-5.268,0.292-8.62c0.418-3.35,1.155-6.325,1.82-8.429
					c0.332-1.053,0.63-1.895,0.864-2.466C346.329,453.034,346.472,452.724,346.506,452.736z"/>
			</g>
		</g>
		<g>
			<g>
				<path style="fill:#263238;" d="M479.623,420.999c0.01,0.015-0.169,0.159-0.517,0.418c-0.395,0.286-0.904,0.655-1.536,1.112
					c-0.34,0.242-0.712,0.506-1.116,0.792c-0.402,0.298-0.813,0.655-1.269,1.02c-0.895,0.75-1.972,1.534-3.021,2.566
					c-0.54,0.5-1.104,1.023-1.691,1.567c-0.59,0.543-1.133,1.178-1.735,1.797c-1.224,1.221-2.374,2.664-3.612,4.158
					c-2.373,3.068-4.741,6.634-6.769,10.63c-1.984,4.019-3.426,8.05-4.452,11.791c-0.445,1.888-0.911,3.675-1.144,5.388
					c-0.13,0.853-0.308,1.67-0.385,2.468c-0.077,0.796-0.152,1.562-0.223,2.294c-0.188,1.46-0.155,2.791-0.206,3.958
					c-0.012,0.583-0.047,1.127-0.038,1.627c0.019,0.494,0.037,0.95,0.053,1.367c0.023,0.779,0.042,1.408,0.056,1.895
					c0.007,0.434,0.002,0.663-0.016,0.665c-0.018,0.002-0.048-0.224-0.089-0.656c-0.04-0.487-0.091-1.115-0.154-1.894
					c-0.03-0.418-0.063-0.875-0.099-1.371c-0.023-0.502-0.003-1.048-0.005-1.635c0.024-1.173-0.035-2.513,0.13-3.984
					c0.061-0.738,0.125-1.51,0.191-2.313c0.068-0.804,0.237-1.629,0.358-2.49c0.216-1.729,0.669-3.533,1.105-5.44
					c1.009-3.778,2.449-7.85,4.451-11.903c2.045-4.03,4.446-7.619,6.858-10.695c1.258-1.498,2.43-2.941,3.676-4.158
					c0.613-0.616,1.167-1.249,1.769-1.788c0.599-0.539,1.174-1.057,1.725-1.552c1.071-1.021,2.171-1.79,3.087-2.522
					c0.467-0.355,0.888-0.703,1.301-0.99c0.415-0.274,0.797-0.527,1.147-0.758c0.656-0.425,1.185-0.768,1.595-1.034
					C479.416,421.098,479.613,420.984,479.623,420.999z"/>
			</g>
		</g>
		<g>
			<g>
				<path style="fill:#263238;" d="M473.685,448.175c0.06,0.08-1.497,1.199-3.731,3.317c-1.123,1.052-2.379,2.389-3.686,3.944
					c-1.285,1.574-2.608,3.378-3.836,5.375c-1.211,2.009-2.205,4.014-3.013,5.878c-0.781,1.876-1.392,3.605-1.811,5.086
					c-0.855,2.958-1.133,4.854-1.232,4.838c-0.035-0.005,0.014-0.481,0.135-1.34c0.055-0.43,0.137-0.955,0.272-1.556
					c0.13-0.602,0.253-1.295,0.47-2.04c0.377-1.506,0.957-3.266,1.723-5.173c0.792-1.895,1.786-3.931,3.011-5.964
					c1.243-2.022,2.594-3.839,3.913-5.413c1.342-1.556,2.639-2.88,3.803-3.906c0.563-0.535,1.121-0.962,1.596-1.354
					c0.472-0.396,0.9-0.71,1.257-0.957C473.264,448.409,473.664,448.146,473.685,448.175z"/>
			</g>
		</g>
	</g>
</g>
<g id="Numbers">
	<g>
		<g>
			<g>
				<g>
					<path style="fill:#E8505B;" d="M228.667,445.575c-1.497,18.268-16.207,33.081-45.672,30.666
						c-14.291-1.171-28.991-6.38-38.429-14.273l3.499-17.763l7.426,0.268c7.324,6.532,17.802,10.802,28.556,11.683
						c11.933,0.978,19.71-3.427,20.398-11.825c0.664-8.102-4.206-13.84-22.916-15.373l-26.37-2.161l10.061-57.611l62.906,5.155
						l-1.569,19.152l-43.019-3.526l-3.226,19.462l8.398,0.689C219.206,412.617,230.164,427.308,228.667,445.575z"/>
				</g>
			</g>
		</g>
		<g style="opacity:0.4;">
			<g>
				<g>
					<path d="M228.667,445.575c-1.497,18.268-16.207,33.081-45.672,30.666c-14.291-1.171-28.991-6.38-38.429-14.273l3.499-17.763
						l7.426,0.268c7.324,6.532,17.802,10.802,28.556,11.683c11.933,0.978,19.71-3.427,20.398-11.825
						c0.664-8.102-4.206-13.84-22.916-15.373l-26.37-2.161l10.061-57.611l62.906,5.155l-1.569,19.152l-43.019-3.526l-3.226,19.462
						l8.398,0.689C219.206,412.617,230.164,427.308,228.667,445.575z"/>
				</g>
			</g>
		</g>
		<g>
			<g>
				<g>
					<path style="fill:#E8505B;" d="M221.192,444.944c-1.497,18.268-16.207,33.081-45.672,30.666
						c-14.291-1.171-28.991-6.38-38.429-14.273l10.925-17.495c7.324,6.532,17.802,10.802,28.556,11.683
						c11.933,0.978,19.71-3.427,20.398-11.825c0.664-8.102-4.206-13.84-22.916-15.373l-26.37-2.161l10.061-57.611l62.907,5.155
						l-1.569,19.152l-43.019-3.526l-3.226,19.462l8.398,0.689C211.731,411.985,222.688,426.676,221.192,444.944z"/>
				</g>
			</g>
		</g>
		<g>
			<g style="opacity:0.2;">
				<path d="M190.222,453.458l10.574,7.688l1.635,4.231l0.258-7.142l-7.511-8.935C195.178,449.3,193.439,452.382,190.222,453.458z"
					/>
			</g>
			<g style="opacity:0.2;">
				<path d="M196.861,444.613c0,0,5.323,6.655,6.069,6.951c0.746,0.296,12.213,3.403,12.213,3.403l2.314,3.045l1.778-4.513
					l-2.492-1.841l-10.297-1.951l-9.44-9.128L196.861,444.613z"/>
			</g>
			<g style="opacity:0.2;">
				<path d="M196.35,438.44l9.575,3.584c0.555-0.447,10.002-1.344,10.952-1.558c0.95-0.214,4.542,0.993,4.542,0.993l-0.747-5.412
					l-14.647,2.951l-11.439-3.892L196.35,438.44z"/>
			</g>
			<g style="opacity:0.2;">
				<path d="M212.995,421.233l-9.588,7.272l-12.922,3.404l2.496,1.579l7.786-0.57l10.745-0.038l7.756-2.699l-1.49-2.926
					c0,0-13.971,3.964-12.867,2.833c1.104-1.13,9.939-7.194,9.939-7.194L212.995,421.233"/>
			</g>
			<g style="opacity:0.2;">
				<path d="M206.721,416.434l-7.043,8.735l-12.161,5.846l-2.965-1.226l9.4-7.836l6.242-8.627
					C202.566,414.227,204.768,415.245,206.721,416.434z"/>
			</g>
			<g style="opacity:0.2;">
				<path d="M148.852,422.149c0,0,5.002,3.373,7.81,3.362c2.808-0.011,17.053-5.695,17.053-5.695l12.018,0.433l10.233-6.269
					l-10.953,3.015l-10.366-0.775l-12.143,3.029l-12.214-6.114L148.852,422.149z"/>
			</g>
			<g style="opacity:0.2;">
				<polygon points="172.753,408.536 160.236,406.183 150.82,408.414 151.755,403.627 163.138,402.776 173.357,405.377 				"/>
			</g>
			<g style="opacity:0.2;">
				<path d="M153.235,394.822c0,0,14.196,5.064,16.122,5.235c1.926,0.171,4.856,0.684,4.856,0.684l0.516-3.032l-9.36-2.676
					l-10.641-9.433l-0.451,4.051l4.412,4.531l-5.015-1.909L153.235,394.822z"/>
			</g>
			<g style="opacity:0.2;">
				<path d="M155.911,379.887c0,0,10.986,7.623,13.845,7.558c2.86-0.065,10.118-0.939,10.118-0.939l20.34,4.558l9.449,1.181
					l-22.305-8.199c0,0-13.048-3.832-13.106-3.498s-7.138,0.919-7.138,0.919l-9.738-9.595L155.911,379.887z"/>
			</g>
			<g style="opacity:0.2;">
				<polygon points="169.384,369.802 178.008,377.676 198.071,380.584 212.568,388.711 202.306,379.665 187.468,376.336 
					178.336,370.124 				"/>
			</g>
			<g style="opacity:0.2;">
				<path d="M140.053,457.42c0,0,9.211-1.974,9.968-1.841c0.757,0.133,15.498,8.467,15.498,8.467s16.198-0.363,16.768-0.342
					c0.57,0.021,11.026,6.681,11.026,6.681l-8.43-10.015l-19.79-0.333l-10.673-10.286l-10.901,1.321L140.053,457.42z"/>
			</g>
			<g style="opacity:0.2;">
				<path d="M147.214,467.569c0,0,4.855-1.901,6.914-1.412c2.059,0.49,9.127,4.077,9.127,4.077l10.54-0.553l10.468,1.443
					l9.514,3.523c0,0-5.931,0.755-8.158,1.09l-6.269-2.718l-12.969-0.745l-7.363,0.288l-4.854-3.59l-4.7-0.17L147.214,467.569z"/>
			</g>
		</g>
		<g style="opacity:0.2;">
			<polygon points="204.454,372.414 210.106,379.946 219.749,384.725 220.021,381.405 212.178,378.572 209.115,372.582 			"/>
		</g>
	</g>
	<g>
		<g>
			<g>
				<g>
					<path style="fill:#E8505B;" d="M241.34,426.183c-4.388-34.265,12.11-56.129,37.623-59.396
						c25.661-3.286,46.988,13.734,51.375,47.999c4.388,34.263-11.961,56.107-37.622,59.393
						C267.203,477.446,245.728,460.446,241.34,426.183z M306.16,417.883c-3.02-23.585-12.58-32.311-24.595-30.773
						c-11.867,1.52-18.919,12.373-15.898,35.958c3.02,23.584,12.579,32.309,24.446,30.79
						C302.128,452.319,309.181,441.466,306.16,417.883z"/>
				</g>
			</g>
			<g style="opacity:0.4;">
				<g>
					<path d="M241.34,426.183c-4.388-34.265,12.11-56.129,37.623-59.396c25.661-3.286,46.988,13.734,51.375,47.999
						c4.388,34.263-11.961,56.107-37.622,59.393C267.203,477.446,245.728,460.446,241.34,426.183z M306.16,417.883
						c-3.02-23.585-12.58-32.311-24.595-30.773c-11.867,1.52-18.919,12.373-15.898,35.958c3.02,23.584,12.579,32.309,24.446,30.79
						C302.128,452.319,309.181,441.466,306.16,417.883z"/>
				</g>
			</g>
		</g>
		<g>
			<g>
				<path style="fill:#E8505B;" d="M232.573,428.108c-4.388-34.265,12.11-56.129,37.623-59.396
					c25.661-3.286,46.988,13.734,51.375,47.999c4.388,34.263-11.961,56.107-37.622,59.393
					C258.435,479.371,236.961,462.371,232.573,428.108z M297.393,419.807c-3.02-23.585-12.58-32.312-24.595-30.773
					c-11.867,1.52-18.919,12.373-15.898,35.958c3.02,23.584,12.579,32.309,24.446,30.79
					C293.361,454.244,300.413,443.391,297.393,419.807z"/>
			</g>
		</g>
		<g style="opacity:0.2;">
			<path d="M261.04,473.071c0,0,9.281-4.078,10.023-4.28c0.742-0.202,14.728,2.466,14.728,2.466l12.112-5.084l9.292-0.275
				l2.786-2.723l-14.466-1.931l-12.871,4.709l-16.771-0.777l-9.482,5.478L261.04,473.071z"/>
		</g>
		<g style="opacity:0.2;">
			<polygon points="251.155,466.884 263.656,461.054 276.539,461.805 263.675,458.516 251.027,462.559 246.006,461.713 			"/>
		</g>
		<g style="opacity:0.2;">
			<path d="M290.83,451.657c0,0,8.243,0.675,9.665,0.775c1.423,0.1,10.938-4.582,10.938-4.582l7.235,1.043l1.001-2.925l-8.315-0.812
				l-10.925,5.008l-6.861-1.642L290.83,451.657z"/>
		</g>
		<g style="opacity:0.2;">
			<polygon points="266.038,450.057 259.117,450.178 249.892,452.867 239.87,452.525 237.662,447.827 247.43,448.606 
				257.996,445.88 263.857,447.18 			"/>
		</g>
		<g style="opacity:0.2;">
			<path d="M296.993,439.613l9.165-0.291l11.425-7.423l4.498,0.98c0,0,0.307-5.355,0.151-8.222l-7.63,3.361l-9.74,7.734
				l-7.112,0.305C297.75,436.057,297.343,438.606,296.993,439.613z"/>
		</g>
		<g style="opacity:0.2;">
			<polygon points="260.654,440.824 250.599,441.121 242.802,442.247 235.046,440.321 234.192,437.054 241.313,439.567 
				248.258,436.639 259.653,437.997 			"/>
		</g>
		<g style="opacity:0.2;">
			<path d="M232.573,428.108c0,0,7.34,3.299,8.494,3.155c1.154-0.144,12.935-0.38,12.935-0.38l3.937,0.457l-0.597-3.289l-8.89-1.214
				l-8.47,0.25l-8.056-6.657L232.573,428.108z"/>
		</g>
		<g style="opacity:0.2;">
			<polygon points="298.125,430.153 302.904,429.24 312.04,421.373 317.69,413.278 321.342,415.045 321.047,413.179 
				314.932,410.549 308.127,420.303 297.984,425.373 			"/>
		</g>
		<g style="opacity:0.2;">
			<polygon points="247.076,378.851 256.555,384.517 270.849,379.613 286.395,383.635 297.772,378.817 284.621,379.206 
				273.177,375.652 257.696,380.002 252.466,374.844 			"/>
		</g>
		<g style="opacity:0.2;">
			<path d="M232.167,410.846c0,0,16.347,8.673,16.963,9.077c0.616,0.404,7.246-0.214,7.246-0.214l-0.112-3.805l-6.066-0.739
				l-16.988-11.311L232.167,410.846z"/>
		</g>
		<g style="opacity:0.2;">
			<polygon points="294.202,405.504 299.457,399.818 315.123,393.927 317.483,399.503 303.886,402.709 296.23,413.803 			"/>
		</g>
		<g style="opacity:0.2;">
			<polygon points="234.983,397.391 244.372,406.404 256.947,406.032 258.176,401.351 247.75,401.659 237.627,391.142 			"/>
		</g>
		<g style="opacity:0.2;">
			<path d="M271.081,389.335l5.024-2.166l15.536,0.55l13.831-7.57l3.109,3.423l-16.591,9.556l-6.921-1.248
				C285.068,391.88,280.295,387.539,271.081,389.335z"/>
		</g>
		<g style="opacity:0.2;">
			<path d="M240.884,385.755c0,0,13.362,9.241,13.094,8.496c-0.267-0.745-9.609-12.768-9.609-12.768L240.884,385.755z"/>
		</g>
	</g>
</g>
<g id="Dinosaur">
	<g>
		<g>
			<g>
				<path style="fill:#E8505B;" d="M147.407,208.623l0.214-0.048c-1.166-0.034-2.291,0.268-3.352,0.757
					c-0.009,0.003-0.017,0.005-0.026,0.008l0.02-0.004c-0.987,0.457-1.918,1.076-2.767,1.753c-1.762,1.406-3.314,3.081-5.203,4.31
					c-2.913,1.896-6.569,2.615-9.983,1.965c1.619,2.773,5.243,3.819,8.426,3.393c3.183-0.425,6.067-2.02,8.936-3.463
					c4.694-2.36,9.559-4.382,14.544-6.043C155.187,208.76,151.261,208.08,147.407,208.623z"/>
			</g>
			<g style="opacity:0.3;">
				<g>
					<path d="M147.407,208.623l0.214-0.048c-1.166-0.034-2.291,0.268-3.352,0.757c-0.009,0.003-0.017,0.005-0.026,0.008l0.02-0.004
						c-0.987,0.457-1.918,1.076-2.767,1.753c-1.762,1.406-3.314,3.081-5.203,4.31c-2.913,1.896-6.569,2.615-9.983,1.965
						c1.619,2.773,5.243,3.819,8.426,3.393c3.183-0.425,6.067-2.02,8.936-3.463c4.694-2.36,9.559-4.382,14.544-6.043
						C155.187,208.76,151.261,208.08,147.407,208.623z"/>
				</g>
			</g>
		</g>
		<g>
			<g>
				<path style="fill:#263238;" d="M306.354,267.142c0,0,6.741,2.445,12.186,0.421c5.445-2.023,8.275-2.917,8.275-2.917l2.076-0.137
					l1.434,12.852l-3.777,4.663l-2.279-2.662l-0.835-7.408c0,0-11.21,2.3-18.686,0.282L306.354,267.142z"/>
			</g>
		</g>
		<g>
			<g>
				<path style="fill:#E8505B;" d="M419.836,306.479c8.061,15.648,3.37,36.188-23.022,49.781
					c-12.996,6.694-28.235,10.014-40.532,8.293l-6.15-17.369l6.035-3.379c9.761,1.685,21.146-0.321,30.827-5.308
					c10.742-5.533,15.119-13.325,11.225-20.884c-3.62-7.029-11.046-8.741-23.247-2.457l-9.813,5.056l-7.309-14.19l7.961-31.456
					l-39.521,20.357l-8.88-17.24l64.984-33.472l7.172,13.925l-8.658,34.664C398.985,286.847,412.8,292.818,419.836,306.479z"/>
			</g>
			<g style="opacity:0.4;">
				<path d="M419.836,306.479c8.061,15.648,3.37,36.188-23.022,49.781c-12.996,6.694-28.235,10.014-33.249,7.96l-13.434-17.036
					l6.035-3.379c9.761,1.685,21.146-0.321,30.827-5.308c10.742-5.533,15.119-13.325,11.225-20.884
					c-3.62-7.029-11.046-8.741-23.247-2.457l-9.813,5.056l-7.309-14.19l7.961-31.456l-39.521,20.357l-8.88-17.24l64.984-33.472
					l7.172,13.925l-8.658,34.664C398.985,286.847,412.8,292.818,419.836,306.479z"/>
			</g>
			<g>
				<path style="fill:#E8505B;" d="M413.801,309.858c8.061,15.648,3.37,36.188-23.022,49.781
					c-12.996,6.694-28.235,10.014-40.532,8.293l-0.115-20.748c9.761,1.684,21.145-0.321,30.827-5.308
					c10.742-5.533,15.119-13.326,11.225-20.884c-3.62-7.029-11.046-8.741-23.248-2.457l-9.813,5.056l-7.309-14.19l7.961-31.456
					l-39.52,20.357l-8.88-17.24l64.984-33.472l7.172,13.925l-8.658,34.664C392.949,290.227,406.764,296.198,413.801,309.858z"/>
			</g>
			<g>
				<g style="opacity:0.2;">
					<path d="M389.447,335.703l12.368,4.593l2.741,3.666l-1.694-7.011l-9.905-6.756
						C392.957,330.195,391.642,333.751,389.447,335.703z"/>
				</g>
				<g style="opacity:0.2;">
					<path d="M393.526,327.597c0,0,7.764,0.831,8.555,0.655c0.791-0.176,12.124-4.088,12.124-4.088l3.139,1.511
						c0.085-1.672-0.02-3.548-0.256-5.566l-3.424,0.385l-9.702,4.212l-11.006-1.906
						C393.544,324.614,393.686,326.146,393.526,327.597z"/>
				</g>
				<g style="opacity:0.2;">
					<path d="M390.582,318.536l10.231-3.301c0.21-0.687,7.586-6.795,8.258-7.513c0.672-0.717,2.796-1.167,2.796-1.167
						c-1.085-1.574-2.176-3.191-3.107-3.682l-9.581,9.78l-11.756,3.24C388.519,316.49,389.576,317.346,390.582,318.536z"/>
				</g>
				<g style="opacity:0.2;">
					<path d="M389.671,293.915l-3.829,11.364L377.22,315.3c1.304-0.327,2.525-0.56,3.58-0.608l5.342-4.232l8.947-6.127l5.897-7.584
						c-1.092-0.539-2.21-1.003-3.355-1.384c0,0-9.916,11.953-9.635,10.383s4.215-11.643,4.215-11.643L389.671,293.915"/>
				</g>
				<g style="opacity:0.2;">
					<path d="M381.036,294.574l-1.078,11.614l-5.828,10.044l-5.194,2.305l4.417-11.785l1.508-10.524
						C377.424,295.285,380.956,294.578,381.036,294.574z"/>
				</g>
				<g style="opacity:0.2;">
					<polygon points="363.079,307.683 353.626,313.125 355.742,317.028 365.527,309.992 370.512,298.954 					"/>
				</g>
				<g style="opacity:0.2;">
					<polygon points="376.107,291.479 364.324,296.615 351.983,308.73 354.018,300.704 364.814,292.124 376.987,287.713 					"/>
				</g>
				<g style="opacity:0.2;">
					<path d="M378.813,280.403c0,0-12.427,5.396-14.355,5.698c-1.928,0.302-8.003,4.96-8.003,4.96l1.695-6.697l9.985-3.591
						l14.283-14.473l-1.288,4.826l-6.325,8.341l4.922-2.26L378.813,280.403z"/>
				</g>
				<g style="opacity:0.2;">
					<path d="M317.738,293.217c0,0,13.494,0.131,15.844-1.545c2.35-1.676,7.913-6.523,7.913-6.523l19.564-7.733l8.557-4.374
						l-23.269,5.808c0,0-13.065,4.203-12.924,4.515c0.142,0.311-5.436,4.816-5.436,4.816l-14.294-2.617L317.738,293.217z"/>
				</g>
				<g style="opacity:0.2;">
					<polygon points="321.3,275.95 334.928,278.837 353.325,269.884 370.035,268.444 356.338,266.714 342.064,272.353 
						329.926,271.508 					"/>
				</g>
				<g style="opacity:0.2;">
					<path d="M350.175,361.558c0,0,7.733-6.18,8.481-6.383c0.748-0.203,17.79,1.09,17.79,1.09s14.643-7.276,15.173-7.502
						c0.53-0.226,12.938,1.377,12.938,1.377l-11.996-5.535l-18.224,8.181l-14.161-4.822l-10.001,6.261V361.558z"/>
				</g>
				<g style="opacity:0.2;">
					<path d="M350.301,367.865c0,0,5.682-5.732,7.797-6.026c2.115-0.295,10.077,0.486,10.077,0.486l9.708-4.385l10.372-2.481
						l10.081-0.283c0,0-4.814,3.115-6.977,4.163l-7.028-0.296l-12.467,4.055l-6.817,2.971l-5.88-1.596l-5.687,3.794L350.301,367.865
						z"/>
				</g>
			</g>
			<g style="opacity:0.2;">
				<polygon points="354.018,259.444 363.008,262.524 379.433,260.857 372.112,258.117 363.958,260.203 358.004,256.94 				"/>
			</g>
		</g>
		<g>
			<g>
				<g>
					<path style="fill:#455A64;" d="M268.754,215.768l-6.356-31.955c0,0-31.924-60.057-40.316-81.305s-2.027-83.923-2.027-83.923
						c-44.248,47.833-36.157,112.923-36.157,112.923c33.066,37.276,27.648,76.534,27.648,76.534L268.754,215.768z M204.436,93.515
						c-1.244-0.543-1.611-2.14-0.721-3.168c0.589-0.681,1.277-1.479,1.986-2.306c1.941-2.263,5.471-1.99,7.692-2.076
						c2.221-0.087,3.015,8.9-0.378,9.633C210.856,96.062,206.974,94.623,204.436,93.515z"/>
				</g>
			</g>
			<g>
				<g>
					<g style="opacity:0.3;">
						<path d="M212.188,208.001c0,0,23.15,4.012,26.744,1.295c3.595-2.717,10.59-11.74,10.59-11.74l10.776-17.516l-9.051-17.521
							c0,0,2.25,24.618-8.621,30.689c-10.87,6.071-30.833,8.19-30.833,8.19L212.188,208.001z"/>
					</g>
					<g style="opacity:0.2;">
						<g>
							<path style="fill:#FFFFFF;" d="M212.021,195.268c10.488-5.706,20.424-12.427,29.624-20.038
								c1.078-0.892,2.224-2.443,1.317-3.507c-0.664-0.779-1.899-0.558-2.881-0.269c-9.637,2.838-19.275,5.676-28.913,8.514
								c-0.549,0.162-1.141,0.353-1.468,0.823c-0.394,0.566-0.269,1.33-0.127,2.005c0.948,4.516,1.896,9.031,2.844,13.546"/>
						</g>
					</g>
					<g style="opacity:0.2;">
						<g>
							<path style="fill:#FFFFFF;" d="M236.862,135.373c-2.414,5.223-5.251,11.034-10.018,14.709
								c-4.766,3.675-10.406,6.176-16.12,8.292c-1.51,0.559-3.327,1.51-3.186,3.039c0.139,1.518,2.088,2.143,3.678,2.35
								c11.394,1.481,23.268-0.363,33.615-5.221c0.867-0.407,1.804-0.922,2.088-1.799c0.252-0.777-0.071-1.609-0.426-2.344
								C244.277,149.817,239.899,142.097,236.862,135.373"/>
						</g>
					</g>
					<g style="opacity:0.2;">
						<g>
							<path style="fill:#FFFFFF;" d="M198.596,151.091c3.494,6.456,9.213-10.902,13.367-16.954
								c0.946-1.379,1.885-2.816,2.254-4.447c0.369-1.631,0.059-3.517-1.187-4.633c-1.219-1.091-3.062-1.217-4.639-0.782
								c-1.577,0.435-2.972,1.345-4.393,2.155c-5.948,3.389-12.805,5.166-19.65,5.092
								C184.347,131.522,195.249,144.905,198.596,151.091z"/>
						</g>
					</g>
					<g style="opacity:0.2;">
						<g>
							<path style="fill:#FFFFFF;" d="M221.384,100.539c-3.62,0.994-7.37,4.098-11.401,4.981c-4.031,0.883-8.232,1.165-12.055,2.718
								c-1.527,0.62-3.207,1.893-2.889,3.51c0.297,1.513,2.106,2.113,3.624,2.385c9.272,1.658,19.15,1.535,28.411-0.179
								C224.865,108.91,223.24,105.838,221.384,100.539"/>
						</g>
					</g>
					<g style="opacity:0.2;">
						<g>
							<path style="fill:#FFFFFF;" d="M185.14,94.587c8.931-4.455,17.388-10.046,24.917-16.597c0.658-0.573,1.333-1.185,1.645-2
								c0.312-0.815,0.131-1.888-0.628-2.317c-0.58-0.327-1.299-0.2-1.951-0.063c-6.751,1.418-13.89,2.908-20.641,4.326
								C187.039,83.737,185.922,89.316,185.14,94.587"/>
						</g>
					</g>
					<g style="opacity:0.2;">
						<g>
							<path style="fill:#FFFFFF;" d="M217.697,61.57c-6.059-0.49-11.455-2.58-16.292-6.037c4.322-4.123,10.64-5.59,16.612-6.881
								C217.771,52.568,217.745,57.782,217.697,61.57"/>
						</g>
					</g>
				</g>
				<g>
					<path style="fill:#263238;" d="M213.539,207.517c-0.68-13.077-1.397-26.35-5.613-38.748
						c-4.786-14.072-13.872-26.322-24.144-37.065c17.64,20.794,27.024,49.041,25.817,76.283L213.539,207.517z"/>
				</g>
			</g>
			<g>
				<g>
					<path style="fill:#455A64;" d="M433.871,73.592c-64.986-3.992-114.468,17.477-149.688,62.368c0,0-25.843,51.611-36.652,64.591
						c-10.545,12.663-31.977,17.475-31.977,17.475l58.698,27.837l6.189,9.13l25.798,17.206c0,0,10.107-17.848,3.725-36.152
						c-13.332-38.235,9.378-55.829,9.378-55.829c7.288-22.856,23.987-42.708,45.738-54.252
						C379.433,94.587,433.871,73.592,433.871,73.592z M314.581,169.692c-0.822,0.734-2.212,0.699-2.997-0.076
						c-0.785-0.775-0.846-2.171-0.132-3.011l0.448-0.4c0.914-0.614,2.286-0.389,2.959,0.486
						C315.532,167.566,315.403,168.958,314.581,169.692z M320.929,160.805c-2.159,0.466-6.04-0.973-8.579-2.082
						c-1.244-0.543-1.611-2.14-0.722-3.168c0.589-0.681,1.277-1.479,1.986-2.306c1.941-2.263,5.471-1.99,7.692-2.076
						C323.528,151.086,324.322,160.073,320.929,160.805z"/>
				</g>
			</g>
			<g style="opacity:0.2;">
				<path style="fill:#FFFFFF;" d="M303.569,123.361c1.459,1.728,3.792,2.527,6.052,2.599c2.26,0.071,4.487-0.503,6.664-1.115
					c10.314-2.898,20.359-6.754,29.964-11.501c1.241-0.614,2.697-1.882,2.016-3.087c-0.414-0.732-1.388-0.878-2.226-0.942
					c-6.516-0.497-15.023-0.993-21.539-1.49L303.569,123.361z"/>
			</g>
			<g style="opacity:0.2;">
				<path style="fill:#FFFFFF;" d="M398.035,85.963c0,0-11.277-5.708-8.838-6.753c2.439-1.045,15.954-1.777,15.954-1.777
					L398.035,85.963z"/>
			</g>
			<g style="opacity:0.2;">
				<g>
					<path style="fill:#FFFFFF;" d="M349.323,91.598c5.943,8.544,14.993,14.318,25.187,16.416c1.063,0.219,2.287,0.359,3.127-0.329
						c1.333-1.093,0.665-3.223-0.108-4.763c-2.212-4.404-4.423-8.808-6.635-13.213c-0.662-1.318-1.403-2.719-2.711-3.401
						c-1.562-0.815-2.736-0.02-4.869,0.706C358.554,88.631,349.323,91.598,349.323,91.598"/>
				</g>
			</g>
			<g>
				<path style="fill:#455A64;" d="M324.266,270.263c0,0-2.579-0.421-2.358-0.533c0,0-9.916,5.092-13.794,3.557
					c-3.878-1.535-19.591-15.86-17.892-25.655l-0.003,0.002c5.345-5.75,8.569-14.277-4.243-23.417
					c-22.944-16.366-68.851-16.614-68.851-16.614s-7.752-0.481-16.252,0.161c-8.5,0.642-15.569-3.187-18.044-4.593
					c-2.475-1.406-11.341-8.833-11.341-8.833s29.97-20.047,29.436-20.672c-0.534-0.626-43.358,15.064-43.358,15.064
					s-53.579,26.277-59.248,31.564c-4.932,4.6-3.305,5.328-3.305,5.328c23.762-13.201,50.852-16.571,52.926-16.722
					c2.812-0.204,6.29,0.77,6.29,0.77s-3.914,1.18-16.921,9.409c-8.959,5.668-24.409,14.68-27.91,17.377
					c-3.501,2.696-3.271,3.092-0.992,3.558c2.279,0.466,41.563-15.466,47.267-17.721c6.539-2.585,16.173-5.769,16.173-5.769
					c9.342,8.426,31.592,19.706,31.592,19.706s19.946,4.967,34.55,3.932c15.52,0.709,27.161,2.684,40.02,11.619
					c0,0,13.625,22.477,23.605,25.752c9.95,3.265,17.452-0.307,17.452-0.307l1.124,7.716l2.104,2.33l4.646-2.747
					C326.94,284.526,324.582,281.778,324.266,270.263z"/>
			</g>
			<g>
				<path style="fill:#FFFFFF;" d="M161.503,200.293c0.152,2.314-1.6,4.314-3.915,4.466c-2.314,0.152-4.314-1.6-4.466-3.915
					c-0.152-2.314,1.6-4.314,3.915-4.466C159.351,196.226,161.35,197.979,161.503,200.293z"/>
			</g>
			<g>
				<path style="fill:#263238;" d="M160.761,200.324c0.125,1.905-1.317,3.551-3.223,3.677c-1.905,0.125-3.551-1.317-3.677-3.223
					c-0.125-1.905,1.317-3.551,3.223-3.677C158.989,196.976,160.635,198.419,160.761,200.324z"/>
			</g>
			<g>
				<path style="fill:#263238;" d="M119.972,210.663c-0.171,0.046,8.033-5.573,8.302-5.058
					C128.543,206.119,128.101,208.482,119.972,210.663z"/>
			</g>
			<g>
				<path style="fill:#263238;" d="M323.38,287.217c0,0,2.944,3.693,3.141,3.597c0.197-0.096,4.767-0.056,4.767-0.056l-6.271-5.286
					L323.38,287.217z"/>
			</g>
			<g>
				<path style="fill:#263238;" d="M324.699,285.81c0,0,3.101,3.465,3.297,3.369c0.197-0.096,4.767-0.056,4.767-0.056l-6.271-5.286
					L324.699,285.81z"/>
			</g>
			<g>
				<path style="fill:#263238;" d="M326.016,284.813c0,0,3.945,2.597,4.102,2.444c0.157-0.152,4.514-1.533,4.514-1.533l-7.474-3.17
					L326.016,284.813z"/>
			</g>
			<g style="opacity:0.7;">
				<path style="fill:#FFFFFF;" d="M196.935,227.586c-0.895,1.029-0.526,2.625,0.724,3.168c2.552,1.108,6.454,2.546,8.625,2.079
					c3.411-0.733,2.617-9.72,0.384-9.633c-2.233,0.087-5.782-0.185-7.734,2.079C198.22,226.106,197.527,226.905,196.935,227.586z"/>
			</g>
			<g style="opacity:0.2;">
				<path style="fill:#FFFFFF;" d="M175.309,210.433c0.142,0.782,1.001,1.197,1.704,0.826c1.434-0.756,3.511-2.006,4.091-3.163
					c0.911-1.818-3.465-4.735-4.24-3.688c-0.775,1.047-2.193,2.561-1.876,4.275C175.105,209.309,175.216,209.915,175.309,210.433z"
					/>
			</g>
			<g style="opacity:0.2;">
				<path style="fill:#FFFFFF;" d="M161.497,206.507c-0.895,1.029-0.526,2.625,0.724,3.168c2.552,1.108,6.454,2.546,8.624,2.079
					c3.412-0.733,2.617-9.72,0.384-9.633c-2.233,0.087-5.782-0.185-7.734,2.079C162.781,205.027,162.089,205.826,161.497,206.507z"
					/>
			</g>
			<g style="opacity:0.7;">
				<g>
					<path style="fill:#FFFFFF;" d="M216.484,231.178c-0.278-0.376-0.633-0.692-1.035-0.93c-0.965-0.571-2.218-0.143-2.593,0.914
						c-0.187,0.528-0.239,1.103-0.11,1.571c0.279,1.008,1.104,1.791,2.031,2.274c0.448,0.234,0.981,0.41,1.451,0.224
						c0.49-0.194,0.759-0.727,0.868-1.243C217.3,233.022,217.071,231.972,216.484,231.178z"/>
				</g>
			</g>
			<g style="opacity:0.7;">
				<g>
					<path style="fill:#FFFFFF;" d="M202.759,219.737c-0.144-0.195-0.329-0.359-0.538-0.483c-0.501-0.297-1.152-0.074-1.347,0.475
						c-0.097,0.274-0.124,0.573-0.057,0.816c0.145,0.524,0.573,0.93,1.055,1.181c0.233,0.121,0.51,0.213,0.754,0.116
						c0.254-0.101,0.394-0.378,0.451-0.645C203.183,220.695,203.064,220.15,202.759,219.737z"/>
				</g>
			</g>
			<g style="opacity:0.7;">
				<path style="fill:#FFFFFF;" d="M190.905,223.125c0.071,1.059-0.071,3.079,0.661,3.507c0.732,0.428,0.978,0.265,2.317,0.031
					c1.339-0.234,2.777-0.622,2.531-2.143c-0.246-1.521,0.065-2.347-0.913-2.758C194.521,221.35,190.846,222.25,190.905,223.125z"/>
			</g>
			<g style="opacity:0.7;">
				<path style="fill:#FFFFFF;" d="M208.352,233.226c0.028,0.415-0.028,1.206,0.259,1.374c0.287,0.167,0.383,0.104,0.907,0.012
					c0.524-0.092,1.088-0.244,0.991-0.839s0.026-0.919-0.358-1.08C209.768,232.531,208.329,232.883,208.352,233.226z"/>
			</g>
			<g style="opacity:0.2;">
				<path style="fill:#FFFFFF;" d="M142.091,201.052c0.071,1.059-0.071,3.079,0.661,3.507c0.732,0.428,0.978,0.265,2.317,0.031
					c1.339-0.234,2.777-0.622,2.531-2.143c-0.247-1.521,0.065-2.347-0.914-2.758C145.707,199.277,142.033,200.177,142.091,201.052z"
					/>
			</g>
			<g>
				<g>
					<path style="fill:#263238;" d="M129.94,204.998c0.056-0.01,0.191,0.395,0.063,1.05c-0.119,0.65-0.559,1.499-1.309,2.171
						c-0.748,0.668-1.561,1.053-2.142,1.295c-0.587,0.239-0.966,0.339-0.994,0.279c-0.03-0.063,0.301-0.276,0.84-0.59
						c0.535-0.317,1.284-0.735,1.967-1.348c0.68-0.611,1.113-1.335,1.303-1.899C129.866,205.393,129.863,205.002,129.94,204.998z"/>
				</g>
			</g>
			<g>
				<g>
					<path style="fill:#263238;" d="M108.827,239.741c-0.004-0.007,0.083-0.07,0.259-0.187c0.198-0.128,0.458-0.295,0.785-0.506
						c0.722-0.452,1.742-1.09,3.043-1.905c2.68-1.652,6.513-4.015,11.238-6.927c4.762-2.914,10.42-6.377,16.699-10.22
						c3.144-1.914,6.455-3.959,10.161-5.564c1.85-0.799,3.799-1.486,5.847-1.913c1.02-0.227,2.067-0.369,3.125-0.455
						c0.53-0.049,1.04-0.065,1.518-0.197c0.474-0.124,0.894-0.375,1.032-0.787c0.143-0.396-0.019-0.885-0.328-1.222
						c-0.304-0.338-0.772-0.535-1.252-0.637c-0.984-0.189-2.039-0.18-3.045-0.107c-2.033,0.16-3.981,0.785-5.801,1.571
						c-3.644,1.605-6.86,3.797-10.008,5.704c-6.265,3.868-11.909,7.353-16.659,10.285c-4.732,2.901-8.57,5.253-11.254,6.899
						c-1.314,0.793-2.344,1.415-3.073,1.855c-0.336,0.197-0.602,0.353-0.806,0.472c-0.183,0.104-0.279,0.154-0.284,0.147
						c-0.005-0.007,0.082-0.071,0.256-0.189c0.197-0.13,0.455-0.299,0.78-0.513c0.718-0.459,1.731-1.106,3.024-1.932
						c2.665-1.677,6.475-4.075,11.172-7.031c4.735-2.959,10.361-6.474,16.607-10.377c3.141-1.917,6.347-4.117,10.053-5.76
						c1.85-0.802,3.846-1.449,5.951-1.616c1.053-0.075,2.108-0.092,3.189,0.114c0.536,0.118,1.098,0.334,1.512,0.787
						c0.394,0.432,0.643,1.084,0.427,1.714c-0.215,0.629-0.838,0.964-1.366,1.096c-0.545,0.149-1.096,0.163-1.61,0.212
						c-1.034,0.083-2.059,0.221-3.06,0.443c-2.009,0.416-3.929,1.09-5.759,1.877c-3.664,1.58-6.966,3.605-10.116,5.509
						c-6.3,3.81-11.976,7.242-16.754,10.131c-4.759,2.857-8.619,5.174-11.318,6.794c-1.321,0.781-2.357,1.393-3.09,1.826
						c-0.338,0.194-0.605,0.347-0.81,0.464C108.928,239.699,108.832,239.748,108.827,239.741z"/>
				</g>
			</g>
			<g>
				<g>
					<path style="fill:#263238;" d="M114.597,236.047c-0.055,0.121-0.745-0.201-1.042-1.024c-0.303-0.821,0.017-1.511,0.137-1.454
						c0.135,0.037,0.074,0.633,0.323,1.286C114.246,235.515,114.677,235.932,114.597,236.047z"/>
				</g>
			</g>
			<g>
				<g>
					<path style="fill:#263238;" d="M119.032,233.149c-0.02,0.135-0.753-0.013-1.15-0.754c-0.403-0.738-0.126-1.432-0.002-1.375
						c0.135,0.031,0.118,0.584,0.432,1.142C118.608,232.731,119.081,233.019,119.032,233.149z"/>
				</g>
			</g>
			<g>
				<g>
					<path style="fill:#263238;" d="M124.181,230.339c-0.134,0.038-0.395-0.51-0.802-1.111c-0.4-0.606-0.807-1.056-0.721-1.166
						c0.076-0.107,0.676,0.214,1.128,0.894C124.242,229.633,124.309,230.31,124.181,230.339z"/>
				</g>
			</g>
			<g>
				<g>
					<path style="fill:#263238;" d="M128.945,227.236c-0.13,0.053-0.443-0.45-0.951-0.936c-0.5-0.494-1.01-0.794-0.961-0.925
						c0.036-0.125,0.716,0,1.303,0.574C128.925,226.52,129.069,227.196,128.945,227.236z"/>
				</g>
			</g>
			<g>
				<g>
					<path style="fill:#263238;" d="M134.683,223.97c-0.113,0.079-0.532-0.333-1.056-0.808c-0.521-0.479-0.969-0.859-0.9-0.979
						c0.063-0.116,0.663,0.098,1.23,0.618C134.526,223.318,134.793,223.896,134.683,223.97z"/>
				</g>
			</g>
			<g>
				<g>
					<path style="fill:#263238;" d="M138.882,221.69c-0.138,0.028-0.361-0.582-0.813-1.209c-0.442-0.634-0.945-1.046-0.873-1.167
						c0.056-0.117,0.758,0.153,1.272,0.883C138.987,220.925,139.011,221.676,138.882,221.69z"/>
				</g>
			</g>
			<g>
				<g>
					<path style="fill:#263238;" d="M145.836,217.128c-0.14,0.009-0.277-0.614-0.67-1.258c-0.381-0.652-0.865-1.067-0.79-1.187
						c0.056-0.118,0.756,0.169,1.211,0.936C146.046,216.382,145.967,217.134,145.836,217.128z"/>
				</g>
			</g>
			<g>
				<g>
					<path style="fill:#263238;" d="M151.885,214.12c-0.138-0.025-0.131-0.625-0.451-1.247c-0.302-0.631-0.785-0.988-0.721-1.113
						c0.038-0.128,0.771,0.105,1.16,0.895C152.267,213.443,152.01,214.168,151.885,214.12z"/>
				</g>
			</g>
			<g>
				<g>
					<path style="fill:#263238;" d="M157.959,212.497c-0.139-0.027-0.034-0.893-0.453-1.824c-0.394-0.942-1.098-1.457-1.023-1.578
						c0.04-0.127,0.999,0.277,1.472,1.383C158.439,211.577,158.078,212.554,157.959,212.497z"/>
				</g>
			</g>
			<g>
				<g>
					<path style="fill:#263238;" d="M164.367,201.444c-0.017,0.042-0.226-0.068-0.611-0.049c-0.38,0.012-0.931,0.203-1.447,0.665
						c-0.523,0.447-0.922,1.208-1.512,1.998c-0.571,0.818-1.624,1.482-2.79,1.59c-1.164,0.133-2.285-0.178-3.14-0.696
						c-0.858-0.516-1.473-1.185-1.907-1.781c-0.861-1.212-1.102-2.107-1.056-2.122c0.077-0.039,0.434,0.801,1.33,1.91
						c0.451,0.546,1.057,1.149,1.861,1.604c0.793,0.452,1.812,0.718,2.857,0.599c1.053-0.109,1.937-0.644,2.491-1.383
						c0.576-0.725,1.025-1.51,1.645-1.985c0.6-0.476,1.245-0.639,1.674-0.589C164.196,201.248,164.381,201.427,164.367,201.444z"/>
				</g>
			</g>
			<g>
				<g>
					<path style="fill:#263238;" d="M162.785,199.773c-0.068,0.053-0.612-0.726-1.627-1.818c-0.517-0.53-1.183-1.129-2.065-1.506
						c-0.867-0.381-1.98-0.535-2.952-0.056c-0.98,0.477-1.684,1.341-2.412,2.038c-0.719,0.709-1.525,1.275-2.332,1.419
						c-0.794,0.151-1.46-0.057-1.821-0.314c-0.371-0.257-0.46-0.505-0.44-0.515c0.034-0.029,0.175,0.17,0.538,0.351
						c0.352,0.183,0.954,0.315,1.65,0.14c0.693-0.165,1.408-0.696,2.088-1.402c0.693-0.687,1.4-1.607,2.519-2.159
						c1.14-0.559,2.42-0.353,3.346,0.086c0.957,0.439,1.637,1.108,2.138,1.685c0.499,0.586,0.839,1.102,1.066,1.461
						C162.704,199.544,162.813,199.754,162.785,199.773z"/>
				</g>
			</g>
			<g>
				<g>
					<path style="fill:#263238;" d="M164.894,202.222c0.028,0.01-0.019,0.244-0.174,0.646c-0.153,0.402-0.44,0.963-0.903,1.585
						c-0.899,1.237-2.684,2.704-5.072,3.105c-2.391,0.386-4.552-0.431-5.801-1.314c-0.638-0.441-1.089-0.88-1.363-1.212
						c-0.275-0.331-0.395-0.537-0.372-0.556c0.068-0.062,0.648,0.701,1.923,1.476c1.246,0.774,3.299,1.483,5.534,1.122
						c2.231-0.374,3.949-1.704,4.881-2.837C164.505,203.094,164.81,202.185,164.894,202.222z"/>
				</g>
			</g>
			<g>
				<g>
					<path style="fill:#263238;" d="M116.561,211.765c-0.075-0.112,2.012-1.53,4.662-3.165c2.65-1.636,4.852-2.866,4.919-2.748
						c0.067,0.118-2.02,1.534-4.662,3.165C118.839,210.647,116.636,211.877,116.561,211.765z"/>
				</g>
			</g>
			<g style="opacity:0.3;">
				<g>
					<path d="M229.907,225.739c12.558,5.076,27.013,4.065,39.64,8.967c8.398,3.261,15.571,9.153,21.513,15.925
						c5.942,6.771,10.816,13.751,15.603,21.382c-2.442-10.043-4.862-20.061-10.007-29.026c-5.145-8.964-13.623-16.426-23.717-18.65
						c-13.781-3.037-33.952,6.861-42.528,1.143"/>
				</g>
			</g>
			<g>
				<g>
					<path style="fill:#263238;" d="M306.662,272.013c-0.008,0.002-0.038-0.087-0.087-0.262c-0.054-0.202-0.122-0.459-0.207-0.78
						c-0.184-0.721-0.44-1.726-0.765-3.004c-0.674-2.605-1.66-6.376-3.157-10.945c-1.523-4.549-3.555-9.945-6.839-15.376
						c-3.283-5.388-8.199-10.655-14.67-14.084c-3.211-1.735-6.654-2.822-10.046-3.343c-3.402-0.513-6.751-0.265-9.899,0.077
						c-6.31,0.74-11.878,2.163-16.652,2.89c-2.387,0.357-4.58,0.513-6.503,0.421c-1.923-0.093-3.563-0.43-4.843-0.872
						c-1.291-0.423-2.203-0.966-2.807-1.337c-0.271-0.193-0.488-0.348-0.659-0.469c-0.147-0.108-0.219-0.166-0.214-0.173
						c0.045-0.087,1.175,0.984,3.74,1.799c1.272,0.408,2.894,0.713,4.794,0.779c1.901,0.065,4.07-0.112,6.439-0.49
						c4.738-0.764,10.308-2.226,16.652-2.995c3.162-0.356,6.551-0.619,10.02-0.103c3.45,0.523,6.95,1.626,10.207,3.386
						c6.564,3.477,11.531,8.826,14.826,14.281c3.293,5.493,5.298,10.927,6.783,15.504c1.46,4.596,2.395,8.385,3.013,11.007
						c0.304,1.312,0.534,2.333,0.677,3.027c0.066,0.325,0.118,0.586,0.16,0.791C306.657,271.919,306.67,272.011,306.662,272.013z"/>
				</g>
			</g>
			<g>
				<g style="opacity:0.2;">
					<g>
						<path d="M230.196,225.325c11.013-3.862,22.416-8.225,30.223-16.9c12.651-14.057,12.938-36.091,25.427-50.292
							c1.073-1.22,2.39-2.446,4.013-2.52c1.044-0.048,2.055,0.398,3.1,0.412c2.385,0.032,4.172-2.083,5.587-4.002
							c2.562-3.473,5.137-9.519,2.795-13.143c-0.768-1.188-8.266,1.891-8.907,0.63c-0.64-1.261,2.989-5.334,1.881-5.712
							c-8.215,9.075-11.158,13.283-16.835,20.163c-6.927,8.396-9.266,20.413-13.861,30.281
							c-7.347,15.778-19.602,29.228-34.63,38.006"/>
					</g>
				</g>
				<g>
					<path style="fill:#263238;" d="M219.475,219.417c1.742,3.493,5.019,5.638,10.432,5.909c0,0,27.757-19.55,30.044-21.367
						c2.288-1.817,19.733-49.076,21.972-51.631c2.239-2.555,9.254-13.249,9.254-13.249l0.869-4.461c0,0-12.283,10.919-13.193,12.572
						c-0.911,1.652-24.71,45.664-31.315,51.917C240.026,206.217,231.282,218.816,219.475,219.417z"/>
				</g>
				<g>
					<path style="fill:#263238;" d="M284.331,143.949c0.338-0.174,7.715-9.332,7.715-9.332
						c33.217-40.025,82.346-60.673,141.824-61.025c-58.227,4.469-108.49,23.622-140.4,62.377l-5.72,7.755L284.331,143.949z"/>
				</g>
				<g>
					<g>
						<path style="fill:#263238;" d="M365.08,125.966c0.005,0.016-0.27,0.111-0.797,0.275c-0.569,0.172-1.341,0.405-2.314,0.699
							c-1.004,0.309-2.24,0.655-3.685,1.022c-1.442,0.379-3.083,0.816-4.913,1.234c-7.296,1.774-17.485,3.713-28.724,5.861
							c-5.619,1.09-10.956,2.194-15.791,3.286c-2.407,0.586-4.708,1.093-6.833,1.676c-1.065,0.279-2.094,0.548-3.084,0.808
							c-0.981,0.285-1.923,0.56-2.824,0.822c-1.806,0.5-3.414,1.037-4.829,1.498c-0.706,0.228-1.365,0.441-1.974,0.638
							c-0.596,0.216-1.142,0.415-1.639,0.595c-0.956,0.341-1.714,0.611-2.274,0.811c-0.522,0.181-0.799,0.268-0.806,0.252
							c-0.006-0.016,0.259-0.134,0.77-0.344c0.552-0.221,1.301-0.52,2.244-0.898c0.493-0.193,1.036-0.405,1.627-0.637
							c0.607-0.209,1.262-0.435,1.965-0.677c1.41-0.487,3.013-1.048,4.817-1.57c0.9-0.272,1.841-0.557,2.821-0.854
							c0.99-0.269,2.018-0.548,3.083-0.837c2.125-0.601,4.426-1.123,6.834-1.723c4.836-1.118,10.178-2.237,15.799-3.328
							c11.244-2.15,21.432-4.033,28.738-5.718c1.833-0.396,3.477-0.808,4.923-1.162c1.45-0.342,2.692-0.66,3.702-0.94
							c0.982-0.256,1.762-0.46,2.337-0.61C364.791,126.012,365.075,125.95,365.08,125.966z"/>
					</g>
				</g>
				<g>
					<g>
						<path style="fill:#263238;" d="M319.342,180.218c-0.009,0.014-0.242-0.106-0.678-0.349c-0.442-0.232-1.06-0.631-1.905-1.056
							c-1.66-0.902-4.13-2.098-7.303-3.251c-3.171-1.137-7.078-2.227-11.524-2.574c-1.107-0.127-2.249-0.101-3.413-0.135
							c-1.162,0.067-2.352,0.083-3.547,0.274c-2.387,0.325-4.854,0.888-7.184,1.957c-4.706,2.071-8.427,5.458-11.114,8.997
							c-1.381,1.749-2.551,3.523-3.603,5.208c-1.061,1.68-1.984,3.289-2.837,4.751c-1.69,2.934-3.064,5.309-4.049,6.928
							c-0.484,0.773-0.87,1.388-1.159,1.85c-0.27,0.419-0.419,0.635-0.433,0.627c-0.014-0.009,0.106-0.242,0.349-0.678
							c0.269-0.473,0.628-1.104,1.079-1.895c0.948-1.697,2.279-4.079,3.912-7.003c0.834-1.475,1.741-3.096,2.792-4.793
							c1.041-1.702,2.206-3.496,3.592-5.271c2.691-3.588,6.476-7.059,11.272-9.168c2.378-1.09,4.893-1.661,7.32-1.984
							c1.216-0.19,2.424-0.203,3.603-0.265c1.179,0.038,2.337,0.018,3.457,0.153c4.497,0.377,8.428,1.513,11.605,2.699
							c3.18,1.203,5.638,2.452,7.276,3.409c0.834,0.452,1.439,0.879,1.865,1.138C319.135,180.055,319.351,180.203,319.342,180.218z"
							/>
					</g>
				</g>
			</g>
			<g>
				<g>
					<path style="fill:#263238;" d="M222.945,219.211c0.02,0.054-0.491,0.314-1.389,0.522c-0.894,0.21-2.185,0.323-3.583,0.114
						c-1.398-0.214-2.598-0.704-3.389-1.168c-0.796-0.464-1.207-0.863-1.172-0.909c0.078-0.135,1.933,1.207,4.635,1.594
						C220.742,219.792,222.911,219.06,222.945,219.211z"/>
				</g>
			</g>
		</g>
		<g>
			<g>
				<path style="fill:#263238;" d="M178.419,213.191c0.009,0.014-0.132,0.098-0.412,0.245c-0.278,0.155-0.701,0.34-1.246,0.582
					c-1.09,0.483-2.684,1.14-4.659,1.934c-3.951,1.588-9.435,3.715-15.506,6.027c-6.05,2.276-11.523,4.334-15.572,5.857
					c-1.944,0.717-3.543,1.307-4.729,1.745c-1.121,0.403-1.73,0.641-1.747,0.608c-0.007-0.015,0.137-0.094,0.421-0.23
					c0.283-0.141,0.708-0.322,1.257-0.554c1.097-0.465,2.695-1.109,4.675-1.891c3.96-1.565,9.449-3.679,15.522-5.991
					C167.967,217.15,176.017,214.101,178.419,213.191z"/>
			</g>
		</g>
		<g>
			<g>
				<path style="fill:#263238;" d="M437.175,307.514c0.033-0.009,0.208,0.548,0.497,1.567c0.15,0.508,0.32,1.133,0.474,1.869
					c0.159,0.735,0.37,1.567,0.513,2.503c0.35,1.862,0.625,4.105,0.789,6.606c0.133,2.502,0.137,5.263-0.085,8.148
					c-0.245,2.885-0.694,5.609-1.228,8.058c-0.565,2.442-1.197,4.612-1.843,6.393c-0.293,0.901-0.634,1.688-0.91,2.387
					c-0.271,0.702-0.539,1.291-0.769,1.768c-0.449,0.958-0.712,1.48-0.743,1.466s0.173-0.563,0.567-1.541
					c0.202-0.487,0.444-1.085,0.689-1.793c0.25-0.706,0.567-1.497,0.837-2.4c0.6-1.785,1.193-3.949,1.73-6.378
					c0.506-2.435,0.938-5.14,1.181-8.001c0.22-2.862,0.23-5.6,0.123-8.085c-0.139-2.483-0.375-4.715-0.68-6.573
					c-0.121-0.935-0.307-1.767-0.44-2.503c-0.128-0.738-0.27-1.367-0.391-1.88C437.255,308.098,437.142,307.523,437.175,307.514z"/>
			</g>
		</g>
		<g>
			<g>
				<path style="fill:#263238;" d="M445.261,338.039c-0.081-0.027,0.384-1.412,0.893-3.703c0.512-2.289,0.997-5.507,1.007-9.085
					c0-3.579-0.475-6.799-0.981-9.089c-0.502-2.293-0.963-3.678-0.882-3.706c0.032-0.011,0.173,0.326,0.403,0.946
					c0.236,0.618,0.52,1.534,0.816,2.68c0.597,2.289,1.134,5.545,1.134,9.17c-0.01,3.623-0.557,6.877-1.16,9.165
					c-0.299,1.145-0.586,2.06-0.824,2.677C445.436,337.713,445.293,338.05,445.261,338.039z"/>
			</g>
		</g>
		<g>
			<g>
				<path style="fill:#263238;" d="M311.146,317.255c-0.006,0.033-0.255,0.011-0.705-0.06c-0.451-0.061-1.092-0.226-1.861-0.496
					c-0.773-0.263-1.655-0.684-2.581-1.241c-0.914-0.577-1.864-1.302-2.749-2.184c-0.874-0.894-1.59-1.852-2.158-2.771
					c-0.548-0.932-0.96-1.818-1.216-2.594c-0.262-0.771-0.421-1.414-0.478-1.865c-0.066-0.45-0.087-0.699-0.053-0.705
					c0.089-0.017,0.26,0.971,0.855,2.448c0.29,0.741,0.723,1.587,1.275,2.478c0.572,0.879,1.276,1.797,2.122,2.664
					c0.858,0.855,1.769,1.567,2.642,2.148c0.886,0.561,1.727,1.002,2.465,1.299C310.177,316.985,311.164,317.166,311.146,317.255z"
					/>
			</g>
		</g>
		<g>
			<g>
				<path style="fill:#263238;" d="M315.914,315.717c-0.013,0.049-0.961-0.134-2.389-0.749c-1.425-0.609-3.302-1.72-5.031-3.357
					c-1.724-1.644-2.929-3.462-3.61-4.854c-0.687-1.395-0.919-2.332-0.87-2.348c0.078-0.03,0.424,0.859,1.175,2.184
					c0.747,1.325,1.962,3.06,3.642,4.662c1.685,1.595,3.479,2.721,4.841,3.399C315.034,315.337,315.94,315.637,315.914,315.717z"/>
			</g>
		</g>
	</g>
</g>
<g id="Sign">
	<g>
		<g>
			<path style="fill:#455A64;" d="M96.428,265.028v118.71L83.04,370.734l-6.276,2.96c0,0,13.995,18.975,19.665,26.449v76.297h16.519
				V265.028H96.428z"/>
		</g>
		<g>
			<g>
				<g>
					<g>
						<polygon style="fill:#455A64;" points="211.118,315.942 34.885,354.407 24.668,307.6 200.902,269.134 204.414,285.227 
							197.269,293.582 206.589,295.19 						"/>
					</g>
					<g>
						<g>
							<path style="fill:#263238;" d="M200.902,269.134c0,0-0.295,0.089-0.88,0.229c-0.608,0.141-1.473,0.342-2.601,0.603
								c-2.316,0.521-5.693,1.281-10.048,2.261c-8.774,1.942-21.467,4.753-37.258,8.249c-31.646,6.939-75.686,16.596-125.367,27.49
								l0.287-0.443c1.592,7.66,3.274,15.751,4.98,23.958c1.671,8.051,3.32,15.99,4.88,23.501l-0.449-0.29
								c49.795-10.98,93.943-20.715,125.668-27.711c15.845-3.46,28.582-6.241,37.386-8.164c4.377-0.94,7.771-1.669,10.099-2.169
								c1.137-0.236,2.008-0.417,2.622-0.545c0.591-0.119,0.897-0.162,0.897-0.162s-0.296,0.09-0.881,0.232
								c-0.61,0.143-1.476,0.347-2.606,0.613c-2.321,0.53-5.705,1.302-10.07,2.299c-8.792,1.975-21.513,4.833-37.336,8.388
								c-31.711,7.056-75.841,16.876-125.615,27.951l-0.371,0.083l-0.078-0.373c-1.561-7.511-3.211-15.45-4.885-23.5
								c-1.704-8.207-3.384-16.299-4.975-23.96l-0.076-0.364l0.363-0.079c49.701-10.798,93.761-20.37,125.42-27.248
								c15.812-3.401,28.522-6.135,37.307-8.025c4.368-0.924,7.754-1.64,10.076-2.131c1.134-0.232,2.004-0.41,2.616-0.535
								C200.597,269.176,200.902,269.134,200.902,269.134z"/>
						</g>
					</g>
				</g>
				<g>
					<g>
						<path style="fill:#263238;" d="M207.327,302.682c0,0-0.633,0.11-1.841,0.29c-1.202,0.215-3.003,0.363-5.27,0.853
							c-4.561,0.839-11.07,2.531-18.892,5.28c-7.836,2.72-16.919,6.609-27.104,10.686c-5.088,2.048-10.493,4.054-16.191,5.846
							c-5.684,1.833-11.734,3.251-18.011,4.11c-6.28,0.936-12.504,0.928-18.465,0.682c-5.97-0.251-11.706-0.786-17.175-1.172
							c-5.468-0.387-10.675-0.675-15.547-0.561c-4.869,0.109-9.402,0.535-13.471,1.314c-8.156,1.512-14.386,4.316-18.245,6.859
							c-0.981,0.617-1.829,1.198-2.527,1.755c-0.719,0.529-1.316,0.99-1.764,1.405c-0.921,0.8-1.416,1.21-1.416,1.21
							s0.466-0.44,1.376-1.256c0.442-0.424,1.035-0.893,1.749-1.431c0.694-0.566,1.539-1.156,2.518-1.782
							c3.851-2.582,10.092-5.427,18.269-6.971c4.079-0.795,8.623-1.234,13.504-1.354c4.885-0.125,10.1,0.154,15.572,0.533
							c5.473,0.379,11.208,0.908,17.168,1.154c5.953,0.242,12.156,0.247,18.413-0.685c6.256-0.855,12.289-2.267,17.963-4.093
							c5.688-1.784,11.088-3.782,16.177-5.822c10.184-4.06,19.283-7.932,27.136-10.628c7.84-2.727,14.368-4.39,18.941-5.194
							c2.273-0.473,4.079-0.601,5.284-0.797C206.689,302.751,207.327,302.682,207.327,302.682z"/>
					</g>
				</g>
				<g>
					<g>
						<path style="fill:#263238;" d="M202.352,284.594c0,0-0.64-0.086-1.855-0.278c-1.263-0.197-3.044-0.474-5.313-0.827
							c-4.616-0.68-11.314-1.658-19.651-2.071c-8.296-0.327-18.411-0.114-28.948,3.241c-0.654,0.215-1.319,0.411-1.975,0.644
							c-0.649,0.255-1.301,0.511-1.957,0.769c-1.323,0.49-2.617,1.09-3.92,1.707c-2.598,1.251-5.15,2.731-7.687,4.329
							c-5.077,3.201-10.046,6.947-15.274,10.592c-5.217,3.661-10.558,6.924-16.023,9.451c-5.446,2.562-10.909,4.559-16.195,6.167
							c-10.596,3.179-20.456,4.774-28.727,5.88c-8.285,1.08-15.026,1.603-19.681,1.97c-4.656,0.359-7.235,0.499-7.235,0.499
							s0.642-0.069,1.867-0.171c1.274-0.106,3.07-0.255,5.358-0.445c4.651-0.402,11.388-0.958,19.662-2.064
							c8.262-1.132,18.105-2.747,28.675-5.934c5.273-1.612,10.72-3.61,16.148-6.168c5.449-2.525,10.766-5.775,15.978-9.431
							c5.221-3.64,10.196-7.389,15.289-10.595c2.545-1.601,5.108-3.084,7.719-4.338c1.309-0.618,2.611-1.22,3.941-1.711
							c0.66-0.258,1.316-0.515,1.968-0.77c0.66-0.234,1.328-0.43,1.985-0.645c10.59-3.356,20.734-3.544,29.043-3.19
							c8.349,0.441,15.046,1.452,19.659,2.168C199.816,284.105,202.352,284.594,202.352,284.594z"/>
					</g>
				</g>
				<g>
					<g>
						<path style="fill:#263238;" d="M117.316,288.743c0,0-0.241,0.25-0.721,0.705c-0.538,0.505-1.238,1.162-2.109,1.98
							c-0.466,0.434-0.976,0.91-1.53,1.426c-0.573,0.505-1.228,1.018-1.914,1.588c-1.392,1.117-2.916,2.47-4.774,3.738
							c-0.914,0.658-1.869,1.346-2.864,2.061c-1,0.71-2.105,1.353-3.215,2.071c-2.199,1.472-4.701,2.787-7.302,4.226
							c-5.29,2.708-11.307,5.305-17.853,7.375c-6.569,2.001-13.001,3.269-18.895,4.032c-2.959,0.287-5.766,0.62-8.413,0.652
							c-1.321,0.036-2.596,0.132-3.822,0.114c-1.225-0.027-2.401-0.053-3.527-0.077c-2.25,0.007-4.272-0.246-6.051-0.378
							c-0.889-0.081-1.718-0.133-2.477-0.225c-0.749-0.112-1.439-0.215-2.068-0.309c-1.181-0.181-2.13-0.326-2.859-0.438
							c-0.653-0.103-0.993-0.173-0.993-0.173s0.347,0.029,1.003,0.113c0.731,0.097,1.682,0.224,2.865,0.381
							c0.63,0.086,1.32,0.18,2.069,0.283c0.758,0.083,1.588,0.126,2.475,0.2c1.778,0.116,3.797,0.353,6.042,0.333
							c1.123,0.018,2.298,0.038,3.52,0.058c1.224,0.013,2.496-0.089,3.813-0.131c2.64-0.043,5.439-0.385,8.389-0.678
							c5.877-0.776,12.288-2.049,18.84-4.044c6.528-2.064,12.531-4.645,17.814-7.333c2.597-1.429,5.098-2.732,7.298-4.191
							c1.109-0.712,2.215-1.348,3.217-2.051c0.996-0.708,1.953-1.389,2.868-2.041c1.862-1.255,3.392-2.593,4.792-3.696
							c0.691-0.563,1.35-1.068,1.928-1.566c0.559-0.509,1.075-0.977,1.545-1.405c0.886-0.8,1.599-1.443,2.146-1.937
							C117.046,288.963,117.316,288.743,117.316,288.743z"/>
					</g>
				</g>
				<g>
					<g>
						<path style="fill:#263238;" d="M59.093,345.634c0.043-0.011-0.53,0.79-2.061,0.928c-0.73,0.106-1.674,0.028-2.617,0.444
							c-0.467,0.202-0.862,0.624-1.006,1.178c-0.173,0.54,0.079,1.217,0.707,1.373c0.601,0.172,1.302,0.01,2.007-0.09
							c0.708-0.119,1.439-0.277,2.185-0.48c1.482-0.418,3.062-0.983,4.553-1.846c0.729-0.45,1.436-1.012,1.915-1.755
							c0.484-0.732,0.644-1.696,0.296-2.542c-0.334-0.846-1.041-1.551-1.891-1.969c-0.856-0.43-1.835-0.617-2.827-0.715
							c-4.005-0.367-7.851,0.26-11.171,1.291c-3.33,1.034-6.184,2.385-8.51,3.63c-2.327,1.248-4.151,2.367-5.402,3.154
							c-0.56,0.353-1.035,0.652-1.44,0.908c-0.33,0.206-0.512,0.302-0.512,0.302s2.619-1.979,7.253-4.552
							c2.32-1.273,5.178-2.652,8.529-3.708c3.341-1.054,7.226-1.698,11.284-1.326c1.009,0.1,2.025,0.291,2.932,0.747
							c0.906,0.448,1.667,1.199,2.033,2.13c0.385,0.934,0.198,2.02-0.329,2.805c-0.521,0.799-1.261,1.377-2.014,1.838
							c-1.542,0.883-3.125,1.435-4.633,1.85c-0.756,0.2-1.496,0.355-2.212,0.469c-0.711,0.091-1.416,0.262-2.108,0.064
							c-0.336-0.102-0.645-0.34-0.78-0.662c-0.146-0.316-0.13-0.666-0.049-0.965c0.161-0.609,0.621-1.076,1.12-1.282
							c1.011-0.424,1.954-0.318,2.675-0.408c0.732-0.064,1.28-0.25,1.607-0.453C58.957,345.793,59.08,345.621,59.093,345.634z"/>
					</g>
				</g>
				<g>
					<g>
						<path style="fill:#263238;" d="M70.182,301.511c0,0-0.255,0.219-0.862,0.336c-0.578,0.101-1.617,0.072-2.479-0.782
							l-0.071-0.071l0.091-0.05c1.858-1.031,4.733-2.261,8.391-2.739c1.827-0.211,3.819-0.351,5.93,0.04
							c0.513,0.15,1.044,0.36,1.451,0.785c0.421,0.415,0.548,1.129,0.263,1.673c-0.625,1.092-1.865,1.353-2.885,1.773
							c-6.479,2.412-12.802,3.012-17.296,2.892c-4.517-0.113-7.245-0.776-7.245-0.776c0.002-0.01,0.175,0.006,0.504,0.047
							c0.418,0.053,0.89,0.113,1.436,0.182c1.248,0.146,3.062,0.308,5.308,0.333c4.475,0.064,10.752-0.566,17.188-2.962
							c1.028-0.405,2.224-0.715,2.721-1.622c0.225-0.441,0.134-0.992-0.211-1.338c-0.339-0.36-0.831-0.565-1.312-0.706
							c-2.001-0.378-4.029-0.261-5.82-0.062c-3.622,0.448-6.484,1.63-8.35,2.616l0.02-0.121c0.792,0.819,1.789,0.882,2.354,0.807
							C69.901,301.68,70.172,301.487,70.182,301.511z"/>
					</g>
				</g>
				<g>
					<g>
						<path style="fill:#263238;" d="M206.508,308.882c0.002,0.021-0.332,0.088-0.938,0.19c-0.607,0.096-1.481,0.264-2.552,0.502
							c-2.143,0.472-5.066,1.32-8.129,2.675c-3.06,1.363-5.65,2.963-7.437,4.237c-0.895,0.635-1.606,1.171-2.084,1.556
							c-0.483,0.381-0.757,0.584-0.77,0.568c-0.014-0.016,0.234-0.249,0.695-0.659c0.457-0.414,1.15-0.978,2.034-1.639
							c1.764-1.324,4.357-2.966,7.44-4.34c3.086-1.365,6.043-2.188,8.208-2.608c1.083-0.212,1.966-0.349,2.58-0.41
							C206.166,308.888,206.506,308.861,206.508,308.882z"/>
					</g>
				</g>
				<g>
					<g>
						<path style="fill:#263238;" d="M202.733,277.177c0.001,0.021-0.233,0.048-0.658,0.081c-0.425,0.037-1.043,0.051-1.806,0.033
							c-1.525-0.033-3.638-0.272-5.886-0.906c-2.247-0.64-4.171-1.546-5.487-2.318c-0.659-0.385-1.178-0.721-1.52-0.975
							c-0.345-0.251-0.53-0.397-0.518-0.414c0.03-0.044,0.808,0.486,2.142,1.203c1.331,0.718,3.245,1.581,5.465,2.214
							c2.221,0.626,4.303,0.896,5.813,0.983C201.79,277.167,202.731,277.124,202.733,277.177z"/>
					</g>
				</g>
			</g>
			<g>
				<path style="fill:#FFFFFF;" d="M88.994,314.865l0.576,2.729l-11.382,2.401l-3.101-14.7l11.109-2.343l0.576,2.73l-7.728,1.63
					l0.673,3.191l6.825-1.44l0.559,2.646l-6.825,1.44l0.717,3.403L88.994,314.865z"/>
				<path style="fill:#FFFFFF;" d="M101.645,315.047l-3.699-3.496l-0.167,0.035l-2.961,0.625l0.864,4.094l-3.403,0.717l-3.101-14.7
					l6.364-1.342c3.927-0.828,6.813,0.69,7.508,3.988c0.465,2.204-0.306,4.057-2.044,5.279l4.294,4.029L101.645,315.047z
					 M95.938,303.792l-2.772,0.585l1.081,5.124l2.772-0.585c2.079-0.438,2.924-1.624,2.588-3.221
					C99.265,304.078,98.017,303.354,95.938,303.792z"/>
				<path style="fill:#FFFFFF;" d="M117.081,311.791l-3.699-3.496l-0.168,0.035l-2.961,0.625l0.864,4.094l-3.402,0.717l-3.101-14.7
					l6.363-1.342c3.927-0.828,6.813,0.69,7.509,3.988c0.465,2.204-0.306,4.057-2.044,5.279l4.294,4.03L117.081,311.791z
					 M111.373,300.536l-2.772,0.585l1.081,5.124l2.772-0.586c2.08-0.438,2.925-1.624,2.588-3.221
					C114.701,300.822,113.452,300.097,111.373,300.536z"/>
				<path style="fill:#FFFFFF;" d="M120.676,303.356c-0.921-4.367,1.799-8.321,6.439-9.299c4.62-0.975,8.721,1.515,9.647,5.905
					c0.926,4.389-1.82,8.324-6.44,9.299C125.682,310.24,121.597,307.724,120.676,303.356z M133.318,300.689
					c-0.589-2.793-2.966-4.288-5.591-3.734c-2.625,0.553-4.196,2.882-3.607,5.674c0.59,2.793,2.967,4.287,5.591,3.734
					C132.336,305.809,133.907,303.481,133.318,300.689z"/>
				<path style="fill:#FFFFFF;" d="M150.241,304.795l-3.699-3.496l-0.168,0.035l-2.961,0.625l0.864,4.094l-3.402,0.717l-3.101-14.7
					l6.363-1.342c3.927-0.828,6.813,0.69,7.509,3.988c0.466,2.204-0.306,4.057-2.045,5.279l4.294,4.03L150.241,304.795z
					 M144.533,293.541l-2.772,0.584l1.081,5.124l2.772-0.584c2.08-0.44,2.925-1.626,2.588-3.222
					C147.861,293.826,146.612,293.102,144.533,293.541z"/>
			</g>
			<g>
				<path style="fill:#FFFFFF;" d="M51.892,339.828l0.245-0.913c0.873,0.557,2.269,0.805,3.599,0.524
					c1.894-0.4,2.55-1.368,2.34-2.366c-0.585-2.776-6.456,0.244-7.246-3.5c-0.313-1.488,0.571-3.019,3.144-3.562
					c1.141-0.241,2.398-0.157,3.326,0.234l-0.181,0.93c-0.986-0.38-2.056-0.441-2.952-0.252c-1.851,0.391-2.501,1.388-2.287,2.4
					c0.585,2.774,6.461-0.217,7.239,3.47c0.314,1.488-0.602,3.012-3.189,3.557C54.41,340.67,52.809,340.451,51.892,339.828z"/>
				<path style="fill:#FFFFFF;" d="M67.685,334.141l-6.36,1.341c0.451,1.566,1.887,2.367,3.55,2.016
					c0.925-0.196,1.678-0.702,2.116-1.49l0.719,0.544c-0.509,0.951-1.472,1.609-2.671,1.861c-2.372,0.5-4.332-0.777-4.808-3.032
					c-0.476-2.255,0.763-4.192,2.902-4.644c2.14-0.451,4.019,0.798,4.501,3.083C67.651,333.907,67.661,334.026,67.685,334.141z
					 M61.163,334.717l5.391-1.137c-0.444-1.461-1.747-2.274-3.236-1.96C61.844,331.931,60.979,333.201,61.163,334.717z"/>
				<path style="fill:#FFFFFF;" d="M72.751,328.709l0.21,0.998c-0.086,0.018-0.176,0.02-0.249,0.036
					c-1.59,0.336-2.345,1.554-1.967,3.345l0.817,3.874l-1.026,0.217l-1.604-7.604l0.983-0.208l0.314,1.491
					C70.493,329.744,71.349,329.004,72.751,328.709z"/>
				<path style="fill:#FFFFFF;" d="M81.339,326.957l-1.778,8.318l-1.055,0.223l-4.972-6.893l1.07-0.225l4.214,5.874l1.51-7.082
					L81.339,326.957z"/>
				<path style="fill:#FFFFFF;" d="M82.054,324.301c-0.082-0.39,0.18-0.794,0.6-0.882c0.419-0.088,0.818,0.159,0.901,0.55
					c0.089,0.42-0.16,0.819-0.593,0.911C82.541,324.968,82.139,324.706,82.054,324.301z M82.791,326.651l1.026-0.216l1.604,7.604
					l-1.026,0.216L82.791,326.651z"/>
				<path style="fill:#FFFFFF;" d="M86.719,329.794c-0.479-2.27,0.833-4.207,3.102-4.686c1.287-0.271,2.478,0.007,3.295,0.875
					l-0.656,0.682c-0.682-0.655-1.567-0.845-2.45-0.659c-1.662,0.351-2.627,1.79-2.251,3.569c0.378,1.792,1.839,2.709,3.501,2.357
					c0.882-0.186,1.618-0.705,1.977-1.581l0.876,0.359c-0.399,1.113-1.374,1.861-2.661,2.132
					C89.184,333.32,87.197,332.062,86.719,329.794z"/>
				<path style="fill:#FFFFFF;" d="M102.185,326.864l-6.36,1.341c0.45,1.566,1.888,2.366,3.55,2.016
					c0.925-0.196,1.679-0.703,2.116-1.491l0.719,0.544c-0.51,0.953-1.472,1.609-2.673,1.863c-2.37,0.5-4.331-0.777-4.807-3.032
					c-0.476-2.255,0.762-4.193,2.902-4.644c2.139-0.452,4.018,0.797,4.499,3.082C102.151,326.628,102.161,326.747,102.185,326.864z
					 M95.664,327.439l5.392-1.137c-0.444-1.461-1.748-2.275-3.236-1.96C96.345,324.652,95.48,325.924,95.664,327.439z"/>
				<path style="fill:#FFFFFF;" d="M114.075,320.052l1.604,7.604l-0.982,0.207l-0.293-1.389c-0.34,1.04-1.21,1.782-2.423,2.038
					c-1.938,0.408-3.439-0.41-3.9-2.591l-0.93-4.409l1.026-0.217l0.909,4.309c0.342,1.619,1.354,2.265,2.8,1.959
					c1.59-0.335,2.372-1.571,2.006-3.306l-0.842-3.989L114.075,320.052z"/>
				<path style="fill:#FFFFFF;" d="M124.63,321.162l0.93,4.409l-1.026,0.217l-0.909-4.308c-0.339-1.605-1.351-2.253-2.796-1.948
					c-1.634,0.344-2.446,1.575-2.08,3.31l0.841,3.989l-1.026,0.217l-1.604-7.604l0.982-0.208l0.296,1.402
					c0.354-1.04,1.268-1.792,2.583-2.07C122.672,318.178,124.169,318.979,124.63,321.162z"/>
				<path style="fill:#FFFFFF;" d="M133.101,319.057l0.994,4.713l-0.983,0.207l-0.25-1.185c-0.298,0.877-1.094,1.545-2.351,1.81
					c-1.721,0.363-2.965-0.312-3.242-1.626c-0.247-1.172,0.298-2.313,2.481-2.774l2.414-0.509l-0.098-0.462
					c-0.275-1.301-1.161-1.853-2.578-1.554c-0.983,0.207-1.836,0.749-2.341,1.429l-0.624-0.669c0.629-0.812,1.678-1.426,2.878-1.68
					C131.366,316.344,132.686,317.091,133.101,319.057z M132.587,321.702l-0.262-1.243l-2.386,0.503
					c-1.474,0.31-1.829,0.99-1.664,1.771c0.186,0.882,1.01,1.281,2.225,1.025C131.655,323.514,132.393,322.785,132.587,321.702z"/>
				<path style="fill:#FFFFFF;" d="M141.532,314.26l-1.778,8.317l-1.055,0.223l-4.971-6.894l1.07-0.225l4.214,5.874l1.51-7.082
					L141.532,314.26z"/>
				<path style="fill:#FFFFFF;" d="M149.1,315.682l0.994,4.713l-0.982,0.208l-0.25-1.188c-0.298,0.879-1.094,1.547-2.351,1.812
					c-1.721,0.363-2.965-0.312-3.242-1.626c-0.247-1.172,0.298-2.313,2.481-2.774l2.414-0.509l-0.098-0.462
					c-0.275-1.301-1.161-1.853-2.578-1.555c-0.982,0.208-1.835,0.748-2.341,1.43l-0.624-0.669c0.629-0.812,1.678-1.426,2.878-1.68
					C147.366,312.969,148.685,313.716,149.1,315.682z M148.587,318.327l-0.262-1.243l-2.386,0.503
					c-1.474,0.31-1.829,0.99-1.664,1.771c0.186,0.882,1.01,1.281,2.225,1.025C147.655,320.139,148.393,319.41,148.587,318.327z"/>
				<path style="fill:#FFFFFF;" d="M150.55,309.85c-0.082-0.388,0.179-0.792,0.599-0.88c0.419-0.089,0.819,0.159,0.902,0.55
					c0.088,0.42-0.16,0.819-0.594,0.911C151.037,310.519,150.636,310.255,150.55,309.85z M151.287,312.202l1.026-0.217l1.604,7.604
					l-1.026,0.217L151.287,312.202z"/>
				<path style="fill:#FFFFFF;" d="M154.52,308.258l1.026-0.217l2.262,10.726l-1.026,0.217L154.52,308.258z"/>
				<path style="fill:#FFFFFF;" d="M165.418,312.24l0.994,4.713l-0.983,0.207l-0.25-1.186c-0.298,0.879-1.094,1.545-2.351,1.812
					c-1.72,0.363-2.965-0.312-3.242-1.626c-0.247-1.172,0.298-2.313,2.481-2.774l2.414-0.509l-0.098-0.462
					c-0.275-1.301-1.161-1.854-2.578-1.555c-0.983,0.207-1.835,0.748-2.341,1.43l-0.624-0.671c0.629-0.812,1.678-1.425,2.878-1.678
					C163.683,309.527,165.003,310.274,165.418,312.24z M164.904,314.885l-0.262-1.243l-2.386,0.503
					c-1.474,0.31-1.829,0.99-1.664,1.771c0.186,0.882,1.01,1.28,2.225,1.025C163.972,316.697,164.71,315.968,164.904,314.885z"/>
				<path style="fill:#FFFFFF;" d="M176.11,310.936c0.485,2.298-0.801,4.216-2.97,4.674c-1.257,0.265-2.428-0.062-3.266-0.957
					l0.317,1.503l-0.982,0.208l-2.262-10.727l1.026-0.217l0.963,4.567c0.43-1.116,1.36-1.856,2.574-2.112
					C173.679,307.418,175.626,308.637,176.11,310.936z M175.084,311.153c-0.375-1.779-1.853-2.703-3.457-2.366
					c-1.62,0.343-2.583,1.782-2.209,3.561c0.376,1.778,1.839,2.707,3.459,2.367C174.482,314.376,175.46,312.93,175.084,311.153z"/>
				<path style="fill:#FFFFFF;" d="M176.754,303.568l1.026-0.215l2.262,10.725l-1.026,0.217L176.754,303.568z"/>
				<path style="fill:#FFFFFF;" d="M188.792,308.593l-6.36,1.341c0.451,1.566,1.888,2.366,3.55,2.016
					c0.925-0.194,1.679-0.702,2.117-1.49l0.719,0.544c-0.51,0.951-1.473,1.609-2.672,1.861c-2.371,0.5-4.331-0.777-4.807-3.032
					c-0.476-2.255,0.761-4.192,2.901-4.644c2.139-0.451,4.018,0.798,4.5,3.083C188.759,308.359,188.768,308.478,188.792,308.593z
					 M182.271,309.168l5.392-1.137c-0.444-1.461-1.748-2.274-3.236-1.96C182.951,306.383,182.087,307.653,182.271,309.168z"/>
			</g>
		</g>
	</g>
</g>
</svg>
