<?xml version="1.0" encoding="utf-8"?>
<!-- Generator: Adobe Illustrator 27.5.0, SVG Export Plug-In . SVG Version: 6.00 Build 0)  -->
<svg version="1.1" xmlns="http://www.w3.org/2000/svg" xmlns:xlink="http://www.w3.org/1999/xlink" x="0px" y="0px"
	 viewBox="0 0 500 500" style="enable-background:new 0 0 500 500;" xml:space="preserve">
<g id="Background_Complete">
	<g>
		<g>
			<g>
				<g>
					<g>
						<g>
							<path style="fill:#EBEBEB;" d="M60.535,357.416c-5.843-3.015-12.723-3.407-19.21-2.334c-3.485,0.576-7.118,1.619-9.49,4.236
								c-2.371,2.618-2.821,7.224-0.098,9.474c1.621,1.339,3.881,1.542,5.983,1.518c5.078-0.059,10.713-0.953,14.769,2.102
								c2.315,1.743,3.855,4.641,6.623,5.498c2.707,0.839,5.763-0.759,7.198-3.202c1.436-2.444,1.483-5.498,0.814-8.252
								C67.126,366.456,66.421,360.453,60.535,357.416z"/>
						</g>
					</g>
				</g>
			</g>
			<g>
				<g>
					<g>
						<g>
							<path style="fill:#EBEBEB;" d="M73.922,331.574c-3.573,5.103-10.517,3.413-13.737,0.299
								c-3.22-3.115-4.581-7.629-5.819-11.934c-2.83-9.836-5.684-20.155-3.58-30.171c0.629-2.995,1.749-5.981,3.853-8.203
								c2.104-2.221,5.34-3.543,8.299-2.762c3.501,0.925,5.677,4.354,7.25,7.617c4.623,9.589,7.071,20.219,7.107,30.865
								C77.313,322.256,76.726,327.47,73.922,331.574"/>
						</g>
					</g>
				</g>
			</g>
			<g>
				<g>
					<g>
						<g>
							<path style="fill:#EBEBEB;" d="M83.734,338.896c-3.88-4.604-4.616-11.319-2.889-17.087c1.726-5.768,5.626-10.674,10.12-14.68
								c5.27-4.697,11.464-8.351,18.123-10.693c2.621-0.921,5.385-1.648,8.15-1.384c2.765,0.264,5.55,1.678,6.84,4.138
								c1.907,3.637,0.078,8.049-1.899,11.649c-3.484,6.342-7.468,12.408-11.903,18.126c-3.568,4.6-7.654,9.137-13.092,11.215
								c-5.437,2.079-11.085,1.834-13.967-1.937"/>
						</g>
					</g>
				</g>
			</g>
			<g>
				<g>
					<g>
						<g>
							<g>
								<path style="fill:#E0E0E0;" d="M74.164,408.551c-0.067,0.004-0.175-0.823-0.323-2.319c-0.164-1.688-0.371-3.807-0.616-6.328
									c-0.295-2.663-0.684-5.831-1.424-9.282c-0.737-3.442-1.891-7.172-3.374-10.955c-1.535-3.761-3.407-7.179-5.594-9.913
									c-2.172-2.746-4.698-4.733-7.072-5.88c-2.366-1.169-4.489-1.644-5.956-1.855c-1.48-0.152-2.308-0.269-2.309-0.334
									c-0.001-0.066,0.829-0.077,2.349-0.036c1.506,0.1,3.716,0.482,6.211,1.616c2.502,1.11,5.182,3.128,7.46,5.931
									c2.297,2.791,4.237,6.284,5.799,10.112c1.508,3.85,2.645,7.618,3.35,11.134c0.702,3.511,1.023,6.715,1.234,9.399
									c0.201,2.687,0.277,4.863,0.314,6.367C74.246,407.714,74.229,408.547,74.164,408.551z"/>
							</g>
						</g>
					</g>
				</g>
			</g>
			<g>
				<g>
					<g>
						<g>
							<g>
								<path style="fill:#E0E0E0;" d="M73.728,403.682c-0.033-0.002-0.053-0.372-0.062-1.076c0.002-0.808,0.005-1.827,0.008-3.077
									c0.007-2.67,0.006-6.534-0.137-11.305c-0.236-9.543-1.058-19.814-2.645-34.293c-1.503-13.615-3.52-29.461-5.649-39.763
									c-0.457-2.343-0.916-4.452-1.349-6.298c-0.413-1.851-0.765-3.446-1.105-4.737c-0.292-1.215-0.53-2.205-0.719-2.991
									c-0.154-0.687-0.22-1.053-0.188-1.062c0.032-0.009,0.16,0.338,0.374,1.009c0.235,0.774,0.53,1.75,0.893,2.948
									c0.396,1.279,0.802,2.864,1.266,4.707c0.483,1.839,0.991,3.942,1.49,6.282c2.106,9.335,4.336,22.382,5.938,36.896
									c1.59,14.51,2.306,27.721,2.37,37.289c0.057,4.783-0.045,8.656-0.167,11.328c-0.076,1.25-0.138,2.267-0.188,3.075
									C73.805,403.316,73.761,403.684,73.728,403.682z"/>
							</g>
						</g>
					</g>
				</g>
			</g>
			<g>
				<g>
					<g>
						<g>
							<g>
								<path style="fill:#E0E0E0;" d="M73.664,378.201c-0.066-0.002-0.055-1.144,0.022-3.214c0.118-2.065,0.402-5.051,0.984-8.708
									c0.617-3.648,1.478-7.98,2.832-12.687c0.587-2.152,1.966-7.308,5.305-15.012c4.401-10.439,10.379-18.973,15.58-24.26
									c1.22-1.403,2.578-2.415,3.665-3.407c0.562-0.475,1.06-0.949,1.566-1.325c0.509-0.351,0.983-0.677,1.422-0.98
									c1.712-1.171,2.67-1.788,2.706-1.732c0.153,0.209-3.834,2.556-8.869,7.913c-5.015,5.345-10.826,13.821-15.191,24.172
									c-2.434,5.614-4.131,10.622-5.335,14.874c-1.391,4.661-2.315,8.949-3.013,12.561c-0.664,3.62-1.048,6.576-1.28,8.622
									C73.867,377.067,73.73,378.203,73.664,378.201z"/>
							</g>
						</g>
					</g>
				</g>
			</g>
		</g>
		<g>
			<g>
				<g>
					<g>
						<polygon style="fill:#E0E0E0;" points="102.097,420.108 99.4,457.054 51.937,457.054 49.24,420.108 						"/>
					</g>
				</g>
			</g>
		</g>
		<g>
			<g>
				<g>
					<g>
						<rect x="43.577" y="405.546" style="fill:#E0E0E0;" width="63.104" height="14.563"/>
					</g>
				</g>
			</g>
		</g>
		<g>
			<g>
				<g>
					<g>
						<polygon style="fill:#EBEBEB;" points="106.681,455.64 106.681,459.677 103.716,459.677 44.62,459.677 44.62,455.64 						"/>
					</g>
				</g>
			</g>
		</g>
		<g>
			<g>
				<g>
					<g>
						<polygon style="fill:#EBEBEB;" points="101.18,466.781 104.087,459.677 47.251,459.677 50.642,466.781 						"/>
					</g>
				</g>
			</g>
		</g>
		<g>
			<g>
				<g>
					<g>
						<g>
							<path style="fill:#F5F5F5;" d="M50.122,432.183c-0.011,0.009,0.065,0.124,0.221,0.339c0.188,0.25,0.422,0.56,0.709,0.941
								c0.674,0.863,1.6,2.048,2.765,3.538l0.123,0.157l0.119-0.164c1.738-2.404,4.06-5.615,6.793-9.395h-0.391
								c2.021,2.861,4.271,6.048,6.688,9.47l0.21,0.297l0.235-0.279c2.468-2.936,5.148-6.126,7.931-9.437l-0.457-0.006
								c0.138,0.173,0.287,0.36,0.436,0.548c2.46,3.084,4.841,6.069,7.092,8.891l0.237,0.296l0.218-0.309
								c2.408-3.407,4.657-6.59,6.691-9.467l-0.389,0.019c3.297,3.757,6.094,6.943,8.241,9.389l0.146,0.167l0.112-0.188
								c1.086-1.825,1.952-3.28,2.58-4.335c0.27-0.47,0.488-0.851,0.662-1.154c0.146-0.264,0.215-0.404,0.202-0.412
								c-0.013-0.008-0.106,0.117-0.276,0.366c-0.192,0.292-0.434,0.658-0.733,1.111c-0.659,1.036-1.568,2.464-2.709,4.256
								l0.258-0.021c-2.112-2.475-4.864-5.7-8.108-9.503l-0.204-0.24l-0.185,0.258c-2.052,2.865-4.322,6.033-6.751,9.425
								l0.454-0.012c-2.246-2.827-4.621-5.816-7.075-8.904c-0.149-0.188-0.299-0.375-0.436-0.548l-0.225-0.283l-0.232,0.277
								c-2.775,3.318-5.448,6.513-7.909,9.455l0.444,0.017c-2.441-3.404-4.714-6.575-6.755-9.422l-0.198-0.276l-0.193,0.276
								c-2.676,3.822-4.948,7.067-6.649,9.497l0.241-0.008c-1.212-1.453-2.175-2.608-2.876-3.448
								c-0.312-0.361-0.566-0.655-0.77-0.891C50.229,432.272,50.133,432.174,50.122,432.183z"/>
						</g>
					</g>
				</g>
			</g>
		</g>
		<g>
			<g>
				<g>
					<g>
						<g>
							<path style="fill:#F5F5F5;" d="M48.58,419.864c0,0.163,11.893,0.296,26.56,0.296c14.672,0,26.562-0.132,26.562-0.296
								c0-0.163-11.89-0.295-26.562-0.295C60.473,419.569,48.58,419.701,48.58,419.864z"/>
						</g>
					</g>
				</g>
			</g>
		</g>
		<g>
			<g>
				<g>
					<g>
						<g>
							<path style="fill:#E0E0E0;" d="M46.182,460.074c0,0.163,12.925,0.296,28.865,0.296c15.946,0,28.868-0.132,28.868-0.296
								c0-0.163-12.922-0.295-28.868-0.295C59.107,459.779,46.182,459.911,46.182,460.074z"/>
						</g>
					</g>
				</g>
			</g>
		</g>
	</g>
	<g>
		<g>
			<g>
				<g>
					<g>
						<g>
							<rect x="299.338" y="51.282" style="fill:#E0E0E0;" width="151.276" height="219.268"/>
						</g>
					</g>
				</g>
			</g>
			<g>
				<g>
					<g>
						<g>
							<rect x="291.76" y="51.282" style="fill:#F5F5F5;" width="151.276" height="219.268"/>
						</g>
					</g>
				</g>
			</g>
			<g>
				<g>
					<g>
						<g>
							<g>
								<rect x="310.555" y="75.03" style="fill:#FFFFFF;" width="113.686" height="171.771"/>
							</g>
						</g>
					</g>
				</g>
				<g>
					<g>
						<g>
							<g>
								<g>
									<path style="fill:#E0E0E0;" d="M424.241,246.802c0,0-0.015-0.291-0.022-0.84c-0.005-0.567-0.013-1.376-0.022-2.436
										c-0.01-2.159-0.026-5.319-0.046-9.421c-0.024-8.233-0.058-20.229-0.102-35.384c-0.045-30.289-0.11-73.18-0.186-123.69
										l0.377,0.377c-34.733,0.01-73.221,0.022-113.672,0.034h-0.014l0.411-0.411c-0.031,64.799-0.061,124.544-0.083,171.771
										l-0.328-0.327c34.622,0.072,63.001,0.131,82.749,0.172c9.878,0.036,17.592,0.064,22.862,0.083
										c2.619,0.016,4.625,0.028,6.001,0.037C423.525,246.778,424.241,246.802,424.241,246.802s-0.669,0.024-2.006,0.035
										c-1.362,0.009-3.348,0.021-5.94,0.037c-5.252,0.019-12.942,0.047-22.788,0.083c-19.797,0.041-48.245,0.1-82.952,0.172
										l-0.328,0.001l0-0.329c-0.023-47.227-0.052-106.972-0.083-171.771l0-0.412h0.412h0.014
										c40.452,0.012,78.939,0.024,113.672,0.034h0.378l0,0.378c-0.076,50.61-0.14,93.588-0.186,123.937
										c-0.043,15.118-0.078,27.086-0.102,35.299c-0.02,4.07-0.035,7.205-0.046,9.346c-0.01,1.041-0.017,1.836-0.022,2.393
										C424.256,246.541,424.241,246.802,424.241,246.802z"/>
								</g>
							</g>
						</g>
					</g>
				</g>
			</g>
			<g>
				<g>
					<g>
						<g>
							<g>
								<path style="fill:none;stroke:#FBFBFB;stroke-width:0.25;stroke-miterlimit:10;" d="M418.97,76.176"/>
							</g>
						</g>
					</g>
				</g>
			</g>
			<g>
				<g>
					<g>
						<g>
							<g>
								<path style="fill:#E0E0E0;" d="M443.46,51.282c0.088,0.068-0.939,1.567-2.696,3.918c-1.758,2.35-4.252,5.547-7.098,9.003
									c-2.848,3.457-5.508,6.518-7.477,8.693c-1.97,2.175-3.244,3.47-3.328,3.397c-0.087-0.076,1.032-1.506,2.887-3.776
									c2.028-2.461,4.523-5.488,7.283-8.837c2.757-3.349,5.25-6.378,7.276-8.84C442.18,52.584,443.369,51.211,443.46,51.282z"/>
							</g>
						</g>
					</g>
				</g>
			</g>
			<g>
				<g>
					<g>
						<g>
							<g>
								<path style="fill:#FFFFFF;" d="M424.82,246.249c5.646,8.978,12.312,17.315,19.829,24.798"/>
							</g>
						</g>
					</g>
				</g>
				<g>
					<g>
						<g>
							<g>
								<g>
									<path style="fill:#E0E0E0;" d="M444.649,271.047c-0.075,0.076-1.424-1.096-3.457-3.145
										c-2.033-2.048-4.726-4.996-7.48-8.436c-2.751-3.444-5.035-6.721-6.585-9.154c-1.552-2.434-2.397-4.008-2.307-4.064
										c0.102-0.064,1.121,1.398,2.789,3.738c1.668,2.341,4.011,5.542,6.746,8.966c2.737,3.42,5.345,6.41,7.261,8.551
										C443.531,269.646,444.734,270.961,444.649,271.047z"/>
								</g>
							</g>
						</g>
					</g>
				</g>
			</g>
			<g>
				<g>
					<g>
						<g>
							<g>
								<path style="fill:#FFFFFF;" d="M291.738,270.376c6.605-8.149,13.21-16.298,19.815-24.447"/>
							</g>
						</g>
					</g>
				</g>
				<g>
					<g>
						<g>
							<g>
								<g>
									<path style="fill:#E0E0E0;" d="M311.553,245.929c0.176,0.143-4.116,5.732-9.587,12.482
										c-5.473,6.752-10.051,12.108-10.227,11.965c-0.177-0.143,4.116-5.731,9.588-12.483
										C306.797,251.143,311.376,245.786,311.553,245.929z"/>
								</g>
							</g>
						</g>
					</g>
				</g>
			</g>
			<g>
				<g>
					<g>
						<g>
							<g>
								<path style="fill:#E0E0E0;" d="M291.76,51.282c0.178-0.141,4.485,5.007,9.617,11.497c5.135,6.492,9.151,11.868,8.973,12.009
									c-0.178,0.141-4.484-5.006-9.618-11.498C295.599,56.799,291.582,51.423,291.76,51.282z"/>
							</g>
						</g>
					</g>
				</g>
			</g>
			<g>
				<path style="fill:#EBEBEB;" d="M310.953,100.895c7.887-8.504,22.769-12.348,33.449-7.826
					c10.68,4.522,17.926,16.119,17.308,27.701c10.83,1.793,19.17,11.556,21.685,22.241c2.516,10.685,0.067,22-4.236,32.099
					c-1.755,4.118-3.832,8.163-4.654,12.563c-0.822,4.4-0.174,9.361,2.929,12.588c3.694,3.841,9.607,4.201,14.539,6.218
					c7.222,2.952,12.393,9.644,15.267,16.897c2.874,7.253,3.747,15.118,4.593,22.873h-100.28L310.953,100.895z"/>
			</g>
		</g>
		<g>
			<g>
				<path style="fill:#FAFAFA;" d="M316.729,224.784c-0.107-0.096,21.934-24.771,49.223-55.105
					c27.299-30.345,49.508-54.858,49.615-54.762c0.107,0.096-21.929,24.765-49.228,55.11
					C339.05,200.362,316.836,224.88,316.729,224.784z"/>
			</g>
		</g>
		<g>
			<g>
				<path style="fill:#FAFAFA;" d="M405.067,109.048c0.107,0.097-13.777,15.56-31.005,34.534
					c-17.234,18.981-31.287,34.284-31.393,34.188c-0.106-0.097,13.774-15.557,31.008-34.538
					C390.905,124.258,404.961,108.951,405.067,109.048z"/>
			</g>
		</g>
		<g>
			<g>
				<path style="fill:#FAFAFA;" d="M398.711,155.764c0.012,0.013-0.169,0.214-0.527,0.585c-0.396,0.402-0.923,0.936-1.582,1.605
					c-1.419,1.426-3.406,3.422-5.846,5.873c-4.926,4.968-11.664,11.897-18.923,19.722c-7.258,7.831-13.66,15.073-18.243,20.359
					c-2.26,2.617-4.101,4.749-5.415,6.271c-0.617,0.708-1.11,1.273-1.481,1.698c-0.343,0.385-0.53,0.581-0.544,0.57
					c-0.014-0.012,0.146-0.23,0.463-0.637c0.352-0.441,0.82-1.027,1.406-1.761c1.227-1.525,3.033-3.706,5.291-6.381
					c4.514-5.35,10.877-12.637,18.141-20.474c7.265-7.831,14.05-14.725,19.045-19.629c2.497-2.453,4.536-4.419,5.964-5.757
					c0.688-0.64,1.237-1.151,1.651-1.535C398.492,155.927,398.698,155.751,398.711,155.764z"/>
			</g>
		</g>
	</g>
	<g>
		<g>
			<path style="fill:#EBEBEB;" d="M123.732,63.23h-3v-5.678c0-1.841-1.328-3.338-2.96-3.338H94.947c-1.632,0-2.96,1.498-2.96,3.338
				v5.678h-3v-5.678c0-3.495,2.674-6.338,5.96-6.338h22.824c3.287,0,5.96,2.843,5.96,6.338V63.23z"/>
		</g>
		<g>
			<g>
				<path style="fill:#EBEBEB;" d="M156.062,142.206H56.194c-5.041,0-9.127-4.086-9.127-9.127V72.357
					c0-5.041,4.086-9.127,9.127-9.127h99.867c5.04,0,9.127,4.086,9.127,9.127v60.723
					C165.188,138.12,161.102,142.206,156.062,142.206z"/>
			</g>
			<g>
				<g>
					<g>
						<g>
							<rect x="102.818" y="86.77" style="fill:#F5F5F5;" width="7.084" height="31.745"/>
						</g>
					</g>
					<g>
						<g>
							
								<rect x="102.818" y="86.77" transform="matrix(6.123234e-17 -1 1 6.123234e-17 3.7175 209.0016)" style="fill:#F5F5F5;" width="7.084" height="31.745"/>
						</g>
					</g>
				</g>
				<g>
					<g>
						<g>
							<path style="fill:#F5F5F5;" d="M132.724,102.718c-0.01,0-0.027-0.145-0.05-0.428c-0.023-0.309-0.053-0.725-0.091-1.255
								c-0.018-0.278-0.038-0.586-0.06-0.924c-0.037-0.338-0.111-0.705-0.173-1.103c-0.129-0.797-0.252-1.72-0.559-2.725
								c-0.471-2.039-1.432-4.447-2.941-6.998c-1.522-2.54-3.714-5.193-6.697-7.443c-2.973-2.229-6.722-4.124-11.049-4.888
								c-4.297-0.737-9.148-0.602-13.767,1.154c-1.175,0.377-2.28,0.958-3.416,1.503c-1.076,0.651-2.21,1.251-3.211,2.065
								c-1.065,0.731-1.995,1.646-2.97,2.526c-0.881,0.975-1.806,1.93-2.565,3.037c-1.559,2.165-2.919,4.57-3.742,7.214
								c-0.853,2.628-1.313,5.42-1.351,8.261c0.037,2.842,0.496,5.634,1.349,8.264c0.823,2.646,2.184,5.051,3.742,7.217
								c0.759,1.107,1.685,2.062,2.566,3.037c0.975,0.881,1.906,1.796,2.971,2.527c1.002,0.815,2.135,1.415,3.212,2.066
								c1.136,0.545,2.241,1.127,3.417,1.504c4.619,1.756,9.47,1.891,13.768,1.154c4.327-0.765,8.077-2.66,11.049-4.889
								c2.982-2.25,5.174-4.903,6.696-7.444c1.509-2.551,2.47-4.959,2.941-6.998c0.308-1.004,0.43-1.928,0.559-2.724
								c0.061-0.399,0.135-0.765,0.172-1.103c0.022-0.337,0.042-0.645,0.06-0.923c0.038-0.53,0.069-0.945,0.091-1.255
								C132.697,102.863,132.714,102.718,132.724,102.718c0.01,0,0.012,0.145,0.007,0.429c-0.009,0.311-0.021,0.728-0.036,1.261
								c-0.01,0.28-0.021,0.59-0.034,0.93c-0.029,0.341-0.094,0.71-0.147,1.113c-0.113,0.804-0.219,1.737-0.513,2.754
								c-0.443,2.064-1.382,4.508-2.883,7.105c-1.514,2.586-3.713,5.293-6.725,7.598c-3.001,2.283-6.803,4.232-11.204,5.031
								c-4.37,0.771-9.312,0.651-14.029-1.125c-1.2-0.382-2.329-0.97-3.489-1.525c-1.1-0.66-2.257-1.271-3.281-2.1
								c-1.088-0.745-2.04-1.675-3.036-2.573c-0.902-0.993-1.847-1.967-2.624-3.096c-1.594-2.208-2.985-4.664-3.829-7.366
								c-0.874-2.685-1.343-5.538-1.38-8.439c0.038-2.901,0.508-5.752,1.382-8.436c0.844-2.7,2.234-5.156,3.829-7.363
								c0.777-1.128,1.722-2.102,2.624-3.095c0.996-0.898,1.948-1.828,3.035-2.573c1.024-0.828,2.181-1.439,3.281-2.099
								c1.16-0.554,2.289-1.143,3.488-1.525c4.716-1.776,9.658-1.896,14.027-1.125c4.4,0.798,8.202,2.747,11.204,5.03
								c3.011,2.304,5.211,5.012,6.725,7.598c1.502,2.597,2.441,5.041,2.884,7.105c0.293,1.017,0.4,1.95,0.513,2.754
								c0.053,0.402,0.118,0.772,0.147,1.113c0.012,0.34,0.023,0.65,0.034,0.93c0.015,0.533,0.027,0.95,0.036,1.261
								C132.736,102.573,132.734,102.718,132.724,102.718z"/>
						</g>
					</g>
				</g>
			</g>
		</g>
		<g>
			<g>
				<g>
					<path style="fill:#EBEBEB;" d="M200.538,69.043V57.101h-8.408c0,0.467,0,11.941,0,11.941h-8.445v68.307h24.702V69.043H200.538z
						"/>
				</g>
			</g>
			<g>
				<g>
					<rect x="33.462" y="137.349" style="fill:#E0E0E0;" width="203.774" height="10.397"/>
				</g>
			</g>
			<g>
				<g>
					<rect x="73.29" y="147.746" style="fill:#E0E0E0;" width="5.932" height="24.579"/>
				</g>
			</g>
			<g>
				<g>
					<rect x="191.938" y="147.746" style="fill:#E0E0E0;" width="5.932" height="24.579"/>
				</g>
			</g>
			<g>
				<g>
					<path style="fill:#FAFAFA;" d="M154.581,87.416v-8.729h-6.146c0,0.341,0,8.729,0,8.729h-6.174v49.933h18.057V87.416H154.581z"
						/>
				</g>
			</g>
			<g>
				<g>
					<path style="fill:#F5F5F5;" d="M175.077,87.416v-8.729h-6.146c0,0.341,0,8.729,0,8.729h-6.174v49.933h18.057V87.416H175.077z"
						/>
				</g>
			</g>
			<g>
				<g>
					<g>
						<rect x="40.849" y="104.909" style="fill:#E0E0E0;" width="32.441" height="32.441"/>
					</g>
				</g>
				<g>
					<g>
						<g>
							<path style="fill:#EBEBEB;" d="M73.131,113.244c0,0.209-7.162,0.379-15.994,0.379c-8.835,0-15.996-0.17-15.996-0.379
								c0-0.209,7.16-0.378,15.996-0.378C65.969,112.865,73.131,113.035,73.131,113.244z"/>
						</g>
					</g>
				</g>
				<g>
					<g>
						<g>
							<path style="fill:#EBEBEB;" d="M58.302,117.524c0.008-0.025,0.119-0.009,0.329,0.048c0.214,0.045,0.512,0.179,0.863,0.408
								c0.705,0.457,1.494,1.509,1.777,2.986c0.268,1.428,0.321,3.37-0.834,5.099c-0.56,0.837-1.434,1.587-2.523,1.91
								c-1.08,0.332-2.261,0.27-3.369-0.031c-2.216-0.565-4.137-2.275-4.508-4.338c-0.428-2.01,0.371-3.918,1.524-4.905
								c1.149-1.017,2.415-1.284,3.23-1.304c0.834-0.022,1.267,0.173,1.256,0.206c-0.01,0.068-0.455-0.023-1.232,0.088
								c-0.761,0.105-1.903,0.44-2.887,1.401c-0.98,0.924-1.617,2.616-1.21,4.365c0.351,1.758,2.006,3.231,4.026,3.758
								c1.002,0.272,2.046,0.323,2.956,0.051c0.911-0.261,1.653-0.872,2.163-1.597c1.038-1.464,1.07-3.26,0.881-4.604
								c-0.201-1.381-0.838-2.359-1.43-2.85C58.721,117.719,58.274,117.597,58.302,117.524z"/>
						</g>
					</g>
				</g>
			</g>
		</g>
	</g>
	<g>
		<g>
			<path style="fill:#EBEBEB;" d="M443.421,466.722l-9.613,0.097c-2.455,0.025-4.466-1.946-4.49-4.401l-0.111-11.032l18.504-0.187
				l0.111,11.032C447.847,464.686,445.876,466.697,443.421,466.722z"/>
		</g>
		<g>
			<g>
				<g>
					<g>
						<g>
							<path style="fill:#E0E0E0;" d="M447.993,461.747c0.002,0.157-4.147,0.327-9.265,0.378c-5.12,0.052-9.27-0.034-9.272-0.192
								c-0.002-0.157,4.146-0.327,9.266-0.378C443.84,461.504,447.991,461.589,447.993,461.747z"/>
						</g>
					</g>
				</g>
			</g>
			<g>
				<g>
					<g>
						<path style="fill:#E0E0E0;" d="M435.281,461.752L435.281,461.752c-0.012-1.238,0.941-2.251,2.129-2.263l3.696-0.037
							c1.188-0.012,2.162,0.982,2.174,2.22l0,0L435.281,461.752z"/>
					</g>
				</g>
			</g>
			<g>
				<g>
					<g>
						<path style="fill:#E0E0E0;" d="M420.117,364.227l5.05,83.638c0.227,3.759,3.238,6.677,6.853,6.64l13.465-0.136
							c3.512-0.035,6.417-2.853,6.701-6.5l6.557-84.032L420.117,364.227z"/>
					</g>
				</g>
			</g>
			<g>
				<g>
					<g>
						<g>
							<path style="fill:#EBEBEB;" d="M458.23,370.743c0.002,0.158-8.43,0.37-18.83,0.475c-10.404,0.105-18.836,0.062-18.837-0.095
								c-0.002-0.157,8.428-0.37,18.832-0.475C449.794,370.543,458.228,370.586,458.23,370.743z"/>
						</g>
					</g>
				</g>
			</g>
			<g>
				<g>
					<g>
						<g>
							<path style="fill:#EBEBEB;" d="M423.556,371.167c-0.157,0.001-0.301-1.56-0.32-3.486c-0.02-1.927,0.092-3.491,0.25-3.492
								c0.157-0.001,0.301,1.559,0.32,3.487C423.826,369.602,423.714,371.166,423.556,371.167z"/>
						</g>
					</g>
				</g>
			</g>
			<g>
				<g>
					<g>
						<g>
							<path style="fill:#EBEBEB;" d="M426.62,371.136c-0.157,0.002-0.301-1.559-0.32-3.486c-0.02-1.928,0.092-3.491,0.25-3.492
								c0.157-0.002,0.301,1.559,0.32,3.486C426.89,369.571,426.778,371.135,426.62,371.136z"/>
						</g>
					</g>
				</g>
			</g>
			<g>
				<g>
					<g>
						<g>
							<path style="fill:#EBEBEB;" d="M429.684,371.105c-0.157,0.002-0.301-1.559-0.32-3.486c-0.019-1.927,0.092-3.491,0.25-3.492
								c0.157-0.002,0.301,1.559,0.32,3.487C429.954,369.54,429.842,371.104,429.684,371.105z"/>
						</g>
					</g>
				</g>
			</g>
			<g>
				<g>
					<g>
						<g>
							<path style="fill:#EBEBEB;" d="M432.748,371.074c-0.157,0.002-0.301-1.559-0.32-3.486c-0.019-1.927,0.092-3.491,0.25-3.492
								c0.157-0.002,0.301,1.559,0.32,3.487C433.018,369.509,432.906,371.073,432.748,371.074z"/>
						</g>
					</g>
				</g>
			</g>
			<g>
				<g>
					<g>
						<g>
							<path style="fill:#EBEBEB;" d="M435.812,371.044c-0.158,0.002-0.301-1.559-0.32-3.486c-0.019-1.927,0.092-3.491,0.25-3.492
								c0.157-0.002,0.301,1.559,0.32,3.487C436.082,369.478,435.97,371.042,435.812,371.044z"/>
						</g>
					</g>
				</g>
			</g>
			<g>
				<g>
					<g>
						<g>
							<path style="fill:#EBEBEB;" d="M438.876,371.013c-0.157,0.002-0.301-1.56-0.32-3.486c-0.019-1.927,0.092-3.491,0.25-3.492
								c0.157-0.001,0.301,1.559,0.32,3.487C439.145,369.448,439.034,371.011,438.876,371.013z"/>
						</g>
					</g>
				</g>
			</g>
			<g>
				<g>
					<g>
						<g>
							<path style="fill:#EBEBEB;" d="M441.94,370.982c-0.157,0.002-0.301-1.559-0.32-3.486c-0.02-1.927,0.092-3.491,0.25-3.492
								c0.157-0.002,0.301,1.559,0.32,3.487C442.209,369.417,442.098,370.98,441.94,370.982z"/>
						</g>
					</g>
				</g>
			</g>
			<g>
				<g>
					<g>
						<g>
							<path style="fill:#EBEBEB;" d="M445.004,370.951c-0.157,0.002-0.301-1.56-0.32-3.486c-0.02-1.927,0.092-3.491,0.25-3.492
								c0.157-0.001,0.301,1.559,0.32,3.487C445.273,369.386,445.162,370.949,445.004,370.951z"/>
						</g>
					</g>
				</g>
			</g>
			<g>
				<g>
					<g>
						<g>
							<path style="fill:#EBEBEB;" d="M448.068,370.92c-0.157,0.001-0.301-1.56-0.32-3.486c-0.019-1.927,0.092-3.491,0.25-3.492
								c0.157-0.002,0.301,1.559,0.32,3.487C448.337,369.355,448.226,370.918,448.068,370.92z"/>
						</g>
					</g>
				</g>
			</g>
			<g>
				<g>
					<g>
						<g>
							<path style="fill:#EBEBEB;" d="M451.132,370.889c-0.158,0.002-0.301-1.559-0.32-3.486c-0.019-1.928,0.092-3.491,0.25-3.492
								c0.157-0.002,0.301,1.559,0.32,3.486C451.401,369.324,451.289,370.888,451.132,370.889z"/>
						</g>
					</g>
				</g>
			</g>
			<g>
				<g>
					<g>
						<g>
							<path style="fill:#EBEBEB;" d="M454.196,370.858c-0.158,0.001-0.301-1.56-0.32-3.486c-0.019-1.927,0.092-3.491,0.25-3.492
								c0.157-0.002,0.301,1.559,0.32,3.487C454.465,369.293,454.353,370.857,454.196,370.858z"/>
						</g>
					</g>
				</g>
			</g>
			<g>
				<g>
					<g>
						<g>
							<path style="fill:#EBEBEB;" d="M457.26,370.827c-0.157,0.002-0.301-1.559-0.32-3.486c-0.02-1.927,0.092-3.491,0.25-3.492
								c0.157-0.002,0.301,1.559,0.32,3.486C457.529,369.262,457.417,370.826,457.26,370.827z"/>
						</g>
					</g>
				</g>
			</g>
			<g>
				<g>
					<g>
						<polygon style="fill:#FFFFFF;" points="437.171,403.518 437.122,398.659 441.933,398.611 441.979,403.161 445.902,403.122 
							445.951,407.904 441.611,407.947 441.653,412.112 437.628,412.153 437.583,407.68 432.845,407.727 432.802,403.485 						"/>
					</g>
				</g>
			</g>
			<g>
				<g>
					<g>
						<g>
							<path style="fill:#FFFFFF;" d="M449.367,405.285c-0.07,0.005-0.032-0.908-0.434-2.465c-0.406-1.523-1.379-3.783-3.642-5.553
								c-1.12-0.865-2.541-1.596-4.182-1.89c-1.632-0.276-3.475-0.189-5.203,0.532c-1.736,0.675-3.337,1.957-4.467,3.641
								c-1.15,1.677-1.777,3.776-1.773,5.932c0.038,2.157,0.707,4.243,1.891,5.897c1.165,1.661,2.791,2.911,4.54,3.551
								c1.743,0.686,3.587,0.736,5.214,0.427c1.635-0.327,3.041-1.087,4.144-1.974c2.227-1.815,3.154-4.094,3.529-5.625
								C449.353,406.194,449.296,405.281,449.367,405.285c0.02,0,0.03,0.224,0.032,0.653c0.012,0.429-0.038,1.066-0.2,1.868
								c-0.316,1.576-1.206,3.955-3.488,5.887c-1.13,0.944-2.59,1.762-4.304,2.126c-1.704,0.346-3.648,0.312-5.494-0.398
								c-1.853-0.663-3.578-1.973-4.813-3.72c-1.255-1.741-1.966-3.942-2.005-6.214c-0.006-2.271,0.661-4.486,1.88-6.251
								c1.199-1.772,2.897-3.116,4.736-3.816c1.832-0.747,3.775-0.82,5.485-0.508c1.72,0.33,3.196,1.118,4.346,2.039
								c2.322,1.885,3.259,4.246,3.607,5.815c0.178,0.799,0.24,1.435,0.238,1.864C449.392,405.061,449.386,405.285,449.367,405.285z
								"/>
						</g>
					</g>
				</g>
			</g>
		</g>
	</g>
	<g>
		<g>
			<g>
				<g>
					<g>
						<path style="fill:#F5F5F5;" d="M387.713,421.31c-0.041,12.062-0.043,31.538-0.041,40.483c0,2.638,2.136,4.776,4.775,4.783
							l32.942,0.079c2.643,0.006,4.791-2.131,4.798-4.775l0.097-40.13c0.014-5.868-4.732-10.637-10.6-10.651l0,0l0.014-5.902
							l-21.573-0.052l-0.013,5.58l-0.079,0.002C392.3,410.893,387.733,415.575,387.713,421.31z"/>
					</g>
				</g>
			</g>
		</g>
		<g>
			<g>
				<g>
					<g>
						<polygon style="fill:#E0E0E0;" points="398.124,405.896 398.117,408.58 419.688,409.397 419.696,405.948 						"/>
					</g>
				</g>
			</g>
		</g>
		<g>
			<g>
				<g>
					<g>
						<path style="fill:#EBEBEB;" d="M420.328,407.674l-22.753-0.055c-1.067-0.003-1.929-0.869-1.927-1.936l0.014-5.786
							c0.004-1.652,1.347-2.988,2.999-2.984l20.632,0.05c1.652,0.004,2.988,1.347,2.984,2.999l-0.014,5.786
							C422.261,406.814,421.394,407.677,420.328,407.674z"/>
					</g>
				</g>
			</g>
		</g>
		<g>
			<g>
				<g>
					<g>
						<g>
							<path style="fill:#E0E0E0;" d="M399.049,407.664c-0.156,0-0.277-2.387-0.27-5.331c0.007-2.944,0.14-5.33,0.296-5.33
								c0.156,0,0.277,2.387,0.27,5.331C399.338,405.277,399.206,407.664,399.049,407.664z"/>
						</g>
					</g>
				</g>
			</g>
		</g>
		<g>
			<g>
				<g>
					<g>
						<g>
							<path style="fill:#E0E0E0;" d="M401.892,407.67c-0.156,0-0.277-2.387-0.27-5.331c0.007-2.945,0.14-5.33,0.296-5.33
								c0.156,0,0.277,2.387,0.27,5.331C402.181,405.284,402.049,407.671,401.892,407.67z"/>
						</g>
					</g>
				</g>
			</g>
		</g>
		<g>
			<g>
				<g>
					<g>
						<g>
							<path style="fill:#E0E0E0;" d="M404.735,407.677c-0.156,0-0.277-2.387-0.27-5.331c0.007-2.944,0.14-5.33,0.296-5.33
								c0.156,0,0.277,2.387,0.27,5.331C405.024,405.291,404.892,407.678,404.735,407.677z"/>
						</g>
					</g>
				</g>
			</g>
		</g>
		<g>
			<g>
				<g>
					<g>
						<g>
							<path style="fill:#E0E0E0;" d="M407.578,407.684c-0.156,0-0.277-2.387-0.27-5.331c0.007-2.945,0.14-5.33,0.296-5.33
								c0.156,0,0.277,2.387,0.27,5.331C407.867,405.298,407.734,407.685,407.578,407.684z"/>
						</g>
					</g>
				</g>
			</g>
		</g>
		<g>
			<g>
				<g>
					<g>
						<g>
							<path style="fill:#E0E0E0;" d="M410.421,407.691c-0.156,0-0.277-2.387-0.27-5.331c0.007-2.944,0.14-5.33,0.296-5.33
								c0.156,0,0.277,2.387,0.27,5.331C410.71,405.305,410.577,407.691,410.421,407.691z"/>
						</g>
					</g>
				</g>
			</g>
		</g>
		<g>
			<g>
				<g>
					<g>
						<g>
							<path style="fill:#E0E0E0;" d="M413.264,407.698c-0.156,0-0.277-2.387-0.27-5.331c0.007-2.945,0.14-5.33,0.296-5.33
								c0.156,0,0.277,2.387,0.27,5.331C413.553,405.312,413.42,407.698,413.264,407.698z"/>
						</g>
					</g>
				</g>
			</g>
		</g>
		<g>
			<g>
				<g>
					<g>
						<g>
							<path style="fill:#E0E0E0;" d="M416.107,407.705c-0.156,0-0.277-2.387-0.27-5.331c0.007-2.944,0.14-5.33,0.296-5.33
								c0.156,0,0.277,2.387,0.27,5.331C416.396,405.319,416.263,407.705,416.107,407.705z"/>
						</g>
					</g>
				</g>
			</g>
		</g>
		<g>
			<g>
				<g>
					<g>
						<g>
							<path style="fill:#E0E0E0;" d="M418.95,407.711c-0.156,0-0.277-2.387-0.27-5.331c0.007-2.945,0.14-5.33,0.296-5.33
								c0.156,0,0.277,2.387,0.27,5.331C419.239,405.326,419.106,407.712,418.95,407.711z"/>
						</g>
					</g>
				</g>
			</g>
		</g>
		<g>
			<g>
				<g>
					<g>
						<g>
							<path style="fill:#EBEBEB;" d="M423.104,447.652l-27.945-0.067c-0.819-0.002-1.481-0.667-1.479-1.486l0.042-17.48
								c0.002-0.819,0.667-1.481,1.486-1.479l27.945,0.067c0.819,0.002,1.481,0.667,1.479,1.486l-0.042,17.481
								C424.588,446.992,423.923,447.654,423.104,447.652z"/>
						</g>
					</g>
				</g>
			</g>
			<g>
				<g>
					<g>
						<g>
							<g>
								<path style="fill:#E0E0E0;" d="M422.519,446.248c-0.008-0.008-0.016-0.124-0.023-0.342
									c-0.006-0.255-0.014-0.568-0.023-0.953c-0.012-0.877-0.028-2.077-0.049-3.587c-0.021-3.122-0.051-7.52-0.087-12.866
									l0.224,0.225c-7.459-0.002-16.876-0.004-27.092-0.007c-0.064,0.061,0.535-0.534,0.282-0.28l0,0.005v0.009l0,0.018v0.037
									l0,0.074l0,0.148l-0.001,0.295l-0.001,0.589l-0.003,1.172c-0.002,0.779-0.005,1.552-0.007,2.32
									c-0.005,1.535-0.01,3.048-0.016,4.533c-0.013,2.968-0.026,5.827-0.038,8.545l-0.259-0.261
									c7.902,0.071,14.628,0.132,19.441,0.175c2.36,0.035,4.249,0.063,5.605,0.083c0.621,0.014,1.119,0.026,1.507,0.035
									C422.324,446.227,422.508,446.237,422.519,446.248c0.01,0.01-0.154,0.02-0.48,0.03c-0.375,0.007-0.856,0.017-1.455,0.028
									c-1.343,0.014-3.211,0.033-5.547,0.057c-4.856,0.02-11.641,0.048-19.613,0.081l-0.26,0.001v-0.262
									c0.001-2.718,0.002-5.577,0.004-8.545c0.002-1.485,0.004-2.997,0.006-4.533c0.002-0.768,0.003-1.542,0.005-2.32l0.003-1.172
									l0.001-0.589l0.001-0.295l0-0.148l0-0.074l0-0.037l0-0.018v-0.009l0-0.005c-0.254,0.251,0.346-0.347,0.286-0.285
									c10.216,0.046,19.633,0.089,27.092,0.123l0.227,0.001l-0.003,0.225c-0.062,5.404-0.113,9.85-0.15,13.006
									c-0.028,1.489-0.05,2.672-0.066,3.537c-0.011,0.367-0.02,0.667-0.027,0.91C422.535,446.156,422.527,446.256,422.519,446.248
									z"/>
							</g>
						</g>
					</g>
				</g>
			</g>
			<g>
				<g>
					<g>
						<g>
							<g>
								<path style="fill:#E0E0E0;" d="M418.355,434.234c-0.001,0.157-4.123,0.273-9.206,0.261
									c-5.085-0.012-9.206-0.149-9.206-0.305c0-0.156,4.122-0.273,9.207-0.261C414.234,433.941,418.355,434.077,418.355,434.234z"
									/>
							</g>
						</g>
					</g>
				</g>
			</g>
			<g>
				<g>
					<g>
						<g>
							<g>
								<path style="fill:#E0E0E0;" d="M418.348,437.364c0,0.156-4.123,0.273-9.206,0.261c-5.085-0.012-9.206-0.149-9.206-0.305
									c0-0.156,4.122-0.273,9.207-0.261C414.226,437.07,418.348,437.207,418.348,437.364z"/>
							</g>
						</g>
					</g>
				</g>
			</g>
			<g>
				<g>
					<g>
						<g>
							<g>
								<path style="fill:#E0E0E0;" d="M418.34,440.371c-0.001,0.156-4.123,0.273-9.206,0.261c-5.085-0.012-9.206-0.149-9.206-0.305
									c0-0.156,4.122-0.273,9.207-0.261C414.219,440.078,418.341,440.215,418.34,440.371z"/>
							</g>
						</g>
					</g>
				</g>
			</g>
		</g>
		<g>
			<g>
				<g>
					<g>
						<g>
							<path style="fill:#E0E0E0;" d="M418.452,410.91c0,0.156-4.5,0.272-10.048,0.259c-5.55-0.013-10.048-0.151-10.047-0.308
								c0-0.156,4.499-0.272,10.049-0.259C413.954,410.616,418.452,410.754,418.452,410.91z"/>
						</g>
					</g>
				</g>
			</g>
		</g>
		<g>
			<g>
				<g>
					<g>
						<g>
							<path style="fill:#FFFFFF;" d="M389.456,459.473c-0.039,0-0.073-0.677-0.1-1.899c-0.016-1.317-0.037-3.063-0.062-5.178
								c-0.028-4.372-0.027-10.413,0.008-17.084c0.026-3.332,0.051-6.506,0.074-9.407c0.02-2.888,0.307-5.576,1.263-7.612
								c0.933-2.039,2.341-3.311,3.43-3.895c0.544-0.305,1.012-0.439,1.323-0.529c0.32-0.065,0.487-0.089,0.492-0.07
								c0.018,0.057-0.672,0.16-1.703,0.789c-1.018,0.621-2.325,1.888-3.176,3.867c-0.872,1.974-1.116,4.581-1.107,7.454
								c-0.009,2.9-0.019,6.073-0.03,9.405c-0.036,6.671-0.1,12.711-0.174,17.082c-0.048,2.115-0.088,3.861-0.118,5.178
								C389.536,458.797,389.495,459.473,389.456,459.473z"/>
						</g>
					</g>
				</g>
			</g>
		</g>
		<g>
			<g>
				<g>
					<g>
						<g>
							<path style="fill:#FFFFFF;" d="M428.678,465.129c-0.015,0.036-0.542-0.131-1.478-0.463c-0.466-0.172-1.038-0.375-1.715-0.574
								c-0.675-0.204-1.432-0.471-2.294-0.68c-1.706-0.482-3.772-0.925-6.085-1.287c-2.318-0.329-4.884-0.558-7.586-0.577
								c-2.703,0.006-5.271,0.223-7.591,0.542c-2.315,0.352-4.383,0.785-6.091,1.259c-0.864,0.204-1.622,0.468-2.297,0.669
								c-0.678,0.195-1.251,0.396-1.718,0.566c-0.938,0.328-1.465,0.492-1.48,0.456c-0.015-0.036,0.484-0.27,1.402-0.662
								c0.457-0.202,1.022-0.434,1.695-0.66c0.671-0.231,1.426-0.523,2.29-0.754c1.708-0.528,3.788-1.006,6.122-1.39
								c2.339-0.35,4.937-0.586,7.67-0.592c2.732,0.018,5.328,0.266,7.665,0.627c2.332,0.394,4.41,0.883,6.115,1.418
								c0.863,0.235,1.617,0.531,2.286,0.765c0.672,0.229,1.236,0.463,1.692,0.668C428.195,464.857,428.693,465.093,428.678,465.129
								z"/>
						</g>
					</g>
				</g>
			</g>
		</g>
	</g>
	<g>
		<g>
			<g>
				<g>
					<rect x="83.024" y="212.41" style="fill:#EBEBEB;" width="9.04" height="40.51"/>
				</g>
			</g>
			<g>
				<g>
					
						<rect x="83.024" y="212.41" transform="matrix(6.123234e-17 -1 1 6.123234e-17 -145.1216 320.2091)" style="fill:#EBEBEB;" width="9.04" height="40.51"/>
				</g>
			</g>
		</g>
		<g>
			<g>
				<g>
					<path style="fill:#EBEBEB;" d="M121.188,232.762c-0.012,0-0.034-0.185-0.064-0.546c-0.029-0.395-0.067-0.925-0.116-1.601
						c-0.023-0.355-0.049-0.748-0.077-1.179c-0.048-0.432-0.142-0.899-0.22-1.408c-0.165-1.017-0.321-2.195-0.714-3.477
						c-0.601-2.602-1.827-5.675-3.754-8.931c-1.942-3.242-4.74-6.627-8.545-9.499c-3.794-2.844-8.578-5.263-14.1-6.238
						c-5.484-0.94-11.674-0.768-17.568,1.473c-1.5,0.481-2.91,1.223-4.359,1.919c-1.373,0.831-2.82,1.596-4.098,2.635
						c-1.359,0.933-2.546,2.1-3.79,3.224c-1.124,1.245-2.305,2.462-3.274,3.875c-1.989,2.762-3.725,5.831-4.776,9.206
						c-1.089,3.354-1.675,6.916-1.724,10.542c0.048,3.627,0.633,7.19,1.722,10.545c1.05,3.376,2.787,6.446,4.775,9.209
						c0.969,1.413,2.15,2.631,3.274,3.876c1.244,1.124,2.432,2.292,3.791,3.225c1.278,1.04,2.725,1.805,4.098,2.636
						c1.45,0.696,2.86,1.438,4.36,1.919c5.895,2.241,12.085,2.413,17.57,1.472c5.522-0.976,10.307-3.394,14.1-6.239
						c3.805-2.872,6.603-6.257,8.544-9.499c1.926-3.256,3.152-6.328,3.753-8.93c0.392-1.281,0.549-2.46,0.713-3.476
						c0.078-0.509,0.172-0.976,0.22-1.408c0.028-0.43,0.054-0.823,0.077-1.178c0.049-0.676,0.088-1.206,0.116-1.601
						C121.154,232.948,121.175,232.762,121.188,232.762c0.012,0,0.015,0.185,0.009,0.548c-0.011,0.397-0.026,0.929-0.046,1.609
						c-0.013,0.358-0.027,0.753-0.043,1.187c-0.036,0.435-0.12,0.907-0.187,1.42c-0.143,1.026-0.28,2.217-0.654,3.514
						c-0.565,2.633-1.763,5.752-3.679,9.066c-1.932,3.3-4.739,6.755-8.581,9.696c-3.83,2.914-8.682,5.4-14.297,6.42
						c-5.577,0.984-11.883,0.831-17.903-1.436c-1.531-0.487-2.972-1.238-4.452-1.946c-1.404-0.842-2.88-1.622-4.187-2.679
						c-1.388-0.95-2.604-2.138-3.874-3.284c-1.151-1.267-2.356-2.51-3.348-3.951c-2.034-2.818-3.81-5.952-4.886-9.399
						c-1.115-3.426-1.713-7.067-1.761-10.769c0.048-3.701,0.648-7.34,1.764-10.765c1.077-3.446,2.851-6.579,4.886-9.396
						c0.992-1.44,2.198-2.682,3.348-3.949c1.271-1.146,2.486-2.333,3.874-3.283c1.307-1.056,2.783-1.836,4.187-2.678
						c1.48-0.708,2.921-1.459,4.451-1.946c6.019-2.267,12.324-2.42,17.9-1.436c5.615,1.018,10.467,3.505,14.297,6.418
						c3.843,2.941,6.65,6.396,8.582,9.695c1.917,3.314,3.115,6.433,3.68,9.067c0.374,1.297,0.511,2.489,0.654,3.515
						c0.067,0.513,0.151,0.985,0.188,1.42c0.016,0.434,0.03,0.829,0.043,1.187c0.019,0.68,0.035,1.212,0.046,1.609
						C121.203,232.577,121.2,232.762,121.188,232.762z"/>
				</g>
			</g>
		</g>
	</g>
</g>
<g id="Background_Simple" style="display:none;">
	<path style="display:inline;fill:#EBEBEB;" d="M404.741,103.722l-2.119-3.447c-17.859-29.061-50.149-46.58-84.193-44.454
		c-4.376,0.273-8.734,0.858-13.033,1.767c-30.953,6.543-57.886,29.656-69.049,59.258c-6.566,17.409-8.4,37.454-20.859,51.272
		c-16.215,17.984-43.744,18.549-67.948,17.804c-24.204-0.745-51.751-0.11-67.887,17.946c-10.106,11.308-13.318,27.388-12.503,42.531
		c2.157,40.093,30.449,75.941,66.429,93.76s78.342,19.414,117.72,11.576c55.164-10.981,107.624-41.136,139.157-87.712
		S429.97,153.993,404.741,103.722z"/>
</g>
<g id="Character">
	<g>
		<g>
			<g>
				<g>
					<g>
						<g>
							<g>
								<path style="fill:#263238;" d="M301.144,200.119c7.505-3.483,12.202-11.169,14.964-18.969
									c2.762-7.799,4.038-16.084,7.107-23.768c2.288-5.727-0.229-14.86,4.913-18.265c6.434-4.261,6.364-15.565,3.88-21.21
									c-2.704-6.144-10.041-10.712-10.54-12.658c-1.309-5.111,3.14-10.645,1.488-15.655
									c-3.881-11.777-13.473-10.225-13.473-10.225c-4.375-5.294-10.288-12.292-19.883-14.775
									c-10.401-2.692-25.734-4.687-34.992,0.764c-9.258,5.451-16.06,9.09-19.05,19.409"/>
							</g>
						</g>
					</g>
					<g>
						<g>
							<g>
								<g>
									<g>
										<g>
											<g>
												<g>
													<g>
														<g>
															<g>
																<g>
																	<g>
																		<g>
																			<g>
																				<g>
																					<g>
																						<g>
																							<g>
																								<g>
																									<g>
																										<path style="fill:#FFCCB0;" d="M281.648,253.248c0.381-26.777,0.349-36.829,0.359-36.676
																											c0,0,23.008-3.872,27.711-33.913c2.338-14.939,1.534-39.424,0.229-59.437
																											c-1.176-18.013-13.161-40.091-31.107-38.152L222.817,99.36c-5.452,0.589-9.547,5.252-9.427,10.734l0,0
																											l6.302,142.645"/>
																									</g>
																								</g>
																							</g>
																						</g>
																					</g>
																				</g>
																			</g>
																		</g>
																	</g>
																</g>
															</g>
															<g>
																<g>
																	<g>
																		<g>
																			<g>
																				<g>
																					<g>
																						<g>
																							<g>
																								<g>
																									<g>
																										<g>
																											<path style="fill:#263238;" d="M298.228,145.381c0.076,2.034-1.583,3.775-3.706,3.894
																												c-2.118,0.118-3.901-1.429-3.978-3.464c-0.076-2.034,1.583-3.777,3.701-3.896
																												C296.367,141.796,298.151,143.347,298.228,145.381z"/>
																										</g>
																									</g>
																								</g>
																							</g>
																						</g>
																					</g>
																				</g>
																			</g>
																		</g>
																	</g>
																</g>
																<g>
																	<g>
																		<g>
																			<g>
																				<g>
																					<g>
																						<g>
																							<g>
																								<g>
																									<g>
																										<g>
																											<g>
																												<path style="fill:#263238;" d="M302.94,135.971c-0.476,0.503-3.399-1.65-7.543-1.63
																													c-4.14-0.04-7.177,2.099-7.628,1.593c-0.221-0.224,0.264-1.132,1.585-2.099
																													c1.301-0.963,3.523-1.902,6.105-1.897c2.581,0.008,4.755,0.954,6.005,1.924
																													C302.741,134.838,303.175,135.746,302.94,135.971z"/>
																											</g>
																										</g>
																									</g>
																								</g>
																							</g>
																						</g>
																					</g>
																				</g>
																			</g>
																		</g>
																	</g>
																</g>
															</g>
															<g>
																<g>
																	<g>
																		<g>
																			<g>
																				<g>
																					<g>
																						<g>
																							<g>
																								<g>
																									<g>
																										<g>
																											<path style="fill:#263238;" d="M260.512,145.381c0.077,2.034-1.583,3.775-3.705,3.894
																												c-2.118,0.118-3.901-1.43-3.977-3.464c-0.076-2.034,1.583-3.778,3.701-3.896
																												C258.653,141.796,260.436,143.347,260.512,145.381z"/>
																										</g>
																									</g>
																								</g>
																							</g>
																						</g>
																					</g>
																				</g>
																			</g>
																		</g>
																	</g>
																</g>
																<g>
																	<g>
																		<g>
																			<g>
																				<g>
																					<g>
																						<g>
																							<g>
																								<g>
																									<g>
																										<g>
																											<g>
																												<path style="fill:#263238;" d="M262.205,136.835c-0.478,0.503-3.404-1.649-7.545-1.629
																													c-4.14-0.04-7.177,2.099-7.628,1.593c-0.221-0.225,0.258-1.132,1.586-2.099
																													c1.301-0.964,3.522-1.902,6.104-1.898c2.581,0.009,4.755,0.955,6.006,1.924
																													C262.002,135.702,262.438,136.609,262.205,136.835z"/>
																											</g>
																										</g>
																									</g>
																								</g>
																							</g>
																						</g>
																					</g>
																				</g>
																			</g>
																		</g>
																	</g>
																</g>
															</g>
															<g>
																<g>
																	<g>
																		<g>
																			<g>
																				<g>
																					<g>
																						<g>
																							<g>
																								<g>
																									<g>
																										<g>
																											<path style="fill:#263238;" d="M277.313,167.536c-0.02-0.236,2.555-0.686,6.729-1.23
																												c1.058-0.111,2.059-0.324,2.236-1.046c0.248-0.766-0.198-1.905-0.713-3.135
																												c-1.001-2.559-2.048-5.24-3.148-8.051c-4.371-11.464-7.539-20.891-7.075-21.063
																												c0.463-0.172,4.383,8.98,8.754,20.444c1.052,2.827,2.059,5.521,3.016,8.1
																												c0.403,1.202,1.095,2.564,0.558,4.152c-0.283,0.792-1.059,1.367-1.737,1.551
																												c-0.678,0.208-1.273,0.221-1.797,0.254C279.936,167.747,277.329,167.771,277.313,167.536z"/>
																										</g>
																									</g>
																								</g>
																							</g>
																						</g>
																					</g>
																				</g>
																			</g>
																		</g>
																	</g>
																</g>
															</g>
															<g>
																<g>
																	<g>
																		<g>
																			<g>
																				<g>
																					<g>
																						<g>
																							<g>
																								<g>
																									<g>
																										<path style="fill:#EB996E;" d="M282.007,216.571c0,0-21.921,1.348-41.963-10.639
																											c0,0,11.914,21.101,41.963,18.224V216.571z"/>
																									</g>
																								</g>
																							</g>
																						</g>
																					</g>
																				</g>
																			</g>
																		</g>
																	</g>
																</g>
															</g>
															<g>
																<g>
																	<g>
																		<g>
																			<g>
																				<g>
																					<g>
																						<g>
																							<g>
																								<g>
																									<g>
																										<path style="fill:#EB996E;" d="M275.582,177.528c-1.494-1.967-4.108-3.044-6.7-2.759
																											c-1.798,0.197-3.614,1.069-4.703,2.536c-1.089,1.466-1.314,3.547-0.317,4.94
																											c1.122,1.571,3.46,1.929,5.436,1.362c1.978-0.567,3.676-1.872,5.29-3.173
																											c0.447-0.36,0.902-0.736,1.181-1.228c0.278-0.492,0.336-1.136-0.01-1.543"/>
																									</g>
																								</g>
																							</g>
																						</g>
																					</g>
																				</g>
																			</g>
																		</g>
																	</g>
																</g>
															</g>
															<g>
																<g>
																	<g>
																		<g>
																			<g>
																				<g>
																					<g>
																						<g>
																							<g>
																								<g>
																									<g>
																										<g>
																											<path style="fill:#263238;" d="M265.123,170.429c0.674-0.04,0.693,4.458,4.55,7.642
																												c3.85,3.195,8.645,2.679,8.681,3.308c0.064,0.282-1.066,0.876-3.089,0.935
																												c-1.986,0.072-4.886-0.559-7.247-2.507c-2.353-1.953-3.368-4.563-3.526-6.408
																												C264.316,171.52,264.815,170.404,265.123,170.429z"/>
																										</g>
																									</g>
																								</g>
																							</g>
																						</g>
																					</g>
																				</g>
																			</g>
																		</g>
																	</g>
																</g>
															</g>
														</g>
													</g>
												</g>
												<g>
													<g>
														<g>
															<g>
																<g>
																	<g>
																		<g>
																			<g>
																				<g>
																					<g>
																						<g>
																							<path style="fill:#263238;" d="M264.053,124.805c-0.406,1.128-4.545,0.603-9.406,1.2
																								c-4.874,0.5-8.791,1.931-9.438,0.922c-0.289-0.483,0.392-1.544,1.975-2.639
																								c1.569-1.093,4.074-2.133,6.992-2.465c2.918-0.326,5.592,0.132,7.365,0.849
																								C263.327,123.387,264.228,124.27,264.053,124.805z"/>
																						</g>
																					</g>
																				</g>
																			</g>
																		</g>
																	</g>
																</g>
															</g>
														</g>
													</g>
												</g>
												<g>
													<g>
														<g>
															<g>
																<g>
																	<g>
																		<g>
																			<g>
																				<g>
																					<g>
																						<g>
																							<path style="fill:#263238;" d="M301.39,128.419c-0.727,0.942-3.584-0.028-7.017-0.066
																								c-3.432-0.159-6.339,0.646-7.011-0.337c-0.294-0.477,0.162-1.421,1.43-2.315
																								c1.25-0.891,3.341-1.621,5.701-1.555c2.359,0.069,4.405,0.918,5.601,1.88
																								C301.31,126.99,301.71,127.958,301.39,128.419z"/>
																						</g>
																					</g>
																				</g>
																			</g>
																		</g>
																	</g>
																</g>
															</g>
														</g>
													</g>
												</g>
											</g>
										</g>
									</g>
								</g>
								<g>
									<g>
										<g>
											<g>
												<g>
													<path style="fill:#263238;" d="M237.577,82.823c-0.023,6.011,2.749,11.975,7.358,15.833
														c4.609,3.858,10.969,5.536,16.882,4.455c4.588-0.839,9.616-3.158,13.588-0.713c4.177,2.571,4.35,8.867,8.054,12.083
														c5.294,4.595,13.712,0.284,20.433,2.277c5.19,1.539,8.432,6.5,11.88,10.673c3.448,4.173,8.613,8.141,13.802,6.601
														c-0.331-4.666-0.671-9.38-2.059-13.847c-1.389-4.466-3.944-8.729-7.863-11.282c-2.148-1.399-4.643-2.252-6.637-3.862
														c-4.308-3.478-5.306-9.531-7.966-14.387c-3.43-6.259-10.054-10.654-17.154-11.38
														c-5.908-0.604-11.995,1.169-17.753-0.283c-4.257-1.073-7.974-3.836-12.287-4.656
														c-8.399-1.596-16.205,4.43-22.294,10.431"/>
												</g>
											</g>
										</g>
									</g>
								</g>
							</g>
						</g>
						<g>
							<path style="fill:#263238;" d="M264.455,94.776c-3.764-1.078-11.468-3.516-13.487-6.781
								c-4.386-7.093-12.118-11.936-20.018-11.504c-7.9,0.432-15.483,6.67-17.1,15.013c-9.558,0.072-18.886,6.076-23.473,15.11
								c-4.587,9.034-4.249,20.734,0.851,29.444c1.335,2.281,3.03,4.561,3.067,7.257c0.046,3.342-2.426,5.99-4.17,8.754
								c-4.758,7.537-4.401,17.887-0.722,26.095c3.679,8.208,6.268,11.092,11.504,12.736c10.244,3.216,0.062,23.824,17.106,23.824
								l3.435-61.061c0.429,0.236,0.946,0.439,1.597,0.587c10.089,2.283,11.421-17.422,9.169-23.058
								c3.649-3.24,7.34-6.527,10.124-10.645c2.785-4.117,5.237-15.343,4.643-20.398C250.618,100.364,266.109,95.249,264.455,94.776
								z"/>
						</g>
						<g>
							<g>
								<g>
									<g>
										<g>
											<g>
												<g>
													<g>
														<g>
															<g>
																<g>
																	<g>
																		<g>
																			<g>
																				<g>
																					<path style="fill:#FFCCB0;" d="M222.186,156.147c-0.319-6.389-7.278-10.653-12.817-7.452
																						c-3.041,1.757-5.367,5.291-5.087,12.074c0.745,18.09,18.752,13.61,18.763,13.09
																						C223.05,173.537,222.56,163.629,222.186,156.147z"/>
																				</g>
																			</g>
																		</g>
																	</g>
																</g>
															</g>
														</g>
													</g>
												</g>
											</g>
										</g>
									</g>
								</g>
							</g>
							<g>
								<g>
									<g>
										<g>
											<g>
												<g>
													<g>
														<g>
															<g>
																<g>
																	<g>
																		<g>
																			<g>
																				<g>
																					<g>
																						<path style="fill:#EB996E;" d="M217.236,167.234c-0.082-0.054-0.307,0.234-0.829,0.5
																							c-0.51,0.259-1.396,0.46-2.353,0.146c-1.94-0.623-3.674-3.591-3.896-6.848
																							c-0.114-1.644,0.166-3.226,0.696-4.548c0.498-1.346,1.315-2.306,2.271-2.516
																							c0.948-0.261,1.653,0.287,1.895,0.787c0.263,0.496,0.163,0.862,0.261,0.889
																							c0.052,0.043,0.376-0.319,0.199-1.06c-0.089-0.356-0.319-0.774-0.758-1.104
																							c-0.448-0.335-1.094-0.489-1.761-0.389c-1.391,0.154-2.594,1.489-3.177,2.94
																							c-0.658,1.461-1.013,3.24-0.885,5.087c0.266,3.641,2.273,6.975,4.919,7.623
																							c1.286,0.279,2.332-0.148,2.862-0.597C217.222,167.672,217.3,167.264,217.236,167.234z"/>
																					</g>
																				</g>
																			</g>
																		</g>
																	</g>
																</g>
															</g>
														</g>
													</g>
												</g>
											</g>
										</g>
									</g>
								</g>
							</g>
						</g>
					</g>
				</g>
				<g>
					<g>
						<path style="fill:#FFFFFF;" d="M317.25,78.586c0,0,0.048,0.37,0.001,1.077c-0.054,0.704-0.276,1.753-0.907,2.952
							c-0.621,1.2-1.72,2.503-3.304,3.596c-1.579,1.081-3.707,1.927-6.142,1.985c-2.427,0.09-5.077-0.509-7.665-1.663
							c-2.598-1.15-5.124-2.86-7.613-4.815c-2.501-1.943-5.01-4.122-7.863-6.007c-2.85-1.875-6.105-3.371-9.619-4.231
							c-3.51-0.865-7.103-1.042-10.465-0.5c-3.363,0.535-6.466,1.817-9.074,3.538c-2.622,1.714-4.707,3.923-6.208,6.258
							c-1.493,2.353-2.323,4.86-2.66,7.202c-0.652,4.728,0.529,8.593,1.752,10.92c1.23,2.366,2.36,3.384,2.29,3.435
							c-0.007,0.006-0.073-0.058-0.197-0.19c-0.142-0.156-0.32-0.352-0.54-0.594c-0.455-0.539-1.086-1.376-1.732-2.557
							c-1.292-2.327-2.554-6.238-1.937-11.065c0.318-2.389,1.148-4.967,2.659-7.382c1.518-2.398,3.638-4.666,6.308-6.428
							c2.656-1.769,5.821-3.088,9.259-3.643c3.433-0.561,7.097-0.382,10.671,0.498c3.577,0.876,6.886,2.401,9.776,4.311
							c2.888,1.918,5.396,4.112,7.878,6.056c2.47,1.957,4.948,3.652,7.494,4.799c2.535,1.15,5.116,1.752,7.477,1.688
							c2.366-0.034,4.432-0.826,5.991-1.859c1.559-1.043,2.655-2.294,3.288-3.452c0.643-1.157,0.893-2.176,0.98-2.867
							C317.226,78.959,317.222,78.586,317.25,78.586z"/>
					</g>
				</g>
				<g>
					<g>
						<path style="fill:#FFFFFF;" d="M192.96,166.236c-0.016,0.009-0.13-0.171-0.335-0.523c-0.194-0.357-0.469-0.894-0.733-1.623
							c-0.526-1.442-1.075-3.703-0.712-6.483c0.331-2.754,1.761-6,4.556-8.457c1.376-1.239,3.112-2.209,5.026-2.82
							c1.913-0.633,3.986-0.887,6.086-1.026c4.199-0.249,8.227-0.146,11.691-1.18c3.451-1.029,6.12-3.078,7.92-5.099
							c1.829-2.03,2.794-4.068,3.355-5.479c0.533-1.434,0.688-2.275,0.744-2.263c0.018,0.004-0.015,0.214-0.094,0.613
							c-0.065,0.403-0.228,0.98-0.46,1.719c-0.509,1.45-1.438,3.549-3.269,5.653c-1.801,2.093-4.51,4.23-8.059,5.316
							c-3.554,1.087-7.637,0.991-11.794,1.24c-2.081,0.137-4.11,0.385-5.965,0.992c-1.857,0.587-3.526,1.507-4.866,2.695
							c-2.718,2.356-4.139,5.475-4.508,8.147c-0.4,2.699,0.078,4.925,0.539,6.366C192.553,165.481,193.012,166.21,192.96,166.236z"
							/>
					</g>
				</g>
			</g>
			<g>
				<g>
					<path style="fill:#EB996E;" d="M251.9,131.657c0.026,0.164-2.729,0.413-5.718,1.9c-3.007,1.453-4.89,3.479-5.004,3.358
						c-0.108-0.061,1.661-2.317,4.774-3.826C249.051,131.553,251.919,131.534,251.9,131.657z"/>
				</g>
			</g>
			<g>
				<g>
					<path style="fill:#EB996E;" d="M305.901,135.276c-0.12,0.111-1.474-1.61-3.847-2.7c-2.356-1.128-4.545-1.068-4.537-1.231
						c-0.042-0.123,2.262-0.429,4.758,0.759C304.783,133.263,306.023,135.229,305.901,135.276z"/>
				</g>
			</g>
			<g>
				<g>
					<path style="fill:#EB996E;" d="M262.279,172.454c-0.058,0.011-0.204-0.376-0.157-1.031c0.042-0.65,0.346-1.547,1-2.314
						c0.657-0.764,1.497-1.203,2.133-1.344c0.64-0.147,1.045-0.062,1.043-0.003c0.004,0.084-0.38,0.134-0.931,0.354
						c-0.552,0.215-1.26,0.65-1.848,1.332c-0.583,0.686-0.904,1.452-1.032,2.031C262.352,172.058,262.362,172.444,262.279,172.454z"
						/>
				</g>
			</g>
			<g>
				<g>
					<path style="fill:#EB996E;" d="M257.21,174.445c-0.054,0.021-0.348-0.569-0.429-1.616c-0.087-1.031,0.118-2.544,0.988-3.919
						c0.872-1.374,2.153-2.204,3.123-2.566c0.981-0.373,1.64-0.359,1.644-0.301c0.016,0.084-0.607,0.201-1.496,0.639
						c-0.883,0.428-2.029,1.245-2.831,2.508c-0.799,1.264-1.05,2.648-1.06,3.63C257.132,173.81,257.292,174.424,257.21,174.445z"/>
				</g>
			</g>
			<g>
				<g>
					<path style="fill:#FFFFFF;" d="M185.289,123.521c-0.018-0.003,0.023-0.266,0.117-0.769c0.128-0.492,0.338-1.229,0.837-2.071
						c0.937-1.688,3.084-3.826,6.451-4.872c1.671-0.522,3.617-0.702,5.656-0.507c2.044,0.186,4.179,0.728,6.336,1.497
						c4.333,1.501,8.708,4.084,13.768,5.395c5.051,1.375,10.249,0.473,14.228-1.6c4.042-2.061,6.768-5.327,8.316-8.35
						c1.569-3.049,2.062-5.842,2.214-7.742c0.08-0.956,0.078-1.703,0.067-2.209c-0.014-0.506-0.013-0.773,0.005-0.775
						c0.018-0.002,0.052,0.263,0.1,0.77c0.045,0.507,0.08,1.26,0.03,2.227c-0.092,1.923-0.533,4.768-2.088,7.895
						c-1.531,3.098-4.295,6.475-8.422,8.609c-4.055,2.148-9.404,3.089-14.577,1.68c-5.163-1.342-9.531-3.946-13.803-5.449
						c-2.128-0.773-4.22-1.319-6.215-1.519c-1.994-0.209-3.881-0.055-5.508,0.429c-3.287,0.972-5.416,3.006-6.383,4.623
						C185.407,122.419,185.374,123.55,185.289,123.521z"/>
				</g>
			</g>
		</g>
		<g>
			<path style="fill:#E8505B;" d="M364.828,466.781c0,0-18.588-58.759-27.068-79.163l4.103-43.132l16.441-68.132l-20.044-22.882
				l-61.531-16.417l-59.574,1.656c0,0-47.669,9.853-58.973,18.418c-8.579,6.5,13.779,103.952,17.939,141.568
				c-1.808,3.527-14.668,38.826-21.784,68.083H364.828z"/>
		</g>
		<g>
			<g>
				<path style="fill:#263238;" d="M173.215,291.295c-0.133,0.055-2.671-5.73-5.669-12.92c-2.999-7.192-5.322-13.066-5.189-13.121
					c0.133-0.055,2.671,5.728,5.67,12.921C171.024,285.365,173.348,291.239,173.215,291.295z"/>
			</g>
		</g>
		<g>
			<path style="fill:#E8505B;" d="M339.69,364.504c-1.015-1.711,26.756,37.733,37.229,42.232c10.021,4.304,37.088,3.706,40.711,0
				c3.623-3.706,10.505-34.773,8.917-44.385c-1.588-9.613-11.494-24.84-11.494-24.84l-76.342-83.771L339.69,364.504"/>
		</g>
		<g style="opacity:0.3;">
			<g>
				<path d="M171.754,378.662c2.868-5.863,8.269-9.984,13.127-14.342c4.858-4.358,9.575-9.662,10.225-16.156
					c0.222-2.219-0.006-4.631,1.211-6.499c1.949-2.993,6.258-2.878,9.639-4.03c3.606-1.229,6.521-4.319,7.536-7.992
					c0.633-2.289,0.593-4.818,1.827-6.847c1.862-3.059,5.962-3.899,9.532-3.618c12.129,0.955,21.461,10.816,32.628,15.645
					c13.975,6.043,31.404,3.379,42.669-6.864c-5.67,1.074-11.34,2.149-17.01,3.224c-5.937,1.125-12.079,2.248-17.967,0.89
					c-6.805-1.569-12.392-6.233-18.384-9.821c-7.318-4.383-15.43-7.237-23.479-10.061c-8.202-2.879-16.405-5.757-24.608-8.636
					c-4.711-1.653-9.646-3.331-14.59-2.637c-5.826,0.818-11.003,5.192-12.783,10.799c4.533,1.5,9.46,0.76,14.19,0.108
					c4.73-0.652,9.736-1.165,14.119,0.727c4.384,1.893,7.722,7.057,5.94,11.487c-2.418,6.007-11.323,6.073-15.508,11.014
					c-2.395,2.828-2.833,6.755-3.636,10.372c-2.674,12.046-10.233,22.335-17.606,32.229"/>
			</g>
		</g>
		<g>
			<g>
				<path style="fill:#E0E0E0;" d="M187.934,301.561c0,0,48.181,16.058,51.011,17.116c3.342,1.25,7.808,3.587,8.441,4.854
					c0.633,1.266,11.607,10.763,24.69,9.918c13.084-0.844,27.223-5.909,27.223-5.909s-1.266-1.688-6.542-2.321
					c-5.276-0.633-27.223,1.266-36.297-0.211c0,0-1.971,0.796-9.259-4.152c0,0-3.933-2.534-8.391-4.087
					c-4.458-1.553-27.246-9.817-27.246-9.817l-26.194-11.269L187.934,301.561z"/>
			</g>
			<g>
				<g>
					<path style="fill:#263238;" d="M187.934,301.561c0,0-0.066-0.118-0.181-0.365c-0.121-0.265-0.289-0.633-0.507-1.111
						c-0.45-1.007-1.104-2.471-1.952-4.368l-0.085-0.19l0.194,0.081c5.604,2.34,14.952,6.417,27.148,11.505
						c6.223,2.23,13.156,4.715,20.669,7.408c3.722,1.394,7.757,2.555,11.542,4.653c0.947,0.513,1.892,1.04,2.814,1.645
						c0.905,0.601,1.822,1.195,2.774,1.741c0.947,0.554,1.926,1.07,2.944,1.502c0.509,0.214,1.027,0.41,1.557,0.55
						c0.502,0.136,1.128,0.253,1.517,0.169l0.094-0.02l0.038,0.006c2.993,0.443,6.119,0.525,9.293,0.56
						c3.177,0.025,6.418-0.043,9.711-0.137c3.294-0.1,6.64-0.202,10.029-0.304c1.696-0.04,3.403-0.076,5.128-0.039
						c1.728,0.022,3.479,0.232,5.175,0.69c1.334,0.389,2.664,0.824,3.672,1.849l0.265,0.269l-0.385,0.132
						c-3.924,1.347-7.854,2.469-11.772,3.407c-3.915,0.942-7.818,1.685-11.69,2.143c-1.935,0.242-3.859,0.401-5.789,0.397
						c-0.962,0.018-1.915-0.117-2.865-0.168c-0.937-0.162-1.882-0.26-2.797-0.479c-3.673-0.819-7.128-2.2-10.226-3.999
						c-1.561-0.88-3.036-1.865-4.415-2.939c-0.692-0.535-1.353-1.099-1.976-1.709c-0.15-0.165-0.304-0.309-0.45-0.491l-0.21-0.296
						l-0.151-0.23c-0.245-0.299-0.569-0.561-0.892-0.813c-1.338-0.976-2.819-1.742-4.281-2.446c-1.469-0.705-2.947-1.3-4.464-1.777
						c-5.998-2.026-11.581-3.911-16.675-5.631c-10.157-3.446-18.366-6.231-24.054-8.161c-2.812-0.965-5-1.715-6.504-2.231
						c-0.727-0.255-1.285-0.45-1.681-0.589C188.118,301.64,187.934,301.561,187.934,301.561s0.208,0.053,0.596,0.175
						c0.404,0.13,0.973,0.312,1.714,0.55c1.517,0.498,3.724,1.222,6.56,2.153c5.699,1.891,13.924,4.62,24.101,7.997
						c5.089,1.696,10.665,3.555,16.657,5.553c1.503,0.467,3.017,1.071,4.498,1.777c1.482,0.709,2.971,1.471,4.364,2.481
						c0.341,0.266,0.683,0.534,0.979,0.894l0.198,0.303l0.164,0.222c0.12,0.15,0.279,0.3,0.417,0.451
						c0.601,0.585,1.253,1.141,1.935,1.665c1.361,1.055,2.821,2.026,4.366,2.893c3.065,1.772,6.478,3.129,10.094,3.93
						c0.901,0.215,1.83,0.309,2.751,0.468c0.933,0.048,1.869,0.18,2.813,0.161c1.884,0.002,3.803-0.158,5.724-0.4
						c3.847-0.459,7.732-1.201,11.63-2.141c3.898-0.935,7.825-2.058,11.717-3.395l-0.12,0.401c-0.777-0.793-2.124-1.313-3.393-1.659
						c-3.314-0.921-6.773-0.672-10.154-0.636c-3.388,0.101-6.733,0.201-10.027,0.299c-3.296,0.092-6.542,0.158-9.729,0.129
						c-3.186-0.04-6.32-0.123-9.368-0.578l0.132-0.015c-0.398,0.107-0.66,0.06-0.968,0.027c-0.296-0.038-0.582-0.102-0.861-0.18
						c-0.561-0.15-1.096-0.354-1.619-0.575c-1.045-0.445-2.038-0.971-2.996-1.534c-0.964-0.555-1.888-1.155-2.794-1.76
						c-0.897-0.591-1.839-1.12-2.775-1.628c-3.731-2.08-7.726-3.24-11.468-4.652c-7.508-2.72-14.436-5.229-20.656-7.481
						c-12.18-5.142-21.504-9.284-27.078-11.695l0.109-0.109c0.809,1.901,1.434,3.368,1.863,4.378
						c0.204,0.489,0.36,0.865,0.473,1.137C187.888,301.422,187.934,301.561,187.934,301.561z"/>
				</g>
			</g>
		</g>
		<g>
			<path style="fill:#E8505B;" d="M289.837,329.057c1.49-0.198-2.99,0.143-4.398-0.385c-0.923-0.346-1.519-1.326-2.468-1.591
				c-1.024-0.286-2.23,0.332-3.135-0.226c-0.742-0.457-0.879-1.459-0.94-2.328c-0.44-6.271-0.786-13.284,0.214-19.49
				c0,0-0.596-2.497-1.143-2.509c-0.443-0.009-1.807,0.854-1.873,3.867c0.429,5.294,0.599,9.883,0.121,15.174
				c-0.081,0.894-0.185,1.802-0.54,2.627c-0.354,0.825-0.997,1.568-1.853,1.84c-1.169,0.371-2.476-0.19-3.652,0.158
				c-0.849,0.251-1.497,0.937-2.3,1.312c-1.231,0.575-2.663,0.362-4.019,0.284c-1.357-0.079-2.891,0.068-3.767,1.108
				C260.085,328.896,270.686,331.606,289.837,329.057z"/>
		</g>
		<g style="opacity:0.3;">
			<g>
				<path d="M278.482,308.929c2.072,2.051,5.49,0.431,8.4,0.261c5.396-0.316,10.076,4.855,15.443,4.221
					c3.539-0.419,6.44-3.313,9.991-3.625c3.68-0.323,6.928,2.159,9.975,4.247c3.047,2.089,6.964,3.947,10.295,2.352
					c5.195,4.093,9.373,8.762,9.894,15.355c0.259,3.273,0.238,5.806,1.044,8.988c0.806,3.183,2.88,7.838,6.163,7.827
					c0.103-11.916-0.657-23.501-6.37-33.959c-2.349-4.3-5.68-8.157-9.953-10.554c-5.885-3.302-12.988-3.578-19.709-2.983
					c-6.721,0.595-13.409,1.978-20.15,1.689c-3.151-0.135-6.361-0.631-9.42,0.135c-3.059,0.765-5.995,3.262-5.985,6.415"/>
			</g>
		</g>
		<g>
			<path style="fill:#FFCCB0;" d="M387.981,333.319c-6.38-6.8-20.438-22.379-20.438-22.379s4.9-29.284,5.95-34.535
				c1.05-5.25-4.667-6.417-4.667-6.417l-9.217-7.934l-1.167-4.9l-8.837-7.766c0,0-7.292,0.785-8.664,0.415
				c-3.18-0.857-5.017,0.817-5.017,0.817h-5.483l-7.817,3.383l-8.789,4.218c0,0-7.398,2.418-8.72,6.649
				c-0.311,0.997-0.187,1.887,0.15,2.65c0.888,2.011,3.219,2.96,5.319,2.311l21.136-6.527l20.681,27.776l-30.299,10.945
				c0,0-0.528,0.864-0.061,3.548c0.467,2.684,3.617,3.733,5.483,4.317c1.867,0.583,4.2-1.557,4.2-1.557s0,1.09,2.1,4.139
				c2.1,3.049,8.43,6.044,8.43,6.044l7.431,30.041c0,0,0.247,0.276,0.715,0.73c10.227,9.915,27.001,8.011,34.833-3.887
				C388.232,340.846,390.396,335.892,387.981,333.319z"/>
		</g>
		<g>
			<path style="fill:#E8505B;" d="M157.838,257.46c0,0-57.322,90.972-61.384,98.019c-4.062,7.047-12.657,45.161-2.586,56.335
				c8.143,9.036,17.924,22.816,40.556,15.13c22.632-7.686,42.033-58.366,42.033-58.366l-6.083-13.362L157.838,257.46z"/>
		</g>
		<g>
			<polyline style="fill:#E8505B;" points="214.016,241.258 214.016,222.514 286.452,223.653 290.137,243.011 215.035,243.011 			
				"/>
		</g>
		<g>
			<g>
				<path style="fill:#FFCCB0;" d="M187.319,293.366l-9.666-0.905l-21.003,6.083c-2.424,0.647-4.534,1.897-5.561,4.186l0,0
					c-1.674,3.732,0.101,9.437,3.769,11.754l0,0l-0.483,10.677l2.771,5.265l1.108,6.651l4.434,1.663l7.067,7.205l12.886-2.494
					l22.079-13.665c0,0,5.459-3.645,4.881-8.014c-0.272-2.058-3.959-1.119-3.959-1.119v-3.806c0,0,3.365-2.154,3.106-4.65
					c-0.296-2.865-2.05-3.861-4.544-4.415c-2.494-0.554-21.563-0.08-21.563-0.08l-12.193,1.386l9.042-4.363
					c0,0,6.845-1.481,9.3-1.817c2.707-0.37,5.381-0.913,4.936-4.628c-0.124-1.037-0.032-1.168-0.583-2.045
					C192,294.417,189.467,293.366,187.319,293.366z"/>
			</g>
			<g>
				<path style="fill:#FFCCB0;" d="M172.811,284.017l4.288,1.239c0,0,4.988,2.771,0.554,7.205l-11.941,3.793l-8.265,2.534
					l0.474-4.371c0-3.635,1.857-7.018,4.924-8.968v0C165.808,283.564,169.438,283.043,172.811,284.017z"/>
			</g>
			<g>
				<g>
					<path style="fill:#EB996E;" d="M205.642,316.848c-1.17,0.184-2.997,0.47-6.299,0.987c-3.898,0.62-9.287,1.459-15.207,2.541
						c-5.944,0.979-11.101,2.755-14.797,4.129c-1.784,0.673-3.258,1.229-4.372,1.65c-1.034,0.388-1.611,0.59-1.625,0.556
						c-0.014-0.033,0.538-0.298,1.548-0.744c1.011-0.445,2.48-1.076,4.317-1.806c3.66-1.463,8.862-3.314,14.834-4.297
						c5.933-1.084,11.334-1.866,15.249-2.393C203.199,316.953,205.655,316.704,205.642,316.848z"/>
				</g>
			</g>
			<g>
				<g>
					<path style="fill:#EB996E;" d="M205.326,321.08c0.01,0.015-0.102,0.106-0.326,0.264c-0.225,0.157-0.553,0.394-1,0.66
						c-0.881,0.553-2.203,1.282-3.88,2.082c-3.327,1.656-8.187,3.378-12.825,6.623c-2.383,1.533-4.74,2.901-7.036,3.831
						c-2.295,0.935-4.488,1.427-6.341,1.648c-1.856,0.222-3.373,0.192-4.41,0.119c-0.519-0.04-0.921-0.084-1.192-0.129
						c-0.271-0.042-0.412-0.073-0.41-0.091c0.004-0.042,0.577,0.001,1.61,0.017c1.032,0.011,2.53-0.016,4.353-0.281
						c1.82-0.264,3.965-0.785,6.206-1.726c2.245-0.937,4.565-2.298,6.939-3.826c1.185-0.757,2.34-1.541,3.525-2.181
						c1.178-0.646,2.343-1.207,3.46-1.72c2.224-0.976,4.24-1.86,5.966-2.618c1.69-0.754,3.027-1.427,3.934-1.923
						C204.81,321.339,205.302,321.044,205.326,321.08z"/>
				</g>
			</g>
			<g>
				<g>
					<path style="fill:#EB996E;" d="M169.121,309.081c0.039,0.15-3.167,1.059-6.982,2.555c-3.822,1.483-6.795,2.986-6.868,2.849
						c-0.032-0.06,0.672-0.515,1.867-1.148c1.194-0.634,2.887-1.434,4.811-2.186c1.924-0.75,3.711-1.307,5.019-1.65
						C168.278,309.157,169.104,309.014,169.121,309.081z"/>
				</g>
			</g>
			<g>
				<g>
					<path style="fill:#EB996E;" d="M177.653,292.461c0.019,0.069-0.971,0.401-2.588,0.88c-0.866,0.249-1.819,0.522-2.846,0.817
						c-1.073,0.291-2.239,0.676-3.562,0.807c-0.33,0.031-0.661,0.049-1.003,0.013c-0.364-0.042-0.653-0.16-0.949-0.265
						c-0.586-0.225-1.12-0.514-1.591-0.837c-0.946-0.643-1.669-1.381-2.204-2.046c-0.538-0.666-0.891-1.263-1.105-1.688
						c-0.216-0.425-0.293-0.678-0.266-0.692c0.08-0.044,0.541,0.903,1.651,2.14c0.553,0.615,1.277,1.296,2.188,1.885
						c0.454,0.296,0.96,0.557,1.507,0.76c0.272,0.095,0.566,0.203,0.826,0.228c0.28,0.028,0.587,0.014,0.896-0.016
						c1.241-0.12,2.422-0.489,3.5-0.755c1.035-0.255,1.996-0.492,2.868-0.707C176.612,292.597,177.634,292.391,177.653,292.461z"/>
				</g>
			</g>
			<g>
				<path style="fill:#FFCCB0;" d="M158.051,331.385l-0.115,9.835l-23.139,17.699l30.423,29.992c0,0,16.661-28.43,20.76-34.17
					c4.1-5.74,5.074-8.667,5.381-12.049c0.307-3.382,0-5.74,0-5.74L158.051,331.385z"/>
			</g>
			<g>
				<g>
					<path style="fill:#EB996E;" d="M179.164,344.796c0.006,0.017-0.14,0.088-0.423,0.208c-0.283,0.119-0.704,0.288-1.253,0.488
						c-1.098,0.384-2.707,0.977-4.817,1.193c-1.05,0.091-2.235,0.085-3.452-0.246c-1.22-0.31-2.441-0.954-3.514-1.868
						c-2.192-1.818-3.635-4.73-4.344-7.848c-0.379-1.566-0.534-3.124-0.886-4.555c-0.337-1.439-0.95-2.724-1.911-3.672
						c-0.936-0.968-2.017-1.755-2.81-2.744c-0.803-0.988-1.22-2.139-1.368-3.192c-0.277-2.127,0.153-3.818,0.398-4.949
						c0.141-0.568,0.264-1.004,0.356-1.298c0.092-0.294,0.149-0.445,0.166-0.441c0.039,0.01-0.103,0.64-0.324,1.782
						c-0.185,1.134-0.546,2.823-0.233,4.848c0.165,1.004,0.574,2.064,1.338,2.977c0.759,0.922,1.829,1.682,2.821,2.684
						c1.027,0.988,1.716,2.406,2.062,3.883c0.37,1.483,0.526,3.03,0.897,4.558c0.698,3.057,2.076,5.849,4.15,7.603
						c1.016,0.883,2.164,1.505,3.315,1.816c1.15,0.333,2.287,0.362,3.309,0.296c2.054-0.162,3.671-0.694,4.783-1.018
						C178.536,344.957,179.151,344.76,179.164,344.796z"/>
				</g>
			</g>
			<g>
				<g>
					<path style="fill:#EB996E;" d="M174.719,359.252c0.007,0.027-0.349,0.156-1.027,0.204c-0.673,0.042-1.677-0.024-2.825-0.438
						c-1.152-0.397-2.413-1.165-3.602-2.232c-1.191-1.069-2.337-2.387-3.461-3.828c-2.253-2.887-3.851-5.815-4.822-7.999
						c-0.488-1.093-0.824-2.001-1.043-2.632c-0.209-0.635-0.304-0.993-0.271-1.005c0.078-0.029,0.601,1.35,1.647,3.48
						c1.048,2.125,2.675,4.985,4.9,7.836c1.11,1.423,2.235,2.737,3.372,3.792c1.138,1.056,2.322,1.819,3.41,2.243
						C173.197,359.552,174.727,359.149,174.719,359.252z"/>
				</g>
			</g>
		</g>
		<g style="opacity:0.6;">
			<g>
				<path style="fill:#FFFFFF;" d="M289.837,329.057c1.49-0.198-2.99,0.143-4.398-0.385c-0.923-0.346-1.519-1.326-2.468-1.591
					c-1.024-0.286-2.23,0.332-3.135-0.226c-0.742-0.457-0.879-1.459-0.94-2.328c-0.44-6.271-0.786-13.284,0.214-19.49
					c0,0-0.596-2.497-1.143-2.509c-0.443-0.009-1.807,0.854-1.873,3.867c0.429,5.294,0.599,9.883,0.121,15.174
					c-0.081,0.894-0.185,1.802-0.54,2.627c-0.354,0.825-0.997,1.568-1.853,1.84c-1.169,0.371-2.476-0.19-3.652,0.158
					c-0.849,0.251-1.497,0.937-2.3,1.312c-1.231,0.575-2.663,0.362-4.019,0.284c-1.357-0.079-2.891,0.068-3.767,1.108
					C260.085,328.896,270.686,331.606,289.837,329.057z"/>
			</g>
		</g>
		<g>
			<g>
				<path style="fill:#263238;" d="M292.313,393.309c0.004,0.008-0.068,0.05-0.211,0.123c-0.172,0.084-0.383,0.187-0.642,0.314
					c-0.609,0.284-1.44,0.671-2.491,1.161c-0.547,0.251-1.15,0.527-1.806,0.828c-0.667,0.287-1.406,0.565-2.193,0.882
					c-1.582,0.612-3.358,1.379-5.396,2.021c-1.013,0.341-2.073,0.699-3.177,1.07c-1.107,0.366-2.284,0.661-3.49,1.014
					c-2.404,0.735-5.03,1.296-7.782,1.933c-5.534,1.129-11.691,2.039-18.201,2.449c-6.516,0.355-12.738,0.172-18.367-0.301
					c-2.808-0.31-5.482-0.56-7.956-1.008c-1.238-0.209-2.443-0.364-3.585-0.598c-1.14-0.24-2.234-0.471-3.281-0.691
					c-2.099-0.399-3.953-0.954-5.595-1.376c-0.818-0.222-1.585-0.411-2.281-0.619c-0.688-0.222-1.318-0.426-1.891-0.611
					c-1.101-0.364-1.972-0.651-2.609-0.862c-0.272-0.095-0.493-0.173-0.674-0.236c-0.151-0.056-0.227-0.089-0.224-0.097
					c0.003-0.009,0.084,0.008,0.241,0.047c0.185,0.05,0.412,0.112,0.69,0.187c0.644,0.188,1.523,0.444,2.635,0.768
					c0.575,0.171,1.209,0.361,1.9,0.566c0.699,0.193,1.467,0.368,2.287,0.576c1.645,0.394,3.5,0.922,5.598,1.297
					c1.045,0.209,2.138,0.428,3.277,0.656c1.14,0.223,2.342,0.368,3.577,0.567c2.468,0.429,5.134,0.661,7.932,0.957
					c5.61,0.445,11.806,0.613,18.294,0.26c6.483-0.409,12.616-1.301,18.134-2.399c2.744-0.622,5.364-1.164,7.765-1.879
					c1.204-0.342,2.38-0.627,3.486-0.982c1.104-0.36,2.164-0.705,3.177-1.035c2.039-0.618,3.819-1.359,5.407-1.943
					c0.79-0.303,1.533-0.567,2.204-0.84c0.662-0.285,1.27-0.547,1.821-0.785c1.067-0.452,1.91-0.809,2.528-1.071
					c0.267-0.107,0.485-0.195,0.663-0.267C292.23,393.326,292.309,393.301,292.313,393.309z"/>
			</g>
		</g>
		<g>
			<g>
				<path style="fill:#263238;" d="M316.823,406.415c-0.001,0.009-0.082,0.011-0.24,0.007c-0.188-0.009-0.418-0.019-0.699-0.032
					c-0.656-0.043-1.551-0.1-2.681-0.173c-1.163-0.087-2.586-0.186-4.241-0.264c-1.654-0.084-3.536-0.214-5.62-0.271
					c-4.165-0.179-9.13-0.264-14.641-0.229c-5.511,0.067-11.568,0.272-17.913,0.707c-6.346,0.458-12.373,1.104-17.84,1.81
					c-5.462,0.738-10.367,1.517-14.466,2.278c-2.056,0.349-3.901,0.741-5.527,1.056c-1.628,0.309-3.023,0.607-4.162,0.855
					c-1.108,0.23-1.986,0.413-2.63,0.547c-0.276,0.052-0.502,0.095-0.687,0.13c-0.155,0.026-0.236,0.035-0.238,0.027
					c-0.002-0.009,0.074-0.035,0.226-0.079c0.182-0.048,0.404-0.108,0.675-0.18c0.639-0.157,1.51-0.372,2.61-0.643
					c1.133-0.279,2.523-0.606,4.147-0.943c1.622-0.342,3.464-0.76,5.518-1.133c4.096-0.809,9.001-1.627,14.47-2.392
					c5.472-0.733,11.51-1.395,17.867-1.854c6.357-0.435,12.426-0.626,17.946-0.667c5.521-0.008,10.492,0.115,14.661,0.341
					c2.086,0.081,3.968,0.237,5.623,0.348c1.655,0.106,3.077,0.235,4.239,0.353c1.127,0.114,2.02,0.204,2.674,0.271
					c0.279,0.034,0.507,0.061,0.694,0.084C316.744,406.39,316.824,406.406,316.823,406.415z"/>
			</g>
		</g>
		<g>
			<g>
				<path style="fill:#263238;" d="M128.321,356.233c-0.022,0.081-1.299-0.24-3.385-0.618c-2.084-0.38-4.99-0.769-8.218-0.856
					c-3.23-0.081-6.152,0.157-8.253,0.429c-2.102,0.27-3.394,0.524-3.412,0.442c-0.008-0.035,0.307-0.135,0.884-0.287
					c0.576-0.157,1.422-0.337,2.474-0.519c2.103-0.367,5.055-0.667,8.321-0.585c3.265,0.088,6.197,0.54,8.278,1.016
					c1.041,0.237,1.876,0.461,2.444,0.647C128.021,356.082,128.33,356.199,128.321,356.233z"/>
			</g>
		</g>
		<g>
			<g>
				<g>
					<path style="fill:#E0E0E0;" d="M285.558,305.541l4.262-1.493c0,0,7.036,5.277,16.779,2.842
						c9.742-2.436,46.683-15.426,46.683-15.426s-0.271-4.465-2.165-11.366s-7.172-20.567-7.172-20.567l-46.006,14.208
						c0,0-8.389,3.518-12.449,11.501l-1.353,2.03l-2.3,0.406"/>
				</g>
				<g>
					<g>
						<path style="fill:#263238;" d="M281.836,287.675c0,0,0.191-0.054,0.574-0.132c0.407-0.079,0.976-0.189,1.715-0.332
							l-0.039,0.025c0.364-0.558,0.811-1.244,1.332-2.043l-0.005,0.008c0.832-1.656,2.149-3.725,4.207-5.793
							c2.04-2.074,4.764-4.192,8.25-5.829l0.005-0.003l0.011-0.003c11.724-3.643,27.785-8.633,45.981-14.287l0.228-0.071
							l0.085,0.223c1.984,5.19,3.986,10.587,5.838,16.189c1.744,5.277,3.035,10.589,3.515,15.821l0.018,0.191l-0.188,0.066
							c-14.993,5.227-28.569,9.858-39.591,13.292c-2.76,0.845-5.35,1.645-7.818,2.198c-2.479,0.532-4.846,0.578-6.947,0.326
							c-4.222-0.522-7.328-2.076-9.238-3.41l0.074,0.011c-1.435,0.485-2.5,0.844-3.23,1.091c-0.338,0.109-0.598,0.193-0.793,0.257
							c-0.176,0.054-0.263,0.078-0.265,0.071c-0.002-0.007,0.081-0.043,0.252-0.11c0.192-0.072,0.447-0.169,0.779-0.294
							c0.724-0.263,1.78-0.647,3.204-1.164l0.037-0.013l0.037,0.025c1.904,1.276,5.009,2.78,9.176,3.254
							c2.075,0.229,4.405,0.165,6.842-0.376c2.434-0.563,5.024-1.379,7.774-2.238c10.992-3.489,24.555-8.16,39.537-13.403
							l-0.17,0.257c-0.479-5.145-1.765-10.447-3.5-15.69c-1.847-5.585-3.845-10.983-5.82-16.167l0.313,0.152
							c-18.215,5.591-34.294,10.526-46.03,14.129l0.016-0.006c-3.428,1.581-6.163,3.667-8.197,5.696
							c-2.058,2.027-3.388,4.057-4.243,5.685l-0.003,0.005l-0.002,0.003c-0.537,0.788-0.999,1.465-1.374,2.016l-0.015,0.022
							l-0.024,0.004c-0.744,0.118-1.316,0.21-1.726,0.275C282.034,287.66,281.836,287.675,281.836,287.675z"/>
					</g>
				</g>
			</g>
			<g>
				<g>
					<path style="fill:#E0E0E0;" d="M279.764,287.629l-2.131,0.71c0,0-1.902-1.175-2.082,0.804l-0.965,0.419
						c0,0-1.973-1.679-2.213,1.02l-1.079,0.6c0,0,3.299,14.634,6.357,17.393l0.96-0.36c0,0,1.355,1.261,2.015,0.541
						s0.403-1.722,0.403-1.722l0.88-0.439c0,0,0.591,1.334,1.537,0.936c0.946-0.398,0.734-1.835,0.734-1.835l0,0l1.747-3.539
						L279.764,287.629z"/>
				</g>
				<g>
					<g>
						<path style="fill:#263238;" d="M279.764,287.629c0.01-0.023,0.175,0.322,0.478,0.987c0.327,0.732,0.763,1.707,1.303,2.916
							c1.141,2.617,2.719,6.237,4.593,10.535l0.042,0.095l-0.047,0.096c-0.553,1.131-1.133,2.318-1.733,3.545l0.023-0.144
							c0.042,0.369,0.032,0.719-0.064,1.09c-0.09,0.358-0.316,0.759-0.704,0.955c-0.358,0.226-0.914,0.183-1.244-0.08
							c-0.339-0.252-0.556-0.564-0.735-0.926l0.347,0.125c-0.275,0.138-0.576,0.288-0.879,0.44l0.134-0.293
							c0.139,0.728,0.049,1.563-0.666,2.127c-0.449,0.256-0.914,0.101-1.244-0.054c-0.35-0.17-0.645-0.382-0.935-0.638l0.268,0.053
							c-0.217,0.082-0.452,0.169-0.687,0.258c-0.092,0.034-0.183,0.069-0.272,0.102l-0.162,0.061l-0.104-0.111
							c-1.307-1.391-1.942-3.057-2.602-4.623c-0.629-1.584-1.147-3.148-1.604-4.658c-0.92-3.02-1.619-5.818-2.171-8.261
							l-0.033-0.147l0.131-0.072c0.382-0.208,0.737-0.402,1.084-0.591l-0.097,0.149c0.04-0.322,0.089-0.637,0.215-0.937
							c0.108-0.297,0.35-0.596,0.683-0.703c0.333-0.105,0.652-0.02,0.911,0.087c0.264,0.113,0.486,0.258,0.696,0.43l-0.165-0.025
							c0.36-0.151,0.671-0.282,0.97-0.408l-0.087,0.12c0.049-0.3,0.097-0.599,0.278-0.846c0.171-0.251,0.464-0.392,0.726-0.405
							c0.53-0.022,0.935,0.181,1.275,0.376l-0.083-0.01c0.665-0.198,1.203-0.358,1.627-0.484
							C279.591,287.659,279.771,287.613,279.764,287.629c-0.007,0.016-0.202,0.094-0.56,0.232c-0.402,0.149-0.91,0.338-1.54,0.572
							l-0.038,0.014l-0.045-0.024c-0.312-0.166-0.722-0.337-1.147-0.3c-0.447,0.017-0.707,0.482-0.739,1.033l-0.005,0.083
							l-0.082,0.037c-0.296,0.133-0.604,0.271-0.96,0.431l-0.084,0.038l-0.081-0.062c-0.352-0.27-0.869-0.56-1.293-0.426
							c-0.417,0.144-0.585,0.763-0.628,1.342l-0.007,0.099l-0.09,0.051c-0.344,0.194-0.696,0.394-1.075,0.608l0.098-0.219
							c0.585,2.42,1.313,5.208,2.247,8.205c0.465,1.499,0.988,3.051,1.614,4.612c0.64,1.533,1.322,3.203,2.476,4.426l-0.266-0.05
							c0.089-0.033,0.181-0.068,0.272-0.102c0.235-0.088,0.47-0.176,0.687-0.258l0.148-0.056l0.121,0.109
							c0.457,0.411,1.18,0.85,1.553,0.632c0.406-0.297,0.566-1.024,0.439-1.558l-0.048-0.203l0.182-0.091
							c0.303-0.151,0.605-0.3,0.88-0.437l0.235-0.117l0.112,0.242c0.265,0.573,0.805,1.076,1.274,0.771
							c0.475-0.239,0.585-0.964,0.521-1.532l-0.009-0.081l0.032-0.064c0.61-1.223,1.199-2.405,1.761-3.532l-0.005,0.191
							c-1.766-4.281-3.253-7.887-4.328-10.494c-0.502-1.247-0.906-2.253-1.21-3.009C279.899,288.04,279.754,287.652,279.764,287.629
							z"/>
					</g>
				</g>
			</g>
			<g>
				<path style="fill:#EBEBEB;" d="M278.275,287.629c0,0,2.244,12.725,6.968,19.691l3.292-1.623c0,0-5.354-10.013-6.358-19.371
					C282.177,286.326,279.766,286.561,278.275,287.629z"/>
			</g>
		</g>
		<g>
			<g>
				<path style="fill:#263238;" d="M297.279,327.36c0.006,0.017-0.157,0.088-0.474,0.207c-0.315,0.124-0.788,0.283-1.404,0.47
					c-1.23,0.373-3.045,0.814-5.321,1.155c-2.275,0.346-5.005,0.583-8.034,0.746c-3.028,0.155-6.356,0.354-9.864,0.384
					c-3.507,0.032-6.861-0.157-9.872-0.642c-3.01-0.484-5.665-1.255-7.798-2.132c-2.135-0.876-3.755-1.823-4.814-2.553
					c-0.528-0.37-0.93-0.665-1.187-0.886c-0.262-0.214-0.394-0.334-0.383-0.348c0.029-0.038,0.595,0.391,1.681,1.064
					c1.085,0.672,2.713,1.559,4.839,2.381c2.125,0.823,4.755,1.547,7.736,2c2.981,0.454,6.305,0.627,9.794,0.595
					c3.488-0.03,6.816-0.214,9.843-0.343c3.025-0.137,5.742-0.335,8.008-0.631c2.267-0.292,4.078-0.675,5.318-0.985
					C296.589,327.535,297.264,327.316,297.279,327.36z"/>
			</g>
		</g>
		<g>
			<g>
				<path style="fill:#263238;" d="M287.738,238.69c0.007,0.016-0.227,0.13-0.68,0.33c-0.502,0.215-1.165,0.5-1.993,0.855
					c-0.439,0.184-0.922,0.387-1.446,0.607c-0.546,0.187-1.134,0.389-1.764,0.605c-1.268,0.428-2.703,0.951-4.343,1.349
					c-0.816,0.218-1.669,0.447-2.557,0.684c-0.902,0.188-1.839,0.382-2.809,0.584c-1.934,0.449-4.043,0.681-6.246,1.022
					c-4.43,0.501-9.333,0.764-14.477,0.641c-5.146-0.146-10.025-0.676-14.433-1.317c-2.197-0.369-4.29-0.69-6.225-1.119
					c-1.946-0.374-3.74-0.802-5.374-1.21c-1.642-0.376-3.102-0.812-4.39-1.171c-1.291-0.35-2.391-0.691-3.284-0.991
					c-0.855-0.283-1.54-0.51-2.058-0.681c-0.469-0.161-0.712-0.254-0.706-0.271c0.005-0.017,0.259,0.042,0.738,0.171
					c0.525,0.148,1.218,0.343,2.084,0.587c0.9,0.269,2.007,0.582,3.302,0.904c1.293,0.331,2.756,0.742,4.399,1.094
					c1.635,0.384,3.429,0.79,5.372,1.145c1.932,0.409,4.021,0.713,6.212,1.068c4.396,0.613,9.255,1.126,14.376,1.271
					c5.12,0.122,9.997-0.126,14.407-0.597c2.193-0.326,4.293-0.541,6.22-0.969c0.967-0.19,1.901-0.374,2.8-0.551
					c0.886-0.225,1.738-0.441,2.552-0.648c1.638-0.373,3.074-0.869,4.345-1.269c0.633-0.201,1.224-0.389,1.772-0.563
					c0.528-0.204,1.015-0.391,1.458-0.563c0.842-0.317,1.516-0.571,2.026-0.763C287.483,238.754,287.731,238.673,287.738,238.69z"/>
			</g>
		</g>
		<g>
			<g>
				<path style="fill:#263238;" d="M343.981,328.655c0.018,0.002,0.012,0.21-0.016,0.604c-0.038,0.45-0.087,1.02-0.146,1.722
					c-0.156,1.562-0.37,3.705-0.632,6.323c-0.581,5.396-1.371,12.734-2.244,20.842c-0.893,8.109-1.7,15.445-2.294,20.839
					c-0.28,2.615-0.51,4.756-0.677,6.316c-0.068,0.7-0.124,1.268-0.168,1.717c-0.04,0.398-0.031,0.579-0.044,0.599
					c-0.175,0,0.029-3.328,0.522-8.668c0.489-5.344,1.25-12.719,2.143-20.859c0.893-8.138,1.748-15.5,2.396-20.827
					c0.33-2.611,0.599-4.748,0.796-6.305c0.099-0.698,0.18-1.264,0.244-1.711C343.923,328.857,343.964,328.653,343.981,328.655z"/>
			</g>
		</g>
		<g>
			<g>
				<path style="fill:#263238;" d="M376.735,321.08c-0.001-0.018,0.228-0.042,0.667-0.071c0.439-0.02,1.088-0.032,1.922,0.035
					c1.656,0.13,4.103,0.569,6.768,1.979c1.351,0.677,2.644,1.709,4.031,2.766c0.704,0.521,1.405,1.095,2.128,1.686
					c0.725,0.587,1.473,1.191,2.208,1.846c2.988,2.566,6.125,5.566,9.183,8.932c3.061,3.365,5.753,6.771,8.035,9.983
					c2.272,3.221,4.122,6.252,5.6,8.837c1.454,2.6,2.531,4.757,3.231,6.266c0.322,0.72,0.582,1.3,0.783,1.749
					c0.173,0.402,0.257,0.617,0.24,0.624c-0.016,0.007-0.131-0.193-0.336-0.58c-0.223-0.438-0.512-1.003-0.87-1.705
					c-0.755-1.48-1.879-3.605-3.368-6.172c-1.513-2.553-3.388-5.551-5.671-8.742c-2.293-3.182-4.983-6.562-8.03-9.911
					c-3.043-3.35-6.154-6.345-9.112-8.92c-0.728-0.657-1.467-1.264-2.185-1.855c-0.714-0.594-1.407-1.172-2.102-1.699
					c-1.379-1.074-2.633-2.102-3.94-2.782c-2.588-1.423-4.982-1.912-6.613-2.102C377.66,321.058,376.736,321.136,376.735,321.08z"/>
			</g>
		</g>
		<g>
			<g>
				<path style="fill:#EB996E;" d="M337.177,299.163c0.032-0.004,0.102,0.236,0.16,0.684c0.059,0.447,0.079,1.106-0.018,1.912
					c-0.178,1.596-0.979,3.846-2.811,5.586c-1.838,1.734-4.129,2.409-5.733,2.499c-0.81,0.052-1.467-0.004-1.91-0.087
					c-0.444-0.082-0.68-0.166-0.674-0.197c0.013-0.094,0.993,0.112,2.548-0.082c1.536-0.179,3.681-0.879,5.411-2.511
					c1.724-1.637,2.542-3.74,2.805-5.264C337.234,300.16,337.083,299.171,337.177,299.163z"/>
			</g>
		</g>
		<g>
			<g>
				<path style="fill:#EB996E;" d="M341.863,296.634c0.033-0.038,0.802,0.563,1.734,1.821c0.933,1.248,1.951,3.211,2.44,5.561
					c0.479,2.353,0.319,4.558-0.045,6.073c-0.36,1.524-0.828,2.379-0.874,2.357c-0.087-0.033,0.254-0.928,0.513-2.429
					c0.264-1.497,0.359-3.622-0.104-5.896c-0.473-2.271-1.4-4.186-2.233-5.457C342.463,297.386,341.796,296.698,341.863,296.634z"/>
			</g>
		</g>
		<g>
			<g>
				<path style="fill:#EB996E;" d="M345.882,258.626c0.007,0.017-0.141,0.093-0.428,0.222c-0.345,0.146-0.763,0.323-1.266,0.536
					c-1.107,0.445-2.714,1.092-4.774,1.687c-2.054,0.581-4.606,1.118-7.47,0.927c-1.424-0.096-2.923-0.379-4.376-0.969
					c-0.71-0.291-1.524-0.68-1.958-1.506c-0.199-0.403-0.282-0.879-0.156-1.348c0.116-0.482,0.541-0.855,0.944-1.02
					c6.209-2.126,11.779-3.927,15.846-5.25c1.973-0.625,3.599-1.14,4.815-1.525c0.523-0.155,0.958-0.283,1.318-0.39
					c0.303-0.084,0.465-0.119,0.471-0.102c0.006,0.017-0.145,0.086-0.437,0.202c-0.351,0.132-0.775,0.291-1.286,0.482
					c-1.203,0.425-2.811,0.993-4.763,1.682c-4.102,1.4-9.633,3.288-15.746,5.374c-0.341,0.15-0.577,0.372-0.66,0.686
					c-0.087,0.311-0.032,0.674,0.119,0.977c0.311,0.614,1.003,0.989,1.686,1.264c1.391,0.572,2.836,0.857,4.219,0.963
					c2.781,0.212,5.293-0.273,7.338-0.803c2.051-0.543,3.673-1.135,4.8-1.521c0.516-0.177,0.945-0.324,1.3-0.445
					C345.716,258.652,345.876,258.609,345.882,258.626z"/>
			</g>
		</g>
		<g>
			<g>
				<path style="fill:#EB996E;" d="M325.617,264.957c0.006,0.04-0.517,0.152-1.433,0.476c-0.924,0.293-2.228,0.862-3.991,1.132
					c-0.868,0.116-1.935,0.084-2.884-0.435c-0.943-0.472-1.845-1.191-2.581-2.121c-0.817-0.918-1.035-2.462-0.347-3.65
					c0.33-0.595,0.861-1.09,1.505-1.375c0.599-0.251,1.206-0.506,1.82-0.764c4.906-2.042,9.359-3.864,12.592-5.158
					c1.553-0.61,2.843-1.117,3.839-1.508c0.911-0.345,1.421-0.521,1.435-0.487c0.014,0.033-0.47,0.272-1.357,0.675
					c-0.978,0.43-2.248,0.989-3.775,1.661c-3.197,1.382-7.627,3.257-12.533,5.299c-0.611,0.255-1.214,0.508-1.809,0.756
					c-0.544,0.238-0.989,0.652-1.271,1.152c-0.579,1.011-0.428,2.282,0.281,3.105c0.683,0.883,1.521,1.573,2.4,2.033
					c0.864,0.49,1.798,0.536,2.644,0.453c1.695-0.211,3.03-0.724,3.974-0.96C325.066,264.973,325.614,264.926,325.617,264.957z"/>
			</g>
		</g>
		<g>
			<g>
				<path style="fill:#EB996E;" d="M369.236,281.528c0.021,0.028-0.403,0.396-1.199,1.025c-0.801,0.621-1.964,1.529-3.548,2.443
					c-1.574,0.891-3.643,1.83-6.113,1.9c-1.22,0.029-2.531-0.124-3.778-0.647c-0.622-0.258-1.224-0.603-1.77-1.041
					c-0.54-0.424-1.079-0.99-1.279-1.761c-0.097-0.383-0.053-0.847,0.187-1.193c0.237-0.346,0.541-0.542,0.793-0.752
					c0.527-0.419,1.046-0.832,1.556-1.237c1.02-0.808,2.005-1.587,2.947-2.333c1.866-1.463,3.558-2.79,5.008-3.927
					c1.381-1.06,2.527-1.939,3.404-2.612c0.811-0.608,1.27-0.93,1.293-0.902c0.022,0.028-0.394,0.404-1.166,1.061
					c-0.851,0.707-1.962,1.629-3.301,2.741c-1.43,1.162-3.098,2.518-4.938,4.014c-0.935,0.753-1.914,1.541-2.928,2.357
					c-0.509,0.408-1.026,0.823-1.551,1.243c-0.264,0.215-0.535,0.408-0.683,0.634c-0.151,0.223-0.181,0.501-0.114,0.785
					c0.151,0.582,0.59,1.083,1.099,1.479c0.503,0.406,1.061,0.728,1.64,0.973c1.161,0.496,2.404,0.653,3.57,0.638
					c2.358-0.039,4.374-0.905,5.947-1.742c1.579-0.858,2.771-1.714,3.606-2.284C368.748,281.813,369.214,281.499,369.236,281.528z"
					/>
			</g>
		</g>
		<g>
			<g>
				<path style="fill:#EB996E;" d="M349.808,265.669c-0.095,0.096-1.439-1.15-2.602-3.067c-1.173-1.912-1.666-3.676-1.537-3.717
					c0.143-0.053,0.84,1.587,1.982,3.445C348.781,264.196,349.921,265.566,349.808,265.669z"/>
			</g>
		</g>
		<g>
			<g>
				<path style="fill:#EB996E;" d="M355.327,270.701c-0.121,0.104-1.23-1.339-3.197-2.24c-1.952-0.935-3.769-0.865-3.767-1.024
					c-0.043-0.126,1.891-0.445,3.988,0.553C354.459,268.962,355.452,270.654,355.327,270.701z"/>
			</g>
		</g>
		<g>
			<g>
				<path style="fill:#EB996E;" d="M364.828,291.537c0.004,0.092-1.125,0.143-2.894,0.511c-1.767,0.362-4.162,1.126-6.552,2.492
					c-2.385,1.376-4.253,3.059-5.456,4.403c-1.209,1.342-1.822,2.292-1.9,2.241c-0.031-0.019,0.098-0.271,0.36-0.713
					c0.253-0.446,0.682-1.056,1.261-1.769c1.152-1.429,3.031-3.204,5.476-4.614c2.449-1.4,4.929-2.128,6.744-2.402
					c0.908-0.14,1.65-0.203,2.164-0.197C364.544,291.485,364.827,291.501,364.828,291.537z"/>
			</g>
		</g>
		<g>
			<g>
				<path style="fill:#EB996E;" d="M367.068,311.905c0.027,0.018-0.14,0.331-0.499,0.862c-0.358,0.531-0.928,1.267-1.719,2.1
					c-1.567,1.666-4.151,3.667-7.477,4.866c-3.326,1.201-6.594,1.308-8.863,1.026c-1.141-0.136-2.049-0.339-2.664-0.52
					c-0.615-0.179-0.943-0.314-0.934-0.345c0.023-0.092,1.38,0.323,3.633,0.499c2.239,0.184,5.414,0.019,8.651-1.149
					c3.236-1.166,5.786-3.065,7.392-4.636C366.211,313.034,366.991,311.849,367.068,311.905z"/>
			</g>
		</g>
		<g>
			<polygon style="fill:#E8505B;" points="119.351,361.742 141.797,353.564 170.786,379.48 162.197,394.826 			"/>
		</g>
		<g>
			<g>
				<path style="fill:#263238;" d="M154.456,409.743c-0.012-0.008,0.102-0.198,0.333-0.558c0.253-0.389,0.592-0.913,1.023-1.576
					c0.894-1.375,2.197-3.385,3.789-5.95c1.59-2.565,3.487-5.676,5.498-9.288c0.994-1.811,2.035-3.738,3.019-5.808
					c0.952-2.071,1.978-4.284,2.427-6.683l0.078,0.216c-4.215-3.789-8.834-7.94-13.657-12.275
					c-5.811-5.244-11.323-10.218-16.231-14.648l0.201,0.057c-2.196,0.435-4.257,1.152-6.196,1.87
					c-1.94,0.724-3.757,1.497-5.454,2.253c-3.395,1.515-6.317,2.972-8.706,4.222c-2.389,1.252-4.246,2.299-5.514,3.017
					c-0.607,0.348-1.087,0.623-1.447,0.829c-0.33,0.185-0.504,0.276-0.511,0.264c-0.007-0.011,0.154-0.124,0.471-0.33
					c0.35-0.222,0.818-0.518,1.41-0.893c1.246-0.759,3.083-1.847,5.457-3.138c2.374-1.289,5.285-2.782,8.678-4.331
					c1.697-0.773,3.514-1.562,5.461-2.303c1.948-0.735,4.014-1.469,6.265-1.926l0.113-0.023l0.089,0.08
					c4.918,4.419,10.441,9.381,16.263,14.612c4.815,4.344,9.426,8.503,13.635,12.3l0.102,0.092l-0.024,0.124
					c-0.484,2.523-1.529,4.72-2.5,6.81c-1.003,2.078-2.06,4.005-3.071,5.813c-2.043,3.605-3.975,6.7-5.603,9.246
					c-1.63,2.545-2.973,4.531-3.91,5.879c-0.466,0.676-0.835,1.189-1.088,1.533C154.604,409.576,154.467,409.751,154.456,409.743z"
					/>
			</g>
		</g>
		<g>
			<g>
				<path style="fill:#263238;" d="M154.337,385.646c-0.058-0.041,0.373-0.765,1.137-1.888c0.764-1.123,1.866-2.643,3.146-4.273
					c1.281-1.63,2.496-3.061,3.407-4.07c0.911-1.009,1.512-1.598,1.565-1.552c0.055,0.048-0.447,0.722-1.283,1.789
					c-0.967,1.226-2.066,2.618-3.279,4.154c-1.205,1.542-2.297,2.939-3.258,4.169C154.933,385.041,154.397,385.689,154.337,385.646z
					"/>
			</g>
		</g>
		<g>
			<g>
				<path style="fill:#263238;" d="M141.034,372.313c-0.099-0.104,2.003-2.271,4.695-4.838c2.693-2.569,4.956-4.566,5.055-4.462
					c0.099,0.104-2.003,2.27-4.696,4.839C143.396,370.42,141.133,372.417,141.034,372.313z"/>
			</g>
		</g>
		<g>
			<g>
				<path style="fill:#263238;" d="M352.775,291.148c-0.017,0.025-0.448-0.223-1.178-0.744c-0.732-0.519-1.745-1.34-2.884-2.477
					c-2.277-2.249-4.976-5.957-6.44-10.684c-1.466-4.728-1.336-9.313-0.73-12.456c0.296-1.582,0.668-2.832,0.978-3.674
					c0.308-0.843,0.523-1.291,0.551-1.28c0.101,0.033-0.672,1.874-1.166,5.015c-0.505,3.117-0.572,7.609,0.864,12.24
					c1.434,4.63,4.028,8.297,6.207,10.582C351.162,289.982,352.84,291.064,352.775,291.148z"/>
			</g>
		</g>
		<g>
			<g>
				<path style="fill:#263238;" d="M278.61,308.215c-0.058,0.03-0.599-0.865-1.324-2.388c-0.728-1.522-1.613-3.682-2.43-6.12
					c-0.816-2.44-1.43-4.685-1.834-6.319c-0.402-1.634-0.599-2.657-0.531-2.675c0.071-0.019,0.394,0.971,0.886,2.577
					c0.493,1.606,1.161,3.826,1.973,6.252c0.813,2.425,1.637,4.587,2.274,6.137C278.257,307.229,278.68,308.18,278.61,308.215z"/>
			</g>
		</g>
		<g>
			<g>
				<path style="fill:#263238;" d="M274.697,289.727c0.075-0.017,0.355,0.98,0.828,2.579c0.472,1.6,1.158,3.798,2.03,6.186
					c0.875,2.388,1.77,4.51,2.442,6.037c0.671,1.527,1.1,2.469,1.032,2.504c-0.059,0.031-0.605-0.852-1.365-2.347
					c-0.76-1.494-1.717-3.61-2.598-6.015c-0.878-2.405-1.513-4.638-1.897-6.27C274.784,290.769,274.631,289.742,274.697,289.727z"/>
			</g>
		</g>
		<g>
			<g>
				<path style="fill:#263238;" d="M275.55,289.264c0.078-0.014,0.309,0.987,0.749,2.583c0.436,1.597,1.112,3.781,2,6.144
					c0.887,2.365,1.809,4.459,2.491,5.97c0.684,1.51,1.118,2.442,1.051,2.478c-0.059,0.032-0.61-0.841-1.382-2.317
					c-0.77-1.476-1.753-3.564-2.647-5.948c-0.896-2.383-1.522-4.607-1.87-6.239C275.59,290.304,275.486,289.275,275.55,289.264z"/>
			</g>
		</g>
		<g>
			<g>
				<path style="fill:#263238;" d="M284.18,305.696c-0.05,0.032-0.654-0.812-1.413-2.3c-0.757-1.487-1.643-3.616-2.471-6.015
					c-0.833-2.399-1.469-4.607-1.883-6.217c-0.415-1.61-0.612-2.619-0.55-2.636c0.077-0.022,0.4,0.955,0.904,2.534
					c0.504,1.579,1.193,3.762,2.021,6.148c0.824,2.387,1.648,4.517,2.313,6.03C283.765,304.751,284.252,305.652,284.18,305.696z"/>
			</g>
		</g>
		<g>
			<path style="fill:#E8505B;" d="M287.332,300.273c0.385-2.163,2.607-3.598,4.789-3.863c2.181-0.265,4.359,0.359,6.498,0.861
				c2.14,0.502,4.426,0.879,6.498,0.146c2.243-0.794,3.875-2.762,6.019-3.795c3.476-1.674,7.563-0.635,11.388-0.136
				c8.065,1.053,16.219-0.471,24.21-1.99c-12.67,5.673-25.943,9.996-39.523,12.874c-3.91,0.828-8.11,1.513-11.799-0.026
				c-1.591-0.664-3.095-1.74-4.819-1.751c-0.886-0.006-1.794,0.275-2.644,0.023c-0.85-0.252-1.475-1.446-0.799-2.019"/>
		</g>
		<g style="opacity:0.6;">
			<g>
				<path style="fill:#FFFFFF;" d="M287.332,300.273c0.385-2.163,2.607-3.598,4.789-3.863c2.181-0.265,4.359,0.359,6.498,0.861
					c2.14,0.502,4.426,0.879,6.498,0.146c2.243-0.794,3.875-2.762,6.019-3.795c3.476-1.674,7.563-0.635,11.388-0.136
					c8.065,1.053,16.219-0.471,24.21-1.99c-12.67,5.673-25.943,9.996-39.523,12.874c-3.91,0.828-8.11,1.513-11.799-0.026
					c-1.591-0.664-3.095-1.74-4.819-1.751c-0.886-0.006-1.794,0.275-2.644,0.023c-0.85-0.252-1.475-1.446-0.799-2.019"/>
			</g>
		</g>
		<g style="opacity:0.3;">
			<g>
				<path d="M221.201,403.703c-1.94-0.094-6.881-1.052-8.757-1.389c-0.637,4.317,3.481,8.794,7.757,9.664
					c4.276,0.87,8.999,0.082,13.241-0.939c25.883-6.234,52.591-4.697,79.166-6.296c1.587-0.095,3.222-0.217,4.639-0.936
					c1.418-0.719,2.574-2.194,2.424-3.777c-0.192-2.03-2.297-3.283-4.237-3.909c-8.056-2.599-16.752-0.172-24.988,1.785
					C266.678,403.553,245.562,407.461,221.201,403.703"/>
			</g>
		</g>
		<g style="opacity:0.3;">
			<g>
				<path d="M217.957,239.297c5.261,3.607,10.544,7.227,16.262,10.052c5.719,2.826,11.929,4.849,18.304,5.057
					c5.903,0.193,11.75-1.167,17.388-2.926c3.279-1.023,6.555-2.202,9.406-4.118c2.851-1.916,5.271-4.652,6.213-7.956
					c-21.586,7.866-45.991,7.718-67.481-0.408"/>
			</g>
		</g>
		<g style="opacity:0.3;">
			<g>
				<path d="M129.402,357.303c-6.213-0.473-13.072,0.961-18.604,3.829c-5.532,2.868-11.307,6.758-12.321,12.906
					c-0.284,1.721-0.124,3.824,1.369,4.726c1.291,0.78,2.998,0.26,4.222-0.621c2.662-1.915,3.926-5.165,5.605-7.983
					C113.833,363.177,129.402,357.303,129.402,357.303"/>
			</g>
		</g>
		<g style="opacity:0.3;">
			<g>
				<path d="M249.701,356.233c1.018,0.925-0.478,4.797-4.982,9.602c-2.253,2.384-5.295,4.962-9.252,7.168
					c-3.926,2.2-8.903,3.986-14.508,4.228c-5.216,0.178-10.129-0.585-14.379-1.901c-4.252-1.32-7.833-3.141-10.563-5.037
					c-2.736-1.893-4.659-3.785-5.752-5.329c-1.098-1.543-1.411-2.684-0.971-3.238c0.938-1.169,4.523,0.298,9.992,1.967
					c5.445,1.692,13.004,3.436,21.281,3.129c3.741-0.166,7.412-1.139,10.736-2.466c3.331-1.314,6.322-2.894,8.855-4.305
					C245.23,357.223,248.611,355.219,249.701,356.233z"/>
			</g>
		</g>
		<g style="opacity:0.3;">
			<g>
				<path d="M335.898,359.629c0.326,0.641-0.155,1.615-1.391,2.863c-0.309,0.312-0.664,0.64-1.065,0.984
					c-0.407,0.329-0.874,0.633-1.379,0.968c-1.017,0.646-2.192,1.414-3.591,1.993c-0.693,0.312-1.428,0.628-2.201,0.947
					c-0.775,0.312-1.606,0.536-2.464,0.808c-1.713,0.575-3.601,0.91-5.599,1.27c-4.005,0.567-8.506,0.675-13.153,0.044
					c-4.641-0.686-8.936-2.04-12.626-3.699c-1.82-0.901-3.54-1.748-5.026-2.776c-0.749-0.499-1.485-0.945-2.143-1.461
					c-0.654-0.521-1.272-1.029-1.851-1.522c-1.183-0.946-2.098-2.009-2.896-2.913c-0.392-0.462-0.756-0.884-1.056-1.313
					c-0.29-0.442-0.54-0.856-0.749-1.242c-0.84-1.542-1.032-2.612-0.54-3.136c1.042-1.095,4.292,0.402,9.156,2.366
					c0.616,0.237,1.25,0.493,1.901,0.768c0.654,0.269,1.372,0.478,2.079,0.746c1.402,0.566,2.969,0.989,4.563,1.522
					c3.248,0.922,6.826,1.775,10.65,2.346c3.83,0.513,7.503,0.689,10.879,0.706c1.679-0.068,3.302-0.039,4.806-0.194
					c0.754-0.061,1.501-0.062,2.204-0.139c0.701-0.084,1.382-0.153,2.039-0.21C331.663,358.823,335.202,358.288,335.898,359.629z"/>
			</g>
		</g>
		<g>
			<g>
				<path style="fill:#263238;" d="M254.295,346.764c0.015,0.01-0.126,0.241-0.409,0.673c-0.295,0.423-0.681,1.084-1.287,1.856
					c-1.153,1.587-2.99,3.775-5.565,6.169c-2.568,2.398-5.948,4.93-10.067,7.104c-4.109,2.178-8.987,3.927-14.296,4.796
					c-5.319,0.817-10.5,0.663-15.082-0.137c-4.59-0.793-8.588-2.156-11.772-3.641c-3.19-1.48-5.613-2.992-7.201-4.144
					c-0.815-0.547-1.387-1.056-1.798-1.367c-0.403-0.323-0.609-0.499-0.597-0.513s0.239,0.134,0.661,0.43
					c0.431,0.283,1.02,0.764,1.85,1.283c1.616,1.096,4.053,2.55,7.237,3.975c3.179,1.431,7.152,2.744,11.7,3.504
					c4.541,0.766,9.664,0.902,14.921,0.096c5.246-0.86,10.074-2.574,14.155-4.707c4.089-2.129,7.461-4.607,10.041-6.951
					c2.587-2.341,4.455-4.477,5.652-6.02c0.628-0.75,1.04-1.39,1.362-1.793C254.11,346.966,254.281,346.754,254.295,346.764z"/>
			</g>
		</g>
		<g>
			<g>
				<path style="fill:#263238;" d="M223.389,239.105c-0.067,0.009-0.262-0.886-0.452-2.353c-0.192-1.466-0.364-3.506-0.395-5.764
					c-0.029-2.259,0.088-4.303,0.241-5.774c0.152-1.471,0.322-2.372,0.389-2.364c0.075,0.008,0.035,0.92-0.022,2.39
					c-0.058,1.47-0.116,3.499-0.087,5.741c0.031,2.241,0.144,4.268,0.241,5.736C223.4,238.184,223.464,239.095,223.389,239.105z"/>
			</g>
		</g>
		<g>
			<g>
				<path style="fill:#263238;" d="M240.245,241.747c-0.077-0.006-0.043-1.046-0.026-2.722c0.018-1.676-0.007-3.99-0.187-6.538
					c-0.184-2.548-0.487-4.842-0.743-6.499c-0.254-1.657-0.436-2.681-0.36-2.698c0.064-0.015,0.374,0.982,0.723,2.633
					c0.35,1.649,0.715,3.957,0.9,6.528c0.182,2.57,0.148,4.906,0.036,6.588C240.475,240.721,240.31,241.753,240.245,241.747z"/>
			</g>
		</g>
		<g>
			<g>
				<path style="fill:#263238;" d="M258.601,241.308c-0.078,0.003-0.166-1.024-0.358-2.672c-0.191-1.648-0.515-3.917-1.047-6.389
					c-0.535-2.472-1.176-4.673-1.681-6.253c-0.504-1.581-0.848-2.552-0.776-2.582c0.06-0.025,0.526,0.899,1.123,2.461
					c0.598,1.56,1.302,3.768,1.842,6.265c0.537,2.497,0.806,4.798,0.905,6.466C258.71,240.271,258.667,241.306,258.601,241.308z"/>
			</g>
		</g>
		<g>
			<g>
				<path style="fill:#263238;" d="M272.719,239.301c-0.162-0.025,0.442-3.501,0.266-7.813c-0.147-4.315-1.01-7.735-0.85-7.772
					c0.063-0.017,0.359,0.818,0.672,2.213c0.314,1.394,0.615,3.355,0.699,5.539c0.08,2.184-0.074,4.162-0.282,5.575
					C273.017,238.458,272.783,239.312,272.719,239.301z"/>
			</g>
		</g>
		<g>
			<g>
				<path style="fill:#263238;" d="M283.818,238.209c-0.157-0.015,0.108-3.162-0.151-7.029c-0.24-3.869-0.907-6.956-0.753-6.991
					c0.065-0.015,0.317,0.739,0.591,1.992c0.275,1.252,0.554,3.008,0.681,4.965c0.125,1.956,0.074,3.733-0.038,5.01
					C284.038,237.435,283.885,238.215,283.818,238.209z"/>
			</g>
		</g>
		<g>
			<path style="fill:#E8505B;" d="M305.024,271.777c0,0-2.943,6.513,1.194,15.231l22.704-7.024c0,0-3.916-9.627-0.081-15.55
				L305.024,271.777z"/>
		</g>
		<g>
			<g>
				<path style="fill:#FFFFFF;" d="M338.914,264.037c0.005,0.017-0.185,0.092-0.551,0.218c-0.422,0.138-0.955,0.313-1.611,0.528
					c-1.472,0.457-3.488,1.083-5.951,1.848c-5.099,1.53-12.03,3.61-19.688,5.908c-3.84,1.165-7.547,2.147-10.809,3.301
					c-3.261,1.153-6.039,2.633-8.023,4.329c-2.008,1.671-3.219,3.452-3.877,4.747c-0.657,1.306-0.838,2.109-0.891,2.092
					c-0.017-0.005,0.024-0.204,0.12-0.582c0.102-0.375,0.284-0.922,0.589-1.599c0.612-1.344,1.802-3.198,3.82-4.939
					c1.993-1.767,4.814-3.311,8.098-4.5c3.291-1.191,6.983-2.183,10.825-3.349c7.675-2.241,14.621-4.27,19.732-5.762
					c2.482-0.699,4.514-1.271,5.998-1.689c0.666-0.177,1.209-0.32,1.638-0.434C338.709,264.06,338.909,264.019,338.914,264.037z"/>
			</g>
		</g>
	</g>
</g>
<g id="Desk">
	<g>
		<g>
			<path style="fill:#263238;" d="M484.093,466.781c0,0.144-104.816,0.26-234.082,0.26c-129.311,0-234.104-0.117-234.104-0.26
				c0-0.144,104.793-0.26,234.104-0.26C379.278,466.521,484.093,466.637,484.093,466.781z"/>
		</g>
	</g>
</g>
</svg>
