<?xml version="1.0" encoding="utf-8"?>
<!-- Generator: Adobe Illustrator 27.5.0, SVG Export Plug-In . SVG Version: 6.00 Build 0)  -->
<svg version="1.1" xmlns="http://www.w3.org/2000/svg" xmlns:xlink="http://www.w3.org/1999/xlink" x="0px" y="0px"
	 viewBox="0 0 750 500" style="enable-background:new 0 0 750 500;" xml:space="preserve">
<g id="Background_Complete">
	<g>
		<g>
			<g>
				<path style="fill:#E0E0E0;" d="M593.496,122.768c-4.399,0.772-8.741-0.804-11.622-4.22c-2.889-3.427-3.705-7.99-2.182-12.206
					l24.282-67.199c1.523-4.215,5.067-7.202,9.479-7.991c0.013-0.002,0.026-0.005,0.039-0.007c4.399-0.772,8.741,0.803,11.622,4.22
					l46.055,54.628c2.889,3.427,3.705,7.99,2.181,12.206c-1.524,4.215-5.067,7.202-9.479,7.991l-70.337,12.571
					C593.522,122.763,593.509,122.765,593.496,122.768z M614.132,34.792c-0.009,0.002-0.018,0.003-0.027,0.005
					c-3.095,0.553-5.58,2.648-6.648,5.605L583.175,107.6c-1.068,2.957-0.496,6.157,1.53,8.561c2.021,2.396,5.066,3.502,8.152,2.96
					c0.009-0.001,0.018-0.003,0.027-0.005l70.336-12.571c3.095-0.553,5.581-2.648,6.649-5.605c1.068-2.957,0.496-6.157-1.53-8.561
					l-46.055-54.628C620.263,35.355,617.218,34.25,614.132,34.792z"/>
			</g>
		</g>
		<g>
			<g>
				<path style="fill:#E0E0E0;" d="M620.158,97.717c-0.458-2.503,1.159-4.842,3.894-5.343c2.677-0.49,4.96,1.138,5.418,3.641
					c0.458,2.503-1.09,4.892-3.767,5.381C622.967,101.897,620.615,100.22,620.158,97.717z M613.871,61.032l8.614-1.575l3.526,27.506
					l-5.763,1.055L613.871,61.032z"/>
			</g>
		</g>
	</g>
	<g>
		<g>
			<g>
				<g>
					<g>
						<g>
							<path style="fill:#EBEBEB;" d="M593.355,373.852c-13.926-19.8-9.383-45.526-0.756-67.004
								c1.44-3.585,2.429-7.556,5.311-10.115c2.883-2.557,7.7-3.273,10.396-0.564c2.235,2.247,2.272,5.808,2.84,8.949
								c0.754,4.178,2.708,8.118,5.563,11.219c1.876,2.038,4.47,3.809,7.208,3.378c3.758-0.592,5.696-4.783,6.983-8.402
								c2.398-6.744,4.798-13.488,7.196-20.23c1.287-3.618,2.614-7.308,4.979-10.327c2.366-3.019,6.001-5.302,9.784-5.018
								c3.784,0.285,7.312,3.805,6.755,7.602c-0.232,1.58-1.085,2.998-1.528,4.532c-0.443,1.535-0.347,3.447,0.925,4.38
								c1.287,0.946,3.103,0.447,4.566-0.219c5.049-2.293,9.28-6.072,13.338-9.884c4.057-3.812,8.085-7.761,12.908-10.51
								c4.823-2.749,10.643-4.203,15.919-2.621c5.277,1.583,9.627,6.773,9.093,12.322c-0.536,5.565-5.379,9.651-10.104,12.599
								c-7.011,4.374-14.643,7.722-22.58,9.907c-1.431,0.395-2.981,0.82-3.901,2c-1.657,2.122-0.244,5.34,1.845,6.993
								c2.366,1.873,5.387,2.652,8.082,4.005c2.695,1.353,5.294,3.7,5.393,6.747c0.14,4.226-4.349,6.975-8.304,8.406
								c-7.921,2.867-16.317,4.355-24.708,4.382c-3.008,0.008-6.112-0.153-8.93,0.936c-2.819,1.09-5.288,3.865-4.917,6.877
								c0.371,3.016,3.397,5.034,6.366,5.527c2.968,0.493,6.006-0.114,9.02-0.152c5.64-0.073,11.923,2.593,13.546,8.034
								c1.066,3.576-0.174,7.567-2.449,10.544c-2.274,2.977-5.467,5.093-8.71,6.937c-11.336,6.444-24.24,10.262-37.197,10.077
								C614.331,384.972,603.275,382.184,593.355,373.852"/>
						</g>
					</g>
				</g>
			</g>
		</g>
		<g>
			<g>
				<g>
					<g>
						<g>
							<g>
								<path style="fill:#E0E0E0;" d="M603.914,362.256c7.181-9.813,15.945-19.916,25.475-30.169
									c2.392-2.554,4.755-5.078,7.084-7.565c2.331-2.477,4.642-4.935,7.051-7.198c4.8-4.549,9.76-8.557,14.589-12.214
									c4.828-3.661,9.543-6.958,13.974-10.009c4.44-3.043,8.631-5.802,12.559-8.152c7.844-4.732,14.61-7.793,19.34-9.704
									c2.365-0.964,4.223-1.65,5.489-2.099c0.608-0.211,1.084-0.377,1.443-0.501c0.326-0.108,0.495-0.159,0.499-0.147
									c0.005,0.012-0.156,0.085-0.475,0.216c-0.353,0.141-0.822,0.328-1.419,0.567c-1.249,0.492-3.09,1.22-5.436,2.221
									c-4.691,1.988-11.4,5.109-19.188,9.881c-3.9,2.372-8.066,5.147-12.484,8.208c-4.414,3.071-9.109,6.381-13.915,10.046
									c-4.805,3.663-9.738,7.667-14.504,12.198c-2.392,2.255-4.681,4.693-7.015,7.178c-2.327,2.486-4.688,5.01-7.078,7.563
									c-9.521,10.245-18.278,20.311-25.468,30.073"/>
							</g>
						</g>
					</g>
				</g>
			</g>
		</g>
		<g>
			<g>
				<g>
					<g>
						<g>
							<g>
								<path style="fill:#E0E0E0;" d="M643.723,317.367c-0.047-0.009,0.029-0.602,0.206-1.668c0.172-1.067,0.472-2.6,0.871-4.491
									c0.794-3.78,2.068-8.962,3.494-14.67c1.427-5.711,2.624-10.896,3.358-14.677c0.372-1.89,0.658-3.422,0.842-4.484
									c0.19-1.062,0.318-1.646,0.367-1.641c0.048,0.006,0.012,0.602-0.095,1.678c-0.101,1.076-0.312,2.626-0.623,4.532
									c-0.609,3.818-1.734,9.043-3.163,14.759c-1.422,5.629-2.708,10.721-3.691,14.612c-0.433,1.761-0.797,3.245-1.089,4.436
									C643.938,316.8,643.771,317.376,643.723,317.367z"/>
							</g>
						</g>
					</g>
				</g>
			</g>
		</g>
		<g>
			<g>
				<g>
					<g>
						<g>
							<g>
								<path style="fill:#E0E0E0;" d="M693.284,325.53c-0.016,0.046-0.704-0.116-1.932-0.45c-1.229-0.326-3.006-0.807-5.219-1.331
									c-4.417-1.083-10.572-2.366-17.424-3.484c-6.857-1.106-13.104-1.843-17.638-2.246c-2.267-0.218-4.105-0.344-5.376-0.439
									c-1.271-0.09-1.973-0.163-1.973-0.213c0.002-0.05,0.709-0.07,1.987-0.065c1.277,0.011,3.126,0.061,5.404,0.214
									c4.557,0.275,10.836,0.935,17.714,2.044c6.872,1.122,13.034,2.488,17.433,3.701c2.204,0.589,3.966,1.145,5.174,1.555
									C692.64,325.231,693.299,325.482,693.284,325.53z"/>
							</g>
						</g>
					</g>
				</g>
			</g>
		</g>
		<g>
			<g>
				<g>
					<g>
						<g>
							<g>
								<path style="fill:#E0E0E0;" d="M604.794,361.609c-0.025,0.002-0.063-0.232-0.113-0.681c-0.05-0.532-0.111-1.181-0.185-1.967
									c-0.153-1.709-0.309-4.188-0.462-7.252c-0.31-6.13-0.473-14.61-0.525-23.97c-0.054-9.365-0.137-17.835-0.319-23.962
									c-0.097-2.981-0.177-5.434-0.236-7.257c-0.022-0.79-0.039-1.441-0.053-1.975c-0.004-0.451,0.005-0.69,0.03-0.693
									c0.024,0,0.062,0.233,0.113,0.683c0.05,0.532,0.111,1.18,0.185,1.966c0.153,1.709,0.309,4.187,0.462,7.252
									c0.31,6.129,0.473,14.61,0.525,23.974c0.053,9.362,0.137,17.831,0.318,23.959c0.098,2.981,0.177,5.434,0.237,7.256
									c0.022,0.79,0.039,1.442,0.053,1.976C604.828,361.37,604.819,361.608,604.794,361.609z"/>
							</g>
						</g>
					</g>
				</g>
			</g>
		</g>
		<g>
			<g>
				<g>
					<g>
						<g>
							<g>
								<path style="fill:#E0E0E0;" d="M673.683,364.106c-0.002,0.025-0.245,0.034-0.704,0.03c-0.541-0.013-1.205-0.03-2.009-0.049
									c-1.849-0.064-4.345-0.15-7.381-0.256c-6.233-0.214-14.844-0.412-24.36-0.617c-9.519-0.204-18.138-0.482-24.367-0.825
									c-3.115-0.171-5.634-0.335-7.372-0.483c-0.802-0.074-1.463-0.134-2.001-0.183c-0.457-0.05-0.696-0.089-0.694-0.113
									c0.002-0.024,0.245-0.034,0.704-0.031c0.539,0.014,1.203,0.031,2.009,0.051c1.849,0.064,4.344,0.15,7.38,0.255
									c6.232,0.215,14.845,0.412,24.364,0.617c9.516,0.204,18.133,0.481,24.363,0.825c3.115,0.17,5.634,0.334,7.373,0.483
									c0.802,0.074,1.462,0.133,2.001,0.183C673.445,364.042,673.684,364.081,673.683,364.106z"/>
							</g>
						</g>
					</g>
				</g>
			</g>
		</g>
	</g>
	<g>
		<g>
			<g>
				<path style="fill:#EBEBEB;" d="M56.771,83.78c0,0-9.402,3.808,1.442,23.768c10.844,19.96,18.253,29.789,18.253,29.789
					s1.952,4.648-1.982,5.48c-3.934,0.832-12.674-0.331-14.31,4.552c-1.697,5.064,2.07,9.702,9.566,13.662
					c7.496,3.96,23.6,13.239,25.053,14.083c1.427,0.829,2.891,2.978,0.302,3.974c-2.589,0.996-22.114,3.547-20.349,12.739
					c1.765,9.192,24.46,16.793,26.925,17.671c2.465,0.879,3.075,1.898,2.911,3.243c-0.164,1.345-6.808,1.584-12.331,2.536
					c-5.524,0.953-11.761,3.026-10.299,8.244c1.463,5.218,15.066,15.908,47.486,18.24l15.093,0.097l7.877-12.953
					c15.168-28.748,13.289-45.947,9.634-49.949c-3.655-4.001-8.714,0.196-12.443,4.38c-3.73,4.184-7.446,9.696-8.674,9.124
					c-1.228-0.572-1.771-1.629-1.212-4.186c0.558-2.557,6.11-25.838-0.758-32.197c-6.868-6.359-19.359,8.863-21.574,10.533
					c-2.215,1.671-3.264-0.709-3.213-2.358c0.052-1.68,0.694-20.255,1.297-28.711c0.603-8.456-1.341-14.106-6.536-15.344
					c-5.009-1.194-8.645,6.839-11.431,9.737c-2.787,2.899-5.699-1.216-5.699-1.216s-4.423-11.487-15.629-31.246
					C64.967,77.714,56.586,83.87,56.586,83.87"/>
			</g>
		</g>
		<g>
			<g>
				<g>
					<path style="fill:#E0E0E0;" d="M145.407,245.387c-8.172-14.544-22.262-40.638-34.476-62.978
						c-12.209-22.333-23.282-42.542-31.38-57.126c-4.049-7.275-7.329-13.169-9.608-17.262c-1.125-2.026-2.003-3.605-2.609-4.696
						c-0.287-0.526-0.509-0.934-0.668-1.227c-0.148-0.278-0.214-0.426-0.214-0.426s0.093,0.132,0.255,0.402
						c0.169,0.287,0.405,0.688,0.709,1.204c0.624,1.081,1.527,2.646,2.686,4.652c2.328,4.043,5.655,9.917,9.738,17.19
						c8.172,14.544,19.292,34.73,31.501,57.063c12.214,22.34,26.257,48.458,34.355,63.042"/>
				</g>
			</g>
		</g>
		<g>
			<g>
				<g>
					<path style="fill:#E0E0E0;" d="M72.337,149.488c0.01-0.031,0.387,0.066,1.059,0.266c0.674,0.197,1.639,0.511,2.828,0.91
						c2.376,0.803,5.63,1.995,9.196,3.375c3.512,1.374,6.688,2.617,9.117,3.567c1.097,0.421,2.024,0.777,2.768,1.063
						c0.655,0.248,1.013,0.4,1.003,0.431c-0.01,0.031-0.387-0.062-1.062-0.258c-0.673-0.199-1.639-0.513-2.824-0.925
						c-2.369-0.826-5.606-2.06-9.172-3.441c-3.52-1.348-6.704-2.567-9.139-3.5c-1.1-0.416-2.029-0.767-2.775-1.049
						C72.683,149.673,72.327,149.519,72.337,149.488z"/>
				</g>
			</g>
		</g>
		<g>
			<g>
				<g>
					<path style="fill:#E0E0E0;" d="M99.314,158.109c-0.123-0.041,2.039-6.857,4.829-15.222c2.79-8.368,5.151-15.117,5.274-15.076
						c0.123,0.041-2.039,6.856-4.829,15.224C101.799,151.4,99.437,158.15,99.314,158.109z"/>
				</g>
			</g>
		</g>
		<g>
			<g>
				<g>
					<path style="fill:#E0E0E0;" d="M116.52,193.256c-0.026-0.019,0.185-0.356,0.588-0.947c0.462-0.668,1.039-1.501,1.723-2.491
						c1.452-2.105,3.444-5.02,5.525-8.317c2.089-3.293,3.875-6.34,5.151-8.555c0.602-1.042,1.108-1.92,1.514-2.624
						c0.361-0.618,0.574-0.953,0.603-0.938c0.029,0.015-0.13,0.379-0.442,1.024c-0.312,0.645-0.781,1.569-1.385,2.698
						c-1.203,2.26-2.95,5.342-5.045,8.645c-2.087,3.306-4.128,6.2-5.651,8.259c-0.766,1.026-1.395,1.85-1.846,2.406
						C116.806,192.976,116.546,193.275,116.52,193.256z"/>
				</g>
			</g>
		</g>
		<g>
			<g>
				<g>
					<path style="fill:#E0E0E0;" d="M90.403,190.829c0.002-0.032,0.369-0.034,1.031-0.009c0.761,0.041,1.695,0.09,2.797,0.149
						c2.36,0.146,5.617,0.381,9.213,0.668c3.597,0.288,6.85,0.574,9.203,0.805c1.097,0.117,2.027,0.217,2.785,0.298
						c0.657,0.081,1.019,0.141,1.016,0.173c-0.003,0.032-0.369,0.034-1.031,0.009c-0.76-0.041-1.695-0.09-2.797-0.149
						c-2.36-0.146-5.618-0.381-9.214-0.668c-3.595-0.288-6.849-0.574-9.202-0.805c-1.097-0.117-2.027-0.217-2.785-0.298
						C90.762,190.921,90.4,190.861,90.403,190.829z"/>
				</g>
			</g>
		</g>
		<g>
			<g>
				<g>
					<path style="fill:#E0E0E0;" d="M101.65,223.787c0.002-0.032,0.472-0.03,1.319,0.001c0.934,0.046,2.139,0.106,3.585,0.178
						c3.025,0.171,7.203,0.439,11.814,0.763c4.613,0.325,8.787,0.645,11.807,0.9c1.442,0.132,2.643,0.241,3.574,0.326
						c0.843,0.087,1.308,0.151,1.306,0.183c-0.002,0.032-0.472,0.03-1.319-0.001c-0.934-0.046-2.139-0.106-3.585-0.178
						c-3.025-0.17-7.203-0.438-11.816-0.763c-4.612-0.325-8.785-0.645-11.805-0.9c-1.442-0.132-2.643-0.241-3.574-0.326
						C102.113,223.883,101.648,223.819,101.65,223.787z"/>
				</g>
			</g>
		</g>
		<g>
			<g>
				<g>
					<path style="fill:#E0E0E0;" d="M134.272,225.858c-0.027-0.018,0.229-0.451,0.715-1.219c0.534-0.835,1.231-1.924,2.071-3.237
						c1.745-2.735,4.142-6.521,6.669-10.775c2.535-4.252,4.727-8.16,6.294-11.001c0.754-1.364,1.38-2.496,1.859-3.363
						c0.442-0.793,0.701-1.224,0.729-1.209c0.029,0.015-0.175,0.475-0.567,1.294c-0.393,0.819-0.979,1.995-1.729,3.436
						c-1.494,2.883-3.645,6.825-6.184,11.084c-2.531,4.262-4.976,8.027-6.795,10.717c-0.913,1.343-1.662,2.423-2.197,3.157
						C134.606,225.478,134.299,225.876,134.272,225.858z"/>
				</g>
			</g>
		</g>
	</g>
</g>
<g id="Background_Simple" style="display:none;">
	<path style="display:inline;fill:#EBEBEB;" d="M149.756,215.364c-0.914-12.02-10.867-23.154-22.89-24.043
		c-4.76-0.352-9.93,0.695-14.044-1.725c-6.951-4.088-5.79-14.198-7.624-22.051c-2.462-10.541-12.555-18.795-23.375-19.115
		c-9.389-0.278-21.58,4.598-26.656,12.672v0c-17.221,20.703-7.792,52.846,7.811,70.112c8.083,8.944,19.142,15.18,34.287,19.251
		c11.642,3.129,25.261,0.815,35.708-5.201C143.419,239.249,150.67,227.384,149.756,215.364z"/>
	<circle style="display:inline;fill:#EBEBEB;" cx="135.41" cy="137.479" r="22"/>
	
		<ellipse transform="matrix(0.1961 -0.9806 0.9806 0.1961 -46.1272 147.6521)" style="display:inline;fill:#EBEBEB;" cx="66.99" cy="101.959" rx="11" ry="11"/>
	<path style="display:inline;fill:#EBEBEB;" d="M664.396,114.283c0.466-13.361-8.43-27.097-21.433-30.201
		c-9.557-2.282-20.348,0.906-28.986-3.779c-6.912-3.749-10.483-11.555-12.966-19.016c-2.483-7.461-4.525-15.436-9.865-21.209
		c-0.267-0.289-0.573-0.6-0.915-0.929c-13.442-12.961-35.04-11.983-47.613,1.823l0,0c-13.345,14.654-18.944,34.877-14.654,54.227
		c2.603,11.744,7.694,22.918,14.522,31.237c15.149,18.454,39.127,28.509,62.987,29.38c13.36,0.488,27.148-1.83,38.513-8.871
		S663.929,127.643,664.396,114.283z"/>
	
		<ellipse transform="matrix(0.1589 -0.9873 0.9873 0.1589 410.9418 809.9344)" style="display:inline;fill:#EBEBEB;" cx="680.849" cy="163.772" rx="25.009" ry="25.009"/>
</g>
<g id="Device">
	<g>
		<g>
			<g>
				<g>
					<g>
						<g>
							<g>
								<g>
									<g>
										<g>
											<path style="fill:#263238;" d="M584.731,100.587H159.824c-7.326,0-13.263,5.938-13.263,13.263v300.121
												c0,7.326,5.938,13.264,13.263,13.264h163.079c0,0,10.373,32.078-21.784,48.675h152.487c0,0-36.307-12.447-26.972-48.675
												h158.099c7.324,0,13.263-5.939,13.263-13.263V113.85C597.995,106.524,592.056,100.587,584.731,100.587z"/>
										</g>
									</g>
								</g>
							</g>
						</g>
						<g>
							<g>
								<g>
									<g>
										<g>
											<path style="fill:#455A64;" d="M377.951,394.918c5.78,8.261-3.266,17.307-11.529,11.529
												c-0.272-0.191-0.52-0.439-0.71-0.712c-5.764-8.259,3.271-17.294,11.528-11.527
												C377.513,394.397,377.76,394.645,377.951,394.918z"/>
										</g>
									</g>
								</g>
							</g>
						</g>
					</g>
					<g>
						<g>
							<g>
								<path style="fill:#FFFFFF;" d="M590.679,371.577H153.877V115.029c0-5.356,4.342-9.697,9.697-9.697h417.407
									c5.356,0,9.697,4.342,9.697,9.697V371.577z"/>
							</g>
						</g>
					</g>
				</g>
				<g>
					<g>
						<path style="fill:#EBEBEB;" d="M590.679,127.455H153.877v-12.969c0-5.055,4.098-9.154,9.154-9.154h420.132
							c4.151,0,7.516,3.365,7.516,7.516V127.455z"/>
					</g>
				</g>
				<g>
					<g>
						<g>
							<circle style="fill:#455A64;" cx="167.787" cy="116.858" r="3.068"/>
						</g>
					</g>
					<g>
						<g>
							<circle style="fill:#455A64;" cx="176.934" cy="116.858" r="3.068"/>
						</g>
					</g>
					<g>
						<g>
							<path style="fill:#455A64;" d="M188.701,116.858c0,1.695-1.374,3.068-3.068,3.068c-1.695,0-3.068-1.374-3.068-3.068
								c0-1.695,1.374-3.068,3.068-3.068C187.327,113.789,188.701,115.163,188.701,116.858z"/>
						</g>
					</g>
				</g>
			</g>
			<g>
				<g>
					<g>
						<path style="fill:#455A64;" d="M508.764,426.524c0,0.141-60.465,0.255-135.034,0.255c-74.595,0-135.047-0.114-135.047-0.255
							c0-0.141,60.452-0.255,135.047-0.255C448.3,426.269,508.764,426.383,508.764,426.524z"/>
					</g>
				</g>
			</g>
		</g>
	</g>
</g>
<g id="_x34_00_Error">
	<g>
		<path style="fill:#263238;" d="M350.491,326.72v1.833h-10.702v-14.747h10.407v1.832h-8.301v4.53h7.395v1.791h-7.395v4.76H350.491z
			"/>
		<path style="fill:#263238;" d="M363.763,328.553l-3.181-4.53c-0.295,0.021-0.611,0.042-0.927,0.042h-3.645v4.488h-2.107v-14.747
			h5.752c3.834,0,6.152,1.938,6.152,5.14c0,2.276-1.18,3.919-3.244,4.657l3.497,4.951H363.763z M363.7,318.946
			c0-2.106-1.412-3.307-4.108-3.307h-3.582v6.637h3.582C362.289,322.275,363.7,321.053,363.7,318.946z"/>
		<path style="fill:#263238;" d="M379.079,328.553l-3.182-4.53c-0.295,0.021-0.611,0.042-0.927,0.042h-3.645v4.488h-2.107v-14.747
			h5.752c3.835,0,6.152,1.938,6.152,5.14c0,2.276-1.18,3.919-3.245,4.657l3.498,4.951H379.079z M379.016,318.946
			c0-2.106-1.412-3.307-4.108-3.307h-3.582v6.637h3.582C377.604,322.275,379.016,321.053,379.016,318.946z"/>
		<path style="fill:#263238;" d="M383.333,321.18c0-4.319,3.329-7.543,7.859-7.543c4.487,0,7.816,3.203,7.816,7.543
			c0,4.34-3.33,7.543-7.816,7.543C386.662,328.722,383.333,325.498,383.333,321.18z M396.902,321.18
			c0-3.265-2.444-5.667-5.709-5.667c-3.307,0-5.752,2.402-5.752,5.667c0,3.265,2.444,5.667,5.752,5.667
			C394.457,326.847,396.902,324.445,396.902,321.18z"/>
		<path style="fill:#263238;" d="M412.091,328.553l-3.181-4.53c-0.296,0.021-0.612,0.042-0.928,0.042h-3.645v4.488h-2.107v-14.747
			h5.752c3.835,0,6.152,1.938,6.152,5.14c0,2.276-1.179,3.919-3.244,4.657l3.497,4.951H412.091z M412.027,318.946
			c0-2.106-1.411-3.307-4.108-3.307h-3.582v6.637h3.582C410.616,322.275,412.027,321.053,412.027,318.946z"/>
	</g>
	<g>
		<g>
			<path style="fill:#E0E0E0;" d="M578.292,255.107c-3.628,22.803-11.532,39.367-23.711,49.695
				c-12.182,10.329-27.103,14.087-44.765,11.277c-17.745-2.823-30.843-11.038-39.297-24.65c-8.454-13.61-10.868-31.815-7.24-54.618
				l6.38-40.104c3.614-22.721,11.517-39.287,23.711-49.695c12.192-10.409,27.16-14.201,44.905-11.379
				c17.662,2.81,30.716,11.06,39.157,24.751c8.441,13.691,10.854,31.898,7.24,54.619L578.292,255.107z M556.121,205.854
				c2.284-14.358,1.566-25.371-2.154-33.036c-3.719-7.665-10.198-12.232-19.429-13.701c-9.234-1.469-16.788,0.866-22.661,7.005
				c-5.875,6.139-9.954,16.389-12.238,30.746l-7.752,48.73c-2.297,14.441-1.57,25.515,2.185,33.226
				c3.753,7.712,10.246,12.301,19.48,13.77c9.232,1.469,16.766-0.869,22.601-7.014c5.834-6.145,9.907-16.477,12.216-30.997
				L556.121,205.854z"/>
			<g>
				<g>
					<g>
						<path style="fill:#E8505B;" d="M590.468,247.5c-3.628,22.803-11.532,39.367-23.711,49.695
							c-12.182,10.329-27.103,14.087-44.765,11.277c-17.745-2.823-30.843-11.038-39.297-24.65
							c-8.454-13.61-10.868-31.815-7.24-54.618l6.38-40.104c3.614-22.72,11.517-39.287,23.711-49.695
							c12.192-10.409,27.16-14.201,44.905-11.379c17.662,2.81,30.716,11.06,39.157,24.751c8.441,13.691,10.854,31.898,7.24,54.619
							L590.468,247.5z M568.298,198.247c2.284-14.358,1.566-25.371-2.154-33.036c-3.719-7.665-10.197-12.232-19.429-13.701
							c-9.234-1.469-16.788,0.866-22.661,7.005c-5.875,6.139-9.954,16.389-12.238,30.746l-7.752,48.73
							c-2.297,14.441-1.57,25.515,2.185,33.226c3.753,7.712,10.246,12.301,19.48,13.77c9.232,1.469,16.766-0.869,22.601-7.014
							c5.834-6.145,9.907-16.477,12.217-30.997L568.298,198.247z"/>
					</g>
				</g>
				<g style="opacity:0.4;">
					<g>
						<path d="M590.468,247.5c-3.628,22.803-11.532,39.367-23.711,49.695c-12.182,10.329-27.103,14.087-44.765,11.277
							c-17.745-2.823-30.843-11.038-39.297-24.65c-8.454-13.61-10.868-31.815-7.24-54.618l6.38-40.104
							c3.614-22.72,11.517-39.287,23.711-49.695c12.192-10.409,27.16-14.201,44.905-11.379c17.662,2.81,30.716,11.06,39.157,24.751
							c8.441,13.691,10.854,31.898,7.24,54.619L590.468,247.5z M568.298,198.247c2.284-14.358,1.566-25.371-2.154-33.036
							c-3.719-7.665-10.197-12.232-19.429-13.701c-9.234-1.469-16.788,0.866-22.661,7.005c-5.875,6.139-9.954,16.389-12.238,30.746
							l-7.752,48.73c-2.297,14.441-1.57,25.515,2.185,33.226c3.753,7.712,10.246,12.301,19.48,13.77
							c9.232,1.469,16.766-0.869,22.601-7.014c5.834-6.145,9.907-16.477,12.217-30.997L568.298,198.247z"/>
					</g>
				</g>
				<g>
					<g>
						<path style="fill:#E8505B;" d="M607.328,250.182c-3.628,22.803-11.532,39.367-23.711,49.695
							c-12.182,10.329-27.103,14.087-44.765,11.277c-17.745-2.823-30.843-11.038-39.297-24.65
							c-8.454-13.61-10.868-31.815-7.24-54.618l6.38-40.104c3.614-22.72,11.517-39.287,23.711-49.695
							c12.192-10.409,27.16-14.201,44.905-11.378c17.662,2.81,30.716,11.06,39.157,24.751c8.441,13.691,10.854,31.898,7.24,54.619
							L607.328,250.182z M585.158,200.929c2.284-14.358,1.566-25.371-2.154-33.036c-3.719-7.665-10.197-12.232-19.429-13.701
							c-9.234-1.469-16.788,0.866-22.661,7.005c-5.875,6.139-9.954,16.389-12.238,30.746l-7.752,48.73
							c-2.297,14.441-1.57,25.515,2.185,33.226c3.753,7.713,10.246,12.301,19.48,13.77c9.232,1.469,16.766-0.869,22.601-7.014
							c5.834-6.145,9.907-16.477,12.217-30.997L585.158,200.929z"/>
					</g>
				</g>
				<g>
					<g>
						<path style="fill:#E8505B;" d="M498.413,194.182c0.024,0.122-4.143,1.035-9.306,2.039c-5.165,1.004-9.369,1.719-9.393,1.597
							c-0.024-0.122,4.142-1.035,9.307-2.039C494.184,194.775,498.389,194.06,498.413,194.182z"/>
					</g>
				</g>
				<g>
					<g>
						<path style="fill:#E8505B;" d="M496.712,210.167c0.024,0.122-4.143,1.035-9.306,2.039c-5.165,1.004-9.369,1.719-9.393,1.597
							c-0.024-0.122,4.142-1.035,9.307-2.04C492.482,210.76,496.688,210.045,496.712,210.167z"/>
					</g>
				</g>
				<g>
					<g>
						<path style="fill:#E8505B;" d="M495.01,226.153c0.024,0.122-4.143,1.035-9.306,2.039c-5.165,1.004-9.369,1.719-9.393,1.597
							c-0.024-0.122,4.142-1.035,9.307-2.04C490.781,226.746,494.986,226.031,495.01,226.153z"/>
					</g>
				</g>
				<g>
					<g>
						<path style="fill:#E8505B;" d="M493.309,242.139c0.024,0.122-4.143,1.035-9.306,2.039c-5.165,1.004-9.369,1.719-9.393,1.597
							c-0.024-0.122,4.142-1.035,9.307-2.04C489.079,242.732,493.285,242.017,493.309,242.139z"/>
					</g>
				</g>
				<g>
					<g>
						<path style="fill:#E8505B;" d="M491.607,258.124c0.012,0.061-0.93,0.302-2.462,0.641c-1.532,0.34-3.655,0.778-6.005,1.235
							c-2.351,0.457-4.483,0.846-6.031,1.106c-1.548,0.26-2.511,0.389-2.523,0.328c-0.012-0.061,0.93-0.302,2.462-0.641
							c1.532-0.34,3.655-0.778,6.006-1.235c2.35-0.457,4.482-0.846,6.03-1.105C490.632,258.193,491.595,258.063,491.607,258.124z"/>
					</g>
				</g>
				<g>
					<g>
						<path style="fill:#E8505B;" d="M493.681,273.361c0.012,0.061-0.808,0.278-2.144,0.579c-1.335,0.301-3.186,0.687-5.235,1.085
							c-2.05,0.399-3.911,0.735-5.262,0.956c-1.351,0.221-2.192,0.327-2.204,0.266c-0.012-0.061,0.808-0.278,2.144-0.579
							c1.335-0.301,3.186-0.687,5.236-1.086c2.049-0.399,3.91-0.735,5.261-0.956C492.828,273.406,493.67,273.3,493.681,273.361z"/>
					</g>
				</g>
				<g>
					<g>
						<path style="fill:#E8505B;" d="M501.107,288.273c0.012,0.061-0.717,0.26-1.906,0.533c-1.189,0.273-2.837,0.619-4.662,0.974
							c-1.826,0.355-3.484,0.652-4.688,0.845c-1.204,0.193-1.955,0.281-1.967,0.22c-0.012-0.061,0.717-0.26,1.906-0.533
							c1.189-0.273,2.837-0.619,4.663-0.974c1.825-0.355,3.483-0.652,4.687-0.844C500.344,288.301,501.095,288.212,501.107,288.273z
							"/>
					</g>
				</g>
				<g>
					<g>
						<path style="fill:#E8505B;" d="M515.71,299.693c0.012,0.061-0.717,0.26-1.906,0.533c-1.189,0.273-2.837,0.619-4.662,0.974
							c-1.826,0.355-3.484,0.652-4.688,0.845c-1.204,0.193-1.955,0.281-1.967,0.22c-0.012-0.061,0.717-0.26,1.906-0.533
							c1.189-0.273,2.837-0.619,4.663-0.974c1.825-0.355,3.483-0.652,4.687-0.844C514.947,299.721,515.698,299.632,515.71,299.693z"
							/>
					</g>
				</g>
				<g>
					<g>
						<path style="fill:#E8505B;" d="M569.893,274.123c0.031,0.12-5.377,1.635-12.078,3.383c-6.704,1.748-12.162,3.068-12.193,2.947
							c-0.031-0.12,5.376-1.635,12.08-3.383C564.402,275.322,569.862,274.002,569.893,274.123z"/>
					</g>
				</g>
				<g>
					<g>
						<path style="fill:#E8505B;" d="M575.475,261.122c0.031,0.12-4.435,1.389-9.975,2.834c-5.542,1.445-10.058,2.519-10.089,2.399
							c-0.031-0.12,4.434-1.389,9.976-2.835C570.927,262.075,575.444,261.001,575.475,261.122z"/>
					</g>
				</g>
				<g>
					<g>
						<path style="fill:#E8505B;" d="M579.563,246.15c0.031,0.12-4.435,1.389-9.975,2.834c-5.542,1.445-10.058,2.519-10.089,2.399
							c-0.031-0.12,4.434-1.389,9.976-2.834C575.014,247.103,579.532,246.029,579.563,246.15z"/>
					</g>
				</g>
				<g>
					<g>
						<path style="fill:#E8505B;" d="M583.651,231.177c0.031,0.12-4.435,1.39-9.975,2.834c-5.542,1.445-10.058,2.519-10.089,2.399
							c-0.031-0.12,4.434-1.389,9.976-2.834C579.102,232.131,583.619,231.057,583.651,231.177z"/>
					</g>
				</g>
				<g>
					<g>
						<path style="fill:#E8505B;" d="M587.738,216.205c0.031,0.12-4.435,1.39-9.975,2.834c-5.542,1.445-10.058,2.519-10.089,2.399
							c-0.031-0.12,4.434-1.389,9.976-2.834C583.19,217.159,587.707,216.085,587.738,216.205z"/>
					</g>
				</g>
				<g>
					<g>
						<path style="fill:#E8505B;" d="M586.999,202.132c0.031,0.12-4.435,1.39-9.975,2.834c-5.542,1.445-10.058,2.519-10.089,2.399
							c-0.031-0.12,4.434-1.389,9.976-2.834C582.451,203.086,586.968,202.012,586.999,202.132z"/>
					</g>
				</g>
				<g>
					<g>
						<path style="fill:#E8505B;" d="M589.466,187.534c0.031,0.12-4.435,1.389-9.975,2.834c-5.542,1.445-10.058,2.519-10.089,2.399
							c-0.031-0.12,4.434-1.389,9.976-2.835C584.917,188.487,589.434,187.413,589.466,187.534z"/>
					</g>
				</g>
				<g>
					<g>
						<path style="fill:#E8505B;" d="M590.273,173.53c0.031,0.12-4.435,1.39-9.975,2.834c-5.542,1.445-10.058,2.519-10.089,2.399
							c-0.031-0.12,4.434-1.389,9.976-2.834C585.725,174.483,590.242,173.409,590.273,173.53z"/>
					</g>
				</g>
				<g>
					<g>
						<path style="fill:#E8505B;" d="M578.83,161.747c0.031,0.12-2.675,0.931-6.045,1.809c-3.371,0.879-6.128,1.494-6.159,1.373
							c-0.031-0.12,2.675-0.93,6.045-1.809C576.041,162.242,578.799,161.627,578.83,161.747z"/>
					</g>
				</g>
				<g>
					<g>
						<path style="fill:#E8505B;" d="M572.839,154.7c0.031,0.12-2.675,0.931-6.045,1.809c-3.371,0.879-6.128,1.494-6.159,1.373
							c-0.031-0.12,2.675-0.93,6.045-1.809C570.05,155.195,572.808,154.58,572.839,154.7z"/>
					</g>
				</g>
				<g>
					<g>
						<path style="fill:#E8505B;" d="M502.403,175.13c0.024,0.122-4.143,1.035-9.306,2.039c-5.165,1.004-9.369,1.719-9.393,1.597
							c-0.024-0.122,4.142-1.035,9.307-2.039C498.173,175.723,502.379,175.008,502.403,175.13z"/>
					</g>
				</g>
				<g>
					<g>
						<path style="fill:#E8505B;" d="M510.603,156.221c0.024,0.122-4.494,1.104-10.089,2.192c-5.597,1.089-10.152,1.872-10.176,1.75
							c-0.024-0.122,4.493-1.103,10.09-2.192C506.023,156.882,510.579,156.099,510.603,156.221z"/>
					</g>
				</g>
				<g>
					<g>
						<path style="fill:#E8505B;" d="M526.611,138.84c0.024,0.122-5.702,1.339-12.787,2.717c-7.088,1.378-12.851,2.397-12.875,2.274
							c-0.024-0.122,5.701-1.338,12.789-2.717C520.823,139.736,526.587,138.718,526.611,138.84z"/>
					</g>
				</g>
			</g>
			<path style="fill:#E0E0E0;" d="M269.473,247.618l22.372-1.739l1.843,23.708l-22.372,1.739l3.062,39.392l-29.422,2.287
				l-3.062-39.392l-61.642,4.791l0.053-26.036l49.919-116.308l30.394-2.362L269.473,247.618z M192.513,253.6l47.538-3.695
				l-5.585-71.854l-0.749-0.186l-2.025,5.417L192.513,253.6z"/>
			<g>
				<g>
					<g>
						<path style="fill:#E8505B;" d="M255.768,236.143l22.371-1.738l1.843,23.708l-22.371,1.738l3.062,39.393l-29.423,2.287
							l-3.062-39.392l-75.988,5.906l-2.13-17.966l66.448-125.493l30.395-2.363L255.768,236.143z M178.808,242.125l47.537-3.695
							l-5.585-71.854l-0.749-0.187l-2.025,5.417L178.808,242.125z"/>
					</g>
				</g>
				<g style="opacity:0.4;">
					<g>
						<path d="M255.768,236.143l22.371-1.738l1.843,23.708l-22.371,1.738l3.062,39.393l-29.423,2.287l-3.062-39.392l-75.988,5.906
							l-2.13-17.966l66.448-125.493l30.395-2.363L255.768,236.143z M178.808,242.125l47.537-3.695l-5.585-71.854l-0.749-0.187
							l-2.025,5.417L178.808,242.125z"/>
					</g>
				</g>
				<g>
					<g>
						<path style="fill:#E8505B;" d="M236.289,237.57l22.372-1.739l1.843,23.708l-22.372,1.739l3.062,39.392l-29.422,2.287
							l-3.062-39.392l-75.988,5.906l-2.13-17.966l66.448-125.494l30.394-2.362L236.289,237.57z M159.329,243.552l47.538-3.695
							l-5.585-71.854l-0.749-0.186l-2.025,5.417L159.329,243.552z"/>
					</g>
				</g>
				<g>
					<g>
						<g>
							<path style="fill:#E8505B;" d="M188.031,226.623c0.01,0.022-0.327,0.212-0.944,0.538c-0.617,0.324-1.517,0.78-2.634,1.329
								c-2.234,1.099-5.341,2.568-8.791,4.143c-3.452,1.573-6.594,2.956-8.882,3.92c-1.144,0.483-2.074,0.862-2.72,1.114
								c-0.647,0.251-1.008,0.379-1.016,0.356c-0.008-0.022,0.337-0.193,0.969-0.482c0.683-0.31,1.587-0.72,2.679-1.216
								c2.311-1.049,5.412-2.456,8.841-4.012c3.422-1.569,6.519-2.99,8.826-4.048c1.091-0.5,1.993-0.914,2.675-1.227
								C187.667,226.75,188.022,226.601,188.031,226.623z"/>
						</g>
					</g>
					<g>
						<g>
							<path style="fill:#E8505B;" d="M198.616,207.462c0.008,0.022-0.334,0.207-0.961,0.522c-0.628,0.314-1.541,0.754-2.675,1.283
								c-2.267,1.061-5.418,2.475-8.914,3.99c-3.498,1.513-6.68,2.84-8.996,3.763c-1.157,0.463-2.098,0.825-2.751,1.065
								c-0.654,0.239-1.018,0.36-1.026,0.338c-0.007-0.023,0.344-0.187,0.984-0.466c0.689-0.297,1.605-0.691,2.715-1.169
								c2.338-1.007,5.483-2.36,8.959-3.857c3.47-1.51,6.61-2.877,8.945-3.893c1.108-0.482,2.023-0.88,2.711-1.18
								C198.249,207.583,198.608,207.44,198.616,207.462z"/>
						</g>
					</g>
					<g>
						<g>
							<path style="fill:#E8505B;" d="M254.223,224.326c0.012,0.021-0.233,0.185-0.687,0.463c-0.453,0.278-1.116,0.669-1.941,1.143
								c-1.649,0.947-3.947,2.219-6.518,3.565c-2.571,1.346-4.927,2.511-6.644,3.326c-0.859,0.408-1.557,0.73-2.044,0.944
								c-0.487,0.214-0.761,0.323-0.771,0.301c-0.011-0.022,0.243-0.171,0.712-0.423c0.535-0.28,1.202-0.629,1.994-1.043
								c1.754-0.909,4.051-2.099,6.592-3.414c2.528-1.338,4.814-2.548,6.56-3.472c0.792-0.415,1.459-0.765,1.994-1.045
								C253.943,224.429,254.211,224.305,254.223,224.326z"/>
						</g>
					</g>
					<g>
						<g>
							<path style="fill:#E8505B;" d="M278.096,237.668c0.012,0.021-0.233,0.185-0.687,0.463c-0.453,0.279-1.116,0.669-1.941,1.143
								c-1.649,0.947-3.947,2.219-6.518,3.565c-2.571,1.346-4.927,2.511-6.644,3.326c-0.859,0.408-1.557,0.73-2.044,0.944
								c-0.487,0.214-0.761,0.323-0.772,0.301c-0.01-0.022,0.243-0.171,0.712-0.423c0.535-0.28,1.202-0.629,1.994-1.043
								c1.754-0.909,4.051-2.099,6.592-3.414c2.528-1.338,4.814-2.548,6.56-3.472c0.792-0.415,1.459-0.765,1.994-1.045
								C277.816,237.771,278.084,237.647,278.096,237.668z"/>
						</g>
					</g>
					<g>
						<g>
							<path style="fill:#E8505B;" d="M279.126,249.596c0.012,0.021-0.233,0.185-0.687,0.463c-0.453,0.279-1.116,0.669-1.941,1.143
								c-1.649,0.947-3.947,2.219-6.518,3.565c-2.571,1.346-4.927,2.511-6.644,3.326c-0.859,0.408-1.557,0.73-2.044,0.944
								c-0.487,0.214-0.761,0.323-0.771,0.301c-0.011-0.022,0.243-0.171,0.712-0.423c0.535-0.28,1.202-0.629,1.994-1.043
								c1.754-0.909,4.051-2.099,6.592-3.414c2.528-1.338,4.814-2.548,6.56-3.472c0.792-0.415,1.459-0.765,1.994-1.045
								C278.847,249.699,279.114,249.575,279.126,249.596z"/>
						</g>
					</g>
					<g>
						<g>
							<path style="fill:#E8505B;" d="M257.554,260.258c0.012,0.021-0.224,0.184-0.663,0.46c-0.438,0.277-1.079,0.665-1.876,1.136
								c-1.595,0.941-3.819,2.206-6.307,3.544c-2.49,1.338-4.771,2.496-6.436,3.307c-0.832,0.405-1.509,0.726-1.982,0.939
								c-0.472,0.213-0.738,0.321-0.749,0.299c-0.011-0.022,0.235-0.17,0.688-0.421c0.52-0.28,1.166-0.626,1.931-1.037
								c1.702-0.905,3.924-2.087,6.382-3.395c2.445-1.329,4.657-2.531,6.35-3.451c0.765-0.411,1.41-0.759,1.93-1.039
								C257.282,260.36,257.542,260.237,257.554,260.258z"/>
						</g>
					</g>
					<g>
						<g>
							<path style="fill:#E8505B;" d="M258.502,273.138c0.012,0.021-0.224,0.184-0.663,0.46c-0.438,0.277-1.079,0.665-1.876,1.135
								c-1.595,0.941-3.819,2.206-6.307,3.544c-2.49,1.338-4.771,2.496-6.436,3.307c-0.832,0.405-1.509,0.726-1.982,0.939
								c-0.472,0.213-0.738,0.321-0.749,0.299c-0.011-0.022,0.235-0.17,0.688-0.421c0.52-0.28,1.166-0.626,1.931-1.037
								c1.702-0.905,3.924-2.087,6.382-3.394c2.445-1.329,4.657-2.531,6.35-3.451c0.765-0.411,1.41-0.759,1.93-1.038
								C258.231,273.24,258.49,273.118,258.502,273.138z"/>
						</g>
					</g>
					<g>
						<g>
							<path style="fill:#E8505B;" d="M259.451,286.019c0.012,0.021-0.224,0.184-0.663,0.46c-0.438,0.277-1.079,0.665-1.876,1.135
								c-1.595,0.941-3.819,2.206-6.307,3.544c-2.49,1.338-4.771,2.496-6.436,3.307c-0.832,0.405-1.509,0.726-1.982,0.939
								c-0.472,0.213-0.738,0.321-0.749,0.299c-0.011-0.022,0.235-0.17,0.688-0.421c0.52-0.279,1.166-0.626,1.931-1.037
								c1.702-0.905,3.924-2.087,6.382-3.395c2.445-1.329,4.657-2.531,6.35-3.451c0.765-0.411,1.41-0.759,1.93-1.039
								C259.179,286.121,259.439,285.998,259.451,286.019z"/>
						</g>
					</g>
					<g>
						<g>
							<path style="fill:#E8505B;" d="M253.241,210.717c0.012,0.021-0.233,0.185-0.687,0.463c-0.453,0.279-1.116,0.669-1.941,1.143
								c-1.649,0.947-3.947,2.219-6.518,3.565c-2.571,1.346-4.927,2.511-6.644,3.326c-0.859,0.408-1.557,0.73-2.044,0.944
								c-0.487,0.214-0.761,0.323-0.772,0.301c-0.01-0.022,0.243-0.171,0.712-0.423c0.535-0.28,1.202-0.629,1.994-1.043
								c1.754-0.909,4.051-2.099,6.592-3.414c2.528-1.338,4.814-2.548,6.56-3.472c0.792-0.415,1.459-0.765,1.994-1.045
								C252.962,210.819,253.23,210.696,253.241,210.717z"/>
						</g>
					</g>
					<g>
						<g>
							<path style="fill:#E8505B;" d="M252.26,197.107c0.012,0.021-0.233,0.185-0.687,0.463c-0.453,0.278-1.116,0.669-1.941,1.143
								c-1.649,0.947-3.947,2.219-6.518,3.565c-2.571,1.346-4.927,2.511-6.644,3.326c-0.859,0.408-1.557,0.73-2.044,0.944
								c-0.487,0.214-0.761,0.323-0.771,0.301c-0.01-0.022,0.243-0.171,0.712-0.423c0.535-0.28,1.202-0.629,1.994-1.043
								c1.754-0.909,4.051-2.099,6.592-3.414c2.528-1.338,4.814-2.548,6.56-3.472c0.792-0.415,1.459-0.765,1.994-1.045
								C251.981,197.21,252.248,197.086,252.26,197.107z"/>
						</g>
					</g>
					<g>
						<g>
							<path style="fill:#E8505B;" d="M250.767,181.23c0.012,0.021-0.221,0.178-0.653,0.444c-0.431,0.266-1.062,0.639-1.847,1.092
								c-1.569,0.905-3.757,2.121-6.205,3.404c-2.45,1.282-4.696,2.387-6.334,3.162c-0.819,0.387-1.485,0.693-1.949,0.896
								c-0.464,0.203-0.726,0.305-0.736,0.284c-0.01-0.022,0.231-0.165,0.677-0.406c0.514-0.269,1.149-0.602,1.9-0.995
								c1.678-0.868,3.864-1.999,6.281-3.25c2.404-1.274,4.579-2.426,6.248-3.311c0.751-0.393,1.386-0.726,1.9-0.995
								C250.5,181.326,250.755,181.209,250.767,181.23z"/>
						</g>
					</g>
					<g>
						<g>
							<path style="fill:#E8505B;" d="M249.893,164.66c0.012,0.021-0.221,0.178-0.653,0.444c-0.431,0.266-1.062,0.639-1.847,1.092
								c-1.569,0.905-3.757,2.121-6.205,3.404c-2.45,1.282-4.696,2.387-6.334,3.161c-0.819,0.387-1.485,0.693-1.949,0.896
								c-0.464,0.203-0.726,0.305-0.736,0.284c-0.011-0.022,0.231-0.165,0.677-0.406c0.514-0.269,1.149-0.602,1.9-0.995
								c1.678-0.868,3.864-1.999,6.281-3.25c2.404-1.274,4.579-2.426,6.248-3.311c0.751-0.393,1.386-0.726,1.9-0.995
								C249.626,164.756,249.882,164.639,249.893,164.66z"/>
						</g>
					</g>
					<g>
						<g>
							<path style="fill:#E8505B;" d="M248.789,147.674c0.014,0.02-0.23,0.191-0.683,0.482c-0.452,0.291-1.115,0.701-1.939,1.2
								c-1.648,0.996-3.947,2.34-6.524,3.766c-2.578,1.425-4.945,2.661-6.672,3.531c-0.864,0.435-1.566,0.779-2.057,1.009
								c-0.49,0.23-0.767,0.348-0.779,0.327c-0.012-0.021,0.241-0.179,0.71-0.445c0.541-0.299,1.209-0.669,1.999-1.106
								c1.766-0.966,4.067-2.224,6.612-3.616c2.53-1.414,4.818-2.693,6.574-3.675c0.79-0.437,1.459-0.806,1.999-1.105
								C248.506,147.786,248.776,147.654,248.789,147.674z"/>
						</g>
					</g>
					<g>
						<g>
							<path style="fill:#E8505B;" d="M248.146,131.519c0.013,0.021-0.241,0.18-0.712,0.45c-0.47,0.27-1.158,0.649-2.012,1.108
								c-1.71,0.918-4.093,2.154-6.76,3.458c-2.668,1.304-5.114,2.428-6.897,3.217c-0.892,0.394-1.617,0.706-2.122,0.913
								c-0.505,0.207-0.79,0.312-0.801,0.29s0.252-0.167,0.738-0.412c0.56-0.274,1.251-0.612,2.069-1.011
								c1.827-0.883,4.208-2.033,6.841-3.304c2.619-1.295,4.987-2.466,6.805-3.365c0.818-0.4,1.509-0.738,2.069-1.011
								C247.855,131.617,248.133,131.498,248.146,131.519z"/>
						</g>
					</g>
					<g>
						<g>
							<path style="fill:#E8505B;" d="M203.467,189.845c0.055,0.111-4.409,2.439-9.97,5.198c-5.563,2.76-10.116,4.906-10.171,4.795
								c-0.055-0.111,4.408-2.438,9.971-5.198C198.857,191.88,203.411,189.734,203.467,189.845z"/>
						</g>
					</g>
					<g>
						<g>
							<path style="fill:#E8505B;" d="M201.741,175.995c0.066,0.1-1.372,1.154-3.334,2.133c-1.96,0.985-3.665,1.506-3.705,1.393
								c-0.045-0.121,1.569-0.823,3.504-1.796C200.141,176.759,201.671,175.886,201.741,175.995z"/>
						</g>
					</g>
				</g>
			</g>
		</g>
		<g>
			<path style="fill:#E0E0E0;" d="M297.23,250.617c6.65,14.671,13.814,24.271,29.471,37.398
				c18.977,15.911,46.315,21.091,69.947,13.688c23.632-7.403,45.593-27.304,52.284-51.147"/>
			<circle style="fill:#E8505B;" cx="373.044" cy="207.916" r="87.035"/>
			<path style="opacity:0.3;" d="M346.09,125.44c-2.843,2.279,1.256,6.936,4.049,9.276c2.793,2.34,6.106,5.129,5.734,8.754
				c-8.896,1.534-18.114,3.197-25.511,8.371c-10.949,7.659-15.641,21.235-21.419,33.284c-3.524,7.348-7.664,14.402-10.857,21.899
				c-3.194,7.497-5.44,15.589-4.902,23.721c0.538,8.132,4.178,16.325,10.849,21.004s16.511,5.044,22.714-0.241
				c0.206,2.289,0.413,4.577,0.619,6.866l-2.048,22.331l50.554,3.658l5.787-151.759v-11.3
				C381.659,121.304,351.856,120.817,346.09,125.44z"/>
		</g>
		<g>
			<g>
				<path style="fill:#263238;" d="M449.261,208.206c-3.6-2.043-7.796-2.469-11.934-2.379c-4.138,0.09-8.216,1.019-12.176,2.225
					c-3.346,1.019-6.66,2.253-9.601,4.146l0.412,1.171c11.007,2.905,23.076,1.575,33.188-3.656c0.288-0.149,1.134-0.504,1.066-0.822
					C450.173,208.687,449.442,208.309,449.261,208.206z"/>
				<path style="fill:#263238;" d="M304.337,210.841c-0.842,1.382-0.395,3.297,0.325,4.746c0.72,1.449,1.93,2.591,3.177,3.622
					c3.816,3.155,8.418,5.632,13.363,5.878c4.945,0.246,10.211-2.135,12.381-6.586c0.531-1.089,1.509-2.766,1.509-2.766
					c-0.739-0.557-2.973-1.561-3.793-1.878c-4.448-1.719-8.635-3.68-13.328-4.523C313.279,208.491,308.737,209.003,304.337,210.841"
					/>
				<path style="fill:#455A64;" d="M432.386,157.61c-2.738-3.003-36.171-15.904-36.171-15.904l-31.729,2.231
					c0,0-15.466,4.014-27.077,8.225c-7.091,2.571-12.76,8.019-15.567,15.019l-17.505,43.659c0,0,2.58-1.463,10.034-1.356
					c7.658,0.11,20.721,6.25,20.721,6.25l-8.318,65.737c25.574,17.225,56.329,18.772,86.126,3.836l0.174-9.374l3.202-62.841
					c3.32-4.508,21.372-10.375,33.939-4.202C450.216,208.891,438.065,163.838,432.386,157.61z"/>
				<path style="fill:#263238;" d="M413.375,172.966c-0.03-0.008,0.018-0.285,0.131-0.783c0.105-0.5,0.324-1.208,0.65-2.062
					c0.647-1.708,1.864-3.971,3.719-6.075c1.863-2.098,3.961-3.583,5.577-4.433c0.808-0.428,1.484-0.731,1.967-0.897
					c0.48-0.174,0.75-0.255,0.761-0.226c0.031,0.076-1.019,0.486-2.572,1.4c-1.553,0.908-3.572,2.4-5.396,4.454
					c-1.816,2.061-3.05,4.246-3.762,5.898C413.733,171.896,413.455,172.988,413.375,172.966z"/>
				<path style="fill:#263238;" d="M413.464,212.39c-0.124,0-0.256-8.154-0.294-18.211c-0.038-10.061,0.032-18.214,0.156-18.214
					c0.124,0,0.256,8.152,0.294,18.213C413.658,204.234,413.588,212.389,413.464,212.39z"/>
				<path style="fill:#263238;" d="M339.163,177.043c0.124,0.013-0.7,8.558-1.838,19.082c-1.139,10.528-2.163,19.048-2.286,19.035
					c-0.124-0.013,0.699-8.556,1.839-19.083C338.016,185.552,339.04,177.029,339.163,177.043z"/>
				<path style="fill:#263238;" d="M400.521,143.453c0.015,0,0.026,0.217,0.033,0.633c0.021,0.416-0.008,1.028-0.072,1.817
					c-0.141,1.57-0.592,3.85-1.761,6.439c-1.189,2.56-3.152,5.433-6.143,7.733c-2.962,2.322-6.999,3.856-11.336,4.08
					c-4.34,0.197-8.507-0.94-11.68-2.966c-3.2-2.001-5.431-4.671-6.862-7.104c-1.414-2.464-2.082-4.689-2.374-6.238
					c-0.14-0.778-0.227-1.385-0.247-1.801c-0.034-0.414-0.044-0.631-0.029-0.633c0.056-0.006,0.101,0.868,0.447,2.397
					c0.342,1.525,1.049,3.706,2.477,6.112c1.444,2.376,3.662,4.975,6.806,6.914c3.115,1.962,7.19,3.061,11.439,2.869
					c4.247-0.22,8.195-1.707,11.106-3.96c2.942-2.233,4.899-5.034,6.107-7.538c1.189-2.533,1.682-4.773,1.875-6.323
					C400.505,144.326,400.465,143.452,400.521,143.453z"/>
				<path style="fill:#FAFAFA;" d="M335.567,201.102c-0.013,0.028-0.35-0.091-0.946-0.331c-0.595-0.244-1.459-0.586-2.532-0.994
					c-2.144-0.818-5.148-1.838-8.543-2.683c-3.398-0.84-6.531-1.341-8.808-1.62c-1.139-0.141-2.063-0.242-2.702-0.304
					c-0.639-0.067-0.993-0.118-0.991-0.149c0.002-0.031,0.358-0.039,1.003-0.026c0.645,0.009,1.576,0.062,2.725,0.163
					c2.297,0.199,5.461,0.654,8.883,1.499c3.419,0.851,6.429,1.927,8.553,2.824c1.063,0.448,1.911,0.836,2.485,1.13
					C335.268,200.901,335.58,201.074,335.567,201.102z"/>
				<path style="fill:#FAFAFA;" d="M412.94,197.604c-0.004,0.124-16.974-0.308-37.898-0.966
					c-20.932-0.658-37.891-1.292-37.888-1.417c0.004-0.124,16.97,0.308,37.902,0.966C395.981,196.846,412.944,197.48,412.94,197.604
					z"/>
				<path style="fill:#FAFAFA;" d="M442.975,185.922c-0.003,0.031-0.427,0.027-1.189-0.007c-0.761-0.042-1.865-0.067-3.226-0.058
					c-2.721,0.012-6.486,0.286-10.545,1.163c-4.058,0.888-7.598,2.202-10.078,3.32c-1.242,0.557-2.235,1.038-2.91,1.392
					c-0.679,0.347-1.063,0.527-1.079,0.5c-0.016-0.027,0.339-0.258,0.994-0.654c0.651-0.403,1.628-0.93,2.861-1.528
					c2.462-1.2,6.02-2.576,10.117-3.472c4.097-0.885,7.905-1.111,10.643-1.041c1.37,0.032,2.477,0.106,3.237,0.202
					C442.56,185.828,442.978,185.891,442.975,185.922z"/>
				<path style="fill:#FAFAFA;" d="M338.985,173.656c-0.048,0.06-0.888-0.599-2.344-1.501c-1.453-0.903-3.56-2-6.035-2.827
					c-2.479-0.819-4.824-1.2-6.529-1.345c-1.706-0.149-2.773-0.123-2.776-0.199c-0.001-0.031,0.264-0.066,0.747-0.102
					c0.483-0.042,1.184-0.051,2.05-0.017c1.731,0.065,4.128,0.402,6.649,1.236c2.518,0.84,4.641,2.004,6.067,2.987
					c0.715,0.49,1.272,0.917,1.633,1.24C338.813,173.445,339.005,173.632,338.985,173.656z"/>
				<path style="fill:#FAFAFA;" d="M407.668,172.174c-0.001,0.015-0.225,0.011-0.648-0.012c-0.467-0.031-1.082-0.072-1.851-0.123
					c-1.656-0.12-3.968-0.287-6.804-0.492c-5.745-0.406-13.686-0.897-22.466-1.245c-8.783-0.344-16.739-0.479-22.498-0.526
					c-2.843-0.019-5.161-0.034-6.821-0.045c-0.771-0.01-1.387-0.017-1.855-0.023c-0.424-0.01-0.647-0.023-0.647-0.039
					c0-0.016,0.222-0.033,0.646-0.052c0.468-0.016,1.084-0.036,1.854-0.062c1.611-0.047,3.942-0.082,6.823-0.098
					c5.762-0.035,13.726,0.05,22.516,0.395c8.786,0.348,16.731,0.89,22.473,1.378c2.871,0.243,5.193,0.462,6.795,0.635
					c0.766,0.086,1.379,0.155,1.844,0.207C407.449,172.124,407.669,172.159,407.668,172.174z"/>
				<path style="fill:#FAFAFA;" d="M359.348,151.398c-0.008,0.124-3.374,0.003-7.516-0.269c-4.144-0.273-7.495-0.595-7.487-0.719
					c0.008-0.124,3.373-0.003,7.517,0.27C356.004,150.952,359.356,151.274,359.348,151.398z"/>
				<path style="fill:#FAFAFA;" d="M419.055,150.489c0,0.124-4.352,0.225-9.718,0.225c-5.369,0-9.72-0.101-9.72-0.225
					s4.351-0.225,9.72-0.225C414.703,150.264,419.055,150.365,419.055,150.489z"/>
				<path style="fill:#FAFAFA;" d="M414.053,229.632c0,0.008-0.07,0.015-0.206,0.021c-0.163,0.004-0.362,0.01-0.605,0.016
					c-0.569,0.005-1.345,0.011-2.325,0.019c-2.019,0.011-4.941-0.012-8.551-0.073c-7.22-0.12-17.193-0.455-28.189-1.153
					c-11-0.704-20.936-1.638-28.112-2.435c-3.589-0.397-6.489-0.746-8.491-1.013c-0.971-0.132-1.739-0.237-2.304-0.314
					c-0.24-0.037-0.436-0.068-0.598-0.093c-0.134-0.023-0.203-0.039-0.202-0.047c0.001-0.008,0.071-0.007,0.207,0.001
					c0.163,0.013,0.361,0.029,0.603,0.049c0.566,0.056,1.338,0.133,2.313,0.23c2.048,0.21,4.943,0.506,8.503,0.87
					c7.182,0.716,17.115,1.599,28.108,2.302c10.989,0.698,20.953,1.082,28.168,1.284c3.578,0.09,6.487,0.164,8.546,0.216
					c0.979,0.027,1.755,0.049,2.324,0.065c0.243,0.011,0.441,0.021,0.604,0.028C413.984,229.616,414.053,229.625,414.053,229.632z"
					/>
				<path style="fill:#FAFAFA;" d="M414.641,257.546c0.001,0.008-0.07,0.028-0.211,0.062c-0.167,0.037-0.374,0.082-0.628,0.137
					c-0.59,0.118-1.4,0.28-2.426,0.485c-1.053,0.213-2.345,0.456-3.854,0.684c-1.508,0.234-3.22,0.54-5.129,0.761
					c-1.905,0.252-3.993,0.518-6.244,0.712c-2.247,0.247-4.658,0.386-7.193,0.557c-5.075,0.262-10.665,0.364-16.528,0.169
					c-5.864-0.225-11.434-0.727-16.477-1.352c-2.517-0.352-4.912-0.663-7.135-1.07c-2.232-0.355-4.296-0.77-6.178-1.157
					c-1.888-0.357-3.574-0.785-5.061-1.126c-1.489-0.335-2.76-0.669-3.795-0.957c-1.008-0.278-1.805-0.497-2.385-0.657
					c-0.25-0.074-0.452-0.133-0.617-0.182c-0.138-0.043-0.208-0.069-0.206-0.077c0.002-0.008,0.076,0.004,0.218,0.032
					c0.167,0.037,0.374,0.082,0.628,0.139c0.585,0.14,1.388,0.332,2.404,0.575c1.041,0.262,2.316,0.571,3.809,0.882
					c1.491,0.318,3.178,0.723,5.067,1.059c1.883,0.367,3.946,0.762,6.176,1.101c2.222,0.391,4.613,0.687,7.126,1.027
					c5.035,0.601,10.592,1.089,16.442,1.314c5.848,0.194,11.425,0.105,16.49-0.134c2.53-0.159,4.937-0.284,7.181-0.514
					c2.249-0.178,4.335-0.425,6.239-0.656c1.908-0.2,3.621-0.484,5.13-0.694c1.511-0.203,2.805-0.421,3.862-0.607
					c1.031-0.17,1.846-0.304,2.439-0.402c0.258-0.038,0.467-0.068,0.637-0.093C414.565,257.544,414.64,257.538,414.641,257.546z"/>
				<path style="fill:#FAFAFA;" d="M412.973,281.396c0.002,0.007-0.069,0.035-0.21,0.081c-0.167,0.051-0.375,0.115-0.631,0.194
					c-0.592,0.171-1.407,0.407-2.44,0.705c-0.532,0.146-1.119,0.328-1.77,0.489c-0.658,0.146-1.369,0.304-2.132,0.474
					c-0.767,0.169-1.586,0.35-2.452,0.541c-0.871,0.178-1.801,0.311-2.773,0.481c-0.974,0.157-1.991,0.345-3.057,0.498
					c-1.07,0.128-2.183,0.26-3.334,0.397c-0.576,0.068-1.162,0.138-1.758,0.208c-0.598,0.046-1.205,0.092-1.821,0.139
					c-1.233,0.092-2.502,0.186-3.803,0.282c-5.213,0.24-10.956,0.254-16.969-0.095c-6.012-0.398-11.709-1.129-16.856-1.99
					c-1.28-0.249-2.529-0.492-3.743-0.728c-0.606-0.12-1.204-0.238-1.792-0.355c-0.583-0.137-1.158-0.273-1.723-0.406
					c-1.129-0.267-2.219-0.524-3.268-0.772c-1.037-0.287-2.033-0.563-2.985-0.827c-7.597-2.156-12.055-4.181-12.055-4.181
					c0.003-0.007,0.077,0.012,0.219,0.057c0.166,0.056,0.372,0.125,0.626,0.21c0.58,0.206,1.379,0.489,2.391,0.848
					c0.519,0.183,1.091,0.403,1.726,0.615c0.642,0.2,1.336,0.417,2.081,0.65c0.747,0.235,1.545,0.485,2.389,0.751
					c0.848,0.258,1.759,0.481,2.708,0.743c0.952,0.254,1.947,0.52,2.984,0.797c1.048,0.239,2.138,0.487,3.265,0.745
					c0.564,0.129,1.138,0.26,1.721,0.393c0.587,0.113,1.184,0.227,1.789,0.343c1.212,0.229,2.458,0.465,3.736,0.707
					c5.137,0.837,10.818,1.552,16.813,1.95c5.996,0.348,11.721,0.346,16.92,0.13c1.297-0.09,2.563-0.178,3.792-0.263
					c0.615-0.043,1.22-0.086,1.817-0.128c0.594-0.066,1.178-0.132,1.753-0.196c1.149-0.128,2.26-0.251,3.328-0.37
					c1.064-0.144,2.08-0.32,3.053-0.467c0.971-0.159,1.901-0.281,2.771-0.448c0.867-0.179,1.685-0.347,2.453-0.505
					c0.764-0.156,1.477-0.302,2.135-0.436c0.653-0.148,1.242-0.317,1.776-0.45c1.041-0.263,1.863-0.472,2.459-0.623
					c0.261-0.061,0.473-0.111,0.643-0.151C412.895,281.401,412.971,281.388,412.973,281.396z"/>
				<path style="opacity:0.2;" d="M330.822,247.964c14.303-2.801,27.86-9.325,38.973-18.755c1.971-1.673,4.098-3.532,6.682-3.618
					c2.915-0.097,5.336,2.075,7.552,3.971c8.75,7.488,19.479,12.641,30.794,14.789c1.641-2.558,0.928-6.083-0.886-8.52
					c-1.815-2.438-4.515-4.032-7.141-5.561c-8.181-4.764-16.361-9.528-24.542-14.292c-1.863-1.085-3.922-2.21-6.05-1.869
					c-1.411,0.225-2.634,1.07-3.802,1.892c-12.783,8.991-25.567,17.983-38.35,26.974c-1.682,1.183-3.572,3.24-2.471,4.977"/>
			</g>
			<g>
				<path style="fill:#FFBE9D;" d="M306.756,210.348c0,0-5.744,17.098-6.562,20.056c-1.583,5.728-0.101,20.661,13.84,20.66
					c16.899-0.001,78.562-39.797,78.562-39.797l-12.6-7.589l-49.993,16.316l1.918-5.649
					C331.922,214.346,318.059,207.186,306.756,210.348z"/>
				<path style="fill:#FFBE9D;" d="M380.263,204.264c0,0,16.49-21.446,16.49-21.728c0-0.282,9.782-8.654,9.782-8.654
					s2.163,0.094,1.975,1.505c-0.188,1.411-3.668,6.396-3.668,6.396s-0.357,1.149-1.693,3.124c-0.972,1.437-5.832,9.951-5.832,9.951
					s4.609-4.421,5.456-3.951c0.847,0.47,1.505,1.035,1.035,2.446c-0.47,1.411-4.797,5.738-4.797,5.738s-2.54,8.936-5.361,11.476
					l-7.055,4.703L380.263,204.264z"/>
				<path style="fill:#EB996E;" d="M395.609,198.587c0.056-0.035,0.227,1.158-0.72,2.657c-0.447,0.747-1.139,1.509-1.829,2.375
					c-0.707,0.856-1.26,1.923-1.666,3.143c-0.416,1.212-0.723,2.416-1.152,3.475c-0.426,1.061-0.982,1.951-1.577,2.589
					c-0.589,0.645-1.216,1.014-1.664,1.193c-0.456,0.172-0.727,0.188-0.731,0.167c-0.041-0.079,1.08-0.274,2.156-1.57
					c0.535-0.631,1.039-1.498,1.429-2.529c0.395-1.033,0.689-2.231,1.113-3.47c0.409-1.24,1.022-2.393,1.768-3.256
					c0.726-0.874,1.424-1.594,1.885-2.288C395.592,199.688,395.541,198.573,395.609,198.587z"/>
				<path style="fill:#EB996E;" d="M404.858,182.313c-0.034,0.025-0.165-0.197-0.525-0.436c-0.353-0.237-0.976-0.447-1.738-0.344
					c-0.764,0.079-1.577,0.567-2.285,1.318c-0.707,0.749-1.374,1.719-2.131,2.68c-1.493,1.941-2.864,3.683-3.874,4.93
					c-1.01,1.247-1.66,1.999-1.709,1.961c-0.049-0.038,0.511-0.859,1.457-2.155c0.946-1.297,2.277-3.069,3.77-5.01
					c0.758-0.96,1.424-1.915,2.191-2.696c0.756-0.774,1.693-1.301,2.549-1.344c0.846-0.072,1.522,0.215,1.875,0.52
					C404.797,182.045,404.876,182.307,404.858,182.313z"/>
				<path style="fill:#EB996E;" d="M395.736,203.618c-0.125-0.046,0.516-1.954,0.981-4.377c0.478-2.422,0.6-4.43,0.733-4.426
					c0.115-0.002,0.195,2.045-0.291,4.512C396.684,201.795,395.842,203.663,395.736,203.618z"/>
				<path style="fill:#FFBE9D;" d="M443.685,206.768c0,0,6.053,17.336,6.878,20.292c1.271,4.558,0.101,20.661-13.84,20.66
					c-16.898-0.001-78.562-39.797-78.562-39.797l11.644-7.9l50.948,16.627l-1.973-5.81
					C418.78,210.841,429.297,204.533,443.685,206.768z"/>
				<path style="fill:#FFBE9D;" d="M370.494,200.919c0,0-16.49-21.446-16.49-21.728c0-0.282-9.783-8.654-9.783-8.654
					s-2.163,0.094-1.975,1.505c0.188,1.411,3.668,6.396,3.668,6.396s0.357,1.149,1.693,3.124c0.972,1.437,5.832,9.951,5.832,9.951
					s-4.609-4.421-5.456-3.951c-0.846,0.47-1.505,1.035-1.035,2.446c0.47,1.411,4.797,5.738,4.797,5.738s2.54,8.936,5.362,11.476
					l7.055,4.703L370.494,200.919z"/>
				<path style="fill:#EB996E;" d="M355.147,195.243c0.069-0.014,0.017,1.101,0.988,2.484c0.461,0.694,1.159,1.414,1.885,2.288
					c0.747,0.863,1.359,2.016,1.768,3.255c0.424,1.24,0.718,2.438,1.113,3.47c0.39,1.031,0.894,1.898,1.429,2.529
					c1.077,1.296,2.198,1.491,2.156,1.57c-0.004,0.022-0.275,0.006-0.731-0.167c-0.448-0.179-1.075-0.547-1.664-1.193
					c-0.595-0.638-1.151-1.528-1.577-2.589c-0.429-1.059-0.737-2.262-1.152-3.475c-0.406-1.22-0.959-2.287-1.666-3.143
					c-0.69-0.867-1.382-1.628-1.829-2.375C354.92,196.4,355.091,195.208,355.147,195.243z"/>
				<path style="fill:#EB996E;" d="M345.899,178.969c-0.018-0.006,0.061-0.268,0.42-0.577c0.353-0.305,1.029-0.592,1.875-0.52
					c0.855,0.043,1.792,0.57,2.549,1.344c0.767,0.781,1.434,1.735,2.191,2.695c1.493,1.941,2.824,3.714,3.77,5.01
					c0.946,1.297,1.506,2.117,1.457,2.155c-0.049,0.038-0.699-0.714-1.709-1.961c-1.01-1.247-2.381-2.989-3.874-4.93
					c-0.757-0.961-1.424-1.931-2.131-2.68c-0.708-0.75-1.521-1.239-2.285-1.318c-0.762-0.103-1.385,0.108-1.738,0.344
					C346.064,178.771,345.933,178.993,345.899,178.969z"/>
				<path style="fill:#EB996E;" d="M355.021,200.273c-0.106,0.046-0.949-1.823-1.424-4.291c-0.486-2.467-0.406-4.515-0.291-4.512
					c0.133-0.004,0.255,2.004,0.733,4.426C354.505,198.319,355.146,200.227,355.021,200.273z"/>
				<path style="fill:#EB996E;" d="M384.889,224.246c-0.065,0.106-6.338-3.62-14.009-8.32c-7.674-4.702-13.84-8.599-13.775-8.705
					c0.065-0.106,6.337,3.619,14.011,8.321C378.787,220.242,384.954,224.139,384.889,224.246z"/>
				<path style="fill:#EB996E;" d="M421.795,217.147c-0.005,0.015-0.192-0.029-0.543-0.127c-0.395-0.116-0.903-0.265-1.531-0.449
					c-1.377-0.426-3.278-1.014-5.604-1.734c-4.725-1.485-11.242-3.57-18.425-5.918c-7.186-2.348-13.676-4.519-18.358-6.138
					c-2.341-0.808-4.229-1.482-5.529-1.961c-0.611-0.234-1.105-0.423-1.49-0.57c-0.339-0.135-0.514-0.213-0.509-0.227
					c0.005-0.015,0.191,0.035,0.54,0.142c0.392,0.126,0.895,0.289,1.518,0.49c1.37,0.449,3.26,1.068,5.573,1.825
					c4.755,1.554,11.235,3.672,18.396,6.012c7.155,2.352,13.631,4.481,18.383,6.043c2.307,0.776,4.194,1.411,5.56,1.87
					c0.617,0.217,1.116,0.393,1.505,0.529C421.622,217.059,421.799,217.132,421.795,217.147z"/>
			</g>
			<g>
				<path style="fill:#FFBE9D;" d="M374.53,68.172L374.53,68.172c-12.95,0-23.573,10.266-24.002,23.209
					c-0.383,11.563-0.658,24.323-0.29,30.497c0.764,12.807,13.676,14.193,13.676,14.193l-0.009,7.84
					c-0.01,9.145,7.4,16.564,16.545,16.564l0,0c9.012,0,16.367-7.213,16.542-16.224l0.999-51.419
					C398.509,79.473,387.899,68.321,374.53,68.172z"/>
				<path style="fill:#EB996E;" d="M363.9,136.104c0,0,8.13,0.276,16.482-5.538c0,0-3.64,9.549-16.482,9V136.104z"/>
				<path style="fill:#263238;" d="M354.437,98.78c0.229,0.237,1.61-0.799,3.582-0.807c1.969-0.036,3.422,0.969,3.635,0.726
					c0.104-0.107-0.13-0.537-0.763-0.992c-0.623-0.453-1.684-0.89-2.912-0.877c-1.228,0.015-2.258,0.474-2.849,0.94
					C354.527,98.24,354.325,98.673,354.437,98.78z"/>
				<path style="fill:#263238;" d="M373.948,98.41c0.234,0.233,1.597-0.829,3.566-0.874c1.968-0.073,3.44,0.903,3.648,0.656
					c0.102-0.109-0.138-0.534-0.782-0.977c-0.631-0.441-1.7-0.858-2.928-0.821c-1.227,0.038-2.248,0.517-2.831,0.994
					C374.03,97.869,373.835,98.306,373.948,98.41z"/>
				<path style="fill:#263238;" d="M366.515,112.063c0.004-0.112-1.23-0.266-3.226-0.426c-0.505-0.028-0.986-0.106-1.087-0.445
					c-0.136-0.358,0.049-0.91,0.265-1.506c0.415-1.239,0.85-2.538,1.306-3.899c1.807-5.549,3.09-10.103,2.866-10.174
					c-0.224-0.071-1.871,4.369-3.678,9.919c-0.433,1.368-0.848,2.672-1.242,3.919c-0.163,0.58-0.46,1.244-0.167,1.986
					c0.153,0.369,0.535,0.625,0.861,0.696c0.327,0.083,0.61,0.075,0.86,0.078C365.274,112.224,366.513,112.175,366.515,112.063z"/>
				<path style="fill:#263238;" d="M372.685,93.868c0.308,0.48,2.172-0.201,4.489-0.438c2.313-0.284,4.282-0.034,4.475-0.57
					c0.083-0.255-0.345-0.675-1.195-1.015c-0.843-0.341-2.115-0.559-3.504-0.404c-1.388,0.158-2.58,0.652-3.326,1.172
					C372.871,93.134,372.547,93.638,372.685,93.868z"/>
				<path style="fill:#263238;" d="M353.788,93.8c0.251,0.527,1.788,0.445,3.503,0.866c1.728,0.365,3.081,1.108,3.531,0.741
					c0.203-0.182,0.088-0.676-0.439-1.25c-0.517-0.57-1.473-1.174-2.656-1.445c-1.183-0.269-2.303-0.14-3.012,0.15
					C353.997,93.152,353.683,93.547,353.788,93.8z"/>
				<path style="fill:#263238;" d="M374.105,116.29c-0.081,0.108-0.54-0.149-1.307-0.36c-0.759-0.215-1.869-0.344-2.995-0.017
					c-1.126,0.331-1.992,1.038-2.515,1.628c-0.533,0.591-0.781,1.054-0.908,1.007c-0.106-0.032-0.07-0.605,0.395-1.384
					c0.45-0.768,1.407-1.712,2.776-2.115c1.37-0.398,2.684-0.118,3.477,0.287C373.838,115.742,374.177,116.206,374.105,116.29z"/>
				<path style="fill:#263238;" d="M356.235,100.534c0.011,0.956,0.83,1.734,1.829,1.741c0.996,0.006,1.797-0.762,1.785-1.718
					c-0.012-0.956-0.83-1.735-1.827-1.742C357.024,98.808,356.224,99.578,356.235,100.534z"/>
				<path style="fill:#263238;" d="M375.744,99.98c0.011,0.956,0.83,1.734,1.828,1.741c0.997,0.006,1.797-0.761,1.786-1.717
					c-0.011-0.956-0.83-1.735-1.827-1.742C376.533,98.255,375.733,99.024,375.744,99.98z"/>
			</g>
			<g>
				<path style="fill:#263238;" d="M406.26,92.247c0.545-0.744,1.032-1.658,0.802-2.552c-0.266-1.036-1.392-1.64-1.781-2.636
					c-0.388-0.994,0.042-2.106,0.004-3.173c-0.052-1.476-1.001-2.772-2.075-3.786c-0.114-0.107-0.234-0.207-0.351-0.311
					c-1.457-3.262-3.396-5.696-3.396-5.696l3.315,3.079c1.159-3.232-3.558-8.946-7.45-10.621c-4.031-1.735-8.326,0-8.326,0
					s-9.805-7.385-19.4-4.987c-5.885,1.471-11.795,3.975-15.772,9.887c-1.615,0.67-2.802,2.415-3.378,4.153
					c-0.727,2.197-0.875,4.598-1.964,6.639c-0.788,1.476-2.093,2.96-1.685,4.582c0.336,1.335,1.741,2.16,2.194,3.46
					c0.454,1.305-0.154,2.726-0.138,4.108c0.024,2.107,1.711,4.075,3.79,4.421c0.583-3.48,0.995-6.987,1.251-10.506
					c1.687,1.1,5.25,2.171,12.146-0.167l8.892-5.016c0,0-4.389,3.804-2.246,4.447c1.818,0.545,11.352-4.635,14.202-6.219
					c0.852-0.473,1.82-0.723,2.788-0.622c1.3,0.136,2.816,0.858,3.132,3.397c0.271,2.175-0.995,22.55,0.881,22.563
					c1.062,0.008,5.142-1.771,5.832-2.239l0.004,9.88c0.381-0.174,0.639-0.533,0.879-0.876c1.418-2.025,2.837-4.049,4.255-6.074
					c0.973-1.388,1.953-2.791,2.598-4.359c0.644-1.568,0.933-3.337,0.476-4.969c-0.319-1.139-0.997-2.248-0.811-3.416
					C405.073,93.728,405.716,92.991,406.26,92.247z"/>
				<path style="fill:#263238;" d="M382.258,60.424c0.137-0.267,0.789-0.273,1.691,0.137c0.896,0.402,2.006,1.266,2.853,2.519
					c0.845,1.256,1.229,2.608,1.265,3.59c0.041,0.99-0.209,1.592-0.508,1.618c-0.639,0.035-1.245-1.958-2.625-3.95
					C383.606,62.313,381.986,61.003,382.258,60.424z"/>
				<path style="fill:#455A64;" d="M350.065,74.783c0.053-0.035,0.19,0.608,1.027,1.268c0.811,0.635,2.423,1.181,4.236,0.586
					c0.903-0.273,1.825-0.77,2.772-1.375c0.95-0.6,1.934-1.322,3.086-1.917c1.135-0.591,2.513-1.063,3.961-0.881
					c1.441,0.155,2.778,0.811,4.098,1.438c1.318,0.628,2.622,1.245,3.961,1.348c1.336,0.123,2.604-0.344,3.646-1.015
					c2.106-1.362,3.529-3.237,5.116-4.383c1.545-1.188,3.109-1.751,4.212-1.757c0.55-0.021,0.971,0.071,1.246,0.149
					c0.272,0.093,0.411,0.148,0.405,0.163c-0.012,0.062-0.579-0.22-1.642-0.136c-1.057,0.06-2.539,0.641-4.027,1.834
					c-1.522,1.141-2.909,3.036-5.087,4.48c-1.076,0.71-2.452,1.233-3.904,1.105c-1.45-0.109-2.8-0.755-4.122-1.382
					c-1.32-0.63-2.615-1.259-3.951-1.406c-1.332-0.174-2.615,0.249-3.724,0.812c-1.12,0.565-2.104,1.268-3.076,1.863
					c-0.968,0.599-1.929,1.098-2.88,1.364c-1.926,0.586-3.621-0.044-4.436-0.755c-0.419-0.361-0.661-0.728-0.777-0.991
					C350.085,74.935,350.054,74.786,350.065,74.783z"/>
				<path style="fill:#455A64;" d="M404.894,84.303c0.013,0.008-0.02,0.086-0.099,0.23c-0.083,0.141-0.227,0.338-0.456,0.553
					c-0.453,0.426-1.314,0.882-2.451,0.907c-1.139,0.06-2.472-0.456-3.622-1.368c-1.16-0.915-2.207-2.124-3.27-3.412
					c-2.116-2.596-3.639-5.238-4.574-7.214c-0.472-0.988-0.799-1.811-1.014-2.383c-0.206-0.576-0.303-0.9-0.275-0.911
					c0.067-0.027,0.573,1.224,1.574,3.151c1.001,1.924,2.548,4.506,4.639,7.072c1.049,1.273,2.084,2.481,3.177,3.37
					c1.092,0.89,2.304,1.39,3.362,1.376c1.06,0.016,1.88-0.361,2.341-0.723C404.693,84.586,404.857,84.278,404.894,84.303z"/>
				<path style="fill:#455A64;" d="M405.019,96.003c0.009,0.025-0.201,0.136-0.608,0.267c-0.406,0.133-1.02,0.256-1.789,0.278
					c-1.535,0.059-3.688-0.463-5.645-1.765c-1.952-1.303-3.34-2.918-4.292-4.082c-0.947-1.179-1.476-1.947-1.431-1.984
					c0.051-0.042,0.67,0.658,1.673,1.777c1.008,1.106,2.411,2.655,4.298,3.913c1.885,1.253,3.925,1.798,5.398,1.822
					C404.107,96.271,404.996,95.919,405.019,96.003z"/>
				<path style="fill:#FFBE9D;" d="M393.961,99.051c0.214-0.105,8.682-3.021,8.816,5.753c0.135,8.774-8.702,7.099-8.721,6.848
					C394.037,111.401,393.961,99.051,393.961,99.051z"/>
				<path style="fill:#EB996E;" d="M396.685,108.287c0.038-0.029,0.155,0.105,0.415,0.219c0.254,0.111,0.688,0.184,1.143,0.006
					c0.922-0.354,1.68-1.838,1.698-3.42c0.01-0.799-0.169-1.557-0.461-2.182c-0.278-0.638-0.7-1.08-1.168-1.156
					c-0.466-0.1-0.792,0.184-0.896,0.433c-0.114,0.247-0.055,0.421-0.101,0.437c-0.024,0.022-0.191-0.144-0.126-0.507
					c0.034-0.175,0.133-0.383,0.337-0.555c0.208-0.175,0.516-0.266,0.842-0.236c0.677,0.036,1.296,0.65,1.617,1.336
					c0.359,0.689,0.579,1.54,0.567,2.437c-0.029,1.769-0.909,3.437-2.171,3.823c-0.615,0.17-1.133-0.008-1.402-0.211
					C396.704,108.499,396.655,108.303,396.685,108.287z"/>
			</g>
		</g>
	</g>
	<g>
		<path style="fill:#E8505B;" d="M311.257,349.29c0,2.481-1.881,3.908-5.542,3.908h-6.906v-14.475h6.493
			c3.329,0,5.19,1.406,5.19,3.743c0,1.572-0.807,2.668-1.944,3.226C310.182,346.147,311.257,347.367,311.257,349.29z
			 M300.877,340.398v4.632h4.239c2.109,0,3.308-0.786,3.308-2.315c0-1.531-1.199-2.316-3.308-2.316H300.877z M309.169,349.124
			c0-1.675-1.241-2.419-3.536-2.419h-4.756v4.818h4.756C307.928,351.523,309.169,350.799,309.169,349.124z"/>
		<path style="fill:#E8505B;" d="M323.68,349.579h-7.692l-1.592,3.619h-2.13l6.555-14.475h2.047l6.576,14.475h-2.171L323.68,349.579
			z M322.957,347.926l-3.122-7.093l-3.123,7.093H322.957z"/>
		<path style="fill:#E8505B;" d="M329.59,338.723h6.1c4.652,0,7.816,2.937,7.816,7.237c0,4.301-3.164,7.237-7.816,7.237h-6.1
			V338.723z M335.566,351.399c3.577,0,5.872-2.193,5.872-5.439s-2.295-5.439-5.872-5.439h-3.908v10.877H335.566z"/>
		<path style="fill:#E8505B;" d="M361.903,353.198l-3.123-4.446c-0.289,0.02-0.599,0.041-0.909,0.041h-3.577v4.404h-2.068v-14.475
			h5.645c3.763,0,6.038,1.902,6.038,5.046c0,2.233-1.158,3.846-3.185,4.569l3.433,4.859H361.903z M361.841,343.769
			c0-2.068-1.386-3.247-4.033-3.247h-3.515v6.514h3.515C360.455,347.036,361.841,345.837,361.841,343.769z"/>
		<path style="fill:#E8505B;" d="M377.759,351.399v1.799h-10.504v-14.475h10.214v1.799h-8.147v4.447h7.257v1.757h-7.257v4.673
			H377.759z"/>
		<path style="fill:#E8505B;" d="M395.951,354.521c-0.931,1.096-2.193,1.696-3.64,1.696c-1.819,0-3.246-0.787-5.272-2.874
			c-4.156-0.228-7.175-3.308-7.175-7.382c0-4.239,3.266-7.402,7.713-7.402c4.404,0,7.671,3.143,7.671,7.402
			c0,3.598-2.316,6.389-5.686,7.175c0.972,1.034,1.84,1.448,2.771,1.448c1.033,0,1.902-0.414,2.647-1.241L395.951,354.521z
			 M387.577,351.523c3.205,0,5.604-2.378,5.604-5.562s-2.399-5.562-5.604-5.562c-3.247,0-5.645,2.378-5.645,5.562
			S384.33,351.523,387.577,351.523z"/>
		<path style="fill:#E8505B;" d="M398.283,346.954v-8.23h2.068v8.147c0,3.206,1.467,4.653,4.073,4.653s4.095-1.447,4.095-4.653
			v-8.147h2.005v8.23c0,4.197-2.295,6.409-6.12,6.409C400.598,353.363,398.283,351.151,398.283,346.954z"/>
		<path style="fill:#E8505B;" d="M425.263,351.399v1.799h-10.504v-14.475h10.214v1.799h-8.147v4.447h7.257v1.757h-7.257v4.673
			H425.263z"/>
		<path style="fill:#E8505B;" d="M427.285,351.543l0.764-1.612c1.076,0.972,2.916,1.675,4.777,1.675
			c2.502,0,3.577-0.972,3.577-2.233c0-3.536-8.767-1.303-8.767-6.679c0-2.233,1.736-4.135,5.541-4.135
			c1.696,0,3.453,0.455,4.653,1.282l-0.683,1.654c-1.261-0.806-2.688-1.178-3.97-1.178c-2.46,0-3.515,1.034-3.515,2.295
			c0,3.536,8.767,1.323,8.767,6.638c0,2.212-1.779,4.114-5.604,4.114C430.613,353.363,428.443,352.619,427.285,351.543z"/>
		<path style="fill:#E8505B;" d="M444.113,340.522h-4.963v-1.799h11.973v1.799h-4.963v12.676h-2.047V340.522z"/>
	</g>
</g>
<g id="Speech_Bubble">
	<g>
		<g>
			<g>
				<g>
					<g>
						<path style="fill:#FAFAFA;" d="M333.51,111.937l-9.742-17.169c4.31-6.996,6.801-15.231,6.801-24.051
							c0-25.363-20.561-45.924-45.924-45.924c-25.363,0-45.924,20.561-45.924,45.924c0,25.363,20.561,45.924,45.924,45.924
							c10.591,0,20.336-3.594,28.105-9.617l-0.016,0.021L333.51,111.937z"/>
					</g>
					<g>
						<g>
							<path style="fill:#263238;" d="M333.51,111.937c-0.893-0.205-7.529-1.726-20.805-4.768c-0.068-0.016-0.111-0.084-0.095-0.152
								c0.004-0.018,0.013-0.036,0.023-0.05l0.016-0.02l0.179,0.178c-2.62,2.028-5.757,4.026-9.445,5.691
								c-3.692,1.636-7.923,2.973-12.593,3.593c-2.331,0.297-4.768,0.489-7.271,0.367c-1.251-0.071-2.524-0.102-3.808-0.209
								c-1.276-0.193-2.569-0.389-3.88-0.587c-5.199-1.027-10.514-3.001-15.472-6.078c-4.955-3.066-9.543-7.23-13.22-12.344
								c-3.671-5.106-6.456-11.16-7.759-17.738c-1.291-6.569-1.183-13.611,0.543-20.425c1.737-6.791,4.983-13.425,9.841-18.883
								l1.875-2.063c0.616-0.694,1.352-1.266,2.019-1.902c0.699-0.602,1.33-1.284,2.081-1.815c0.736-0.551,1.471-1.1,2.204-1.648
								c0.713-0.577,1.5-1.042,2.281-1.509c0.778-0.473,1.555-0.944,2.329-1.414c0.815-0.396,1.628-0.79,2.439-1.184
								c0.818-0.377,1.604-0.823,2.462-1.094c6.669-2.648,13.782-3.656,20.581-3.163c6.801,0.489,13.308,2.44,18.891,5.582
								c5.6,3.117,10.323,7.279,13.968,11.928c3.657,4.651,6.233,9.781,7.829,14.89c1.585,5.133,2.015,10.223,1.998,14.935
								c-0.135,4.724-0.994,9.076-2.246,12.896c-1.255,3.825-2.902,7.115-4.604,9.884l0.002-0.125
								C330.046,105.743,333.083,111.172,333.51,111.937c-0.437-0.759-3.541-6.151-9.849-17.109c-0.023-0.04-0.02-0.089,0.002-0.125
								c1.676-2.764,3.296-6.043,4.525-9.848c1.226-3.8,2.062-8.124,2.18-12.812c0-4.677-0.441-9.724-2.025-14.808
								c-1.596-5.06-4.161-10.136-7.792-14.736c-3.62-4.598-8.304-8.71-13.851-11.788c-5.53-3.103-11.971-5.024-18.7-5.502
								c-6.728-0.481-13.762,0.521-20.356,3.142c-0.848,0.268-1.625,0.71-2.434,1.083c-0.802,0.39-1.605,0.78-2.411,1.172
								c-0.766,0.465-1.533,0.932-2.303,1.4c-0.773,0.462-1.551,0.922-2.256,1.493c-0.725,0.542-1.451,1.085-2.179,1.63
								c-0.744,0.526-1.366,1.201-2.058,1.796c-0.66,0.63-1.388,1.195-1.997,1.881l-1.854,2.04
								c-4.805,5.397-8.015,11.957-9.736,18.671c-1.709,6.738-1.821,13.704-0.551,20.204c1.283,6.509,4.031,12.502,7.658,17.561
								c3.633,5.068,8.168,9.198,13.07,12.244c4.904,3.057,10.166,5.025,15.316,6.057c1.299,0.2,2.581,0.397,3.845,0.592
								c1.273,0.11,2.536,0.143,3.776,0.218c2.482,0.129,4.899-0.054,7.214-0.341c4.635-0.6,8.839-1.91,12.514-3.52
								c3.67-1.638,6.798-3.608,9.416-5.609c0.056-0.043,0.136-0.033,0.179,0.022c0.036,0.047,0.034,0.111,0,0.156l-0.016,0.02
								l-0.072-0.202C326.002,110.122,332.62,111.722,333.51,111.937z"/>
						</g>
					</g>
				</g>
			</g>
		</g>
		<g>
			<g>
				<g>
					<g>
						
							<rect x="280.066" y="53.312" transform="matrix(0.698 0.7161 -0.7161 0.698 136.6316 -181.9353)" style="fill:#E8505B;" width="7.905" height="35.422"/>
					</g>
				</g>
				<g>
					<g>
						
							<rect x="280.066" y="53.312" transform="matrix(0.7161 -0.698 0.698 0.7161 31.0603 218.4102)" style="fill:#E8505B;" width="7.905" height="35.422"/>
					</g>
				</g>
			</g>
		</g>
	</g>
</g>
<g id="Floor">
	<g>
		<g>
			<path style="fill:#263238;" d="M713.663,476.296c0,0.144-150.959,0.26-337.133,0.26c-186.239,0-337.165-0.117-337.165-0.26
				c0-0.144,150.926-0.26,337.165-0.26C562.704,476.036,713.663,476.153,713.663,476.296z"/>
		</g>
	</g>
</g>
<g id="Plants">
	<g>
		<g>
			<g>
				<path style="fill:#E8505B;" d="M87.133,416.916v-11.203c-13.984,0-11.645-8.644-11.645-37.41
					c0-19.754,0.617-30.237-7.283-30.237c-7.292,0-9.041,5.12-9.041,27.597C59.165,407.289,64.721,416.916,87.133,416.916z"/>
			</g>
			<g>
				<path style="fill:#E8505B;" d="M101.717,451.601v-11.203c13.984,0,11.645-8.644,11.645-37.41
					c0-19.754-0.617-30.237,7.283-30.237c7.292,0,9.041,5.12,9.041,27.597C129.686,441.974,124.129,451.601,101.717,451.601z"/>
			</g>
			<g style="opacity:0.3;">
				<polygon points="106.613,439.874 108.797,451.185 104.99,451.524 104.421,440.263 				"/>
			</g>
			<g>
				<path style="fill:#E8505B;" d="M94.809,302.578c-11.071,0-10.251,14.485-10.251,32.222c0,17.737,0,141.068,0,141.068h10.251
					h10.251c0,0,0-123.332,0-141.068C105.06,317.063,105.881,302.578,94.809,302.578z"/>
			</g>
			<g>
				<path style="fill:#E8505B;" d="M94.809,302.578c-11.071,0-10.251,14.485-10.251,32.222c0,17.737,0,141.068,0,141.068h10.251
					h10.251c0,0,0-123.332,0-141.068C105.06,317.063,105.881,302.578,94.809,302.578z"/>
			</g>
			<g>
				<g>
					<path style="fill:#263238;" d="M88.85,476.311c0,0-0.016-0.153-0.022-0.451c-0.003-0.321-0.007-0.76-0.012-1.323
						c0.001-1.189,0.003-2.899,0.005-5.088c0.028-4.444,0.067-10.831,0.116-18.712c0.149-15.821,0.354-37.637,0.581-61.734
						c0.286-24.104,0.546-45.922,0.734-61.742c0.051-3.949,0.098-7.528,0.331-10.664c0.233-3.135,0.631-5.824,1.143-7.979
						c0.505-2.157,1.07-3.786,1.51-4.865c0.21-0.543,0.412-0.941,0.531-1.214c0.125-0.271,0.201-0.404,0.201-0.404
						s-0.044,0.148-0.153,0.425c-0.103,0.28-0.289,0.683-0.482,1.23c-0.407,1.087-0.938,2.719-1.41,4.871
						c-0.479,2.151-0.846,4.829-1.05,7.954c-0.205,3.126-0.226,6.698-0.253,10.648c-0.149,15.821-0.354,37.639-0.581,61.744
						c-0.286,24.096-0.546,45.911-0.733,61.732c-0.119,7.881-0.215,14.267-0.282,18.711c-0.044,2.189-0.079,3.898-0.103,5.087
						c-0.017,0.563-0.03,1.002-0.04,1.323C88.87,476.159,88.85,476.311,88.85,476.311z"/>
				</g>
			</g>
			<g>
				<g>
					<path style="fill:#263238;" d="M98.105,476.106c0,0-0.017-0.152-0.023-0.449c-0.004-0.32-0.008-0.757-0.014-1.318
						c-0.001-1.184-0.002-2.887-0.004-5.066c0.02-4.425,0.049-10.785,0.084-18.633c0.122-15.754,0.289-37.478,0.474-61.471
						c0.245-24.001,0.466-45.726,0.627-61.48c0.049-3.933,0.081-7.489-0.053-10.606c-0.117-3.118-0.398-5.794-0.739-7.962
						c-0.341-2.169-0.74-3.829-1.033-4.948c-0.151-0.539-0.268-0.96-0.354-1.267c-0.079-0.286-0.106-0.437-0.106-0.437
						s0.937,2.271,1.693,6.62c0.373,2.172,0.685,4.856,0.83,7.982c0.162,3.126,0.156,6.69,0.13,10.623
						c-0.121,15.754-0.289,37.48-0.474,61.482c-0.245,23.993-0.466,45.716-0.627,61.47c-0.105,7.847-0.19,14.207-0.25,18.631
						c-0.041,2.18-0.072,3.882-0.094,5.066c-0.016,0.56-0.028,0.997-0.038,1.317C98.124,475.954,98.105,476.106,98.105,476.106z"/>
				</g>
			</g>
			<g>
				<g>
					<path style="fill:#263238;" d="M105.271,451.417c-0.144,0.005-0.349-2.551-0.457-5.709c-0.109-3.159-0.08-5.723,0.063-5.728
						c0.144-0.005,0.348,2.551,0.457,5.71C105.443,448.848,105.415,451.413,105.271,451.417z"/>
				</g>
			</g>
			<g>
				<g>
					<path style="fill:#263238;" d="M121.193,372.878c0.018,0,0.036,0.278,0.055,0.808c0.014,0.578,0.032,1.349,0.055,2.317
						c0.026,2.066,0.062,4.964,0.106,8.522c0.04,7.242,0.094,17.16,0.154,28.116c0.031,5.482-0.01,10.768-0.982,15.471
						c-0.904,4.709-2.865,8.716-5.213,11.483c-2.325,2.799-4.892,4.415-6.772,5.143c-1.886,0.751-3.02,0.826-3.02,0.826
						c-0.017-0.067,1.104-0.214,2.94-1.012c1.831-0.776,4.318-2.41,6.567-5.19c2.272-2.754,4.158-6.689,5.027-11.344
						c0.934-4.647,0.963-9.891,0.932-15.376c0-10.956-0.001-20.874-0.001-28.116c0.025-3.559,0.045-6.457,0.059-8.522
						c0.018-0.968,0.032-1.739,0.043-2.317C121.158,373.156,121.175,372.878,121.193,372.878z"/>
				</g>
			</g>
			<g>
				<g>
					<path style="fill:#263238;" d="M84.544,405.288c0.144,0,0.26,2.882,0.26,6.436c0,3.555-0.117,6.437-0.26,6.437
						c-0.144,0-0.26-2.881-0.26-6.437C84.284,408.17,84.401,405.288,84.544,405.288z"/>
				</g>
			</g>
			<g>
				<g>
					<path style="fill:#263238;" d="M67.667,338.077c0.018,0.001,0.025,0.284,0.023,0.823c-0.009,0.586-0.021,1.371-0.037,2.357
						c-0.06,2.098-0.145,5.044-0.249,8.663c-0.216,7.313-0.635,17.416-0.492,28.571c0.13,5.573,0.084,10.923,1.242,15.606
						c1.09,4.674,2.987,8.698,5.399,11.409c2.39,2.748,5.071,4.193,6.99,4.811c1.938,0.625,3.097,0.595,3.087,0.667
						c0,0-1.159,0.101-3.148-0.474c-1.968-0.568-4.733-1.99-7.205-4.76c-2.499-2.739-4.461-6.816-5.59-11.544
						c-1.199-4.752-1.165-10.141-1.296-15.708c-0.143-11.176,0.335-21.283,0.645-28.592c0.173-3.616,0.314-6.56,0.415-8.656
						c0.056-0.984,0.101-1.767,0.134-2.353C67.621,338.358,67.649,338.076,67.667,338.077z"/>
				</g>
			</g>
			<g style="opacity:0.3;">
				<path d="M81.765,416.692l0.418-11.515l2.383,0.408l-0.022,11.284C84.544,416.868,82.181,416.732,81.765,416.692z"/>
			</g>
			<g>
				<g>
					<path style="fill:#263238;" d="M61.394,376.146c0.021,0.142-1.07,0.424-2.438,0.629c-1.368,0.205-2.494,0.256-2.515,0.114
						c-0.021-0.142,1.07-0.424,2.438-0.629C60.247,376.054,61.373,376.004,61.394,376.146z"/>
				</g>
			</g>
			<g>
				<g>
					<path style="fill:#263238;" d="M61.146,365.002c-0.028,0.141-1.16,0.034-2.527-0.24c-1.368-0.274-2.454-0.61-2.425-0.751
						c0.028-0.141,1.16-0.034,2.528,0.24C60.089,364.525,61.175,364.861,61.146,365.002z"/>
				</g>
			</g>
			<g>
				<g>
					<path style="fill:#263238;" d="M56.689,347.172c0.05-0.129,1.239,0.232,2.501,1.078c1.266,0.84,2.057,1.798,1.957,1.894
						c-0.105,0.107-1.028-0.654-2.246-1.461C57.688,347.869,56.631,347.31,56.689,347.172z"/>
				</g>
			</g>
			<g>
				<g>
					<path style="fill:#263238;" d="M63.87,335.78c0.134-0.053,0.685,1.012,1.232,2.38c0.547,1.368,0.882,2.52,0.749,2.573
						c-0.133,0.053-0.685-1.012-1.232-2.38C64.072,336.986,63.737,335.834,63.87,335.78z"/>
				</g>
			</g>
			<g>
				<g>
					<path style="fill:#263238;" d="M74.055,336.54c0.126,0.068-0.492,1.454-1.381,3.095c-0.889,1.641-1.713,2.916-1.839,2.848
						c-0.126-0.069,0.492-1.454,1.381-3.096C73.105,337.747,73.928,336.472,74.055,336.54z"/>
				</g>
			</g>
			<g>
				<g>
					<path style="fill:#263238;" d="M77.491,349.896c0.038,0.139-0.928,0.528-2.159,0.87c-1.231,0.342-2.26,0.507-2.299,0.368
						c-0.038-0.138,0.928-0.528,2.159-0.87C76.423,349.922,77.452,349.757,77.491,349.896z"/>
				</g>
			</g>
			<g>
				<g>
					<path style="fill:#263238;" d="M71.795,364.259c-0.106,0.097-0.747-0.435-1.431-1.187c-0.684-0.752-1.152-1.441-1.046-1.537
						c0.106-0.097,0.747,0.435,1.431,1.187C71.433,363.474,71.901,364.162,71.795,364.259z"/>
				</g>
			</g>
			<g>
				<g>
					<path style="fill:#263238;" d="M76.472,378.651c-0.098,0.105-1.008-0.588-2.031-1.548c-1.024-0.96-1.773-1.823-1.675-1.928
						c0.098-0.105,1.008,0.588,2.031,1.548C75.821,377.683,76.571,378.547,76.472,378.651z"/>
				</g>
			</g>
			<g>
				<g>
					<path style="fill:#263238;" d="M62.632,384.813c0.098,0.105-0.709,1.022-1.803,2.047c-1.094,1.026-2.061,1.772-2.159,1.667
						c-0.098-0.105,0.709-1.021,1.803-2.047C61.567,385.455,62.534,384.708,62.632,384.813z"/>
				</g>
			</g>
			<g>
				<g>
					<path style="fill:#263238;" d="M64.366,397.443c-0.136-0.046,0.03-0.914,0.372-1.94c0.342-1.026,0.73-1.82,0.866-1.775
						c0.136,0.046-0.03,0.914-0.372,1.94C64.89,396.693,64.502,397.488,64.366,397.443z"/>
				</g>
			</g>
			<g>
				<g>
					<path style="fill:#263238;" d="M65.637,412.068c-0.131-0.059,0.368-1.44,1.115-3.083c0.747-1.644,1.459-2.928,1.59-2.868
						c0.131,0.06-0.368,1.44-1.116,3.084C66.48,410.844,65.768,412.128,65.637,412.068z"/>
				</g>
			</g>
			<g>
				<g>
					<path style="fill:#263238;" d="M74.075,418.749c-0.142-0.025-0.03-1.32,0.249-2.892c0.279-1.572,0.62-2.826,0.762-2.801
						c0.142,0.025,0.03,1.32-0.249,2.892C74.558,417.52,74.217,418.774,74.075,418.749z"/>
				</g>
			</g>
			<g>
				<g>
					<path style="fill:#263238;" d="M78.494,396.639c-0.031,0.14-1.107,0.022-2.403-0.265c-1.297-0.287-2.322-0.633-2.291-0.774
						c0.031-0.14,1.107-0.022,2.404,0.265C77.5,396.153,78.526,396.499,78.494,396.639z"/>
				</g>
			</g>
			<g>
				<g>
					<path style="fill:#263238;" d="M77.491,388.032c-0.027,0.141-0.935,0.09-2.029-0.115c-1.094-0.205-1.96-0.486-1.933-0.627
						c0.026-0.141,0.935-0.09,2.029,0.116C76.652,387.61,77.517,387.891,77.491,388.032z"/>
				</g>
			</g>
			<g style="opacity:0.3;">
				<g>
					<path d="M67.645,338.69c0.352,0.007,0.563,4.449,0.276,11.596c-0.135,3.572-0.38,7.818-0.66,12.52
						c-0.273,4.701-0.599,9.865-0.714,15.259c-0.138,5.388,0.226,10.442,1.271,14.936c0.522,2.246,1.094,4.376,1.849,6.231
						c0.755,1.867,1.661,3.514,2.659,4.889c1.991,2.773,4.354,4.339,6.084,5.171c1.743,0.836,2.829,1.108,2.788,1.317
						c-0.02,0.143-1.172,0.219-3.161-0.374c-1.963-0.584-4.771-2.071-7.163-4.981c-1.196-1.438-2.285-3.187-3.192-5.171
						c-0.915-1.999-1.587-4.194-2.197-6.523c-1.23-4.677-1.686-10.051-1.541-15.544c0.117-5.491,0.519-10.678,0.924-15.385
						c0.413-4.706,0.848-8.93,1.217-12.475C66.84,343.068,67.277,338.682,67.645,338.69z"/>
				</g>
			</g>
			<g>
				<g>
					<path style="fill:#263238;" d="M115.494,424.177c0,0.144-1.01,0.26-2.256,0.26c-1.246,0-2.256-0.117-2.256-0.26
						s1.01-0.26,2.256-0.26C114.484,423.917,115.494,424.033,115.494,424.177z"/>
				</g>
			</g>
			<g>
				<g>
					<path style="fill:#263238;" d="M115.362,413.293c-0.031,0.141-1.006,0.046-2.179-0.21c-1.173-0.257-2.099-0.578-2.068-0.719
						c0.031-0.14,1.006-0.046,2.179,0.21C114.467,412.83,115.393,413.152,115.362,413.293z"/>
				</g>
			</g>
			<g>
				<g>
					<path style="fill:#263238;" d="M115.89,401.115c-0.012,0.143-1.18,0.164-2.608,0.046c-1.429-0.118-2.577-0.33-2.565-0.473
						c0.012-0.143,1.179-0.164,2.608-0.046C114.753,400.76,115.901,400.972,115.89,401.115z"/>
				</g>
			</g>
			<g>
				<g>
					<path style="fill:#263238;" d="M114.167,390.337c-0.059,0.131-0.968-0.149-2.031-0.625c-1.063-0.477-1.877-0.969-1.818-1.1
						c0.059-0.131,0.968,0.149,2.031,0.625C113.412,389.713,114.226,390.206,114.167,390.337z"/>
				</g>
			</g>
			<g>
				<g>
					<path style="fill:#263238;" d="M115.229,381.18c-0.074,0.119-1.08-0.385-2.123-1.283c-1.047-0.894-1.699-1.811-1.592-1.902
						c0.11-0.098,0.915,0.639,1.931,1.507C114.456,380.373,115.308,381.056,115.229,381.18z"/>
				</g>
			</g>
			<g>
				<g>
					<path style="fill:#263238;" d="M118.402,374.418c-0.13,0.063-0.651-0.748-1.165-1.81c-0.514-1.063-0.826-1.974-0.696-2.037
						c0.129-0.063,0.651,0.748,1.165,1.81C118.219,373.443,118.531,374.355,118.402,374.418z"/>
				</g>
			</g>
			<g>
				<g>
					<path style="fill:#263238;" d="M127.45,372.033c0.114,0.094-0.385,0.878-0.975,1.846c-0.594,0.966-1.064,1.768-1.199,1.709
						c-0.13-0.054,0.139-0.979,0.755-1.981C126.643,372.604,127.343,371.943,127.45,372.033z"/>
				</g>
			</g>
			<g>
				<g>
					<path style="fill:#263238;" d="M131.684,383.967c0.03,0.137-1.046,0.481-2.423,0.59c-1.378,0.114-2.494-0.052-2.487-0.192
						c0.006-0.147,1.103-0.216,2.445-0.327C130.56,383.932,131.654,383.823,131.684,383.967z"/>
				</g>
			</g>
			<g>
				<g>
					<path style="fill:#263238;" d="M131.552,392.595c0.068,0.127-0.859,0.76-2.071,1.414c-1.212,0.655-2.25,1.082-2.319,0.956
						c-0.068-0.126,0.859-0.76,2.071-1.414C130.446,392.896,131.484,392.468,131.552,392.595z"/>
				</g>
			</g>
			<g>
				<g>
					<path style="fill:#263238;" d="M131.801,406.693c-0.062,0.13-0.915-0.15-1.906-0.624c-0.99-0.475-1.743-0.965-1.681-1.094
						c0.062-0.13,0.915,0.15,1.906,0.625C131.111,406.073,131.863,406.563,131.801,406.693z"/>
				</g>
			</g>
			<g>
				<g>
					<path style="fill:#263238;" d="M131.012,414.472c0.062,0.13-0.63,0.591-1.546,1.031c-0.916,0.44-1.709,0.692-1.771,0.562
						c-0.062-0.13,0.63-0.591,1.546-1.031C130.157,414.594,130.95,414.342,131.012,414.472z"/>
				</g>
			</g>
			<g>
				<g>
					<path style="fill:#263238;" d="M128.914,430.93c-0.106,0.097-0.787-0.479-1.519-1.285c-0.733-0.807-1.24-1.539-1.134-1.635
						c0.106-0.097,0.787,0.479,1.519,1.285C128.513,430.101,129.02,430.833,128.914,430.93z"/>
				</g>
			</g>
			<g>
				<g>
					<path style="fill:#263238;" d="M123.589,445.277c-0.148,0.013-0.357-1.161-0.722-2.573c-0.359-1.413-0.741-2.543-0.605-2.603
						c0.125-0.059,0.737,1.011,1.109,2.474C123.749,444.036,123.727,445.269,123.589,445.277z"/>
				</g>
			</g>
			<g>
				<g>
					<path style="fill:#263238;" d="M113.936,452.711c-0.143-0.01-0.178-1.148-0.078-2.541c0.1-1.394,0.298-2.514,0.442-2.504
						c0.143,0.01,0.178,1.148,0.078,2.542C114.277,451.601,114.079,452.722,113.936,452.711z"/>
				</g>
			</g>
			<g>
				<g>
					<path style="fill:#263238;" d="M113.364,435.998c-0.079,0.12-1.004-0.347-2.066-1.044c-1.063-0.697-1.86-1.359-1.781-1.479
						c0.079-0.12,1.004,0.347,2.067,1.044C112.645,435.216,113.443,435.878,113.364,435.998z"/>
				</g>
			</g>
			<g>
				<g>
					<path style="fill:#263238;" d="M125.705,410.119c-0.094,0.109-0.794-0.336-1.564-0.995c-0.77-0.659-1.319-1.282-1.225-1.391
						c0.093-0.109,0.793,0.336,1.564,0.995C125.25,409.387,125.798,410.01,125.705,410.119z"/>
				</g>
			</g>
			<g>
				<g>
					<path style="fill:#263238;" d="M118.837,392.486c0.101,0.102-0.534,0.894-1.418,1.768c-0.885,0.875-1.684,1.501-1.785,1.398
						c-0.101-0.102,0.534-0.894,1.419-1.769C117.937,393.01,118.736,392.384,118.837,392.486z"/>
				</g>
			</g>
			<g>
				<g>
					<path style="fill:#263238;" d="M126.362,378.635c0.072,0.125-0.539,0.609-1.363,1.081c-0.824,0.472-1.55,0.754-1.622,0.629
						c-0.071-0.125,0.539-0.609,1.363-1.081C125.564,378.792,126.291,378.51,126.362,378.635z"/>
				</g>
			</g>
			<g>
				<g>
					<path style="fill:#263238;" d="M118.501,442.841c-0.132,0.057-0.527-0.569-0.882-1.396c-0.355-0.828-0.535-1.545-0.403-1.601
						c0.132-0.057,0.527,0.568,0.882,1.396C118.452,442.068,118.633,442.785,118.501,442.841z"/>
				</g>
			</g>
			<g>
				<g>
					<path style="fill:#263238;" d="M86.969,349.527c-0.008,0.144-1.262,0.195-2.802,0.114c-1.54-0.081-2.782-0.263-2.775-0.406
						c0.008-0.143,1.262-0.194,2.802-0.113C85.734,349.201,86.977,349.383,86.969,349.527z"/>
				</g>
			</g>
			<g>
				<g>
					<path style="fill:#263238;" d="M86.086,333.44c-0.055,0.133-1.216-0.219-2.594-0.786c-1.378-0.567-2.45-1.135-2.396-1.268
						c0.055-0.133,1.216,0.219,2.594,0.786C85.068,332.739,86.14,333.307,86.086,333.44z"/>
				</g>
			</g>
			<g>
				<g>
					<path style="fill:#263238;" d="M87.553,313.484c-0.016,0.134-1.356,0.018-2.796-0.751c-1.445-0.759-2.295-1.802-2.193-1.891
						c0.106-0.109,1.071,0.716,2.437,1.431C86.359,313,87.584,313.334,87.553,313.484z"/>
				</g>
			</g>
			<g>
				<g>
					<path style="fill:#263238;" d="M91.243,304.161c-0.126,0.069-0.805-0.935-1.515-2.242c-0.71-1.307-1.183-2.422-1.057-2.491
						c0.126-0.069,0.804,0.935,1.515,2.242C90.896,302.977,91.369,304.092,91.243,304.161z"/>
				</g>
			</g>
			<g>
				<g>
					<path style="fill:#263238;" d="M103.962,301.429c0.111,0.092-0.604,1.138-1.597,2.336c-0.993,1.199-1.888,2.096-1.999,2.004
						c-0.111-0.092,0.604-1.138,1.597-2.337C102.956,302.235,103.851,301.338,103.962,301.429z"/>
				</g>
			</g>
			<g>
				<g>
					<path style="fill:#263238;" d="M107.193,315.212c0.083,0.117-0.771,0.866-1.908,1.673c-1.137,0.807-2.127,1.366-2.21,1.248
						c-0.083-0.117,0.771-0.866,1.909-1.673C106.12,315.654,107.11,315.095,107.193,315.212z"/>
				</g>
			</g>
			<g>
				<g>
					<path style="fill:#263238;" d="M108.683,334.32c0.037,0.139-0.918,0.514-2.134,0.839c-1.216,0.324-2.231,0.474-2.268,0.335
						c-0.037-0.139,0.918-0.514,2.134-0.839C107.631,334.332,108.646,334.181,108.683,334.32z"/>
				</g>
			</g>
			<g>
				<g>
					<path style="fill:#263238;" d="M107.8,350.51c-0.007,0.144-1.197,0.198-2.655,0.122c-1.459-0.076-2.636-0.254-2.628-0.398
						c0.007-0.144,1.196-0.198,2.655-0.122C106.631,350.188,107.808,350.366,107.8,350.51z"/>
				</g>
			</g>
			<g>
				<g>
					<path style="fill:#263238;" d="M108.096,366.896c0.07,0.126-1.056,0.885-2.515,1.695c-1.459,0.811-2.698,1.366-2.768,1.24
						c-0.07-0.126,1.056-0.884,2.515-1.695C106.787,367.326,108.026,366.77,108.096,366.896z"/>
				</g>
			</g>
			<g>
				<g>
					<path style="fill:#263238;" d="M85.49,374.863c-0.03,0.141-1.302-0.01-2.841-0.337c-1.54-0.327-2.763-0.706-2.733-0.846
						c0.03-0.141,1.302,0.01,2.841,0.337C84.296,374.344,85.519,374.723,85.49,374.863z"/>
				</g>
			</g>
			<g>
				<g>
					<path style="fill:#263238;" d="M86.034,389.138c0.092,0.111-0.879,1.063-2.167,2.127c-1.288,1.064-2.407,1.836-2.498,1.726
						c-0.092-0.111,0.878-1.063,2.167-2.127C84.824,389.799,85.943,389.027,86.034,389.138z"/>
				</g>
			</g>
			<g>
				<g>
					<path style="fill:#263238;" d="M86.365,431.771c-0.092,0.111-1.35-0.785-2.809-1.999c-1.46-1.215-2.568-2.289-2.476-2.4
						c0.092-0.111,1.349,0.785,2.809,2C85.348,430.586,86.457,431.661,86.365,431.771z"/>
				</g>
			</g>
			<g>
				<g>
					<path style="fill:#263238;" d="M85.792,443.787c0.093,0.11-0.686,0.921-1.739,1.813c-1.054,0.892-1.983,1.525-2.076,1.415
						c-0.093-0.11,0.686-0.921,1.74-1.813C84.77,444.311,85.699,443.677,85.792,443.787z"/>
				</g>
			</g>
			<g>
				<g>
					<path style="fill:#263238;" d="M106.893,417.041c0.086,0.115-0.897,0.995-2.196,1.964c-1.299,0.97-2.422,1.662-2.508,1.547
						c-0.086-0.115,0.897-0.994,2.196-1.964C105.684,417.619,106.807,416.926,106.893,417.041z"/>
				</g>
			</g>
			<g>
				<g>
					<path style="fill:#263238;" d="M107.216,396.537c0.089,0.103-0.893,1.019-2.416,1.606c-1.52,0.596-2.862,0.584-2.866,0.449
						c-0.016-0.151,1.238-0.367,2.678-0.934C106.055,397.103,107.125,396.415,107.216,396.537z"/>
				</g>
			</g>
			<g>
				<g>
					<path style="fill:#263238;" d="M107.516,381.553c-0.053,0.134-1.082-0.152-2.298-0.637c-1.216-0.486-2.159-0.987-2.105-1.121
						c0.053-0.133,1.082,0.152,2.298,0.637C106.627,380.918,107.569,381.42,107.516,381.553z"/>
				</g>
			</g>
			<g>
				<g>
					<path style="fill:#263238;" d="M108.656,457.521c0.061,0.13-1.139,0.824-2.68,1.55c-1.542,0.726-2.841,1.209-2.902,1.079
						c-0.061-0.13,1.138-0.824,2.68-1.55C107.295,457.874,108.594,457.391,108.656,457.521z"/>
				</g>
			</g>
			<g>
				<g>
					<path style="fill:#263238;" d="M85.806,362.479c-0.096,0.107-1.355-0.858-2.812-2.156c-1.458-1.299-2.561-2.438-2.465-2.545
						c0.096-0.107,1.354,0.858,2.812,2.156C84.798,361.232,85.901,362.371,85.806,362.479z"/>
				</g>
			</g>
			<g>
				<g>
					<path style="fill:#263238;" d="M109.27,354.864c0.078,0.121-0.975,0.941-2.353,1.833c-1.378,0.892-2.558,1.516-2.636,1.396
						c-0.078-0.121,0.975-0.941,2.353-1.833C108.012,355.368,109.192,354.743,109.27,354.864z"/>
				</g>
			</g>
			<g>
				<g>
					<path style="fill:#263238;" d="M85.205,322.875c-0.02,0.142-0.957,0.126-2.091-0.036c-1.135-0.162-2.038-0.409-2.018-0.551
						c0.02-0.142,0.956-0.126,2.091,0.036C84.322,322.486,85.226,322.733,85.205,322.875z"/>
				</g>
			</g>
			<g>
				<g>
					<path style="fill:#263238;" d="M107.509,324.049c0.048,0.135-0.832,0.574-1.967,0.979c-1.135,0.405-2.094,0.624-2.142,0.489
						c-0.048-0.135,0.832-0.574,1.967-0.979C106.502,324.132,107.461,323.913,107.509,324.049z"/>
				</g>
			</g>
			<g>
				<g>
					<path style="fill:#263238;" d="M95.792,358.99c0.112,0.09-0.587,1.147-1.562,2.361c-0.975,1.214-1.856,2.125-1.968,2.035
						c-0.112-0.09,0.587-1.147,1.562-2.361C94.799,359.811,95.68,358.9,95.792,358.99z"/>
				</g>
			</g>
			<g>
				<g>
					<path style="fill:#263238;" d="M95.77,343.712c-0.076,0.113-1.036-0.46-1.802-1.574c-0.774-1.11-0.972-2.21-0.839-2.241
						c0.144-0.046,0.545,0.914,1.267,1.945C95.107,342.879,95.864,343.593,95.77,343.712z"/>
				</g>
			</g>
			<g>
				<g>
					<path style="fill:#263238;" d="M95.477,321.994c0.095,0.117-0.721,0.901-1.514,2.021c-0.803,1.114-1.279,2.14-1.421,2.087
						c-0.131-0.039,0.146-1.206,0.997-2.39C94.383,322.525,95.398,321.883,95.477,321.994z"/>
				</g>
			</g>
			<g>
				<g>
					<path style="fill:#263238;" d="M93.716,380.983c-0.136-0.048,0.083-1.007,0.488-2.142c0.405-1.135,0.843-2.015,0.979-1.967
						c0.135,0.048-0.083,1.007-0.489,2.142C94.29,380.151,93.852,381.031,93.716,380.983z"/>
				</g>
			</g>
			<g>
				<g>
					<path style="fill:#263238;" d="M90.419,412.418c-0.129,0.063-0.965-1.394-1.866-3.253c-0.901-1.86-1.527-3.417-1.398-3.48
						c0.129-0.063,0.965,1.393,1.866,3.253C89.923,410.797,90.549,412.355,90.419,412.418z"/>
				</g>
			</g>
			<g>
				<g>
					<path style="fill:#263238;" d="M96.295,417.341c0.127,0.067-0.629,1.76-1.69,3.782c-1.061,2.023-2.024,3.608-2.151,3.541
						c-0.127-0.067,0.629-1.76,1.69-3.783C95.205,418.86,96.168,417.275,96.295,417.341z"/>
				</g>
			</g>
			<g>
				<g>
					<path style="fill:#263238;" d="M96.012,450.856c-0.128,0.065-0.961-1.325-1.86-3.104c-0.899-1.779-1.524-3.274-1.395-3.339
						c0.128-0.065,0.961,1.325,1.86,3.104C95.516,449.296,96.141,450.791,96.012,450.856z"/>
				</g>
			</g>
			<g>
				<g>
					<path style="fill:#263238;" d="M94.009,461.102c0.12,0.08-0.44,1.13-1.251,2.345c-0.811,1.216-1.565,2.137-1.684,2.057
						c-0.12-0.08,0.44-1.13,1.251-2.346C93.136,461.943,93.89,461.022,94.009,461.102z"/>
				</g>
			</g>
		</g>
		<g style="opacity:0.3;">
			<g>
				<path d="M98.68,305.67c0.719,0,1.302,37.994,1.302,84.851c0,46.874-0.583,84.859-1.302,84.859
					c-0.719,0-1.302-37.986-1.302-84.859C97.379,343.664,97.962,305.67,98.68,305.67z"/>
			</g>
		</g>
		<g style="opacity:0.3;">
			<g>
				<path d="M122.227,374.168c0.354-0.008,0.777,4.333,0.984,11.359c0.227,7.032,0.179,16.705,0.369,27.397
					c0.06,5.395-0.243,10.618-1.313,15.283c-0.542,2.327-1.276,4.508-2.21,6.449c-0.935,1.896-1.827,3.589-2.844,5.128
					c-0.992,1.533-2.215,2.805-3.471,3.621c-1.252,0.83-2.458,1.239-3.427,1.508c-1.955,0.511-3.062,0.517-3.098,0.364
					c-0.049-0.195,1-0.545,2.754-1.317c0.868-0.396,1.913-0.91,2.915-1.732c1.007-0.815,1.944-1.946,2.765-3.417
					c0.826-1.447,1.637-3.208,2.442-5.05c0.774-1.815,1.382-3.858,1.83-6.061c0.883-4.419,1.114-9.447,1.054-14.75
					c-0.19-10.716,0.149-20.429,0.394-27.429C121.634,378.514,121.862,374.176,122.227,374.168z"/>
			</g>
		</g>
	</g>
	<g>
		<g>
			<path style="fill:#E8505B;" d="M658.8,395.575c-3.105-1.33-5.666-3.883-7.006-6.984c-0.556-1.287-0.57-3.28,0.802-3.569
				c0.841-0.177,1.607,0.478,2.216,1.083c2.038,2.021,4.076,4.042,6.114,6.063c-1.202-3.187-1.046-6.861,0.42-9.935
				c0.525-1.1,1.61-2.275,2.754-1.855c0.903,0.332,1.189,1.443,1.348,2.392c0.489,2.921,0.977,5.841,1.466,8.762
				c0.803-3.396,2.471-6.584,4.804-9.18c0.85-0.946,2.211-1.873,3.288-1.196c0.948,0.596,0.902,1.975,0.7,3.076
				c-0.504,2.74-1.272,5.431-2.292,8.024c2.604-2.305,6.028-3.663,9.504-3.769c1.023-0.031,2.178,0.106,2.813,0.909
				c0.947,1.198,0.117,2.966-0.893,4.11c-2.994,3.392-10.023,4.264-14.537,3.967"/>
		</g>
		<g>
			<path style="fill:#455A64;" d="M685.849,402.791c-10.949-8.619-30.193-9.839-42.864-4.041
				c-14.304,6.546-23.671,21.781-25.07,36.373c-1.33,13.871,5.357,27.939,11.043,40.661l55.287,0.253
				c6.638-10.958,13.539-23.221,13.994-36.025C698.693,427.208,695.916,410.715,685.849,402.791z"/>
		</g>
		<g>
			<g>
				<path style="fill:#263238;" d="M661.046,395.18c0.001,0.009-0.081,0.034-0.244,0.075c-0.193,0.045-0.43,0.1-0.722,0.168
					c-0.331,0.072-0.722,0.157-1.176,0.256c-0.467,0.089-1.001,0.211-1.584,0.416c-2.38,0.631-5.73,2.001-9.366,4.487
					c-3.651,2.466-7.373,6.281-10.668,11.078c-1.611,2.428-3.113,5.097-4.47,7.964c-1.31,2.887-2.488,5.963-3.435,9.187
					c-1.885,6.462-1.911,13.012-0.934,18.742c0.946,5.758,2.649,10.765,4.169,14.91c1.534,4.146,2.898,7.459,3.804,9.763
					c0.436,1.123,0.781,2.011,1.032,2.658c0.104,0.282,0.187,0.511,0.256,0.696c0.055,0.158,0.079,0.241,0.071,0.244
					c-0.008,0.003-0.049-0.073-0.12-0.224c-0.081-0.18-0.181-0.403-0.304-0.677c-0.273-0.637-0.648-1.512-1.122-2.62
					c-0.963-2.28-2.379-5.571-3.961-9.711c-1.567-4.138-3.316-9.155-4.297-14.96c-1.012-5.776-1.003-12.419,0.907-18.966
					c0.956-3.254,2.145-6.348,3.473-9.257c1.375-2.887,2.899-5.576,4.536-8.018c3.348-4.828,7.139-8.658,10.857-11.112
					c3.702-2.474,7.109-3.804,9.521-4.379c0.592-0.192,1.132-0.299,1.605-0.372c0.459-0.08,0.855-0.15,1.19-0.208
					c0.297-0.047,0.537-0.086,0.733-0.117C660.96,395.179,661.045,395.171,661.046,395.18z"/>
			</g>
		</g>
		<g>
			<g>
				<path style="fill:#263238;" d="M677.155,475.601c-0.017-0.006,0.071-0.291,0.255-0.826c0.204-0.577,0.479-1.355,0.826-2.335
					c0.725-2.024,1.788-4.948,3.025-8.585c1.235-3.637,2.632-7.996,3.842-12.922c1.212-4.922,2.187-10.434,2.458-16.275
					c0.227-5.839-0.413-11.423-1.688-16.319c-1.289-4.894-3.147-9.107-5.193-12.341c-2.032-3.243-4.092-5.593-5.652-7.06
					c-0.738-0.78-1.419-1.268-1.826-1.662c-0.423-0.376-0.64-0.58-0.629-0.595c0.011-0.014,0.25,0.163,0.695,0.513
					c0.429,0.369,1.134,0.835,1.898,1.596c1.612,1.43,3.733,3.762,5.825,7.011c2.105,3.24,4.018,7.481,5.345,12.415
					c1.313,4.936,1.973,10.571,1.744,16.463c-0.273,5.886-1.269,11.431-2.512,16.368c-1.241,4.942-2.679,9.3-3.96,12.927
					c-1.284,3.627-2.4,6.533-3.184,8.536c-0.385,0.965-0.69,1.732-0.917,2.301C677.293,475.335,677.172,475.607,677.155,475.601z"/>
			</g>
		</g>
		<g>
			<g>
				<path style="fill:#263238;" d="M666.472,395.503c0.017,0.006-0.058,0.285-0.217,0.81c-0.178,0.569-0.417,1.331-0.718,2.29
					c-0.324,0.99-0.707,2.205-1.124,3.625c-0.424,1.417-0.928,3.025-1.413,4.822c-1.034,3.577-2.119,7.877-3.217,12.674
					c-1.055,4.807-2.087,10.12-2.929,15.736c-0.816,5.622-1.358,11.008-1.7,15.917c-0.121,2.457-0.285,4.791-0.306,6.98
					c-0.024,1.093-0.048,2.149-0.07,3.166c0.006,1.015,0.012,1.989,0.018,2.921c-0.014,1.862,0.073,3.544,0.122,5.021
					c0.037,1.479,0.109,2.751,0.188,3.789c0.059,1.003,0.107,1.8,0.142,2.395c0.027,0.548,0.032,0.837,0.014,0.839
					c-0.018,0.002-0.058-0.284-0.119-0.829c-0.06-0.593-0.139-1.389-0.24-2.389c-0.111-1.037-0.213-2.309-0.277-3.79
					c-0.078-1.48-0.19-3.164-0.2-5.03c-0.016-0.934-0.034-1.911-0.051-2.928c0.013-1.019,0.026-2.078,0.04-3.174
					c0.003-2.195,0.151-4.535,0.259-7c0.317-4.924,0.845-10.327,1.664-15.963c0.844-5.631,1.894-10.954,2.977-15.766
					c1.126-4.802,2.25-9.101,3.331-12.671c0.508-1.794,1.038-3.396,1.489-4.807c0.443-1.414,0.855-2.621,1.209-3.602
					c0.339-0.946,0.609-1.699,0.811-2.26C666.346,395.765,666.455,395.497,666.472,395.503z"/>
			</g>
		</g>
		<g>
			<g>
				<path style="fill:#263238;" d="M619.676,439.537c0.06,0.131-1.632,1.029-3.777,2.006c-2.146,0.977-3.934,1.663-3.994,1.532
					c-0.06-0.131,1.631-1.029,3.778-2.006C617.829,440.092,619.617,439.406,619.676,439.537z"/>
			</g>
		</g>
		<g>
			<g>
				<path style="fill:#263238;" d="M621.431,423.649c-0.072,0.124-1.93-0.816-4.149-2.1c-2.22-1.284-3.961-2.426-3.889-2.551
					c0.072-0.124,1.93,0.815,4.15,2.1C619.762,422.382,621.503,423.524,621.431,423.649z"/>
			</g>
		</g>
		<g>
			<g>
				<path style="fill:#263238;" d="M631.52,410.526c-0.13,0.062-0.949-1.392-1.828-3.247c-0.88-1.855-1.488-3.409-1.358-3.47
					c0.13-0.062,0.948,1.392,1.829,3.247C631.042,408.911,631.65,410.464,631.52,410.526z"/>
			</g>
		</g>
		<g>
			<g>
				<path style="fill:#263238;" d="M645.381,398.136c-0.115,0.086-1.014-0.929-2.007-2.266c-0.993-1.337-1.705-2.49-1.59-2.576
					c0.115-0.086,1.014,0.928,2.008,2.266C644.785,396.897,645.497,398.05,645.381,398.136z"/>
			</g>
		</g>
		<g>
			<g>
				<path style="fill:#263238;" d="M625.945,458.939c0.068,0.127-1.665,1.197-3.871,2.39c-2.207,1.194-4.051,2.059-4.12,1.932
					c-0.068-0.126,1.665-1.196,3.872-2.39C624.032,459.678,625.876,458.813,625.945,458.939z"/>
			</g>
		</g>
		<g>
			<g>
				<path style="fill:#263238;" d="M642.452,449.277c-0.07,0.125-1.652-0.628-3.533-1.683c-1.882-1.055-3.349-2.012-3.279-2.137
					c0.07-0.125,1.652,0.628,3.534,1.683C641.055,448.195,642.523,449.152,642.452,449.277z"/>
			</g>
		</g>
		<g>
			<g>
				<path style="fill:#263238;" d="M647.055,427.2c0.066,0.122-1.411,1.041-3.403,1.815c-1.991,0.78-3.7,1.105-3.734,0.971
					c-0.038-0.144,1.585-0.688,3.544-1.456C645.423,427.768,646.986,427.069,647.055,427.2z"/>
			</g>
		</g>
		<g>
			<g>
				<path style="fill:#263238;" d="M652.302,410.556c-0.121,0.068-0.88-1.092-1.433-2.699c-0.559-1.605-0.68-2.986-0.543-3.007
					c0.147-0.027,0.491,1.277,1.035,2.837C651.898,409.249,652.434,410.486,652.302,410.556z"/>
			</g>
		</g>
		<g>
			<g>
				<path style="fill:#263238;" d="M640.583,470.945c-0.13-0.062,0.534-1.725,1.483-3.713c0.949-1.989,1.824-3.551,1.954-3.489
					c0.13,0.062-0.534,1.724-1.484,3.714C641.588,469.444,640.713,471.007,640.583,470.945z"/>
			</g>
		</g>
		<g>
			<g>
				<path style="fill:#263238;" d="M668.452,465.016c-0.085,0.106-1.665-1.057-3.227-2.89c-1.57-1.827-2.475-3.568-2.357-3.635
					c0.129-0.08,1.214,1.507,2.752,3.296C667.15,463.582,668.55,464.9,668.452,465.016z"/>
			</g>
		</g>
		<g>
			<g>
				<path style="fill:#263238;" d="M678.11,440.711c0.071,0.125-1.655,1.248-3.855,2.509c-2.201,1.261-4.043,2.182-4.114,2.057
					c-0.072-0.125,1.654-1.248,3.855-2.509C676.197,441.508,678.039,440.587,678.11,440.711z"/>
			</g>
		</g>
		<g>
			<g>
				<path style="fill:#263238;" d="M671.612,425.758c-0.099-0.105,1.239-1.527,2.987-3.178c1.749-1.651,3.246-2.904,3.345-2.799
					c0.099,0.104-1.238,1.527-2.987,3.178C673.208,424.609,671.711,425.862,671.612,425.758z"/>
			</g>
		</g>
		<g>
			<g>
				<path style="fill:#263238;" d="M671.905,409.892c-0.091,0.112-1.456-0.847-3.049-2.141c-1.593-1.294-2.811-2.433-2.721-2.545
					c0.091-0.112,1.456,0.847,3.049,2.141C670.778,408.641,671.996,409.78,671.905,409.892z"/>
			</g>
		</g>
		<g>
			<g>
				<path style="fill:#263238;" d="M690.332,399.397c0.079,0.121-1.277,1.143-3.028,2.283c-1.751,1.14-3.234,1.967-3.313,1.846
					c-0.078-0.121,1.277-1.142,3.029-2.283C688.771,400.103,690.254,399.276,690.332,399.397z"/>
			</g>
		</g>
		<g>
			<g>
				<path style="fill:#263238;" d="M697.43,413.939c0.01,0.143-1.404,0.361-3.159,0.485c-1.755,0.125-3.186,0.109-3.196-0.034
					c-0.01-0.143,1.404-0.361,3.16-0.485C695.988,413.78,697.419,413.796,697.43,413.939z"/>
			</g>
		</g>
		<g>
			<g>
				<path style="fill:#263238;" d="M702.063,431.129c-0.014,0.143-1.817,0.086-4.027-0.127c-2.211-0.213-3.991-0.502-3.977-0.646
					c0.014-0.143,1.817-0.086,4.027,0.127C700.296,430.697,702.077,430.986,702.063,431.129z"/>
			</g>
		</g>
		<g>
			<g>
				<path style="fill:#263238;" d="M699.767,453.299c-0.102,0.101-1.761-1.41-3.704-3.374c-1.944-1.965-3.437-3.64-3.334-3.741
					c0.102-0.101,1.761,1.409,3.705,3.374C698.377,451.523,699.87,453.198,699.767,453.299z"/>
			</g>
		</g>
		<g>
			<g>
				<path style="fill:#263238;" d="M693.721,470.376c-0.091,0.102-1.895-1.399-3.74-3.617c-1.853-2.213-3.007-4.256-2.89-4.327
					c0.127-0.082,1.462,1.811,3.29,3.994C692.201,468.613,693.825,470.265,693.721,470.376z"/>
			</g>
		</g>
		<g style="opacity:0.3;">
			<g>
				<path d="M672.574,396.681c0.091-0.137,1.184,0.394,3.01,1.628c1.784,1.278,4.258,3.368,6.67,6.541
					c2.413,3.156,4.689,7.422,6.104,12.49c1.479,5.05,2.107,10.827,2.059,16.825c-0.07,6.032-0.976,11.73-2.252,16.76
					c-1.283,5.034-2.881,9.426-4.415,13.016c-3.085,7.181-5.682,11.256-5.96,11.113c-0.364-0.178,1.645-4.542,4.245-11.781
					c2.554-7.214,5.654-17.502,5.779-29.134c0.046-5.81-0.489-11.342-1.77-16.165c-1.22-4.844-3.19-8.927-5.289-12.055
					c-2.098-3.139-4.271-5.344-5.813-6.825C673.361,397.656,672.464,396.841,672.574,396.681z"/>
			</g>
		</g>
		<g style="opacity:0.3;">
			<g>
				<path d="M666.071,394.684c0.356,0.08-0.357,4.64-1.721,11.952c-1.352,7.314-3.353,17.379-5.073,28.551
					c-0.842,5.59-1.502,10.93-1.997,15.798c-0.212,2.436-0.45,4.75-0.574,6.921c-0.174,2.17-0.267,4.193-0.352,6.043
					c-0.327,7.396-0.254,11.999-0.655,12.025c-0.315,0.025-1.042-4.561-1.186-12.05c-0.032-1.871-0.045-3.922,0.036-6.122
					c0.032-2.202,0.192-4.548,0.34-7.019c0.369-4.934,0.964-10.345,1.814-15.986c1.736-11.275,4.034-21.328,5.849-28.553
					C664.378,399.019,665.725,394.607,666.071,394.684z"/>
			</g>
		</g>
		<g style="opacity:0.3;">
			<g>
				<path d="M659.588,394.105c0.055,0.19-1.222,0.686-3.446,1.694c-2.216,1.016-5.387,2.581-8.899,5.107
					c-3.512,2.505-7.352,6.002-10.654,10.622c-3.286,4.613-6.027,10.345-7.412,16.735c-0.71,3.189-0.988,6.381-1.041,9.47
					c-0.012,3.092,0.256,6.08,0.672,8.909c0.838,5.664,2.32,10.665,3.642,14.83c1.349,4.164,2.603,7.496,3.421,9.82
					c0.82,2.324,1.221,3.637,1.052,3.711c-0.16,0.07-0.875-1.104-1.985-3.315c-1.108-2.212-2.63-5.456-4.224-9.603
					c-1.566-4.15-3.271-9.205-4.275-15.063c-0.498-2.925-0.832-6.042-0.854-9.295c0.019-3.249,0.295-6.637,1.048-10.018
					c1.468-6.772,4.442-12.811,8.02-17.597c3.597-4.8,7.77-8.323,11.558-10.73c3.792-2.43,7.191-3.784,9.569-4.529
					C658.168,394.116,659.545,393.95,659.588,394.105z"/>
			</g>
		</g>
	</g>
</g>
</svg>
