<?xml version="1.0" encoding="utf-8"?>
<!-- Generator: Adobe Illustrator 27.5.0, SVG Export Plug-In . SVG Version: 6.00 Build 0)  -->
<svg version="1.1" xmlns="http://www.w3.org/2000/svg" xmlns:xlink="http://www.w3.org/1999/xlink" x="0px" y="0px"
	 viewBox="0 0 500 500" style="enable-background:new 0 0 500 500;" xml:space="preserve">
<g id="Background_Complete">
	<g>
		<g>
			<g>
				<g>
					<g>
						<path style="fill:#EBEBEB;" d="M84.389,407.245v-19.44c0-1.281,1.039-2.32,2.32-2.32h0.866c1.281,0,2.32,1.039,2.32,2.32
							v0.908h14.429v4.936H90.084v13.597H84.389z"/>
					</g>
				</g>
			</g>
		</g>
		<g>
			<g>
				<g>
					<g>
						<path style="fill:#E0E0E0;" d="M104.033,472.878H70.439c-1.264,0-2.289-1.025-2.289-2.289v-57.14
							c0-1.264,1.025-2.289,2.289-2.289h33.594c1.264,0,2.289,1.025,2.289,2.289v57.14
							C106.322,471.853,105.297,472.878,104.033,472.878z"/>
					</g>
				</g>
			</g>
		</g>
		<g>
			<g>
				<g>
					<g>
						<path style="fill:#E0E0E0;" d="M97.061,411.16H78.283v-6.775c0-0.583,0.472-1.055,1.055-1.055h16.668
							c0.583,0,1.055,0.472,1.055,1.055V411.16z"/>
					</g>
				</g>
			</g>
		</g>
		<g>
			<g>
				<g>
					<g>
						<rect x="87.236" y="420.772" style="fill:#EBEBEB;" width="16.539" height="40.838"/>
					</g>
				</g>
			</g>
		</g>
		<g>
			<g>
				<g>
					<g>
						<g>
							<path style="fill:#EBEBEB;" d="M97.061,410.952c0,0.331-4.309,0.599-9.623,0.599c-5.316,0-9.624-0.268-9.624-0.599
								c0-0.33,4.308-0.598,9.624-0.598C92.752,410.354,97.061,410.622,97.061,410.952z"/>
						</g>
					</g>
				</g>
			</g>
		</g>
		<g>
			<g>
				<g>
					<g>
						<g>
							<path style="fill:#FAFAFA;" d="M70.498,451.755c-0.33,0-0.598-8.054-0.598-17.986c0-9.936,0.268-17.988,0.598-17.988
								c0.33,0,0.598,8.052,0.598,17.988C71.096,443.701,70.828,451.755,70.498,451.755z"/>
						</g>
					</g>
				</g>
			</g>
		</g>
	</g>
	<g>
		<g>
			<g>
				<rect x="45.828" y="447.276" style="fill:#F5F5F5;" width="41.408" height="25.67"/>
			</g>
		</g>
		<g>
			<g>
				<g>
					<path style="fill:#E0E0E0;" d="M86.743,456.715c0,0.278-9.059,0.503-20.232,0.503c-11.177,0-20.234-0.225-20.234-0.503
						c0-0.277,9.057-0.503,20.234-0.503C77.684,456.212,86.743,456.438,86.743,456.715z"/>
				</g>
			</g>
		</g>
		<g>
			<g>
				<rect x="59.981" y="461.217" style="fill:#FFFFFF;" width="26.763" height="6.62"/>
			</g>
		</g>
	</g>
	<g>
		<g>
			<g>
				<g>
					<g>
						<g>
							<g>
								<g>
									<rect x="303.174" y="29.528" style="fill:#E0E0E0;" width="165.55" height="239.959"/>
								</g>
							</g>
						</g>
					</g>
				</g>
			</g>
			<g>
				<g>
					<g>
						<g>
							<g>
								<g>
									<rect x="294.881" y="29.528" style="fill:#F5F5F5;" width="165.55" height="239.959"/>
								</g>
							</g>
						</g>
					</g>
				</g>
			</g>
			<g>
				<g>
					<g>
						<g>
							<g>
								<g>
									<g>
										<rect x="315.449" y="55.517" style="fill:#FFFFFF;" width="124.414" height="187.98"/>
									</g>
								</g>
							</g>
						</g>
					</g>
				</g>
				<g>
					<g>
						<g>
							<g>
								<g>
									<g>
										<g>
											<path style="fill:#E0E0E0;" d="M439.863,243.497c0,0-0.016-0.318-0.024-0.919c-0.005-0.621-0.014-1.506-0.024-2.666
												c-0.011-2.362-0.028-5.821-0.05-10.311c-0.026-9.009-0.064-22.138-0.111-38.723c-0.05-33.147-0.12-80.086-0.203-135.362
												l0.413,0.413c-38.011,0.011-80.13,0.024-124.399,0.037h-0.015l0.45-0.45c-0.035,70.914-0.066,136.297-0.091,187.98
												l-0.359-0.358c37.889,0.079,68.945,0.143,90.557,0.188c10.81,0.039,19.253,0.07,25.019,0.091
												c2.866,0.018,5.061,0.031,6.567,0.04C439.079,243.472,439.863,243.497,439.863,243.497s-0.732,0.026-2.195,0.039
												c-1.49,0.009-3.664,0.023-6.5,0.04c-5.748,0.021-14.163,0.052-24.939,0.091c-21.664,0.045-52.798,0.11-90.78,0.189
												l-0.359,0.001l0-0.36c-0.025-51.683-0.057-117.066-0.091-187.98l0-0.451h0.451h0.015
												c44.269,0.013,86.388,0.026,124.399,0.037h0.414l0,0.413c-0.083,55.386-0.153,102.419-0.203,135.633
												c-0.047,16.545-0.085,29.642-0.111,38.63c-0.022,4.454-0.038,7.885-0.05,10.228c-0.011,1.139-0.019,2.009-0.024,2.619
												C439.879,243.212,439.863,243.497,439.863,243.497z"/>
										</g>
									</g>
								</g>
							</g>
						</g>
					</g>
				</g>
			</g>
			<g>
				<g>
					<g>
						<g>
							<g>
								<g>
									<g>
										<path style="fill:#E0E0E0;" d="M460.896,29.528c0.097,0.075-1.028,1.715-2.951,4.287c-1.923,2.572-4.653,6.07-7.768,9.852
											c-3.117,3.783-6.027,7.133-8.183,9.513c-2.156,2.38-3.55,3.798-3.642,3.717c-0.095-0.083,1.129-1.648,3.159-4.132
											c2.22-2.693,4.95-6.006,7.971-9.67c3.017-3.665,5.745-6.98,7.963-9.674C459.495,30.952,460.796,29.45,460.896,29.528z"/>
									</g>
								</g>
							</g>
						</g>
					</g>
				</g>
			</g>
			<g>
				<g>
					<g>
						<g>
							<g>
								<g>
									<g>
										<path style="fill:#FFFFFF;" d="M440.497,242.892c6.179,9.826,13.474,18.949,21.7,27.138"/>
									</g>
								</g>
							</g>
						</g>
					</g>
				</g>
				<g>
					<g>
						<g>
							<g>
								<g>
									<g>
										<g>
											<path style="fill:#E0E0E0;" d="M462.197,270.03c-0.082,0.083-1.559-1.199-3.783-3.441
												c-2.225-2.241-5.172-5.467-8.186-9.232c-3.011-3.769-5.51-7.355-7.206-10.018c-1.699-2.663-2.624-4.386-2.525-4.447
												c0.112-0.07,1.227,1.53,3.052,4.09c1.825,2.561,4.389,6.066,7.382,9.812c2.995,3.742,5.849,7.015,7.946,9.358
												C460.974,268.497,462.29,269.937,462.197,270.03z"/>
										</g>
									</g>
								</g>
							</g>
						</g>
					</g>
				</g>
			</g>
			<g>
				<g>
					<g>
						<g>
							<g>
								<g>
									<g>
										<path style="fill:#FFFFFF;" d="M294.857,269.297c7.228-8.918,14.456-17.836,21.684-26.754"/>
									</g>
								</g>
							</g>
						</g>
					</g>
				</g>
				<g>
					<g>
						<g>
							<g>
								<g>
									<g>
										<g>
											<path style="fill:#E0E0E0;" d="M316.541,242.542c0.193,0.157-4.505,6.273-10.492,13.66
												c-5.989,7.389-10.999,13.251-11.192,13.094c-0.193-0.156,4.504-6.272,10.493-13.661
												C311.337,248.248,316.348,242.385,316.541,242.542z"/>
										</g>
									</g>
								</g>
							</g>
						</g>
					</g>
				</g>
			</g>
			<g>
				<g>
					<g>
						<g>
							<g>
								<g>
									<g>
										<path style="fill:#E0E0E0;" d="M294.881,29.528c0.195-0.154,4.908,5.479,10.525,12.582
											c5.619,7.105,10.015,12.988,9.82,13.142c-0.195,0.154-4.907-5.478-10.526-12.583
											C299.082,35.566,294.686,29.682,294.881,29.528z"/>
									</g>
								</g>
							</g>
						</g>
					</g>
				</g>
			</g>
			<g>
				<g>
					<g>
						<path style="fill:#F5F5F5;" d="M315.885,83.823c8.631-9.306,24.918-13.513,36.605-8.564
							c11.688,4.949,19.618,17.64,18.941,30.315c11.852,1.963,20.978,12.646,23.731,24.34c2.753,11.694,0.073,24.076-4.636,35.128
							c-1.92,4.507-4.194,8.933-5.094,13.748c-0.9,4.815-0.19,10.245,3.205,13.776c4.042,4.204,10.513,4.598,15.911,6.804
							c7.903,3.23,13.563,10.554,16.708,18.492c3.145,7.938,4.1,16.544,5.026,25.032H316.541L315.885,83.823z"/>
					</g>
				</g>
			</g>
		</g>
		<g>
			<g>
				<g>
					<g>
						<path style="fill:#FAFAFA;" d="M322.206,219.402c-0.117-0.105,24.004-27.108,53.868-60.305
							c29.875-33.208,54.18-60.035,54.297-59.929c0.117,0.105-23.999,27.102-53.873,60.31
							C346.633,192.675,322.323,219.508,322.206,219.402z"/>
					</g>
				</g>
			</g>
		</g>
		<g>
			<g>
				<g>
					<g>
						<path style="fill:#FAFAFA;" d="M418.88,92.744c0.117,0.106-15.077,17.029-33.93,37.793
							c-18.86,20.772-34.239,37.519-34.355,37.414c-0.116-0.106,15.073-17.025,33.934-37.797
							C403.382,109.39,418.764,92.639,418.88,92.744z"/>
					</g>
				</g>
			</g>
		</g>
		<g>
			<g>
				<g>
					<g>
						<path style="fill:#FAFAFA;" d="M411.924,143.869c0.014,0.014-0.185,0.234-0.577,0.64c-0.434,0.44-1.01,1.024-1.731,1.757
							c-1.553,1.56-3.728,3.745-6.397,6.427c-5.391,5.437-12.765,13.02-20.709,21.583c-7.943,8.57-14.949,16.495-19.965,22.28
							c-2.473,2.864-4.488,5.197-5.926,6.863c-0.676,0.775-1.215,1.393-1.621,1.859c-0.375,0.421-0.58,0.636-0.595,0.623
							c-0.015-0.012,0.16-0.252,0.507-0.697c0.385-0.482,0.897-1.124,1.539-1.927c1.343-1.669,3.32-4.056,5.79-6.983
							c4.94-5.855,11.904-13.829,19.853-22.406c7.95-8.57,15.376-16.115,20.842-21.481c2.732-2.684,4.964-4.836,6.527-6.301
							c0.753-0.7,1.354-1.259,1.806-1.68C411.684,144.047,411.91,143.855,411.924,143.869z"/>
					</g>
				</g>
			</g>
		</g>
	</g>
	<g>
		<g>
			<g>
				<g>
					<path style="fill:#EBEBEB;" d="M129.674,80.462h-3.066v-6.21c0-2.013-1.357-3.651-3.025-3.651h-23.323
						c-1.668,0-3.025,1.638-3.025,3.651v6.21H94.17v-6.21c0-3.823,2.732-6.932,6.09-6.932h23.323c3.358,0,6.091,3.11,6.091,6.932
						V80.462z"/>
				</g>
			</g>
		</g>
		<g>
			<g>
				<g>
					<g>
						<path style="fill:#EBEBEB;" d="M162.909,166.837H60.462c-5.041,0-9.127-4.086-9.127-9.127V89.589
							c0-5.041,4.086-9.127,9.127-9.127h102.448c5.04,0,9.127,4.086,9.127,9.127v68.122
							C172.036,162.751,167.95,166.837,162.909,166.837z"/>
					</g>
				</g>
			</g>
			<g>
				<g>
					<g>
						<g>
							<g>
								<g>
									<rect x="108.303" y="106.207" style="fill:#F5F5F5;" width="7.239" height="34.719"/>
								</g>
							</g>
						</g>
					</g>
					<g>
						<g>
							<g>
								<g>
									
										<rect x="108.048" y="107.347" transform="matrix(6.123234e-17 -1 1 6.123234e-17 -11.644 235.4883)" style="fill:#F5F5F5;" width="7.748" height="32.438"/>
								</g>
							</g>
						</g>
					</g>
				</g>
				<g>
					<g>
						<g>
							<g>
								<g>
									<path style="fill:#F5F5F5;" d="M138.862,123.649c-0.01,0-0.027-0.159-0.051-0.468c-0.023-0.338-0.054-0.793-0.093-1.372
										c-0.019-0.304-0.039-0.641-0.061-1.01c-0.038-0.37-0.114-0.771-0.176-1.207c-0.132-0.872-0.257-1.882-0.571-2.98
										c-0.482-2.23-1.463-4.864-3.006-7.654c-1.555-2.779-3.795-5.68-6.843-8.141c-3.038-2.438-6.869-4.511-11.291-5.346
										c-4.391-0.806-9.348-0.658-14.067,1.262c-1.201,0.412-2.33,1.048-3.491,1.644c-1.099,0.712-2.258,1.368-3.281,2.258
										c-1.088,0.8-2.039,1.8-3.035,2.763c-0.9,1.067-1.846,2.11-2.621,3.321c-1.592,2.367-2.983,4.998-3.824,7.89
										c-0.872,2.875-1.341,5.928-1.38,9.035c0.038,3.108,0.507,6.162,1.379,9.038c0.841,2.893,2.232,5.524,3.824,7.893
										c0.776,1.211,1.722,2.255,2.622,3.322c0.996,0.964,1.947,1.964,3.035,2.764c1.023,0.891,2.182,1.547,3.282,2.259
										c1.161,0.596,2.29,1.232,3.491,1.645c4.72,1.921,9.677,2.068,14.069,1.262c4.422-0.836,8.253-2.909,11.291-5.347
										c3.047-2.461,5.287-5.363,6.842-8.141c1.542-2.79,2.524-5.423,3.005-7.653c0.314-1.098,0.439-2.108,0.571-2.979
										c0.062-0.436,0.138-0.837,0.176-1.206c0.022-0.369,0.043-0.706,0.061-1.01c0.039-0.579,0.07-1.034,0.093-1.372
										C138.835,123.808,138.853,123.649,138.862,123.649c0.01,0,0.012,0.159,0.007,0.469c-0.009,0.34-0.021,0.797-0.037,1.379
										c-0.01,0.307-0.022,0.646-0.034,1.017c-0.029,0.373-0.096,0.777-0.15,1.217c-0.115,0.879-0.224,1.9-0.524,3.012
										c-0.452,2.257-1.412,4.93-2.946,7.77c-1.547,2.828-3.794,5.789-6.871,8.31c-3.067,2.497-6.952,4.628-11.449,5.502
										c-4.465,0.843-9.515,0.712-14.335-1.231c-1.226-0.417-2.38-1.061-3.565-1.668c-1.124-0.722-2.307-1.391-3.353-2.296
										c-1.111-0.814-2.085-1.832-3.102-2.814c-0.921-1.086-1.887-2.151-2.681-3.386c-1.629-2.415-3.051-5.101-3.912-8.056
										c-0.893-2.936-1.372-6.057-1.41-9.23c0.039-3.172,0.519-6.291,1.412-9.227c0.862-2.953,2.283-5.639,3.912-8.053
										c0.794-1.234,1.76-2.299,2.681-3.385c1.017-0.982,1.991-1.999,3.102-2.814c1.046-0.905,2.229-1.574,3.353-2.295
										c1.185-0.607,2.339-1.25,3.564-1.668c4.819-1.943,9.869-2.074,14.334-1.231c4.496,0.873,8.381,3.004,11.448,5.501
										c3.077,2.52,5.325,5.481,6.872,8.31c1.535,2.84,2.494,5.514,2.947,7.771c0.3,1.112,0.409,2.133,0.524,3.012
										c0.054,0.44,0.121,0.844,0.15,1.217c0.012,0.372,0.024,0.711,0.034,1.017c0.016,0.583,0.028,1.039,0.037,1.379
										C138.875,123.491,138.872,123.649,138.862,123.649z"/>
								</g>
							</g>
						</g>
					</g>
				</g>
			</g>
		</g>
		<g>
			<g>
				<g>
					<g>
						<g>
							<rect x="27.042" y="159.788" style="fill:#E0E0E0;" width="179.185" height="17.011"/>
						</g>
					</g>
				</g>
			</g>
			<g>
				<g>
					<g>
						<g>
							<rect x="173.727" y="171.025" style="fill:#E0E0E0;" width="7.66" height="18.846"/>
						</g>
					</g>
				</g>
			</g>
			<g>
				<g>
					<g>
						<g>
							<rect x="47.505" y="171.159" style="fill:#E0E0E0;" width="7.66" height="18.846"/>
						</g>
					</g>
				</g>
			</g>
			<g>
				<g>
					<g>
						<g>
							<path style="fill:#FAFAFA;" d="M150.806,105.178v-9.547h-6.28c0,0.373,0,9.547,0,9.547h-6.309v54.611h18.452v-54.611H150.806
								z"/>
						</g>
					</g>
				</g>
			</g>
			<g>
				<g>
					<g>
						<g>
							<path style="fill:#F5F5F5;" d="M171.751,105.178v-9.547h-6.281c0,0.373,0,9.547,0,9.547h-6.308v54.611h18.452v-54.611
								H171.751z"/>
						</g>
					</g>
				</g>
			</g>
			<g>
				<g>
					<g>
						<g>
							<g>
								<rect x="34.59" y="124.309" style="fill:#F5F5F5;" width="33.149" height="35.48"/>
							</g>
						</g>
					</g>
				</g>
				<g>
					<g>
						<g>
							<g>
								<g>
									<path style="fill:#EBEBEB;" d="M67.577,133.425c0,0.229-7.318,0.414-16.344,0.414c-9.028,0-16.345-0.185-16.345-0.414
										c0-0.228,7.317-0.414,16.345-0.414C60.259,133.011,67.577,133.196,67.577,133.425z"/>
								</g>
							</g>
						</g>
					</g>
				</g>
				<g>
					<g>
						<g>
							<g>
								<g>
									<path style="fill:#EBEBEB;" d="M52.424,138.106c0.008-0.027,0.121-0.009,0.337,0.053c0.219,0.049,0.523,0.196,0.882,0.446
										c0.72,0.5,1.526,1.65,1.816,3.266c0.274,1.562,0.328,3.686-0.852,5.576c-0.572,0.915-1.465,1.736-2.578,2.089
										c-1.103,0.363-2.31,0.295-3.443-0.034c-2.264-0.618-4.228-2.488-4.607-4.745c-0.438-2.199,0.379-4.285,1.558-5.365
										c1.175-1.113,2.468-1.404,3.3-1.426c0.853-0.024,1.295,0.189,1.284,0.226c-0.01,0.074-0.465-0.025-1.259,0.096
										c-0.777,0.115-1.945,0.481-2.95,1.532c-1.002,1.011-1.652,2.861-1.236,4.774c0.359,1.923,2.05,3.533,4.114,4.11
										c1.024,0.298,2.09,0.353,3.021,0.056c0.931-0.285,1.69-0.954,2.211-1.747c1.06-1.601,1.093-3.565,0.9-5.035
										c-0.205-1.511-0.856-2.58-1.461-3.117C52.852,138.319,52.396,138.185,52.424,138.106z"/>
								</g>
							</g>
						</g>
					</g>
				</g>
			</g>
		</g>
	</g>
</g>
<g id="Background_Simple" style="display:none;">
	<circle style="display:inline;fill:#F5F5F5;" cx="103.623" cy="97.823" r="39.618"/>
	<circle style="display:inline;fill:#F5F5F5;" cx="409.406" cy="325.055" r="36.256"/>
	<path style="display:inline;fill:#F5F5F5;" d="M392.978,110.03l-1.991-3.28c-16.781-27.653-47.121-44.322-79.109-42.3
		c-4.112,0.26-8.206,0.817-12.246,1.681c-29.084,6.226-54.39,28.219-64.879,56.386c-6.169,16.566-7.893,35.639-19.599,48.788
		c-15.236,17.113-41.102,17.65-63.844,16.941c-22.742-0.709-48.626-0.104-63.787,17.076c-9.495,10.76-12.513,26.061-11.748,40.47
		c2.027,38.149,28.61,72.261,62.417,89.216c33.807,16.955,73.611,18.474,110.611,11.015
		c51.832-10.448,101.124-39.142,130.753-83.461C409.185,218.243,416.683,157.864,392.978,110.03z"/>
</g>
<g id="Desk">
	<g>
		<path style="fill:#263238;" d="M461.536,473.121c0,0.144-94.675,0.26-211.435,0.26c-116.801,0-211.455-0.117-211.455-0.26
			c0-0.144,94.654-0.26,211.455-0.26C366.861,472.861,461.536,472.978,461.536,473.121z"/>
	</g>
</g>
<g id="Creams">
	<g>
		<g>
			<g>
				<g>
					<g>
						<path style="fill:#263238;" d="M415.981,407.245v-19.44c0-1.281,1.039-2.32,2.32-2.32h0.866c1.281,0,2.32,1.039,2.32,2.32
							v0.908h14.429v4.936h-14.239v13.597H415.981z"/>
					</g>
				</g>
			</g>
		</g>
		<g>
			<g>
				<g>
					<g>
						<path style="fill:#FF725E;" d="M435.625,472.878h-33.594c-1.264,0-2.289-1.025-2.289-2.289v-57.14
							c0-1.264,1.025-2.289,2.289-2.289h33.594c1.264,0,2.289,1.025,2.289,2.289v57.14
							C437.914,471.853,436.89,472.878,435.625,472.878z"/>
					</g>
				</g>
			</g>
		</g>
		<g>
			<g>
				<g>
					<g>
						<path style="fill:#FF725E;" d="M428.653,411.16h-18.778v-6.775c0-0.583,0.472-1.055,1.055-1.055h16.668
							c0.583,0,1.055,0.472,1.055,1.055V411.16z"/>
					</g>
				</g>
			</g>
		</g>
		<g>
			<g>
				<g>
					<g>
						<rect x="418.828" y="420.772" style="fill:#EBEBEB;" width="16.539" height="40.838"/>
					</g>
				</g>
			</g>
		</g>
		<g>
			<g>
				<g>
					<g>
						<g>
							<path style="fill:#263238;" d="M428.653,410.952c0,0.331-4.309,0.599-9.623,0.599c-5.316,0-9.624-0.268-9.624-0.599
								c0-0.33,4.308-0.598,9.624-0.598C424.345,410.354,428.653,410.622,428.653,410.952z"/>
						</g>
					</g>
				</g>
			</g>
		</g>
		<g>
			<g>
				<g>
					<g>
						<g>
							<path style="fill:#FAFAFA;" d="M402.09,451.755c-0.33,0-0.598-8.054-0.598-17.986c0-9.936,0.268-17.988,0.598-17.988
								c0.33,0,0.598,8.052,0.598,17.988C402.688,443.701,402.421,451.755,402.09,451.755z"/>
						</g>
					</g>
				</g>
			</g>
		</g>
	</g>
	<g>
		<g>
			<g>
				<rect x="350.68" y="447.208" style="fill:#455A64;" width="41.409" height="25.67"/>
			</g>
		</g>
		<g>
			<g>
				<g>
					<path style="fill:#263238;" d="M391.596,456.647c0,0.278-9.059,0.503-20.232,0.503c-11.177,0-20.234-0.225-20.234-0.503
						c0-0.277,9.057-0.503,20.234-0.503C382.536,456.144,391.596,456.37,391.596,456.647z"/>
				</g>
			</g>
		</g>
		<g>
			<g>
				<rect x="364.833" y="461.149" style="fill:#FFFFFF;" width="26.763" height="6.62"/>
			</g>
		</g>
	</g>
	<g>
		<g>
			<g>
				<rect x="342.779" y="421.554" style="fill:#FF725E;" width="41.409" height="25.67"/>
			</g>
		</g>
		<g>
			<g>
				<g>
					<path style="fill:#263238;" d="M382.662,430.993c0,0.278-9.059,0.503-20.232,0.503c-11.177,0-20.234-0.225-20.234-0.503
						c0-0.277,9.058-0.503,20.234-0.503C373.603,430.491,382.662,430.716,382.662,430.993z"/>
				</g>
			</g>
		</g>
		<g>
			<g>
				<rect x="355.9" y="435.495" style="fill:#FFFFFF;" width="26.763" height="6.62"/>
			</g>
		</g>
	</g>
	<g>
		<g>
			<g>
				<rect x="91.82" y="447.276" style="fill:#455A64;" width="41.409" height="25.67"/>
			</g>
		</g>
		<g>
			<g>
				<g>
					<path style="fill:#263238;" d="M131.703,456.715c0,0.278-9.059,0.503-20.232,0.503c-11.177,0-20.234-0.225-20.234-0.503
						c0-0.277,9.058-0.503,20.234-0.503C122.644,456.212,131.703,456.438,131.703,456.715z"/>
				</g>
			</g>
		</g>
		<g>
			<g>
				<rect x="104.941" y="461.217" style="fill:#FFFFFF;" width="26.763" height="6.62"/>
			</g>
		</g>
	</g>
</g>
<g id="Speech_Bubble">
	<g>
		<g>
			<g>
				<g>
					<g>
						<g>
							<g>
								<g>
									<g>
										<g>
											<path style="fill:#FFFFFF;" d="M326.337,159.684l13.405-0.785c5.65,5.26,12.777,9.073,20.901,10.698
												c23.364,4.676,46.094-10.474,50.77-33.838c4.676-23.364-10.474-46.095-33.838-50.77
												c-23.364-4.676-46.095,10.474-50.77,33.838c-1.952,9.756-0.438,19.396,3.678,27.662l-0.016-0.018L326.337,159.684z"/>
											<g>
												<path style="fill:#263238;" d="M326.337,159.683c0,0,0.074-0.276,0.243-0.838c0.176-0.581,0.429-1.418,0.761-2.518
													c0.689-2.257,1.702-5.574,3.02-9.89l0.057-0.186l0.132,0.145l0.016,0.018l-0.182,0.124
													c-2.479-4.954-4.841-12.064-4.564-20.722c0.063-2.153,0.305-4.388,0.74-6.668c0.546-2.253,1.025-4.619,1.963-6.921
													c1.706-4.646,4.334-9.308,7.983-13.475c3.637-4.166,8.287-7.828,13.721-10.462c5.424-2.638,11.634-4.234,18.105-4.368
													c6.469-0.176,13.16,1.278,19.325,4.18c6.157,2.91,11.828,7.332,16.048,13.059c0.526,0.722,1.068,1.43,1.578,2.158
													c0.457,0.763,0.914,1.524,1.369,2.283l0.682,1.138l0.574,1.192c0.379,0.796,0.757,1.589,1.134,2.381
													c0.348,0.804,0.612,1.641,0.92,2.456c0.281,0.825,0.641,1.623,0.819,2.475c0.415,1.684,0.931,3.338,1.12,5.049
													c1.105,6.775,0.559,13.623-1.341,19.841c-1.947,6.212-5.237,11.757-9.318,16.237c-4.079,4.492-8.93,7.928-13.972,10.249
													c-5.046,2.331-10.275,3.547-15.228,3.875c-2.482,0.226-4.89,0.048-7.21-0.091c-2.297-0.358-4.534-0.605-6.614-1.194
													c-8.387-2.193-14.538-6.458-18.551-10.23l0.081,0.029c-4.368,0.226-7.728,0.401-10.016,0.519
													c-1.113,0.054-1.961,0.096-2.55,0.125C326.615,159.678,326.337,159.683,326.337,159.683s0.308-0.029,0.89-0.07
													c0.595-0.041,1.453-0.099,2.577-0.176c2.268-0.148,5.6-0.366,9.931-0.649l0.046-0.003l0.035,0.032
													c4.023,3.722,10.158,7.92,18.487,10.06c2.066,0.576,4.286,0.811,6.565,1.158c2.301,0.128,4.689,0.297,7.147,0.065
													c4.907-0.341,10.081-1.559,15.071-3.879c4.985-2.309,9.778-5.719,13.805-10.169c4.029-4.438,7.274-9.924,9.191-16.067
													c1.872-6.15,2.405-12.918,1.31-19.61c-0.186-1.69-0.699-3.324-1.109-4.988c-0.176-0.842-0.533-1.63-0.81-2.445
													c-0.305-0.806-0.565-1.632-0.909-2.426c-0.373-0.782-0.746-1.566-1.121-2.352l-0.568-1.178l-0.674-1.124
													c-0.45-0.75-0.901-1.502-1.353-2.256c-0.504-0.719-1.04-1.419-1.56-2.132c-4.17-5.659-9.771-10.028-15.853-12.907
													c-6.09-2.87-12.703-4.314-19.097-4.147c-6.396,0.126-12.538,1.694-17.907,4.295c-5.38,2.596-9.989,6.21-13.599,10.326
													c-3.622,4.116-6.237,8.725-7.942,13.323c-0.937,2.278-1.419,4.622-1.969,6.854c-0.44,2.259-0.689,4.475-0.76,6.611
													c-0.312,8.588,1.992,15.663,4.42,20.611l0.356,0.726l-0.538-0.602l-0.016-0.018l0.188-0.041
													c-1.365,4.266-2.414,7.545-3.127,9.775c-0.357,1.106-0.629,1.948-0.818,2.532
													C326.443,159.383,326.337,159.683,326.337,159.683z"/>
											</g>
										</g>
									</g>
								</g>
							</g>
						</g>
					</g>
				</g>
			</g>
		</g>
		<g>
			<g>
				<g>
					<g>
						<g>
							<g>
								<g>
									<g>
										<g>
											<polygon style="fill:#FF725E;" points="348.667,130.132 354.251,124.549 365.019,134.121 386.158,113.78 
												391.343,119.364 364.222,144.89 											"/>
										</g>
									</g>
								</g>
							</g>
						</g>
					</g>
				</g>
			</g>
		</g>
	</g>
</g>
<g id="Character_00000018238776479232178260000011104817779932071100_">
	<g>
		<g>
			<path style="fill:#FFBF9D;" d="M309.241,306.054c0,0,7.066,20.753,45.282,62.585c14.091,15.425,26.009,16.435,35.332,9.401
				c15.652-11.81-1.408-37.06-1.408-37.06l-51-69.16c-4.295-5.83-9.726-9.359-16.395-10.38L309.241,306.054z"/>
			<g>
				<path style="fill:#FFBF9D;" d="M188.729,306.356l-15.61-35.282c0,0-22.542,7.062-27.412,35.939
					c-3.769,22.35,1.146,98.493,1.146,98.493l27.388,23.888c10.951-26.036,12.305-75.619,12.305-75.619L188.729,306.356z"/>
				<polygon style="fill:#FF725E;" points="334.031,473.122 312.675,408.972 324.906,331.085 323.57,261.1 276.83,252.173 
					221.203,254.089 173.12,270.522 182.857,326.171 187.895,410.209 176.213,473.122 				"/>
			</g>
			<path style="fill:#FF725E;" d="M143.24,316.592l43.56,21.954l-3.812-71.396c0,0-26.411,8.444-32.94,25.818
				C143.518,310.342,143.24,316.592,143.24,316.592z"/>
			<path style="fill:#FF725E;" d="M322.627,329.339l7.395,11.318l15.123-21.069l-12.248-52.71c0,0-5.619-6.632-14.394-5.831
				L322.627,329.339z"/>
			<g>
				<path style="fill:#263238;" d="M327.292,280.092c0.018,0,0.037,0.255,0.058,0.74c0.016,0.536,0.037,1.242,0.064,2.124
					c0.05,1.845,0.072,4.515,0.056,7.814c-0.03,6.598-0.297,15.716-1.04,25.76c-0.75,10.046-1.834,19.104-2.781,25.634
					c-0.471,3.266-0.888,5.903-1.21,7.72c-0.157,0.868-0.282,1.563-0.378,2.091c-0.092,0.477-0.149,0.726-0.167,0.723
					c-0.018-0.003,0.004-0.258,0.063-0.74c0.071-0.532,0.164-1.231,0.281-2.105c0.255-1.884,0.61-4.513,1.046-7.738
					c0.852-6.537,1.876-15.59,2.626-25.623c0.742-10.031,1.067-19.134,1.191-25.726c0.046-3.254,0.083-5.907,0.11-7.808
					c0.014-0.882,0.025-1.588,0.034-2.124C327.258,280.348,327.274,280.093,327.292,280.092z"/>
			</g>
			<g>
				<path style="fill:#263238;" d="M175.28,311.352c0.135-0.049,2.446,6.048,5.16,13.614c2.715,7.569,4.806,13.743,4.67,13.792
					c-0.135,0.048-2.445-6.046-5.161-13.616C177.235,317.576,175.144,311.401,175.28,311.352z"/>
			</g>
			<g>
				<path style="fill:#263238;" d="M285.15,416.935c0.011,0.143-14.315,1.332-31.994,2.655c-17.685,1.323-32.026,2.279-32.036,2.135
					c-0.011-0.143,14.313-1.332,31.997-2.655C270.796,417.748,285.14,416.792,285.15,416.935z"/>
			</g>
			<g>
				<path style="fill:#263238;" d="M275.042,379.377c0.02,0.03-0.482,0.408-1.408,1.067c-0.924,0.661-2.28,1.591-3.972,2.715
					c-3.382,2.251-8.13,5.251-13.5,8.351c-5.374,3.099-10.347,5.709-13.988,7.51c-1.82,0.902-3.303,1.611-4.338,2.08
					c-1.034,0.471-1.613,0.717-1.628,0.684c-0.016-0.032,0.533-0.339,1.539-0.866c1.082-0.565,2.519-1.316,4.26-2.226
					c3.594-1.884,8.531-4.54,13.896-7.633c5.361-3.095,10.131-6.04,13.56-8.209c1.659-1.052,3.029-1.921,4.059-2.575
					C274.482,379.669,275.022,379.347,275.042,379.377z"/>
			</g>
			<g>
				<path style="fill:#FFFFFF;" d="M306.796,335.61c0,0-0.088-0.188-0.234-0.564c-0.151-0.395-0.363-0.951-0.639-1.673
					c-0.557-1.493-1.368-3.664-2.408-6.451c-1.039-2.81-2.307-6.239-3.779-10.217c-0.734-1.993-1.52-4.123-2.352-6.382
					c-0.832-2.258-1.666-4.672-2.959-6.991c-0.648-1.153-1.4-2.295-2.377-3.264c-0.966-0.97-2.156-1.783-3.536-2.14
					c-0.681-0.21-1.401-0.252-2.121-0.246c-0.716,0.071-1.447,0.176-2.133,0.46c-1.397,0.496-2.638,1.436-3.697,2.549
					c-1.044,1.134-1.891,2.494-2.446,3.986c-0.534,1.501-0.809,3.128-0.895,4.78c-0.181,3.32,0.362,6.735,0.723,10.255
					c0.337,3.506,0.47,7.27-0.82,10.842c-0.632,1.771-1.697,3.434-3.166,4.7c-1.466,1.266-3.299,2.095-5.219,2.474
					c-3.833,0.748-8.1-0.148-11.243-2.754c-1.585-1.293-2.706-3.085-3.469-4.971c-0.753-1.905-1.171-3.924-1.461-5.95
					c-0.583-4.047-0.689-8.125-2.193-11.783c-0.72-1.816-1.709-3.537-3.083-4.867c-0.674-0.674-1.457-1.23-2.306-1.631
					c-0.414-0.227-0.869-0.352-1.309-0.51c-0.46-0.078-0.911-0.22-1.375-0.248c-1.859-0.173-3.719,0.369-5.289,1.33
					c-1.566,0.982-2.873,2.327-3.917,3.815c-1.043,1.493-1.831,3.143-2.326,4.854c-0.492,1.708-0.655,3.492-0.714,5.242
					c-0.099,3.513,0.335,6.939,0.557,10.286c0.114,1.674,0.179,3.333,0.124,4.968c-0.041,1.629-0.244,3.262-0.717,4.783
					c-0.934,3.013-2.626,5.832-5.217,7.393c-1.284,0.767-2.803,1.103-4.231,0.91c-1.443-0.138-2.739-0.83-3.798-1.669
					c-2.117-1.74-3.437-4.007-4.638-6.08c-1.203-2.092-2.237-4.121-3.129-6.052c-1.789-3.862-3.007-7.327-3.868-10.193
					c-0.865-2.866-1.368-5.138-1.674-6.683c-0.164-0.77-0.254-1.365-0.325-1.762c-0.067-0.398-0.088-0.604-0.088-0.604
					s0.056,0.2,0.141,0.594c0.088,0.394,0.195,0.984,0.375,1.75c0.338,1.535,0.872,3.796,1.765,6.645
					c0.889,2.849,2.131,6.293,3.938,10.129c0.902,1.918,1.943,3.933,3.152,6.01c1.206,2.062,2.53,4.29,4.581,5.958
					c1.025,0.803,2.255,1.451,3.615,1.575c1.348,0.175,2.764-0.142,3.98-0.874c2.454-1.484,4.109-4.23,5.007-7.171
					c0.456-1.489,0.648-3.056,0.685-4.673c0.05-1.613-0.019-3.256-0.136-4.922c-0.228-3.331-0.672-6.768-0.58-10.331
					c0.058-1.776,0.217-3.588,0.724-5.363c0.507-1.766,1.315-3.464,2.388-5.004c1.075-1.535,2.422-2.929,4.06-3.959
					c1.64-1.007,3.617-1.593,5.603-1.408c0.495,0.031,0.976,0.178,1.466,0.264c0.468,0.166,0.952,0.302,1.393,0.541
					c0.903,0.426,1.733,1.016,2.442,1.724c1.445,1.398,2.465,3.181,3.206,5.045c1.544,3.76,1.648,7.903,2.226,11.899
					c0.287,2.007,0.699,3.985,1.428,5.832c0.744,1.835,1.811,3.536,3.32,4.768c2.996,2.494,7.126,3.37,10.81,2.65
					c1.845-0.363,3.596-1.154,4.989-2.356c1.393-1.197,2.416-2.781,3.029-4.49c1.251-3.441,1.139-7.144,0.809-10.622
					c-0.352-3.501-0.895-6.942-0.703-10.328c0.094-1.688,0.375-3.348,0.935-4.909c0.582-1.549,1.462-2.952,2.548-4.126
					c1.102-1.152,2.396-2.128,3.869-2.647c0.723-0.295,1.497-0.407,2.257-0.477c0.764-0.006,1.531,0.045,2.249,0.268
					c1.458,0.384,2.707,1.247,3.703,2.256c1.009,1.01,1.772,2.182,2.425,3.357c1.303,2.366,2.127,4.794,2.947,7.053
					c0.819,2.264,1.592,4.4,2.315,6.398c1.439,3.991,2.68,7.431,3.696,10.25c1.001,2.802,1.78,4.984,2.316,6.485
					c0.255,0.73,0.451,1.292,0.59,1.691C306.742,335.41,306.796,335.61,306.796,335.61z"/>
			</g>
		</g>
		<g>
			<g>
				<g>
					<path style="fill:#263238;" d="M197.351,95.991c-11.399-0.413-22.793,5.392-27.973,14.253
						c-5.181,8.861-3.874,20.308,3.208,28.106c-5.613,2.336-7.742,9.385-4.178,13.828c3.564,4.443,11.89,5.119,16.333,1.325
						c-2.671,4.953,0.268,11.33,5.655,14.142c5.387,2.812,12.451,2.402,18.035-0.1c5.584-2.502,9.839-6.835,13.055-11.535
						l2.383-43.789C219.551,103.014,208.751,96.404,197.351,95.991z"/>
				</g>
				<g>
					<g>
						<g>
							<g>
								<path style="fill:#263238;" d="M193.267,161.387c-4.76-5.613-4.441-14.694,0.699-19.977
									c-3.047-3.477-2.198-9.031,0.64-12.673c2.838-3.642,7.17-5.824,11.354-7.888c1.958-10.547,13.733-18.323,24.494-16.174
									c5.271-8.165,17.069-9.823,26.655-7.45c2.341,0.579,4.688,1.352,7.101,1.259c1.771-0.068,3.484-0.6,5.231-0.89
									c9.607-1.598,19.428,4.704,23.507,13.341c0.652,1.381,1.2,2.841,2.197,4.01c1.309,1.533,3.242,2.394,4.904,3.556
									c3.594,2.512,5.966,6.619,6.306,10.92c0.289,3.653-0.764,7.577,0.934,10.844c0.851,1.638,2.329,2.934,3.008,4.647
									c1.966,4.964-3.558,10.298-2.312,15.479c0.254,1.057,0.782,2.032,1.122,3.066c0.695,2.114,0.57,4.475-0.346,6.509
									c-0.706,1.569-1.884,3.024-1.926,4.738c-0.032,1.3,0.605,2.515,0.917,3.78c0.765,3.092-5.69,15.34-8.387,17.128
									l-82.396,3.549c-6.282-1.026-11.561-6.368-12.384-12.532c-0.137-1.025-0.193-2.141-0.875-2.932
									c-0.581-0.674-1.492-0.96-2.301-1.349c-5.407-2.599-6.304-9.687-5.956-15.559c0.049-0.822,0.106-1.665-0.135-2.454
									C194.971,163.186,194.05,162.31,193.267,161.387z"/>
							</g>
						</g>
					</g>
					<g>
						<g>
							<g>
								<path style="fill:#FFBF9D;" d="M216.885,160.692c-0.757-14.226,7.802-30.897,22.041-38.355
									c8.976-4.701,16.101-4.975,20.883-5.686c10.714-1.593,19.582,3.311,19.582,3.311c4.581,0.885,21.765,15.189,23.211,31.302
									c1.607,17.9,2.845,39.815,1.003,53.244c-3.703,27.001-27.155,31.018-27.155,31.018c-0.004-0.041-0.143,17.514-0.143,17.514
									l0,0c-13.11,19.665-39.611,20.771-55.052,2.878l-0.049-0.057L216.885,160.692z"/>
							</g>
						</g>
					</g>
					<g>
						<g>
							<g>
								<path style="fill:#FF9A6C;" d="M264.373,201.827c0.069-1.316,0.718-2.525,1.599-3.389c1.763-1.728,4.515-2.096,6.651-0.89
									c2.136,1.206,2.583,3.502,2.412,6.131l0,0c-1.012,1.612-1.727,3.187-3.638,3.499c-0.297,0.049-0.597,0.082-0.899,0.098
									c-1.463,0.076-2.987-0.29-4.186-1.253C265.112,205.059,264.287,203.451,264.373,201.827z"/>
							</g>
						</g>
					</g>
					<g>
						<g>
							<g>
								<g>
									<g>
										<g>
											<g>
												<g>
													<path style="fill:#263238;" d="M293.093,174.52c0.112,1.821-1.376,3.414-3.322,3.562
														c-1.942,0.148-3.61-1.203-3.722-3.023c-0.111-1.82,1.376-3.415,3.317-3.563
														C291.313,171.346,292.981,172.7,293.093,174.52z"/>
												</g>
											</g>
										</g>
									</g>
								</g>
							</g>
						</g>
					</g>
					<g>
						<g>
							<g>
								<g>
									<g>
										<g>
											<g>
												<g>
													<g>
														<path style="fill:#263238;" d="M296.533,161.738c-0.427,0.461-3.154-1.409-6.958-1.309
															c-3.801,0.047-6.545,2.024-6.969,1.579c-0.208-0.196,0.219-1.019,1.412-1.911c1.175-0.888,3.195-1.773,5.565-1.821
															c2.37-0.044,4.384,0.76,5.552,1.604C296.327,160.727,296.744,161.532,296.533,161.738z"/>
													</g>
												</g>
											</g>
										</g>
									</g>
								</g>
							</g>
						</g>
					</g>
					<g>
						<g>
							<g>
								<g>
									<g>
										<g>
											<g>
												<g>
													<path style="fill:#263238;" d="M275.012,191.582c-0.023-0.21,2.331-0.665,6.151-1.235
														c0.968-0.121,1.884-0.331,2.031-0.982c0.212-0.691-0.22-1.702-0.719-2.794c-0.971-2.272-1.987-4.654-3.054-7.15
														c-4.246-10.18-7.346-18.562-6.924-18.725c0.422-0.164,4.206,7.956,8.453,18.137c1.023,2.511,2.002,4.905,2.933,7.195
														c0.395,1.069,1.057,2.275,0.597,3.708c-0.244,0.715-0.944,1.245-1.563,1.424c-0.618,0.2-1.164,0.223-1.644,0.263
														C277.423,191.719,275.031,191.793,275.012,191.582z"/>
												</g>
											</g>
										</g>
									</g>
								</g>
							</g>
						</g>
					</g>
					<g>
						<g>
							<g>
								<g>
									<g>
										<g>
											<g>
												<path style="fill:#FF9A6C;" d="M276.54,235.436c0,0-18.636,1.618-37.277-8.719c0,0,9.408,19.087,36.931,15.911
													L276.54,235.436z"/>
											</g>
										</g>
									</g>
								</g>
							</g>
						</g>
					</g>
					<g>
						<g>
							<g>
								<g>
									<g>
										<g>
											<g>
												<g>
													<g>
														<g>
															<path style="fill:#263238;" d="M293.661,146.955c-0.616,0.922-3.544,0.385-6.941,0.742
																c-3.407,0.251-6.194,1.299-6.962,0.501c-0.343-0.391,0.007-1.283,1.163-2.223c1.139-0.935,3.128-1.824,5.466-2.034
																c2.338-0.207,4.451,0.314,5.736,1.033C293.428,145.693,293.928,146.509,293.661,146.955z"/>
														</g>
													</g>
												</g>
											</g>
										</g>
									</g>
								</g>
							</g>
						</g>
					</g>
					<g>
						<g>
							<g>
								<g>
									<g>
										<g>
											<g>
												<g>
													<path style="fill:#263238;" d="M252.643,176.176c0.05,1.823,1.672,3.285,3.624,3.269
														c1.947-0.015,3.49-1.502,3.441-3.325c-0.05-1.822-1.673-3.287-3.62-3.271
														C254.136,172.864,252.593,174.354,252.643,176.176z"/>
												</g>
											</g>
										</g>
									</g>
								</g>
							</g>
						</g>
					</g>
					<g>
						<g>
							<g>
								<g>
									<g>
										<g>
											<g>
												<g>
													<g>
														<path style="fill:#263238;" d="M244.525,164.438c0.466,0.423,3.017-1.669,6.816-1.889
															c3.79-0.273,6.699,1.466,7.082,0.986c0.19-0.213-0.308-0.996-1.575-1.786c-1.249-0.786-3.34-1.498-5.705-1.346
															c-2.365,0.156-4.301,1.127-5.389,2.065C244.642,163.413,244.297,164.249,244.525,164.438z"/>
													</g>
												</g>
											</g>
										</g>
									</g>
								</g>
							</g>
						</g>
					</g>
					<g>
						<g>
							<g>
								<g>
									<g>
										<g>
											<g>
												<g>
													<g>
														<g>
															<path style="fill:#263238;" d="M243.997,149.89c0.801,0.796,3.677-0.254,7.197-0.508
																c3.511-0.361,6.543,0.172,7.173-0.75c0.274-0.446-0.249-1.26-1.604-1.978c-1.335-0.716-3.524-1.235-5.942-1.025
																c-2.417,0.214-4.466,1.102-5.636,2.039C243.995,148.607,243.641,149.499,243.997,149.89z"/>
														</g>
													</g>
												</g>
											</g>
										</g>
									</g>
								</g>
							</g>
						</g>
					</g>
					<g>
						<g>
							<g>
								<g>
									<g>
										<g>
											<g>
												<path style="fill:#FFBF9D;" d="M221.962,186.077c-0.055-2.003-2.546-6.669-4.581-6.93
													c-5.434-0.694-15.18-0.037-14.935,13.381c0.335,18.342,19.137,14.229,19.16,13.703
													C221.625,205.82,222.153,192.993,221.962,186.077z"/>
											</g>
										</g>
									</g>
								</g>
							</g>
						</g>
					</g>
					<g>
						<g>
							<g>
								<g>
									<g>
										<g>
											<g>
												<g>
													<path style="fill:#FF9A6C;" d="M216.299,199.621c-0.083-0.057-0.323,0.229-0.871,0.487
														c-0.536,0.25-1.461,0.433-2.448,0.092c-1.999-0.676-3.727-3.724-3.878-7.028c-0.079-1.669,0.25-3.264,0.832-4.592
														c0.55-1.351,1.421-2.304,2.419-2.494c0.99-0.242,1.708,0.329,1.948,0.84c0.262,0.509,0.148,0.878,0.249,0.907
														c0.053,0.046,0.398-0.313,0.233-1.068c-0.084-0.364-0.312-0.793-0.762-1.137c-0.457-0.35-1.123-0.521-1.819-0.435
														c-1.448,0.124-2.728,1.447-3.368,2.904c-0.719,1.464-1.13,3.259-1.041,5.132c0.188,3.694,2.19,7.118,4.921,7.838
														c1.327,0.313,2.424-0.095,2.986-0.538C216.274,200.065,216.365,199.653,216.299,199.621z"/>
												</g>
											</g>
										</g>
									</g>
								</g>
							</g>
						</g>
					</g>
					<g>
						<g>
							<g>
								<path style="fill:#263238;" d="M306.779,151.418c-3.857-2.223-6.36-5.314-6.237-9.683c-2.499,0.793-5.136-2.308-6.659-4.397
									c-1.523-2.09-3.35-3.119-3.303-5.683c0.009-0.506,0.028-1.042-0.226-1.484c-0.399-0.694-1.299-0.901-2.083-1.119
									c-4.038-1.122-7.375-4.39-8.51-8.334c-3.983,1.819-8.435,2.649-12.825,2.39c-1.876,2.801-5.281,4.56-8.709,4.498
									c-3.428-0.062-6.765-1.942-8.534-4.808c-1.078,2.322-3.478,3.855-5.994,4.543c-2.515,0.688-5.171,0.65-7.783,0.605
									c1.253,4.899-1.881,10.48-6.787,12.085c-0.663,0.217-1.431,0.434-1.723,1.054c-0.304,0.645,0.067,1.38,0.343,2.037
									c1.748,4.155-0.966,9.512-5.41,10.679c3.134,2.25,2.955,7.638-0.322,9.685c-0.673,0.42-1.553,0.927-1.427,1.696
									c0.048,0.293,0.244,0.539,0.433,0.771c1.446,1.78,2.892,3.727,3.12,5.987c0.228,2.261-1.274,4.841-3.596,4.997
									c1.248,1.03,2.423,2.365,2.492,3.958c0.069,1.593-1.542,3.257-3.08,2.72c-0.654-0.228-10.058-1.794-10.484-2.329
									c-5.499-6.913,0.989-14.86,1.289-23.607c0.301-8.746,3.208-17.28,7.485-24.972c1.794-3.227,3.847-6.347,6.445-9.002
									c2.961-3.026,6.557-5.379,10.141-7.677c4.675-2.999,9.483-5.996,14.895-7.383c10.08-2.583,20.71,0.753,30.278,4.785
									c3.639,1.534,7.271,3.198,10.36,5.622c3.695,2.901,6.459,6.772,8.883,10.75c3.503,5.748,6.45,11.968,7.286,18.606"/>
							</g>
						</g>
					</g>
					<g>
						<g>
							<g>
								<path style="fill:#455A64;" d="M310.299,144.912c0,0-0.208-0.753-1.065-1.942c-0.415-0.6-0.996-1.296-1.552-2.192
									c-0.544-0.898-0.991-2.045-1.145-3.399c-0.187-1.349-0.114-2.873-0.04-4.538c0.075-1.66,0.151-3.512-0.294-5.441
									c-0.426-1.921-1.281-3.903-2.626-5.713c-0.672-0.904-1.466-1.763-2.381-2.536c-0.91-0.783-1.968-1.431-3.027-2.078
									c-1.051-0.655-2.117-1.358-2.92-2.331c-0.806-0.972-1.321-2.182-1.874-3.406c-1.11-2.47-2.688-4.873-4.756-6.972
									c-2.055-2.099-4.533-3.982-7.429-5.279c-1.424-0.699-2.983-1.15-4.568-1.543c-1.608-0.296-3.267-0.516-4.953-0.418
									c-0.841,0.017-1.683,0.153-2.526,0.262c-0.837,0.149-1.661,0.344-2.488,0.509c-1.65,0.365-3.331,0.455-5.022,0.135
									c-1.691-0.28-3.357-0.829-5.105-1.206c-1.738-0.419-3.536-0.643-5.351-0.781c-1.819-0.134-3.663-0.073-5.509,0.093
									c-1.845,0.198-3.684,0.579-5.485,1.134c-3.564,1.163-7.004,3.224-9.294,6.337c-0.225,0.308-0.45,0.616-0.672,0.921
									l0.296-0.124c-5.719-1.131-11.609,0.519-16.093,3.611c-4.516,3.084-7.791,7.738-8.724,12.787l0.144-0.188
									c-2.243,1.109-4.46,2.223-6.495,3.565c-2.029,1.337-3.88,2.921-5.249,4.835c-1.355,1.921-2.146,4.156-2.272,6.393
									c-0.136,2.228,0.508,4.507,1.965,6.152l0.008-0.307c-2.611,2.695-3.869,6.218-4.068,9.528
									c-0.202,3.325,0.599,6.536,2.205,9.061c0.367,0.651,0.856,1.212,1.298,1.783c0.473,0.544,0.955,1.051,1.339,1.603
									c0.385,0.55,0.648,1.147,0.718,1.781c0.081,0.632,0.029,1.271-0.001,1.905c-0.128,2.536-0.007,4.882,0.391,6.955
									c0.402,2.069,1.07,3.874,1.995,5.249c0.906,1.388,2.017,2.322,3.004,2.9c0.987,0.599,1.852,0.819,2.338,1.146
									c0.503,0.299,0.683,0.551,0.699,0.535c0,0-0.161-0.27-0.66-0.595c-0.484-0.353-1.349-0.598-2.303-1.205
									c-0.96-0.587-2.032-1.518-2.902-2.89c-0.89-1.359-1.527-3.14-1.905-5.188c-0.374-2.051-0.475-4.375-0.329-6.89
									c0.034-0.628,0.094-1.285,0.012-1.963c-0.069-0.682-0.36-1.356-0.763-1.934c-0.401-0.584-0.89-1.103-1.352-1.641
									c-0.428-0.561-0.9-1.106-1.253-1.743c-1.549-2.465-2.314-5.602-2.103-8.842c0.208-3.226,1.451-6.645,3.981-9.238l0.146-0.15
									l-0.138-0.157c-1.361-1.549-1.967-3.695-1.832-5.829c0.126-2.139,0.895-4.295,2.2-6.135
									c1.323-1.841,3.128-3.384,5.125-4.693c2.002-1.315,4.2-2.416,6.444-3.521l0.12-0.059l0.024-0.129
									c0.912-4.894,4.103-9.428,8.514-12.435c4.379-3.015,10.121-4.612,15.657-3.515l0.18,0.036l0.117-0.159
									c0.215-0.294,0.432-0.591,0.649-0.889c2.208-3.004,5.535-5.003,9.014-6.142c1.758-0.542,3.558-0.917,5.368-1.113
									c1.812-0.164,3.624-0.227,5.412-0.096c1.785,0.134,3.555,0.351,5.264,0.762c1.717,0.366,3.395,0.918,5.138,1.205
									c0.869,0.146,1.753,0.227,2.637,0.197c0.884-0.031,1.745-0.175,2.583-0.344c0.839-0.169,1.659-0.365,2.476-0.511
									c0.82-0.106,1.636-0.241,2.454-0.259c1.638-0.1,3.254,0.112,4.822,0.396c1.547,0.381,3.071,0.815,4.466,1.496
									c2.837,1.26,5.275,3.101,7.3,5.154c2.038,2.056,3.594,4.403,4.697,6.83c0.556,1.213,1.087,2.459,1.948,3.49
									c0.862,1.032,1.971,1.749,3.031,2.403c1.072,0.648,2.102,1.273,2.993,2.03c0.896,0.748,1.676,1.583,2.339,2.462
									c1.326,1.761,2.176,3.695,2.608,5.573c0.451,1.882,0.393,3.701,0.334,5.364c-0.058,1.665-0.115,3.204,0.091,4.577
									c0.174,1.375,0.65,2.551,1.22,3.456c0.581,0.902,1.176,1.584,1.603,2.171c0.438,0.58,0.725,1.052,0.899,1.379
									C310.216,144.739,310.285,144.918,310.299,144.912z"/>
							</g>
						</g>
					</g>
					<g>
						<g>
							<g>
								<path style="fill:#455A64;" d="M239.164,100.413c0.03,0.04,0.489-0.291,1.39-0.752c0.899-0.454,2.271-1.027,4.064-1.275
									c1.778-0.256,3.997-0.169,6.201,0.714c2.189,0.877,4.342,2.528,5.76,4.819c0.407,0.657,0.761,1.36,0.992,2.05
									c0.222,0.686,0.273,1.422-0.083,1.935l-0.441,0.636l0.753-0.229c2.068-0.63,4.224-0.299,5.829,0.521
									c1.634,0.817,2.69,2.126,3.282,3.309c0.6,1.196,0.766,2.273,0.818,3.001c0.046,0.734-0.002,1.138,0.04,1.143
									c0.017,0.002,0.043-0.097,0.078-0.29c0.038-0.193,0.068-0.482,0.072-0.859c0.007-0.748-0.107-1.873-0.689-3.143
									c-0.571-1.254-1.654-2.674-3.378-3.574c-1.693-0.901-3.982-1.287-6.218-0.622l0.311,0.406c0.502-0.732,0.4-1.65,0.163-2.397
									c-0.255-0.766-0.615-1.476-1.045-2.175c-1.487-2.402-3.75-4.115-6.049-5.005c-2.319-0.897-4.632-0.942-6.459-0.627
									c-1.844,0.307-3.227,0.953-4.11,1.473c-0.442,0.264-0.771,0.49-0.979,0.662
									C239.256,100.303,239.152,100.398,239.164,100.413z"/>
							</g>
						</g>
					</g>
					<g>
						<g>
							<g>
								<path style="fill:#455A64;" d="M209.263,122.275c-0.021,0.025,0.207,0.261,0.675,0.638c0.469,0.373,1.18,0.893,2.166,1.385
									c0.982,0.483,2.264,0.952,3.779,0.998c1.489,0.048,3.248-0.33,4.627-1.501l-0.418-0.051
									c0.186,0.241,0.378,0.487,0.572,0.738c0.208,0.24,0.439,0.467,0.661,0.705c1.423,1.359,3.13,2.268,4.775,2.726
									c1.645,0.476,3.211,0.562,4.493,0.429c1.287-0.132,2.283-0.467,2.943-0.737c0.648-0.302,0.982-0.508,0.966-0.537
									c-0.043-0.113-1.437,0.713-3.941,0.885c-1.241,0.079-2.741-0.046-4.306-0.527c-1.567-0.464-3.182-1.346-4.528-2.63
									c-0.21-0.225-0.429-0.44-0.626-0.666c-0.185-0.236-0.366-0.468-0.543-0.695l-0.192-0.245l-0.226,0.194
									c-1.23,1.059-2.845,1.441-4.245,1.425c-1.417-0.012-2.655-0.415-3.627-0.841
									C210.322,123.074,209.321,122.194,209.263,122.275z"/>
							</g>
						</g>
					</g>
					<g>
						<g>
							<g>
								<path style="fill:#455A64;" d="M199.807,139.546c-0.019,0.005,0,0.119,0.055,0.337c0.071,0.21,0.188,0.527,0.443,0.876
									c0.483,0.706,1.533,1.553,3.082,1.884c1.558,0.352,3.464-0.003,5.352-0.711c0.947-0.359,1.931-0.72,2.934-1.221
									c0.975-0.5,2.033-1.21,2.531-2.377c0.037-0.102,0.075-0.204,0.109-0.298l-0.439,0.143c1.848,1.332,3.747,2.483,5.665,3.117
									c1.906,0.661,3.805,0.723,5.292,0.391c1.499-0.317,2.59-0.97,3.211-1.529c0.318-0.274,0.533-0.52,0.661-0.697
									c0.13-0.176,0.189-0.273,0.174-0.285c-0.04-0.033-0.325,0.328-0.974,0.818c-0.642,0.49-1.71,1.058-3.15,1.313
									c-1.435,0.268-3.219,0.172-5.043-0.489c-1.832-0.635-3.672-1.764-5.5-3.084l-0.306-0.221l-0.134,0.364
									c-0.029,0.078-0.06,0.163-0.091,0.248c-0.406,0.966-1.333,1.624-2.265,2.106c-0.944,0.48-1.938,0.859-2.861,1.224
									c-1.842,0.721-3.634,1.083-5.086,0.804c-1.459-0.262-2.478-1.003-2.986-1.63
									C199.956,139.999,199.864,139.525,199.807,139.546z"/>
							</g>
						</g>
					</g>
					<g>
						<g>
							<g>
								<path style="fill:#263238;" d="M263.674,198.395c0.45-0.298,2.312,2.735,6.292,3.34c3.979,0.615,7.087-1.656,7.371-1.246
									c0.16,0.165-0.378,1.02-1.755,1.871c-1.345,0.845-3.614,1.582-6.048,1.212c-2.433-0.375-4.209-1.732-5.076-2.916
									C263.564,199.455,263.451,198.501,263.674,198.395z"/>
							</g>
						</g>
					</g>
				</g>
			</g>
			<g>
				<path style="fill:#FF9A6C;" d="M296.714,195.29c0,1.075-0.893,1.946-1.994,1.946c-1.101,0-1.994-0.871-1.994-1.946
					c0-1.075,0.893-1.946,1.994-1.946C295.821,193.344,296.714,194.215,296.714,195.29z"/>
				<path style="fill:#FF725E;" d="M295.958,195.29c0,0.667-0.554,1.208-1.238,1.208c-0.684,0-1.238-0.541-1.238-1.208
					c0-0.667,0.554-1.208,1.238-1.208C295.403,194.081,295.958,194.622,295.958,195.29z"/>
			</g>
			<g>
				<path style="fill:#FF9A6C;" d="M243.339,188.143c0,1.075-0.893,1.946-1.994,1.946c-1.101,0-1.994-0.871-1.994-1.946
					c0-1.075,0.893-1.946,1.994-1.946C242.446,186.197,243.339,187.068,243.339,188.143z"/>
				<path style="fill:#FF725E;" d="M242.583,188.143c0,0.667-0.554,1.208-1.238,1.208c-0.684,0-1.238-0.541-1.238-1.208
					c0-0.667,0.554-1.208,1.238-1.208C242.029,186.935,242.583,187.476,242.583,188.143z"/>
			</g>
			<g>
				<path style="fill:#FF9A6C;" d="M291.231,200.64c0,0.653-0.542,1.182-1.211,1.182c-0.669,0-1.211-0.529-1.211-1.182
					c0-0.653,0.542-1.182,1.211-1.182C290.688,199.459,291.231,199.988,291.231,200.64z"/>
				<path style="fill:#FF725E;" d="M290.772,200.64c0,0.405-0.337,0.734-0.752,0.734c-0.415,0-0.752-0.328-0.752-0.734
					s0.337-0.734,0.752-0.734C290.435,199.907,290.772,200.235,290.772,200.64z"/>
			</g>
			<g>
				<path style="fill:#FF9A6C;" d="M275.033,151.393c0,0.653-0.542,1.182-1.211,1.182c-0.669,0-1.211-0.529-1.211-1.182
					c0-0.653,0.542-1.182,1.211-1.182C274.491,150.211,275.033,150.74,275.033,151.393z"/>
				<path style="fill:#FF725E;" d="M274.574,151.393c0,0.405-0.337,0.734-0.752,0.734c-0.415,0-0.752-0.328-0.752-0.734
					c0-0.405,0.337-0.734,0.752-0.734C274.237,150.659,274.574,150.988,274.574,151.393z"/>
			</g>
		</g>
		<g>
			<g>
				<g>
					<g>
						<path style="fill:#FFFFFF;" d="M212.1,291.566l-31.006-0.61c-3.027-0.06-5.432-2.561-5.372-5.588l1.242-63.08
							c0.06-3.027,2.561-5.432,5.588-5.372l31.006,0.61c3.027,0.06,5.432,2.561,5.372,5.588l-1.242,63.08
							C217.629,289.22,215.127,291.625,212.1,291.566z"/>
						<g>
							<path style="fill:#263238;" d="M212.1,291.566c-0.012-0.054,0.813,0.088,2.186-0.467c0.667-0.293,1.465-0.788,2.129-1.631
								c0.675-0.826,1.17-2.025,1.174-3.417c0.092-5.652,0.224-13.798,0.387-23.854c0.183-10.077,0.4-22.066,0.641-35.377
								c0.016-0.832,0.031-1.67,0.047-2.512c0.006-0.852,0.085-1.686-0.115-2.472c-0.348-1.594-1.519-2.999-3.055-3.645
								c-0.778-0.333-1.589-0.433-2.476-0.426c-0.88-0.017-1.765-0.034-2.654-0.051c-1.778-0.034-3.573-0.068-5.384-0.103
								c-7.245-0.141-14.745-0.287-22.428-0.436c-1.834-0.04-3.646,0.942-4.567,2.512c-0.482,0.767-0.721,1.666-0.759,2.561
								c-0.02,0.941-0.039,1.88-0.058,2.814c-0.075,3.742-0.149,7.429-0.222,11.052c-0.148,7.246-0.29,14.235-0.426,20.894
								c-0.14,6.657-0.272,12.984-0.396,18.906c-0.063,2.96-0.125,5.819-0.184,8.568c-0.011,0.695-0.054,1.358,0.074,1.993
								c0.116,0.639,0.362,1.245,0.697,1.785c0.67,1.084,1.719,1.882,2.875,2.257c0.581,0.201,1.176,0.249,1.786,0.263
								c0.614,0.014,1.221,0.027,1.82,0.04c1.197,0.027,2.364,0.053,3.498,0.078c2.267,0.052,4.406,0.1,6.406,0.146
								c3.994,0.096,7.438,0.178,10.26,0.246c2.8,0.076,4.981,0.136,6.484,0.176c0.727,0.026,1.286,0.045,1.686,0.059
								C211.906,291.544,212.1,291.566,212.1,291.566s-0.195,0.014-0.575,0.015c-0.4-0.002-0.96-0.004-1.687-0.007
								c-1.503-0.018-3.685-0.045-6.486-0.079c-2.823-0.043-6.267-0.096-10.262-0.158c-2.001-0.033-4.14-0.069-6.407-0.106
								c-1.134-0.019-2.301-0.039-3.498-0.059c-0.599-0.01-1.206-0.021-1.82-0.031c-0.614-0.01-1.276-0.06-1.891-0.271
								c-1.24-0.396-2.367-1.245-3.09-2.405c-0.361-0.578-0.628-1.228-0.756-1.914c-0.14-0.691-0.097-1.399-0.089-2.076
								c0.049-2.749,0.101-5.608,0.154-8.569c0.109-5.922,0.226-12.25,0.348-18.907c0.126-6.659,0.259-13.648,0.396-20.894
								c0.07-3.623,0.141-7.311,0.214-11.052c0.019-0.936,0.038-1.876,0.057-2.819c0.04-0.982,0.304-1.973,0.833-2.817
								c1.011-1.724,3.005-2.808,5.021-2.762c7.682,0.153,15.183,0.303,22.427,0.447c1.811,0.037,3.606,0.073,5.384,0.109
								c0.889,0.018,1.774,0.036,2.654,0.054c0.87-0.009,1.832,0.104,2.661,0.469c1.682,0.71,2.958,2.248,3.337,3.993
								c0.217,0.881,0.129,1.764,0.123,2.59c-0.017,0.842-0.035,1.68-0.052,2.512c-0.283,13.31-0.538,25.299-0.752,35.375
								c-0.233,10.055-0.421,18.199-0.552,23.851c-0.019,1.434-0.549,2.674-1.256,3.51c-0.696,0.857-1.523,1.348-2.209,1.631
								c-0.697,0.281-1.273,0.339-1.65,0.378C212.295,291.579,212.1,291.566,212.1,291.566z"/>
						</g>
					</g>
					<g>
						<g>
							<g>
								<path style="fill:#FAFAFA;" d="M183.098,227.685c-0.063,3.179,2.464,5.807,5.643,5.87c3.179,0.063,5.807-2.464,5.87-5.643
									c0.063-3.179-2.464-5.807-5.643-5.87C185.788,221.979,183.16,224.505,183.098,227.685z"/>
								<g>
									<path style="fill:#263238;" d="M183.098,227.685c-0.018,0-0.027-0.127-0.027-0.371c-0.005-0.243,0.029-0.605,0.137-1.058
										c0.202-0.893,0.785-2.221,2.145-3.251c1.314-1.032,3.517-1.616,5.655-0.799c1.053,0.392,2.054,1.125,2.758,2.133
										c0.724,0.996,1.121,2.272,1.106,3.576c-0.036,1.304-0.483,2.564-1.245,3.531c-0.743,0.98-1.772,1.674-2.84,2.024
										c-2.169,0.733-4.348,0.062-5.62-1.021c-1.318-1.083-1.848-2.433-2.015-3.333c-0.089-0.456-0.109-0.819-0.095-1.062
										C183.066,227.81,183.08,227.684,183.098,227.685c0.054-0.002,0.028,0.514,0.251,1.386c0.22,0.856,0.781,2.111,2.047,3.09
										c1.222,0.981,3.251,1.553,5.236,0.855c1.967-0.637,3.694-2.684,3.719-5.111c0.07-2.425-1.575-4.537-3.515-5.251
										c-1.955-0.775-4.005-0.283-5.265,0.648c-1.303,0.928-1.913,2.16-2.167,3.007
										C183.146,227.173,183.152,227.688,183.098,227.685z"/>
								</g>
							</g>
							<path style="fill:#E0E0E0;" d="M192.657,227.873c-0.041,2.1-1.777,3.769-3.877,3.728c-2.1-0.041-3.769-1.777-3.728-3.877
								c0.041-2.1,1.777-3.769,3.877-3.728C191.029,224.037,192.698,225.773,192.657,227.873z"/>
						</g>
						<g>
							<g>
								<path style="fill:#FAFAFA;" d="M182.753,245.195c-0.063,3.179,2.464,5.807,5.643,5.87c3.179,0.063,5.807-2.464,5.87-5.643
									c0.063-3.179-2.464-5.807-5.643-5.87C185.444,239.489,182.816,242.016,182.753,245.195z"/>
								<g>
									<path style="fill:#263238;" d="M182.753,245.195c-0.018,0-0.027-0.127-0.026-0.371c-0.005-0.243,0.029-0.605,0.136-1.058
										c0.202-0.893,0.785-2.221,2.145-3.251c1.314-1.032,3.517-1.616,5.655-0.799c1.053,0.392,2.054,1.125,2.758,2.133
										c0.724,0.995,1.12,2.272,1.106,3.576c-0.036,1.304-0.483,2.564-1.245,3.531c-0.743,0.98-1.772,1.674-2.84,2.024
										c-2.169,0.733-4.348,0.062-5.62-1.021c-1.318-1.083-1.848-2.433-2.015-3.333c-0.089-0.456-0.109-0.819-0.095-1.062
										C182.721,245.321,182.735,245.195,182.753,245.195c0.054-0.002,0.028,0.514,0.251,1.386c0.22,0.856,0.781,2.111,2.047,3.09
										c1.223,0.981,3.251,1.553,5.236,0.855c1.967-0.637,3.694-2.684,3.719-5.111c0.069-2.425-1.575-4.537-3.515-5.251
										c-1.955-0.775-4.005-0.283-5.265,0.648c-1.303,0.928-1.913,2.16-2.167,3.007
										C182.802,244.683,182.807,245.199,182.753,245.195z"/>
								</g>
							</g>
							<path style="fill:#E0E0E0;" d="M192.312,245.383c-0.041,2.1-1.777,3.769-3.877,3.728c-2.1-0.041-3.769-1.777-3.728-3.877
								c0.041-2.1,1.777-3.769,3.877-3.728C190.684,241.547,192.353,243.283,192.312,245.383z"/>
						</g>
						<g>
							<g>
								<path style="fill:#FAFAFA;" d="M200.731,245.549c-0.063,3.179,2.464,5.807,5.643,5.87c3.179,0.063,5.807-2.464,5.87-5.643
									c0.063-3.179-2.464-5.807-5.643-5.87C203.422,239.843,200.794,242.37,200.731,245.549z"/>
								<g>
									<path style="fill:#263238;" d="M200.731,245.549c-0.018,0-0.027-0.127-0.027-0.371c-0.005-0.243,0.029-0.605,0.136-1.058
										c0.202-0.893,0.785-2.221,2.145-3.251c1.314-1.032,3.517-1.616,5.655-0.799c1.053,0.392,2.054,1.125,2.758,2.133
										c0.724,0.995,1.12,2.272,1.106,3.576c-0.036,1.304-0.483,2.564-1.245,3.531c-0.743,0.98-1.772,1.674-2.84,2.024
										c-2.169,0.733-4.348,0.062-5.62-1.021c-1.318-1.083-1.848-2.433-2.015-3.333c-0.089-0.456-0.109-0.819-0.095-1.062
										C200.699,245.674,200.713,245.548,200.731,245.549c0.054-0.002,0.029,0.513,0.251,1.386c0.22,0.856,0.781,2.111,2.047,3.09
										c1.223,0.981,3.251,1.553,5.236,0.855c1.967-0.637,3.694-2.684,3.719-5.111c0.07-2.425-1.575-4.537-3.515-5.251
										c-1.955-0.775-4.005-0.283-5.265,0.648c-1.303,0.928-1.913,2.16-2.167,3.007
										C200.78,245.037,200.785,245.553,200.731,245.549z"/>
								</g>
							</g>
							<path style="fill:#E0E0E0;" d="M210.29,245.737c-0.041,2.1-1.777,3.769-3.877,3.728c-2.1-0.041-3.769-1.777-3.727-3.877
								c0.041-2.1,1.777-3.769,3.877-3.728C208.662,241.901,210.331,243.637,210.29,245.737z"/>
						</g>
						<g>
							<g>
								<path style="fill:#FAFAFA;" d="M182.408,262.705c-0.063,3.179,2.464,5.807,5.643,5.87c3.179,0.063,5.807-2.464,5.87-5.643
									s-2.464-5.807-5.643-5.87C185.099,256.999,182.471,259.526,182.408,262.705z"/>
								<g>
									<path style="fill:#263238;" d="M182.408,262.705c-0.018,0-0.027-0.127-0.027-0.371c-0.005-0.243,0.029-0.605,0.136-1.058
										c0.202-0.893,0.785-2.221,2.145-3.251c1.314-1.032,3.517-1.616,5.655-0.799c1.053,0.392,2.054,1.125,2.758,2.133
										c0.724,0.995,1.12,2.272,1.106,3.576c-0.036,1.304-0.483,2.564-1.245,3.531c-0.743,0.98-1.772,1.674-2.84,2.024
										c-2.169,0.733-4.348,0.062-5.62-1.021c-1.318-1.083-1.848-2.433-2.015-3.333c-0.089-0.456-0.109-0.819-0.095-1.062
										C182.377,262.831,182.39,262.705,182.408,262.705c0.054-0.002,0.029,0.513,0.251,1.386c0.22,0.856,0.781,2.111,2.047,3.09
										c1.223,0.981,3.251,1.553,5.236,0.855c1.967-0.637,3.694-2.684,3.719-5.111c0.07-2.425-1.575-4.537-3.515-5.251
										c-1.955-0.775-4.005-0.283-5.265,0.648c-1.303,0.928-1.913,2.16-2.167,3.007
										C182.457,262.193,182.462,262.709,182.408,262.705z"/>
								</g>
							</g>
							<path style="fill:#E0E0E0;" d="M191.967,262.893c-0.041,2.1-1.777,3.769-3.877,3.728c-2.1-0.041-3.769-1.777-3.728-3.877
								c0.041-2.1,1.777-3.769,3.877-3.728C190.34,259.057,192.009,260.793,191.967,262.893z"/>
						</g>
						<g>
							<g>
								<path style="fill:#FAFAFA;" d="M200.386,263.059c-0.063,3.179,2.464,5.807,5.643,5.87c3.179,0.063,5.807-2.464,5.87-5.643
									s-2.464-5.807-5.643-5.87S200.449,259.88,200.386,263.059z"/>
								<g>
									<path style="fill:#263238;" d="M200.386,263.059c-0.018,0-0.027-0.127-0.027-0.371c-0.005-0.243,0.029-0.605,0.136-1.058
										c0.202-0.893,0.785-2.221,2.145-3.251c1.314-1.032,3.517-1.616,5.655-0.799c1.053,0.392,2.054,1.125,2.758,2.133
										c0.724,0.995,1.12,2.272,1.106,3.576c-0.036,1.304-0.483,2.564-1.245,3.531c-0.743,0.98-1.772,1.674-2.84,2.024
										c-2.169,0.733-4.348,0.062-5.62-1.021c-1.318-1.082-1.848-2.433-2.015-3.333c-0.089-0.456-0.109-0.819-0.095-1.062
										C200.355,263.185,200.368,263.059,200.386,263.059c0.054-0.002,0.028,0.513,0.251,1.386c0.22,0.856,0.781,2.111,2.047,3.09
										c1.223,0.981,3.251,1.553,5.236,0.855c1.967-0.637,3.694-2.684,3.719-5.111c0.069-2.425-1.575-4.537-3.515-5.251
										c-1.955-0.775-4.005-0.283-5.265,0.648c-1.303,0.928-1.913,2.16-2.167,3.007
										C200.435,262.547,200.44,263.063,200.386,263.059z"/>
								</g>
							</g>
							<path style="fill:#E0E0E0;" d="M209.945,263.247c-0.041,2.1-1.777,3.769-3.877,3.728c-2.1-0.041-3.769-1.777-3.727-3.877
								c0.041-2.1,1.777-3.769,3.877-3.728C208.318,259.411,209.987,261.147,209.945,263.247z"/>
						</g>
						<g>
							<g>
								<path style="fill:#FAFAFA;" d="M182.064,280.215c-0.063,3.179,2.464,5.807,5.643,5.87c3.179,0.063,5.807-2.464,5.87-5.643
									c0.063-3.179-2.464-5.807-5.643-5.87C184.754,274.509,182.126,277.036,182.064,280.215z"/>
								<g>
									<path style="fill:#263238;" d="M182.064,280.215c-0.018,0-0.027-0.127-0.027-0.371c-0.005-0.243,0.029-0.605,0.136-1.058
										c0.202-0.893,0.785-2.221,2.145-3.251c1.314-1.032,3.517-1.616,5.655-0.799c1.053,0.392,2.054,1.125,2.758,2.133
										c0.724,0.995,1.12,2.272,1.106,3.576c-0.036,1.304-0.483,2.564-1.245,3.531c-0.743,0.98-1.772,1.674-2.84,2.024
										c-2.169,0.733-4.348,0.062-5.62-1.021c-1.318-1.083-1.848-2.433-2.015-3.333c-0.089-0.456-0.109-0.819-0.095-1.062
										C182.032,280.341,182.046,280.215,182.064,280.215c0.054-0.002,0.028,0.513,0.251,1.386c0.22,0.856,0.781,2.111,2.046,3.09
										c1.223,0.981,3.251,1.553,5.236,0.855c1.967-0.637,3.694-2.684,3.719-5.111c0.07-2.425-1.575-4.537-3.515-5.251
										c-1.955-0.775-4.005-0.283-5.265,0.648c-1.303,0.928-1.913,2.16-2.167,3.007
										C182.112,279.703,182.117,280.219,182.064,280.215z"/>
								</g>
							</g>
							<path style="fill:#E0E0E0;" d="M191.623,280.403c-0.041,2.1-1.777,3.769-3.877,3.728c-2.1-0.041-3.769-1.777-3.728-3.877
								c0.041-2.1,1.777-3.769,3.877-3.727C189.995,276.568,191.664,278.303,191.623,280.403z"/>
						</g>
						<g>
							<g>
								<path style="fill:#FAFAFA;" d="M200.042,280.569c-0.063,3.179,2.464,5.807,5.643,5.87c3.179,0.063,5.807-2.464,5.87-5.643
									c0.063-3.179-2.464-5.807-5.643-5.87S200.104,277.39,200.042,280.569z"/>
								<g>
									<path style="fill:#263238;" d="M200.042,280.569c-0.018,0-0.027-0.127-0.026-0.371c-0.005-0.243,0.029-0.605,0.136-1.058
										c0.202-0.893,0.785-2.221,2.145-3.251c1.314-1.032,3.517-1.616,5.655-0.799c1.053,0.392,2.054,1.125,2.758,2.133
										c0.724,0.995,1.12,2.272,1.106,3.576c-0.036,1.304-0.483,2.564-1.245,3.531c-0.743,0.98-1.772,1.674-2.84,2.024
										c-2.169,0.733-4.348,0.062-5.62-1.021c-1.318-1.082-1.848-2.433-2.015-3.333c-0.089-0.456-0.109-0.819-0.095-1.062
										C200.01,280.695,200.024,280.569,200.042,280.569c0.054-0.002,0.029,0.513,0.251,1.386c0.22,0.856,0.781,2.111,2.047,3.09
										c1.222,0.981,3.251,1.553,5.236,0.855c1.967-0.637,3.694-2.684,3.719-5.111c0.07-2.425-1.575-4.537-3.515-5.251
										c-1.956-0.775-4.005-0.283-5.265,0.648c-1.303,0.928-1.913,2.16-2.167,3.007
										C200.09,280.057,200.095,280.573,200.042,280.569z"/>
								</g>
							</g>
							<path style="fill:#E0E0E0;" d="M209.601,280.757c-0.041,2.1-1.777,3.769-3.877,3.728c-2.1-0.041-3.769-1.777-3.728-3.877
								c0.041-2.1,1.777-3.769,3.877-3.728C207.973,276.921,209.642,278.657,209.601,280.757z"/>
						</g>
					</g>
				</g>
				<path style="fill:#FFBF9D;" d="M193.144,271.99l-5.391-10.985l-9.105-8.279c0,0-3.4-3.367-5.204-4.05
					c-1.804-0.683-19.275,4.871-19.275,4.871c-4.888,0.108-6.584,4.314-6.584,4.314c-6.438,4.473-3.038,11.02-3.038,11.02
					l0.425,8.412l2.804,28.978l-2.205,13.784c0,0,11.376-6.564,16.838-9.549c5.462-2.985,9.049-12.457,9.049-12.457
					c5.67-4.351,7.66-15.553,7.66-15.553c3.938-2.729,2.854-6.766,2.854-6.766c2.036-1.292,1.586-5.278,1.586-5.278
					c2.717,3.608,6.594,3.576,8.709,3.22C193.05,273.539,193.494,272.704,193.144,271.99z"/>
				<g>
					<g>
						<path style="fill:#FF9A6C;" d="M153.672,270.722c0-0.021,0.289-0.04,0.838-0.056c0.611-0.026,1.407-0.06,2.398-0.102
							c2.081-0.102,5.083-0.375,8.788-0.808c0.464-0.053,0.938-0.107,1.423-0.161c0.473-0.051,1.003-0.134,1.541-0.069
							c1.068,0.101,2.15,0.605,2.937,1.465c1.408,1.694,2.909,3.499,4.488,5.397c0.39,0.48,0.785,0.963,1.17,1.479
							c0.096,0.13,0.192,0.261,0.285,0.408c0.042,0.054,0.109,0.192,0.141,0.278l0.064,0.245c0.096,0.325,0.138,0.665,0.168,1.004
							c0.1,1.375-0.343,2.722-0.922,3.954c-0.591,1.239-1.351,2.393-2.11,3.553c-0.39,0.583-0.814,1.192-1.45,1.652
							c-0.629,0.472-1.573,0.615-2.319,0.246c-0.601-0.277-1.046-0.801-1.275-1.389c-0.219-0.592-0.273-1.204-0.199-1.803
							c0.157-1.201,0.751-2.207,1.289-3.143l0.085,0.402c-1.82-1.327-3.342-2.943-4.518-4.69l0.412,0.077
							c-1.937,1.319-4.398,1.488-6.35,0.702l0.299-0.444c0.779,0.832,0.968,2.063,0.551,3.041c-0.424,0.978-1.372,1.619-2.355,1.701
							l0.056-0.478c2.388,0.806,4.212,2.334,5.384,3.943c1.189,1.618,1.726,3.315,1.939,4.7c0.216,1.396,0.12,2.504,0.005,3.235
							c-0.061,0.366-0.121,0.644-0.176,0.827c-0.051,0.184-0.084,0.276-0.096,0.273c-0.107-0.002,0.462-1.556-0.008-4.288
							c-0.249-1.344-0.808-2.974-1.981-4.511c-1.157-1.531-2.934-2.97-5.22-3.712l-1.144-0.371l1.2-0.107
							c0.795-0.071,1.588-0.624,1.916-1.414c0.331-0.78,0.16-1.81-0.466-2.459l-0.878-0.91l1.177,0.465
							c1.787,0.706,4.063,0.531,5.812-0.678l0.245-0.169l0.168,0.247c1.147,1.686,2.627,3.245,4.39,4.524l0.224,0.162l-0.139,0.24
							c-0.536,0.93-1.075,1.883-1.204,2.91c-0.139,1.003,0.208,2.146,1.121,2.552c0.551,0.262,1.199,0.176,1.7-0.19
							c0.512-0.367,0.915-0.92,1.29-1.484c0.759-1.156,1.507-2.291,2.077-3.476c0.559-1.179,0.965-2.429,0.879-3.652
							c-0.026-0.302-0.06-0.604-0.145-0.893l-0.055-0.218c-0.03-0.06-0.028-0.069-0.078-0.144c-0.076-0.121-0.167-0.247-0.258-0.372
							c-0.368-0.499-0.76-0.985-1.145-1.464c-1.556-1.903-3.036-3.713-4.424-5.411c-0.691-0.771-1.65-1.233-2.605-1.335
							c-0.478-0.065-0.946,0.003-1.442,0.049c-0.486,0.048-0.961,0.095-1.425,0.141c-3.713,0.377-6.735,0.585-8.826,0.613
							c-1.045,0.021-1.857,0.004-2.407-0.015C153.96,270.767,153.672,270.744,153.672,270.722z"/>
					</g>
				</g>
				<g>
					<g>
						<path style="fill:#FF9A6C;" d="M181.809,276.574c-0.09,0.041-0.817-1.629-1.726-4.391c-0.482-1.366-1.04-3.008-1.998-4.636
							c-0.949-1.609-2.344-3.269-4.319-4.106c-1.981-0.83-4.136-0.678-6.031-0.562c-1.88,0.121-3.598,0.232-5.102,0.329
							c-1.453,0.085-2.63,0.142-3.444,0.168c-0.814,0.026-1.266,0.02-1.269-0.023c-0.003-0.043,0.442-0.118,1.251-0.219
							c0.809-0.1,1.98-0.225,3.429-0.366c1.502-0.136,3.217-0.292,5.093-0.462c1.899-0.142,4.143-0.342,6.316,0.56
							c2.16,0.919,3.616,2.708,4.574,4.392c0.969,1.714,1.489,3.398,1.92,4.787c0.382,1.29,0.707,2.392,0.977,3.304
							C181.715,276.128,181.851,276.557,181.809,276.574z"/>
					</g>
				</g>
				<g>
					<g>
						<path style="fill:#FF9A6C;" d="M183.661,271.726c-0.115,0.022-0.382-2.118-1.54-5.355c-0.577-1.616-1.409-3.49-2.558-5.441
							c-0.583-0.964-1.217-1.991-1.983-2.921c-0.765-0.935-1.774-1.664-3.033-1.834c-1.242-0.194-2.547-0.091-3.783-0.079
							c-1.239,0.034-2.435,0.087-3.572,0.155c-2.275,0.136-4.32,0.327-6.034,0.52c-1.714,0.19-3.099,0.377-4.056,0.503
							c-0.958,0.125-1.49,0.186-1.498,0.141c-0.008-0.04,0.51-0.182,1.458-0.38c0.948-0.199,2.326-0.454,4.041-0.7
							c1.714-0.249,3.765-0.486,6.051-0.655c1.143-0.084,2.344-0.149,3.591-0.192c1.245-0.018,2.532-0.135,3.905,0.075
							c0.679,0.109,1.357,0.342,1.933,0.719c0.577,0.371,1.053,0.846,1.463,1.337c0.809,0.997,1.427,2.028,2.012,3.024
							c1.143,2.004,1.946,3.93,2.478,5.586c0.544,1.655,0.822,3.039,0.981,3.996C183.675,271.183,183.695,271.721,183.661,271.726z"
							/>
					</g>
				</g>
			</g>
			<path style="fill:#FFBF9D;" d="M147.774,306.271c0,0-8.731,53.702-10.15,68.992c-1.842,19.843-5.274,33.387,0.295,46.915
				c4.816,11.698,17.523,19.74,29.156,14.826c11.633-4.914,15.719-37.732,15.719-37.732l-14.077-95.617L147.774,306.271z"/>
			<g>
				<path style="fill:#FF9A6C;" d="M177.612,396.864c-0.009-0.003,0.003-0.085,0.033-0.243c0.04-0.188,0.088-0.417,0.148-0.698
					c0.115-0.617,0.39-1.502,0.57-2.679c0.479-2.328,0.912-5.755,0.976-10.002c0.04-4.249-0.374-9.305-1.184-14.871
					c-0.792-5.569-1.899-11.665-2.839-18.101c-1.922-12.857-3.83-24.475-4.986-32.919c-0.587-4.221-1.016-7.643-1.273-10.012
					c-0.118-1.152-0.211-2.063-0.279-2.73c-0.023-0.287-0.042-0.52-0.058-0.712c-0.01-0.161-0.011-0.243-0.002-0.244
					c0.009-0.001,0.027,0.08,0.055,0.238c0.029,0.19,0.065,0.421,0.109,0.705c0.092,0.664,0.217,1.571,0.376,2.717
					c0.319,2.36,0.804,5.772,1.437,9.984c1.249,8.426,3.214,20.031,5.137,32.896c0.938,6.428,2.03,12.523,2.799,18.111
					c0.786,5.583,1.165,10.67,1.077,14.943c-0.111,4.272-0.603,7.712-1.145,10.036c-0.212,1.175-0.519,2.056-0.667,2.665
					c-0.08,0.276-0.145,0.502-0.198,0.686C177.649,396.789,177.62,396.867,177.612,396.864z"/>
			</g>
		</g>
		<g>
			<path style="fill:#FFBF9D;" d="M352.13,247.134c0,0,32.761,65.542,40.82,86.498c8.059,20.956,5.317,33.399,0.598,39.707
				c-4.719,6.308-27.315-1.714-28.295-2.249c-4.307-2.351-13.206-21.073-13.206-21.073l-22.026-97.087L352.13,247.134z"/>
			<g>
				<path style="fill:#FF9A6C;" d="M354.523,351.121c-0.008,0.003-0.046-0.078-0.11-0.238c-0.072-0.19-0.162-0.426-0.273-0.717
					c-0.243-0.673-0.578-1.601-1.002-2.777c-0.893-2.405-1.995-5.948-3.354-10.325c-2.666-8.772-5.919-21.014-9.166-34.615
					c-3.256-13.604-5.927-25.982-7.779-34.957c-0.929-4.487-1.649-8.124-2.131-10.641c-0.228-1.228-0.408-2.198-0.538-2.901
					c-0.051-0.308-0.092-0.557-0.125-0.757c-0.025-0.171-0.034-0.26-0.025-0.262c0.009-0.002,0.035,0.083,0.077,0.251
					c0.047,0.198,0.104,0.444,0.176,0.747c0.154,0.699,0.365,1.661,0.634,2.881c0.55,2.546,1.331,6.158,2.292,10.605
					c1.944,8.953,4.671,21.314,7.926,34.912c3.246,13.595,6.439,25.842,9.012,34.632c1.312,4.386,2.36,7.943,3.193,10.365
					c0.385,1.188,0.688,2.126,0.909,2.807c0.091,0.298,0.165,0.54,0.224,0.734C354.511,351.031,354.532,351.118,354.523,351.121z"/>
			</g>
			<g>
				<path style="fill:#FFBF9D;" d="M311.084,201.237c0,0-1.498,0.725-1.063,3.188c0.435,2.464,4.976,11.353,5.362,13.237
					c0.386,1.884,1.36,14.857,3.07,18.335c1.71,3.478,2.534-3.746,2.534-3.746l6.667-11.643l1.344-3.43c0,0-3.038,2.287-5.354-2.609
					c-1.215-2.569-2.754-7.73-5.169-11.111S313.451,199.595,311.084,201.237z"/>
				<g>
					<path style="fill:#FF9A6C;" d="M323.414,204.827c-0.013,0.07-0.853-0.014-2.206-0.193c-1.348-0.197-3.233-0.443-5.242-1.115
						c-1.983-0.672-3.725-1.488-4.841-2.332c-0.559-0.417-0.949-0.849-1.149-1.191c-0.211-0.338-0.221-0.573-0.202-0.576
						c0.067-0.026,0.404,0.757,1.562,1.465c1.118,0.732,2.84,1.478,4.796,2.14c1.943,0.651,3.807,0.956,5.137,1.245
						C322.606,204.543,323.428,204.756,323.414,204.827z"/>
				</g>
				<g>
					<g>
						<path style="fill:#FAFAFA;" d="M305.948,195.42c0,2.85,2.31,5.16,5.16,5.16c2.85,0,5.16-2.31,5.16-5.16
							c0-2.85-2.31-5.16-5.16-5.16C308.258,190.26,305.948,192.57,305.948,195.42z"/>
						<g>
							<path style="fill:#263238;" d="M305.948,195.42c-0.018,0-0.03-0.113-0.036-0.332c-0.01-0.218,0.012-0.544,0.099-0.952
								c0.163-0.806,0.66-2.011,1.863-2.963c1.162-0.953,3.134-1.52,5.073-0.824c0.955,0.333,1.869,0.975,2.521,1.871
								c0.669,0.883,1.05,2.025,1.059,3.2c-0.009,1.175-0.39,2.318-1.059,3.201c-0.652,0.896-1.566,1.538-2.522,1.871
								c-1.94,0.697-3.912,0.129-5.073-0.824c-1.203-0.952-1.7-2.158-1.863-2.963c-0.087-0.408-0.109-0.734-0.099-0.952
								C305.918,195.533,305.93,195.42,305.948,195.42c0.052-0.002,0.042,0.459,0.26,1.235c0.215,0.761,0.741,1.871,1.89,2.72
								c1.11,0.852,2.93,1.324,4.686,0.666c1.742-0.604,3.244-2.458,3.224-4.621c0.019-2.162-1.482-4.016-3.224-4.62
								c-1.756-0.658-3.576-0.186-4.686,0.666c-1.148,0.849-1.675,1.959-1.89,2.72C305.99,194.96,306,195.422,305.948,195.42z"/>
						</g>
					</g>
					<path style="fill:#E0E0E0;" d="M314.516,195.42c0,1.882-1.526,3.408-3.408,3.408c-1.882,0-3.408-1.526-3.408-3.408
						c0-1.882,1.526-3.408,3.408-3.408C312.99,192.012,314.516,193.538,314.516,195.42z"/>
					<path style="fill:#FFBF9D;" d="M307.907,198.898c0,0,0.312-2.026,2.182-2.416c1.87-0.39,19.563,1.403,21.589,1.715
						c2.026,0.312,6.781,0.701,6.781,0.701s6.391-0.935,8.573,5.3l2.026,4.598c0,0,5.689,0.312,5.923,5.689
						c0.234,5.378,0.701,8.495,0.701,8.495s6.733,2.065,6.421,5.572c-0.312,3.507-3.147,9.548-3.147,9.548l-5.252,9.627
						c0,0-3.738,8.822-14.504,8.673l-5.988,0.002c0,0-14.197-15.852-15.244-22.879c-1.047-7.028,7.993-11.303,7.993-11.303
						l7.977-8.173l0.179-6.99c0,0-17.046-1.944-20.635-3.439C309.894,202.122,307.715,201.206,307.907,198.898z"/>
					<g>
						<path style="fill:#FFBF9D;" d="M351.202,231.224c-0.491,2.183-0.287,4.517,0.576,6.582"/>
						<g>
							<path style="fill:#FF9A6C;" d="M351.778,237.806c-0.116,0.066-0.895-1.313-1.055-3.224c-0.174-1.91,0.354-3.404,0.479-3.358
								c0.151,0.034-0.128,1.506,0.04,3.313C351.39,236.345,351.921,237.746,351.778,237.806z"/>
						</g>
					</g>
					<g>
						<path style="fill:#FFBF9D;" d="M338.194,198.876c0,0-10.529,1.232-13.425,2.697c-0.291,0.147-7.231,8.171-7.231,8.171
							s1.439,3.728,5.65,2.347c4.211-1.381,5.258-4.142,5.258-4.142l9.748-0.345l2.264,4.487"/>
						<g>
							<path style="fill:#FF9A6C;" d="M340.458,212.091c-0.025,0.013-0.257-0.386-0.666-1.141c-0.435-0.823-1.015-1.92-1.733-3.278
								l0.141,0.083c-2.529,0.111-5.872,0.257-9.745,0.427l0.21-0.15c-0.788,1.703-2.354,2.991-4.185,3.825
								c-0.913,0.4-1.909,0.773-3.003,0.789c-1.085,0.038-2.222-0.381-3.028-1.17c-0.504-0.478-0.889-1.03-1.152-1.638l-0.061-0.141
								l0.107-0.123c2.263-2.604,4.406-5.064,6.396-7.259c0.254-0.276,0.49-0.537,0.765-0.811c0.207-0.206,0.356-0.196,0.531-0.292
								c0.168-0.074,0.336-0.144,0.506-0.195c0.673-0.233,1.333-0.41,1.975-0.559c1.282-0.302,2.481-0.528,3.578-0.71
								c2.192-0.368,3.968-0.587,5.194-0.726c0.613-0.068,1.089-0.113,1.412-0.137c0.323-0.024,0.494-0.027,0.496-0.01
								c0.002,0.017-0.164,0.054-0.483,0.11c-0.376,0.062-0.837,0.138-1.399,0.23c-1.216,0.198-2.982,0.471-5.157,0.883
								c-1.088,0.204-2.278,0.45-3.54,0.767c-0.631,0.156-1.28,0.339-1.925,0.572c-0.165,0.051-0.322,0.119-0.477,0.19
								c-0.134,0.07-0.37,0.134-0.401,0.215c-0.231,0.237-0.483,0.518-0.727,0.789c-1.961,2.205-4.094,4.679-6.35,7.284l0.046-0.263
								c0.216,0.5,0.58,1.033,1.025,1.447c0.72,0.699,1.693,1.059,2.665,1.031c0.973-0.009,1.917-0.35,2.8-0.733
								c1.745-0.771,3.251-2.038,3.957-3.529l0.069-0.147l0.14-0.004c3.875-0.105,7.221-0.195,9.751-0.264l0.1-0.003l0.041,0.086
								c0.666,1.385,1.203,2.503,1.607,3.342C340.3,211.655,340.484,212.079,340.458,212.091z"/>
						</g>
					</g>
					<g>
						<path style="fill:#FFBF9D;" d="M349.364,209.192l-12.578-0.699c-1.49-0.083-2.948,0.45-4.034,1.474l-6.791,6.405
							c0,0,0.552,3.728,4.418,2.899c3.866-0.828,7.283-3.521,7.283-3.521s6.731,1.381,6.938,1.381c0.207,0,1.45,4.349,1.45,4.349"/>
						<g>
							<path style="fill:#FF9A6C;" d="M346.05,221.48c-0.022,0.006-0.122-0.266-0.296-0.782c-0.194-0.579-0.444-1.322-0.751-2.236
								c-0.087-0.24-0.179-0.49-0.274-0.751c-0.049-0.128-0.105-0.265-0.164-0.38c-0.008-0.016-0.044-0.082-0.03-0.059
								c0.012,0.017,0.054,0.018,0.063,0.006l-0.055-0.01l-0.225-0.041c-0.611-0.114-1.267-0.235-1.965-0.365
								c-1.419-0.269-3.005-0.571-4.734-0.899l0.178-0.042c-1.637,1.238-3.59,2.389-5.875,3.182
								c-0.578,0.182-1.157,0.365-1.79,0.462c-0.624,0.122-1.307,0.106-1.956-0.093c-0.651-0.198-1.239-0.626-1.655-1.174
								c-0.409-0.56-0.683-1.185-0.818-1.888l-0.025-0.13l0.104-0.098c0.06-0.057,0.125-0.118,0.191-0.18
								c1.311-1.234,2.591-2.439,3.828-3.603c0.619-0.581,1.227-1.151,1.823-1.711c0.6-0.539,1.145-1.152,1.856-1.584
								c0.693-0.43,1.461-0.692,2.224-0.794c0.777-0.111,1.507-0.001,2.19,0.028c1.379,0.088,2.668,0.17,3.853,0.246
								c2.297,0.162,4.183,0.295,5.576,0.393c0.609,0.053,1.109,0.097,1.515,0.133c0.346,0.036,0.527,0.064,0.526,0.082
								c-0.001,0.018-0.184,0.025-0.532,0.023c-0.406-0.01-0.909-0.021-1.52-0.036c-1.395-0.057-3.285-0.134-5.586-0.227
								c-1.186-0.056-2.476-0.117-3.856-0.182c-0.7-0.022-1.41-0.116-2.103-0.005c-0.7,0.101-1.402,0.348-2.033,0.747
								c-0.63,0.384-1.161,0.983-1.769,1.538c-0.593,0.562-1.198,1.136-1.814,1.72c-1.235,1.167-2.513,2.374-3.821,3.611
								c-0.065,0.062-0.131,0.123-0.191,0.18l0.079-0.227c0.222,1.186,0.993,2.327,2.113,2.648c1.114,0.359,2.328-0.014,3.433-0.35
								c2.215-0.752,4.163-1.873,5.764-3.052l0.084-0.062l0.094,0.02c1.705,0.355,3.271,0.681,4.67,0.972
								c0.69,0.147,1.339,0.285,1.944,0.413l0.223,0.048l0.055,0.012c0.038,0.009,0.105,0.039,0.144,0.081
								c0.066,0.077,0.051,0.086,0.081,0.133c0.071,0.148,0.118,0.282,0.166,0.418c0.088,0.268,0.172,0.524,0.252,0.77
								c0.298,0.977,0.504,1.749,0.639,2.277C346.014,221.189,346.072,221.474,346.05,221.48z"/>
						</g>
					</g>
					<g>
						<path style="fill:#FFBF9D;" d="M359.075,224.554c0,0-6.264-3.143-7.297-3.074c-1.033,0.069-11.975,4.057-11.975,4.057
							s2.175,4.434,5.35,4.02c3.176-0.414,5.788-1.381,5.788-1.381l4.498,4.418"/>
						<g>
							<path style="fill:#FF9A6C;" d="M355.439,232.595c-0.026,0.027-0.48-0.369-1.279-1.11c-0.859-0.814-1.987-1.882-3.351-3.173
								l0.198,0.042c-1.615,0.584-3.556,1.118-5.763,1.433c-0.579,0.061-1.207,0.03-1.782-0.193
								c-0.573-0.218-1.102-0.55-1.578-0.948c-0.938-0.819-1.701-1.836-2.314-2.994l-0.136-0.257l0.281-0.102
								c0.183-0.066,0.38-0.138,0.578-0.21c2.595-0.939,5.074-1.813,7.342-2.576c1.135-0.38,2.214-0.735,3.243-1.031
								c0.267-0.067,0.502-0.146,0.797-0.188c0.307-0.036,0.585,0.062,0.82,0.128c0.483,0.155,0.923,0.335,1.343,0.511
								c1.669,0.717,2.974,1.382,3.874,1.845c0.897,0.468,1.382,0.75,1.366,0.782c-0.016,0.032-0.531-0.188-1.453-0.599
								c-0.924-0.406-2.254-1.02-3.924-1.687c-0.418-0.163-0.859-0.331-1.319-0.467c-0.236-0.06-0.454-0.131-0.658-0.098
								c-0.213,0.034-0.476,0.12-0.723,0.188c-1.008,0.31-2.082,0.679-3.209,1.071c-2.259,0.806-4.728,1.687-7.32,2.612
								c-0.198,0.072-0.394,0.143-0.577,0.209l0.145-0.359c0.57,1.079,1.313,2.078,2.177,2.836c0.439,0.371,0.917,0.672,1.42,0.869
								c0.507,0.201,1.032,0.227,1.547,0.183c2.166-0.283,4.104-0.781,5.695-1.312l0.118-0.039l0.081,0.082
								c1.316,1.341,2.404,2.45,3.233,3.294C355.061,232.121,355.465,232.568,355.439,232.595z"/>
						</g>
					</g>
					<g>
						<path style="fill:#FF9A6C;" d="M328.894,221.371c-0.008,0.048-0.262-0.047-0.644,0.113c-0.379,0.158-0.815,0.624-1.158,1.31
							c-0.654,1.42-1.493,3.452-2.249,5.734c-0.76,2.287-1.284,4.409-1.623,5.953c-0.338,1.545-0.516,2.512-0.593,2.501
							c-0.066-0.008-0.017-0.994,0.231-2.57c0.248-1.574,0.722-3.735,1.49-6.048c0.768-2.316,1.659-4.327,2.42-5.748
							c0.408-0.708,0.939-1.199,1.415-1.325C328.665,221.172,328.91,221.357,328.894,221.371z"/>
					</g>
				</g>
				<g>
					<path style="fill:#FF9A6C;" d="M321.382,205.329c-0.018,0.071-0.832-0.067-2.152-0.278c-1.318-0.222-3.145-0.505-5.145-0.983
						c-2.008-0.469-3.761-1.274-4.825-2.144c-1.075-0.866-1.457-1.656-1.41-1.678c0.073-0.057,0.551,0.634,1.63,1.382
						c1.072,0.757,2.759,1.473,4.729,1.934c1.971,0.471,3.791,0.813,5.093,1.128C320.608,204.994,321.4,205.26,321.382,205.329z"/>
				</g>
			</g>
		</g>
	</g>
</g>
</svg>
