<?xml version="1.0" encoding="utf-8"?>
<!-- Generator: Adobe Illustrator 27.5.0, SVG Export Plug-In . SVG Version: 6.00 Build 0)  -->
<svg version="1.1" xmlns="http://www.w3.org/2000/svg" xmlns:xlink="http://www.w3.org/1999/xlink" x="0px" y="0px"
	 viewBox="0 0 750 500" style="enable-background:new 0 0 750 500;" xml:space="preserve">
<g id="Background_Complete">
	<g>
		<g>
			<g>
				<path style="fill:#E0E0E0;" d="M410.764,55.553c0.009,0.002-0.013,0.152-0.065,0.444c-0.046,0.292-0.145,0.722-0.229,1.292
					c-0.187,1.137-0.413,2.826-0.481,5.012c-0.07,2.183,0.062,4.872,0.666,7.916c0.611,3.038,1.757,6.421,3.717,9.8
					c1.929,3.401,4.6,6.769,7.364,10.462c2.785,3.671,5.486,7.887,7.388,12.747c1.91,4.843,3.161,10.243,3.4,15.914
					c0.231,5.663-0.58,11.596-2.659,17.248c-2.067,5.656-5.227,10.739-9.054,14.925c-3.815,4.205-8.344,7.466-13.036,9.72
					c-4.673,2.296-9.319,3.966-13.429,6.029c-4.129,2.017-7.644,4.541-10.305,7.398c-2.69,2.83-4.604,5.847-5.947,8.638
					c-1.353,2.794-2.138,5.369-2.604,7.502c-0.268,1.061-0.369,2.03-0.515,2.859c-0.08,0.838-0.176,1.545-0.209,2.12
					c-0.028,0.557-0.05,0.992-0.066,1.31c-0.018,0.295-0.031,0.447-0.04,0.447s-0.013-0.152-0.013-0.448
					c0.004-0.32,0.008-0.756,0.014-1.315c0.016-0.578,0.095-1.29,0.16-2.134c0.131-0.835,0.216-1.812,0.471-2.882
					c0.439-2.152,1.201-4.756,2.54-7.585c1.329-2.827,3.238-5.887,5.941-8.765c2.67-2.905,6.23-5.485,10.379-7.532
					c4.13-2.094,8.777-3.783,13.409-6.073c4.646-2.248,9.102-5.471,12.872-9.634c3.777-4.143,6.899-9.17,8.941-14.76
					c2.054-5.586,2.859-11.446,2.638-17.049c-0.229-5.611-1.457-10.958-3.336-15.758c-1.873-4.82-4.524-8.99-7.288-12.666
					c-2.741-3.695-5.41-7.094-7.337-10.537c-1.959-3.425-3.094-6.858-3.682-9.926c-0.582-3.076-0.685-5.785-0.583-7.98
					c0.1-2.197,0.359-3.889,0.581-5.023c0.102-0.569,0.217-0.996,0.281-1.285C410.715,55.697,410.755,55.55,410.764,55.553z"/>
			</g>
		</g>
		<g>
			<g>
				<path style="fill:#E0E0E0;" d="M452.818,62.604c0,0-0.525,2.423-2.055,6.627c-0.772,2.097-1.807,4.641-3.339,7.432
					c-1.531,2.776-3.558,5.862-6.593,8.526c-0.752,0.669-1.587,1.279-2.467,1.859c-0.904,0.554-1.845,1.067-2.814,1.561
					c-1.939,0.996-3.957,2.033-6.045,3.106c-4.182,2.133-8.671,4.376-13.271,6.947c-4.572,2.577-8.967,6.041-12.708,10.365
					c-3.736,4.313-6.811,9.511-8.589,15.302c-1.775,5.789-2.135,11.841-1.238,17.475c0.898,5.638,3.064,10.86,6.174,15.086
					c3.087,4.255,6.725,7.754,9.638,11.46c1.467,1.843,2.766,3.729,3.786,5.675c1,1.951,1.804,3.906,2.355,5.838
					c1.12,3.861,1.4,7.529,1.275,10.706c-0.134,3.186-0.719,5.892-1.385,8.027c-0.659,2.142-1.388,3.727-1.919,4.777
					c-0.274,0.5-0.488,0.89-0.644,1.174c-0.147,0.263-0.235,0.391-0.235,0.391s0.056-0.146,0.188-0.417
					c0.145-0.29,0.342-0.686,0.596-1.195c0.498-1.061,1.193-2.652,1.819-4.788c0.633-2.13,1.183-4.821,1.288-7.98
					c0.097-3.15-0.207-6.78-1.337-10.59c-0.556-1.907-1.361-3.832-2.357-5.753c-1.014-1.914-2.305-3.772-3.769-5.595
					c-2.904-3.668-6.555-7.153-9.689-11.448c-3.164-4.275-5.373-9.575-6.289-15.286c-0.916-5.71-0.555-11.84,1.244-17.709
					c1.802-5.87,4.919-11.127,8.701-15.483c3.787-4.366,8.233-7.857,12.858-10.448c4.623-2.57,9.12-4.797,13.311-6.914
					c2.092-1.063,4.112-2.09,6.055-3.077c0.975-0.491,1.911-0.996,2.793-1.53c0.866-0.564,1.689-1.157,2.433-1.812
					c3.001-2.602,5.035-5.644,6.579-8.389c1.547-2.759,2.606-5.282,3.404-7.362c0.798-2.082,1.331-3.732,1.69-4.851
					c0.171-0.543,0.304-0.966,0.401-1.276C452.757,62.747,452.818,62.604,452.818,62.604z"/>
			</g>
		</g>
		<g>
			<g>
				<path style="fill:#E0E0E0;" d="M437,87.626c-0.029,0.141-4.855-0.734-10.778-1.953c-5.925-1.22-10.703-2.323-10.674-2.464
					c0.029-0.141,4.854,0.733,10.779,1.953C432.25,86.382,437.029,87.485,437,87.626z"/>
			</g>
		</g>
		<g>
			<g>
				<path style="fill:#E0E0E0;" d="M444.327,80.71c-0.04,0.138-7.471-1.919-16.595-4.593c-9.127-2.676-16.49-4.956-16.45-5.094
					c0.04-0.138,7.47,1.919,16.597,4.594C437.002,78.291,444.368,80.572,444.327,80.71z"/>
			</g>
		</g>
		<g>
			<g>
				<path style="fill:#E0E0E0;" d="M449.698,71.635c-0.041,0.138-8.948-2.418-19.891-5.707c-10.947-3.29-19.784-6.068-19.743-6.206
					c0.041-0.138,8.946,2.417,19.893,5.707C440.9,68.719,449.74,71.497,449.698,71.635z"/>
			</g>
		</g>
		<g>
			<g>
				<path style="fill:#E0E0E0;" d="M415.61,155.794c-0.052,0.134-4.833-1.578-10.678-3.825c-5.847-2.247-10.544-4.177-10.493-4.311
					c0.052-0.134,4.832,1.578,10.679,3.825C410.964,153.729,415.661,155.659,415.61,155.794z"/>
			</g>
		</g>
		<g>
			<g>
				<path style="fill:#E0E0E0;" d="M424.997,145.031c-0.011,0.034-0.467-0.077-1.282-0.307c-0.815-0.229-1.988-0.584-3.431-1.042
					c-2.886-0.914-6.849-2.257-11.178-3.869c-4.33-1.614-8.206-3.191-10.987-4.388c-1.391-0.598-2.51-1.097-3.276-1.457
					c-0.767-0.359-1.184-0.573-1.17-0.606s0.458,0.118,1.249,0.42c0.885,0.346,2.003,0.782,3.337,1.303
					c2.814,1.109,6.705,2.629,11.029,4.241c4.323,1.609,8.26,3.005,11.113,4.008c1.35,0.479,2.481,0.88,3.376,1.198
					C424.573,144.82,425.008,144.997,424.997,145.031z"/>
			</g>
		</g>
		<g>
			<g>
				<path style="fill:#E0E0E0;" d="M430.389,133.367c-0.015,0.033-0.506-0.151-1.381-0.512c-0.963-0.401-2.206-0.918-3.698-1.54
					c-3.122-1.299-7.451-3.053-12.284-4.854c-4.836-1.799-9.258-3.304-12.469-4.363c-1.535-0.506-2.814-0.928-3.804-1.254
					c-0.898-0.299-1.389-0.481-1.379-0.516c0.01-0.035,0.521,0.082,1.437,0.322c0.917,0.238,2.235,0.611,3.857,1.097
					c3.244,0.97,7.695,2.423,12.54,4.226c4.843,1.805,9.159,3.616,12.248,5.004c1.545,0.693,2.786,1.273,3.636,1.693
					C429.941,133.088,430.404,133.334,430.389,133.367z"/>
			</g>
		</g>
		<g>
			<g>
				<path style="fill:#E0E0E0;" d="M430.457,118.813c-0.013,0.033-0.402-0.079-1.095-0.311c-0.796-0.275-1.772-0.612-2.923-1.009
					c-2.464-0.86-5.871-2.038-9.656-3.27c-3.787-1.231-7.235-2.283-9.734-3.037c-1.164-0.356-2.152-0.658-2.957-0.904
					c-0.697-0.22-1.078-0.358-1.068-0.393c0.009-0.035,0.408,0.037,1.121,0.197c0.714,0.159,1.741,0.413,3.004,0.745
					c2.528,0.664,6,1.663,9.795,2.896c3.793,1.235,7.188,2.47,9.623,3.42c1.218,0.475,2.197,0.873,2.868,1.165
					C430.105,118.603,430.47,118.779,430.457,118.813z"/>
			</g>
		</g>
		<g>
			<g>
				<path style="fill:#E0E0E0;" d="M430.597,107.498c-0.046,0.136-4.215-1.159-9.309-2.891c-5.096-1.733-9.189-3.248-9.142-3.385
					c0.046-0.136,4.214,1.158,9.31,2.892C426.55,105.846,430.644,107.362,430.597,107.498z"/>
			</g>
		</g>
		<g>
			<g>
				<path style="fill:#E0E0E0;" d="M415.041,177.746c-0.013,0.034-0.365-0.063-0.991-0.266c-0.734-0.249-1.612-0.546-2.638-0.894
					c-2.348-0.81-5.355-1.848-8.68-2.995c-3.336-1.121-6.351-2.135-8.706-2.926c-1.025-0.351-1.902-0.651-2.635-0.902
					c-0.62-0.221-0.958-0.36-0.947-0.395c0.01-0.035,0.368,0.039,1.006,0.201c0.638,0.161,1.556,0.415,2.686,0.744
					c2.259,0.658,5.363,1.627,8.763,2.785c3.399,1.158,6.448,2.285,8.64,3.143c1.096,0.429,1.978,0.788,2.582,1.05
					C414.726,177.552,415.054,177.713,415.041,177.746z"/>
			</g>
		</g>
		<g>
			<g>
				<path style="fill:#E0E0E0;" d="M416.807,190.947c-0.046,0.136-8.266-2.53-18.356-5.954c-10.094-3.426-18.236-6.312-18.19-6.448
					c0.046-0.136,8.264,2.53,18.358,5.955C408.709,187.924,416.854,190.811,416.807,190.947z"/>
			</g>
		</g>
		<g>
			<g>
				<path style="fill:#E0E0E0;" d="M416.644,200.769c-0.042,0.137-9.22-2.558-20.496-6.02c-11.28-3.463-20.387-6.381-20.345-6.519
					c0.042-0.137,9.218,2.558,20.498,6.021C407.577,197.713,416.686,200.632,416.644,200.769z"/>
			</g>
		</g>
	</g>
	<g>
		<g>
			<path style="fill:#E0E0E0;" d="M250.796,117.581c0,0-0.265,0.026-0.783,0.05c-0.533,0.02-1.299,0.05-2.299,0.088
				c-2.021,0.066-5.003,0.155-8.845,0.21c-1.921,0.025-4.057,0.044-6.397-0.002c-1.167-0.06-2.396-0.003-3.666-0.332
				c-1.249-0.378-2.349-1.151-3.587-1.674c-1.228-0.553-2.64-0.749-4.058-0.536c-0.354,0.041-0.709,0.135-1.061,0.209
				c-0.327,0.105-0.646,0.263-0.931,0.487c-0.576,0.439-1.069,1.016-1.511,1.637c-1.741,2.526-2.978,5.583-4.206,8.774
				c-1.224,3.204-2.306,6.631-3.591,10.164c-0.166,0.441-0.337,0.882-0.533,1.322l-0.157,0.329c-0.025,0.053-0.05,0.108-0.107,0.184
				c-0.023,0.053-0.147,0.177-0.301,0.179c-0.363-0.093-0.317-0.269-0.408-0.378c-0.049-0.122-0.097-0.243-0.129-0.362
				c-0.265-0.952-0.391-1.908-0.529-2.877c-0.26-1.937-0.455-3.914-0.645-5.925c-0.738-8.047-1.313-16.658-2.094-25.701
				c-0.414-4.515-0.783-9.166-1.57-13.83c-0.108-0.579-0.225-1.16-0.382-1.721c-0.076-0.28-0.169-0.56-0.289-0.786
				c-0.139-0.24-0.259-0.349-0.407-0.276c-0.385,0.175-0.742,0.747-1.022,1.235c-0.289,0.513-0.545,1.055-0.785,1.606
				c-0.951,2.211-1.718,4.537-2.462,6.887c-1.469,4.709-2.775,9.564-4.035,14.505l-0.467,1.858
				c-0.173,0.617-0.257,1.243-0.539,1.892c-0.559,1.259-1.812,2.183-3.194,2.332c-1.336,0.057-2.592,0.127-3.93,0.094
				c-1.319-0.054-2.638-0.243-3.923-0.578c-1.634-0.421-3.208-1.049-4.672-1.859c-0.741-0.41-1.404-0.868-2.155-1.079
				c-0.735-0.233-1.532-0.171-2.022,0.379c-0.495,0.527-0.704,1.341-0.966,2.105c-0.25,0.769-0.471,1.55-0.686,2.33
				c-0.426,1.563-0.819,3.13-1.214,4.689c-0.796,3.123-1.555,6.202-2.548,9.237c-0.035,0.102-0.089,0.212-0.172,0.328
				c-0.061,0.122-0.367,0.282-0.581,0.14c-0.285-0.212-0.332-0.406-0.432-0.598c-0.169-0.384-0.282-0.765-0.393-1.148
				c-0.212-0.765-0.383-1.531-0.543-2.296c-0.316-1.531-0.585-3.058-0.84-4.577c-1.007-6.077-1.817-12.023-2.695-17.776
				c-0.446-2.873-0.871-5.711-1.454-8.452c-0.156-0.67-0.306-1.389-0.566-1.955c-0.18-0.557-0.823,0.11-1.201,0.599
				c-0.815,1.076-1.459,2.296-2.09,3.489c-2.474,4.825-4.475,9.664-6.706,14.147c-0.573,1.116-1.119,2.225-1.869,3.239
				c-0.202,0.229-0.394,0.543-0.824,0.628c-0.318,0.049-0.654,0.07-0.983-0.015c-0.674-0.166-1.13-0.668-1.542-1.072
				c-0.417-0.414-0.851-0.78-1.356-1.021c-0.505-0.238-1.061-0.388-1.589-0.34c-1.093,0.096-1.958,0.92-2.853,1.596
				c-0.454,0.336-0.946,0.69-1.558,0.794c-0.305,0.045-0.611,0.047-0.919-0.075c-0.292-0.122-0.514-0.31-0.729-0.495
				c-0.83-0.771-1.45-1.66-2.085-2.511c-0.627-0.857-1.229-1.706-1.862-2.505c-0.638-0.781-1.291-1.58-2.105-2.05
				c-0.821-0.542-1.736,0.14-2.463,0.657c-0.745,0.571-1.417,1.22-2.047,1.879c-1.254,1.326-2.372,2.686-3.38,4.022l-0.044,0.058
				l-0.071,0c-7.852-0.029-14.035-0.051-18.274-0.067c-2.101-0.016-3.716-0.028-4.825-0.037c-0.536-0.008-0.946-0.015-1.238-0.019
				c-0.278-0.006-0.419-0.019-0.419-0.019s0.141-0.013,0.419-0.02c0.292-0.005,0.703-0.011,1.238-0.019
				c1.108-0.008,2.724-0.021,4.825-0.037c4.239-0.015,10.423-0.038,18.274-0.067l-0.114,0.058c1.01-1.354,2.124-2.722,3.384-4.068
				c0.634-0.669,1.31-1.329,2.077-1.922c0.38-0.3,0.798-0.569,1.269-0.771c0.24-0.084,0.498-0.172,0.779-0.162
				c0.278,0.019,0.543,0.107,0.769,0.238c0.913,0.527,1.561,1.337,2.217,2.128c0.644,0.807,1.252,1.657,1.88,2.509
				c0.632,0.843,1.262,1.729,2.042,2.446c0.196,0.17,0.405,0.338,0.625,0.428c0.204,0.083,0.476,0.089,0.713,0.049
				c0.495-0.08,0.953-0.397,1.393-0.728c0.871-0.649,1.766-1.552,3.048-1.682c1.271-0.092,2.428,0.599,3.262,1.464
				c0.423,0.419,0.833,0.842,1.357,0.963c0.258,0.067,0.538,0.05,0.816,0.007c0.187-0.013,0.391-0.255,0.569-0.477
				c0.701-0.951,1.255-2.069,1.817-3.174c2.211-4.469,4.2-9.313,6.678-14.168c0.636-1.207,1.273-2.429,2.129-3.565
				c0.221-0.28,0.45-0.559,0.777-0.79c0.159-0.108,0.366-0.233,0.652-0.196c0.296,0.047,0.46,0.278,0.548,0.451
				c0.323,0.705,0.445,1.378,0.614,2.075c0.594,2.77,1.022,5.604,1.473,8.481c0.887,5.755,1.704,11.701,2.714,17.765
				c0.256,1.515,0.525,3.038,0.84,4.557c0.159,0.759,0.33,1.517,0.536,2.262c0.107,0.369,0.22,0.741,0.368,1.076
				c0.063,0.159,0.184,0.344,0.222,0.365c-0.052,0.026-0.028,0.152-0.047,0.057c-0.006-0.01-0.013-0.017-0.021-0.022
				c-0.01-0.004-0.03-0.05-0.018-0.035l0.013-0.015c0.028-0.044,0.068-0.11,0.095-0.195c0.963-2.956,1.734-6.068,2.524-9.178
				c0.394-1.559,0.787-3.128,1.215-4.699c0.216-0.785,0.438-1.571,0.692-2.353c0.122-0.392,0.263-0.781,0.407-1.17
				c0.16-0.397,0.362-0.799,0.678-1.134c0.311-0.337,0.755-0.575,1.214-0.64c0.46-0.071,0.913-0.002,1.33,0.121
				c0.845,0.24,1.558,0.738,2.259,1.122c1.428,0.79,2.961,1.401,4.551,1.81c1.25,0.326,2.532,0.51,3.813,0.562
				c1.264,0.033,2.605-0.04,3.851-0.09c1.202-0.13,2.293-0.934,2.78-2.029c0.237-0.53,0.339-1.189,0.509-1.804l0.469-1.86
				c1.263-4.947,2.573-9.806,4.05-14.53c0.749-2.358,1.518-4.69,2.486-6.936c0.245-0.56,0.507-1.114,0.81-1.652
				c0.153-0.269,0.314-0.534,0.508-0.787c0.204-0.245,0.394-0.516,0.783-0.672c0.187-0.081,0.478-0.061,0.653,0.076
				c0.168,0.127,0.285,0.281,0.36,0.43c0.159,0.303,0.25,0.598,0.331,0.893c0.164,0.59,0.281,1.179,0.391,1.768
				c0.79,4.713,1.15,9.354,1.559,13.879c0.768,9.051,1.327,17.663,2.046,25.703c0.185,2.009,0.375,3.983,0.628,5.909
				c0.133,0.958,0.261,1.923,0.508,2.815c0.029,0.113,0.071,0.214,0.109,0.313c0.022,0.039,0.044,0.094,0.064,0.121
				c0.009,0.008,0.016,0.017,0.022,0.029c-0.005,0.033-0.052,0.03-0.048,0.079c0.017,0.048-0.025-0.112-0.044-0.081
				c-0.01,0.022,0.011-0.02,0.016-0.026c0.017-0.018,0.044-0.069,0.07-0.124l0.15-0.312c0.191-0.424,0.361-0.861,0.526-1.297
				c1.287-3.509,2.384-6.945,3.623-10.153c1.245-3.199,2.492-6.26,4.281-8.836c0.456-0.634,0.967-1.231,1.589-1.702
				c0.308-0.239,0.663-0.418,1.042-0.535c0.37-0.078,0.73-0.171,1.099-0.212c1.467-0.216,2.956,0,4.216,0.577
				c1.27,0.547,2.36,1.319,3.55,1.683c1.19,0.318,2.437,0.278,3.594,0.342c2.333,0.06,4.469,0.056,6.388,0.047
				c3.83-0.048,6.806-0.086,8.844-0.112c1-0.016,1.767-0.028,2.3-0.036C250.53,117.571,250.796,117.581,250.796,117.581z"/>
		</g>
	</g>
	<g>
		<g>
			<g>
				<path style="fill:#E0E0E0;" d="M574.395,316.058l-9.068-1.854c-2.097-0.429-3.45-2.476-3.021-4.574l21.276-104.067l16.663,3.407
					l-21.276,104.067C578.539,315.135,576.492,316.487,574.395,316.058z"/>
			</g>
			<g>
				<path style="fill:#F5F5F5;" d="M576.645,305.049l-9.068-1.854c-2.097-0.429-3.45-2.477-3.021-4.574l15.286-74.769l16.663,3.407
					l-15.286,74.769C580.79,304.125,578.743,305.478,576.645,305.049z"/>
			</g>
			<g>
				
					<rect x="581.799" y="217.922" transform="matrix(0.9797 0.2003 -0.2003 0.9797 60.6112 -112.7442)" style="fill:#FFFFFF;" width="11.338" height="50.472"/>
			</g>
			<g>
				<g>
					<path style="fill:#E0E0E0;" d="M574.395,316.058c-0.012-0.069,0.797,0.275,2.176-0.238c0.66-0.272,1.449-0.81,1.946-1.751
						c0.259-0.465,0.377-1.02,0.489-1.633c0.121-0.608,0.249-1.255,0.385-1.94c1.105-5.499,2.703-13.449,4.688-23.327
						c4.024-19.787,9.617-47.294,15.912-78.25l0.202,0.305c-4.104-0.839-8.455-1.727-12.86-2.628
						c-1.303-0.266-2.601-0.532-3.803-0.778l0.307-0.203c-6.793,33.073-12.906,62.835-17.325,84.349
						c-1.112,5.371-2.118,10.226-3.001,14.491c-0.221,1.065-0.435,2.093-0.641,3.083c-0.103,0.495-0.204,0.98-0.303,1.456
						c-0.093,0.481-0.221,0.934-0.216,1.384c-0.01,0.905,0.317,1.757,0.831,2.401c0.523,0.638,1.218,1.081,1.939,1.268
						c2.976,0.635,5.292,1.129,6.882,1.468c0.773,0.169,1.367,0.299,1.788,0.391C574.191,315.999,574.395,316.058,574.395,316.058
						s-0.21-0.025-0.616-0.099c-0.423-0.08-1.02-0.194-1.798-0.342c-1.598-0.318-3.922-0.781-6.913-1.377
						c-0.761-0.19-1.5-0.649-2.06-1.32c-0.55-0.677-0.905-1.578-0.902-2.543c-0.007-0.487,0.122-0.962,0.21-1.433
						c0.096-0.476,0.193-0.962,0.293-1.458c0.199-0.991,0.406-2.021,0.621-3.088c0.861-4.269,1.842-9.13,2.927-14.506
						c4.38-21.521,10.438-51.294,17.171-84.38l0.052-0.255l0.255,0.052c1.202,0.246,2.5,0.511,3.803,0.777
						c4.405,0.901,8.755,1.791,12.859,2.631l0.254,0.052l-0.052,0.254c-6.36,30.942-12.011,58.437-16.077,78.216
						c-2.051,9.864-3.702,17.804-4.844,23.296c-0.144,0.683-0.28,1.329-0.407,1.935c-0.117,0.601-0.25,1.192-0.526,1.668
						c-0.53,0.971-1.355,1.51-2.037,1.774c-0.699,0.26-1.279,0.272-1.652,0.24C574.579,316.121,574.395,316.058,574.395,316.058z"/>
				</g>
			</g>
		</g>
		<g>
			<path style="fill:#EBEBEB;" d="M601.242,214.261l-20.346-4.16l5.035-24.628c0.223-1.09,1.287-1.792,2.376-1.57l16.4,3.353
				c1.09,0.223,1.792,1.287,1.57,2.376L601.242,214.261z"/>
		</g>
		<g>
			<g>
				<path style="fill:#E0E0E0;" d="M601.606,211.629c-0.029,0.141-4.62-0.679-10.254-1.83c-5.636-1.152-10.179-2.2-10.151-2.341
					c0.029-0.141,4.619,0.679,10.255,1.831C597.09,210.44,601.635,211.488,601.606,211.629z"/>
			</g>
		</g>
		<g>
			<g>
				<path style="fill:#E0E0E0;" d="M583.155,207.649c-0.141-0.029,0.813-5.277,2.13-11.721c1.318-6.446,2.5-11.646,2.641-11.617
					c0.141,0.029-0.813,5.276-2.131,11.722C584.479,202.477,583.296,207.678,583.155,207.649z"/>
			</g>
		</g>
		<g>
			<g>
				<path style="fill:#E0E0E0;" d="M585.89,208.208c-0.141-0.029,0.813-5.277,2.13-11.72c1.318-6.446,2.5-11.646,2.641-11.617
					c0.141,0.029-0.813,5.276-2.131,11.722C587.214,203.036,586.031,208.237,585.89,208.208z"/>
			</g>
		</g>
		<g>
			<g>
				<path style="fill:#E0E0E0;" d="M588.709,208.785c-0.141-0.029,0.813-5.277,2.13-11.72c1.318-6.446,2.5-11.646,2.641-11.617
					c0.141,0.029-0.813,5.276-2.131,11.721C590.033,203.612,588.85,208.814,588.709,208.785z"/>
			</g>
		</g>
		<g>
			<g>
				<path style="fill:#E0E0E0;" d="M591.445,209.344c-0.141-0.029,0.813-5.277,2.13-11.72c1.318-6.446,2.5-11.646,2.641-11.617
					c0.141,0.029-0.813,5.276-2.131,11.721C592.768,204.171,591.585,209.373,591.445,209.344z"/>
			</g>
		</g>
		<g>
			<g>
				<path style="fill:#E0E0E0;" d="M594.264,209.921c-0.141-0.029,0.813-5.277,2.13-11.721c1.318-6.446,2.5-11.646,2.641-11.617
					c0.141,0.029-0.813,5.276-2.131,11.722C595.587,204.748,594.405,209.949,594.264,209.921z"/>
			</g>
		</g>
		<g>
			<g>
				<path style="fill:#E0E0E0;" d="M596.999,210.48c-0.141-0.029,0.813-5.277,2.13-11.72c1.318-6.446,2.5-11.646,2.641-11.617
					c0.141,0.029-0.813,5.276-2.131,11.721C598.322,205.307,597.14,210.508,596.999,210.48z"/>
			</g>
		</g>
		<g>
			<g>
				<path style="fill:#E0E0E0;" d="M599.818,211.056c-0.141-0.029,0.813-5.277,2.13-11.72c1.318-6.446,2.5-11.646,2.641-11.617
					c0.141,0.029-0.813,5.276-2.131,11.721C601.141,205.883,599.959,211.085,599.818,211.056z"/>
			</g>
		</g>
	</g>
	<g>
		<g>
			<g>
				<path style="fill:#E0E0E0;" d="M637.276,340.168l-5.617,0.517c-2.132,0.196-4.019-1.373-4.215-3.504l-7.592-82.471l13.336-1.228
					l7.592,82.471C640.977,338.085,639.408,339.972,637.276,340.168z"/>
			</g>
			<g>
				<path style="fill:#F5F5F5;" d="M636.465,331.356l-5.617,0.517c-2.132,0.196-4.019-1.373-4.215-3.504l-5.433-59.022l13.336-1.228
					l5.433,59.022C640.166,329.273,638.597,331.16,636.465,331.356z"/>
			</g>
			<g>
				
					<rect x="626.881" y="262.29" transform="matrix(0.9958 -0.0917 0.0917 0.9958 -23.2056 59.058)" style="fill:#FFFFFF;" width="8.928" height="39.745"/>
			</g>
			<g>
				<g>
					<path style="fill:#E0E0E0;" d="M637.276,340.168c-0.017-0.047,0.646,0,1.639-0.598c0.484-0.3,1.027-0.801,1.399-1.553
						c0.185-0.373,0.325-0.808,0.375-1.286c0.058-0.476-0.027-0.99-0.076-1.545c-0.427-4.434-1.043-10.828-1.807-18.765
						c-1.488-15.931-3.554-38.053-5.876-62.915l0.282,0.234c-3.02,0.278-6.227,0.574-9.472,0.873
						c-1.324,0.122-2.641,0.243-3.864,0.355l0.235-0.283c2.38,26.19,4.517,49.721,6.063,66.73c0.377,4.245,0.717,8.084,1.016,11.456
						c0.156,1.678,0.267,3.266,0.429,4.679c0.269,1.391,1.288,2.424,2.371,2.813c1.094,0.442,2.174,0.152,3.08,0.116
						c0.905-0.074,1.674-0.136,2.304-0.188c0.606-0.045,1.077-0.08,1.417-0.105C637.112,340.165,637.276,340.168,637.276,340.168
						s-0.161,0.032-0.479,0.07c-0.339,0.037-0.808,0.089-1.412,0.155c-0.629,0.065-1.397,0.143-2.3,0.236
						c-0.456,0.045-0.946,0.093-1.47,0.145c-0.536,0.047-1.12-0.016-1.693-0.226c-1.145-0.394-2.239-1.473-2.541-2.952
						c-0.183-1.46-0.303-3.012-0.474-4.699c-0.322-3.37-0.688-7.206-1.092-11.449c-1.586-17.005-3.779-40.531-6.221-66.715
						l-0.024-0.259l0.259-0.024c1.223-0.113,2.54-0.234,3.864-0.356c3.244-0.298,6.452-0.593,9.472-0.871l0.259-0.024l0.023,0.258
						c2.256,24.868,4.263,46.995,5.709,62.931c0.697,7.943,1.259,14.342,1.649,18.779c0.041,0.547,0.12,1.078,0.053,1.581
						c-0.06,0.499-0.213,0.949-0.413,1.333c-0.401,0.773-0.973,1.277-1.478,1.571c-0.509,0.299-0.949,0.413-1.241,0.469
						C637.429,340.168,637.276,340.168,637.276,340.168z"/>
				</g>
			</g>
		</g>
		<g>
			<path style="fill:#EBEBEB;" d="M635.146,257.242l-16.284,1.499l-1.775-19.286c-0.102-1.107,0.713-2.088,1.821-2.19l12.274-1.13
				c1.108-0.102,2.088,0.713,2.19,1.821L635.146,257.242z"/>
		</g>
		<g>
			<g>
				<path style="fill:#E0E0E0;" d="M634.821,255.175c0.013,0.143-3.632,0.596-8.141,1.011c-4.511,0.415-8.177,0.636-8.19,0.492
					c-0.013-0.143,3.632-0.596,8.142-1.011C631.141,255.252,634.808,255.032,634.821,255.175z"/>
			</g>
		</g>
		<g>
			<g>
				<path style="fill:#E0E0E0;" d="M620.006,256.378c-0.143,0.013-0.644-4.158-1.119-9.315c-0.475-5.159-0.744-9.35-0.6-9.364
					c0.143-0.013,0.644,4.157,1.119,9.316C619.88,252.173,620.149,256.365,620.006,256.378z"/>
			</g>
		</g>
		<g>
			<g>
				<path style="fill:#E0E0E0;" d="M622.195,256.177c-0.143,0.013-0.644-4.158-1.119-9.315c-0.475-5.159-0.744-9.35-0.6-9.364
					c0.143-0.013,0.644,4.157,1.119,9.316C622.069,251.971,622.338,256.164,622.195,256.177z"/>
			</g>
		</g>
		<g>
			<g>
				<path style="fill:#E0E0E0;" d="M624.451,255.969c-0.143,0.013-0.644-4.158-1.119-9.315c-0.475-5.159-0.744-9.35-0.6-9.364
					c0.143-0.013,0.644,4.157,1.119,9.316C624.326,251.764,624.595,255.956,624.451,255.969z"/>
			</g>
		</g>
		<g>
			<g>
				<path style="fill:#E0E0E0;" d="M626.641,255.768c-0.143,0.013-0.644-4.158-1.119-9.315c-0.475-5.159-0.744-9.35-0.6-9.364
					c0.143-0.013,0.644,4.157,1.119,9.316C626.515,251.562,626.784,255.755,626.641,255.768z"/>
			</g>
		</g>
		<g>
			<g>
				<path style="fill:#E0E0E0;" d="M628.897,255.56c-0.143,0.013-0.644-4.158-1.119-9.315c-0.475-5.159-0.744-9.35-0.601-9.364
					c0.143-0.013,0.644,4.157,1.119,9.316C628.771,251.354,629.04,255.547,628.897,255.56z"/>
			</g>
		</g>
		<g>
			<g>
				<path style="fill:#E0E0E0;" d="M631.086,255.359c-0.143,0.013-0.644-4.158-1.119-9.315c-0.475-5.159-0.744-9.35-0.6-9.364
					c0.143-0.013,0.644,4.157,1.119,9.316C630.96,251.153,631.229,255.345,631.086,255.359z"/>
			</g>
		</g>
		<g>
			<g>
				<path style="fill:#E0E0E0;" d="M633.342,255.151c-0.143,0.013-0.644-4.158-1.119-9.315c-0.475-5.159-0.744-9.35-0.601-9.364
					c0.143-0.013,0.644,4.157,1.119,9.316C633.217,250.945,633.486,255.138,633.342,255.151z"/>
			</g>
		</g>
	</g>
	<g>
		<g>
			<g>
				<g>
					<g>
						<path style="fill:#E0E0E0;" d="M233.24,181.628c-1.764-7.816-9.188-14.533-17.162-13.749
							c-4.71,0.463-8.945,3.367-11.823,7.124c-1.259,1.643-2.115,2.836-2.776,4.041c-0.66-1.206-1.515-2.399-2.772-4.044
							c-2.874-3.76-7.106-6.669-11.815-7.137c-7.973-0.792-15.405,5.917-17.177,13.731c-1.772,7.814,1.166,16.101,5.983,22.503
							c4.818,6.402,12.835,14.602,26.418,17.722c8.949-2.057,20.293-11.297,25.118-17.695
							C232.057,197.728,235.003,189.444,233.24,181.628z"/>
					</g>
				</g>
			</g>
		</g>
		<g>
			<g>
				<g>
					<g>
						<g>
							<path style="fill:#FAFAFA;" d="M231.77,196.125c0,0.009-0.089,0.019-0.264,0.028c-0.206,0.007-0.461,0.016-0.774,0.026
								c-0.724,0.012-1.718,0.029-2.976,0.049c-2.63,0.019-6.357,0.046-10.944,0.079l0.183-0.139
								c-0.971,3.538-2.107,7.682-3.354,12.226l-0.202,0.737l-0.252-0.723c-1.942-5.58-4.117-11.832-6.41-18.421
								c-0.706-2.04-1.401-4.048-2.08-6.007l0.468,0.046c-2.547,4.344-4.956,8.454-7.152,12.2l-0.069,0.117l-0.134-0.001
								c-7.875-0.043-14.522-0.079-19.251-0.105c-2.307-0.029-4.145-0.053-5.453-0.069c-0.6-0.015-1.078-0.028-1.443-0.037
								c-0.327-0.013-0.496-0.025-0.496-0.038c0-0.013,0.169-0.026,0.497-0.038c0.366-0.009,0.843-0.021,1.443-0.035
								c1.308-0.015,3.146-0.036,5.453-0.063c4.729-0.021,11.376-0.05,19.251-0.085l-0.203,0.117
								c2.183-3.753,4.579-7.871,7.111-12.223l0.283-0.487l0.185,0.533c0.68,1.959,1.377,3.967,2.084,6.006
								c2.277,6.594,4.437,12.852,6.365,18.436l-0.453,0.014c1.281-4.535,2.448-8.67,3.445-12.201l0.04-0.141l0.144,0.001
								c4.587,0.038,8.314,0.069,10.944,0.091c1.258,0.022,2.252,0.04,2.975,0.052c0.313,0.011,0.568,0.02,0.774,0.027
								C231.681,196.107,231.77,196.116,231.77,196.125z"/>
						</g>
					</g>
				</g>
			</g>
		</g>
	</g>
</g>
<g id="Background_Simple" style="display:none;">
	<path style="display:inline;fill:#E0E0E0;" d="M615.398,169.555c-25.408-32.111-70.154-48.451-109.686-37.776
		c-16.957,4.579-32.374,13.566-48.911,19.488c-16.536,5.922-35.606,8.529-51.186,0.419c-18.784-9.777-26.992-31.672-39.147-49.012
		C341.177,66.59,292.71,48.516,249.967,59.226c-35.069,8.788-64.385,36.485-76.707,70.307l0.021-0.087
		c-16.072,35.206-12.785,99.89,7.395,132.914s46.653,70.206,81.911,86.163c35.259,15.957,71.153,25.663,109.027,33.622
		c55.723,11.71,123.481,7.711,176.735-12.443c38.297-14.493,70.7-45.283,84.553-83.816
		C646.756,247.352,640.806,201.666,615.398,169.555z"/>
</g>
<g id="Character_1">
	<g>
		<g>
			<g>
				<g>
					<g>
						<g>
							<g>
								<g>
									<g>
										<g>
											<g>
												<g>
													<g>
														<g>
															<g>
																<path style="fill:#FFBE9D;" d="M360.549,147.876l-3.424,88.317l-44.22-1.434
																	c-0.517-5.131-1.091-25.047-1.091-25.047s-18.464-1.983-19.557-20.298c-0.531-8.894-0.128-27.349,0.426-43.981
																	c0.615-18.453,15.851-33.029,34.313-32.825h0C346.115,112.82,361.29,128.77,360.549,147.876z"/>
															</g>
														</g>
													</g>
												</g>
											</g>
										</g>
									</g>
								</g>
							</g>
						</g>
					</g>
					<g>
						<g>
							<g>
								<g>
									<g>
										<g>
											<g>
												<g>
													<g>
														<g>
															<g>
																<g>
																	<g>
																		<g>
																			<g>
																				<path style="fill:#EB996E;" d="M311.794,209.757c0,0,11.627,0.394,23.57-7.92c0,0-5.023,13.456-23.388,12.67
																					L311.794,209.757z"/>
																			</g>
																		</g>
																	</g>
																</g>
															</g>
														</g>
													</g>
												</g>
											</g>
										</g>
									</g>
								</g>
							</g>
						</g>
						<g>
							<g>
								<g>
									<g>
										<g>
											<g>
												<g>
													<g>
														<g>
															<g>
																<g>
																	<g>
																		<g>
																			<g>
																				<g>
																					<g>
																						<g>
																							<path style="fill:#263238;" d="M298.694,158.564c0.016,1.384,1.202,2.512,2.648,2.521
																								c1.443,0.009,2.603-1.103,2.586-2.488c-0.017-1.384-1.202-2.513-2.646-2.523
																								C299.837,156.065,298.678,157.179,298.694,158.564z"/>
																						</g>
																					</g>
																				</g>
																			</g>
																		</g>
																	</g>
																</g>
															</g>
														</g>
													</g>
												</g>
												<g>
													<g>
														<g>
															<g>
																<g>
																	<g>
																		<g>
																			<g>
																				<g>
																					<g>
																						<g>
																							<g>
																								<path style="fill:#263238;" d="M297.06,154.791c0.341,0.326,2.254-1.236,5.071-1.361
																									c2.811-0.166,4.947,1.185,5.236,0.826c0.143-0.16-0.217-0.76-1.148-1.372
																									c-0.917-0.611-2.458-1.174-4.212-1.083c-1.754,0.093-3.199,0.808-4.016,1.509
																									C297.158,154.015,296.893,154.646,297.06,154.791z"/>
																							</g>
																						</g>
																					</g>
																				</g>
																			</g>
																		</g>
																	</g>
																</g>
															</g>
														</g>
													</g>
												</g>
											</g>
											<g>
												<g>
													<g>
														<g>
															<g>
																<g>
																	<g>
																		<g>
																			<g>
																				<g>
																					<g>
																						<g>
																							<path style="fill:#263238;" d="M325.377,158.474c0.017,1.384,1.203,2.512,2.648,2.521
																								c1.443,0.009,2.603-1.103,2.586-2.487c-0.017-1.384-1.203-2.513-2.646-2.523
																								C326.519,155.976,325.36,157.09,325.377,158.474z"/>
																						</g>
																					</g>
																				</g>
																			</g>
																		</g>
																	</g>
																</g>
															</g>
														</g>
													</g>
												</g>
												<g>
													<g>
														<g>
															<g>
																<g>
																	<g>
																		<g>
																			<g>
																				<g>
																					<g>
																						<g>
																							<g>
																								<path style="fill:#263238;" d="M324.767,154.007c0.341,0.326,2.257-1.235,5.072-1.361
																									c2.811-0.166,4.947,1.185,5.236,0.825c0.142-0.16-0.214-0.76-1.148-1.372
																									c-0.917-0.611-2.457-1.174-4.211-1.084c-1.754,0.093-3.199,0.809-4.016,1.51
																									C324.867,153.23,324.602,153.862,324.767,154.007z"/>
																							</g>
																						</g>
																					</g>
																				</g>
																			</g>
																		</g>
																	</g>
																</g>
															</g>
														</g>
													</g>
												</g>
											</g>
											<g>
												<g>
													<g>
														<g>
															<g>
																<g>
																	<g>
																		<g>
																			<g>
																				<g>
																					<g>
																						<g>
																							<path style="fill:#263238;" d="M315.535,175.376c0.006-0.161-1.759-0.38-4.613-0.609
																								c-0.722-0.04-1.41-0.151-1.554-0.636c-0.194-0.512,0.07-1.301,0.379-2.154
																								c0.594-1.772,1.215-3.63,1.868-5.576c2.585-7.937,4.419-14.448,4.099-14.55
																								c-0.321-0.101-2.676,6.249-5.26,14.186c-0.62,1.956-1.213,3.821-1.777,5.605
																								c-0.233,0.83-0.658,1.779-0.239,2.84c0.219,0.528,0.765,0.893,1.232,0.996
																								c0.468,0.119,0.873,0.108,1.229,0.112C313.76,175.607,315.531,175.536,315.535,175.376z"/>
																						</g>
																					</g>
																				</g>
																			</g>
																		</g>
																	</g>
																</g>
															</g>
														</g>
													</g>
												</g>
											</g>
											<g>
												<g>
													<g>
														<g>
															<g>
																<g>
																	<g>
																		<g>
																			<g>
																				<g>
																					<g>
																						<g>
																							<path style="fill:#263238;" d="M323.915,176.932c-0.459-0.005-0.32,3.052-2.834,5.346
																								c-2.509,2.3-5.784,2.111-5.788,2.54c-0.033,0.194,0.754,0.56,2.131,0.532
																								c1.351-0.018,3.301-0.544,4.839-1.947c1.533-1.406,2.136-3.214,2.18-4.473
																								C324.5,177.645,324.123,176.904,323.915,176.932z"/>
																						</g>
																					</g>
																				</g>
																			</g>
																		</g>
																	</g>
																</g>
															</g>
														</g>
													</g>
												</g>
											</g>
										</g>
									</g>
								</g>
								<g>
									<g>
										<g>
											<g>
												<g>
													<g>
														<g>
															<g>
																<g>
																	<g>
																		<g>
																			<path style="fill:#263238;" d="M323.518,143.005c0.314,0.752,3.109,0.257,6.431,0.499
																				c3.328,0.175,6.038,1.016,6.444,0.309c0.18-0.338-0.319-1.036-1.431-1.727c-1.103-0.689-2.84-1.312-4.834-1.439
																				c-1.994-0.123-3.795,0.278-4.975,0.824C323.964,142.016,323.382,142.647,323.518,143.005z"/>
																		</g>
																	</g>
																</g>
															</g>
														</g>
													</g>
												</g>
											</g>
										</g>
									</g>
								</g>
								<g>
									<g>
										<g>
											<g>
												<g>
													<g>
														<g>
															<g>
																<g>
																	<g>
																		<g>
																			<path style="fill:#263238;" d="M297.71,146.592c0.526,0.616,2.434-0.14,4.766-0.281
																				c2.326-0.223,4.328,0.226,4.752-0.465c0.184-0.334-0.157-0.96-1.049-1.525c-0.879-0.563-2.325-0.989-3.926-0.865
																				c-1.601,0.127-2.962,0.772-3.743,1.466C297.716,145.618,297.477,146.29,297.71,146.592z"/>
																		</g>
																	</g>
																</g>
															</g>
														</g>
													</g>
												</g>
											</g>
										</g>
									</g>
								</g>
							</g>
						</g>
						<g>
							<g>
								<g>
									<g>
										<g>
											<path style="fill:#263238;" d="M339.724,129.03c0.035,0.025,0.07,0.05,0.104,0.074c3.027,2.166,5.114,5.41,5.8,9.069
												c0.024,0.129,0.047,0.251,0.068,0.368c0.964,5.193,1.086,10.517,2.1,15.7c1.014,5.184,3.074,10.409,7.104,13.823
												c1.658,1.404,4.514,2.29,5.737,0.494c0.473-0.695,0.514-1.586,0.539-2.426c0.38-12.667,3.297-24.028,2.649-37.224
												c-0.176-3.592-2.026-6.884-5.045-8.838c-2.857-1.849-6.328-3.743-9.33-2.145c-3.01,1.603-6.709,7.536-8.974,10.085"/>
										</g>
									</g>
								</g>
							</g>
						</g>
						<g>
							<g>
								<g>
									<g>
										<g>
											<g>
												<g>
													<g>
														<g>
															<g>
																<g>
																	<g>
																		<path style="fill:#FFBE9D;" d="M354.785,156.768c0.306-0.15,12.416-4.32,12.608,8.228
																			c0.192,12.548-12.445,10.153-12.472,9.793C354.894,174.429,354.785,156.768,354.785,156.768z"/>
																	</g>
																</g>
															</g>
														</g>
													</g>
												</g>
											</g>
										</g>
									</g>
								</g>
							</g>
							<g>
								<g>
									<g>
										<g>
											<g>
												<g>
													<g>
														<g>
															<g>
																<g>
																	<g>
																		<g>
																			<path style="fill:#EB996E;" d="M358.681,169.977c0.055-0.041,0.221,0.15,0.593,0.313
																				c0.363,0.159,0.984,0.264,1.634,0.009c1.318-0.507,2.402-2.629,2.428-4.891c0.015-1.142-0.241-2.226-0.66-3.12
																				c-0.397-0.912-1.001-1.544-1.67-1.653c-0.666-0.143-1.133,0.263-1.281,0.619
																				c-0.163,0.354-0.079,0.603-0.145,0.625c-0.035,0.032-0.273-0.206-0.18-0.726c0.048-0.25,0.191-0.548,0.481-0.794
																				c0.298-0.25,0.738-0.381,1.204-0.338c0.969,0.052,1.853,0.929,2.313,1.911c0.513,0.985,0.828,2.203,0.811,3.486
																				c-0.042,2.53-1.3,4.916-3.105,5.468c-0.879,0.244-1.62-0.011-2.005-0.301
																				C358.708,170.279,358.638,170,358.681,169.977z"/>
																		</g>
																	</g>
																</g>
															</g>
														</g>
													</g>
												</g>
											</g>
										</g>
									</g>
								</g>
							</g>
						</g>
						<g>
							<g>
								<g>
									<g>
										<g>
											<path style="fill:#263238;" d="M351.341,121.771c3.614-4.653-4.015-12.734-9.958-15.346
												c-5.943-2.612-14.376-0.497-20.722,0.866c-4.004,0.86-8.05,2.227-12.1,1.615c-2.715-0.41-5.21-1.686-7.685-2.877
												c-2.475-1.191-5.061-2.334-7.805-2.445c-2.744-0.112-5.707,1.031-7.016,3.445c-1.309,2.414-0.206,6.037,2.457,6.709
												c-3.244-2.273-8.508-0.326-9.494,3.51c-0.986,3.836,2.684,8.079,6.623,7.659c-1.627-1.537-4.587,0.386-4.61,2.624
												c-0.023,2.238,1.809,4.068,3.748,5.185c4.95,2.851,11.093,2.784,16.673,1.56c5.58-1.224,10.879-3.501,16.426-4.864
												c5.548-1.363,14.866-3.877,20.015-1.404c3.791,1.821,6.017,6.87,8.358,6.065c2.263-0.779,3.873-2.883,4.558-5.176
												C351.497,126.604,351.422,124.162,351.341,121.771"/>
										</g>
									</g>
								</g>
							</g>
						</g>
					</g>
				</g>
				<g>
					<g>
						<path style="fill:#455A64;" d="M289.18,114.647c0.014,0.029-0.235,0.117-0.629,0.394c-0.395,0.269-0.925,0.783-1.283,1.624
							c-0.363,0.826-0.552,1.985-0.271,3.246c0.248,1.27,1.132,2.547,2.515,3.414c1.376,0.868,3.164,1.332,5.086,1.391
							c1.924,0.028,3.999-0.259,6.084-0.886c4.206-1.218,8.382-3.709,12.776-6.238c4.397-2.519,8.896-4.644,13.348-5.181
							c2.21-0.248,4.365-0.15,6.282,0.388c1.921,0.51,3.591,1.362,4.957,2.34c2.748,1.964,4.331,4.29,5.124,5.971
							c0.808,1.694,0.969,2.729,0.969,2.729c-0.06,0.02-0.297-0.995-1.149-2.637c-0.837-1.631-2.44-3.879-5.153-5.761
							c-1.349-0.937-2.987-1.747-4.857-2.225c-1.862-0.505-3.959-0.584-6.113-0.329c-4.34,0.549-8.77,2.648-13.149,5.157
							c-4.383,2.521-8.606,5.029-12.9,6.246c-2.131,0.626-4.249,0.906-6.233,0.857c-1.981-0.08-3.835-0.579-5.271-1.513
							c-0.712-0.471-1.31-1.04-1.757-1.67c-0.448-0.635-0.708-1.331-0.843-1.993c-0.267-1.333-0.037-2.538,0.371-3.39
							c0.404-0.867,0.985-1.38,1.41-1.628C288.918,114.696,289.18,114.647,289.18,114.647z"/>
					</g>
				</g>
				<g>
					<g>
						<path style="fill:#455A64;" d="M333.514,108.312c0.002-0.032,0.291-0.055,0.813-0.024c0.522,0.029,1.276,0.136,2.181,0.389
							c1.799,0.488,4.231,1.716,6.094,3.948c1.861,2.236,2.63,4.85,2.786,6.707c0.086,0.936,0.055,1.697-0.011,2.216
							c-0.064,0.519-0.138,0.799-0.17,0.795c-0.095-0.007,0.074-1.155-0.185-2.967c-0.245-1.795-1.041-4.279-2.82-6.418
							c-1.782-2.135-4.082-3.366-5.803-3.93C334.664,108.448,333.504,108.407,333.514,108.312z"/>
					</g>
				</g>
				<g>
					<g>
						<path style="fill:#455A64;" d="M363.566,140.455c0.01,0.02-0.332,0.21-1.021,0.289c-0.682,0.086-1.727-0.035-2.829-0.614
							c-1.105-0.559-2.232-1.629-2.995-3.074c-0.792-1.433-1.272-3.16-1.723-4.94c-0.45-1.778-0.921-3.458-1.673-4.827
							c-0.727-1.383-1.766-2.374-2.804-2.921c-1.032-0.56-2.005-0.701-2.658-0.659c-0.658,0.035-1.014,0.168-1.029,0.121
							c-0.01-0.02,0.324-0.222,1.011-0.323c0.679-0.108,1.728-0.018,2.845,0.534c1.119,0.53,2.272,1.579,3.055,3.015
							c0.812,1.424,1.306,3.15,1.758,4.931c0.45,1.779,0.907,3.462,1.641,4.842c0.709,1.393,1.725,2.405,2.75,2.979
							c1.018,0.586,1.986,0.755,2.64,0.735C363.193,140.528,363.553,140.408,363.566,140.455z"/>
					</g>
				</g>
				<g>
					<g>
						<path style="fill:#455A64;" d="M362.909,148.747c0.003,0.018-0.103,0.047-0.307,0.086c-0.205,0.037-0.507,0.098-0.903,0.118
							c-0.787,0.064-1.951,0.052-3.343-0.258c-2.763-0.566-6.486-2.546-8.965-6.175c-2.51-3.59-3.394-7.549-3.694-10.332
							c-0.076-0.703-0.12-1.326-0.287-1.837c-0.155-0.515-0.434-0.888-0.725-1.124c-0.6-0.48-1.091-0.35-1.081-0.403
							c-0.032-0.012,0.49-0.236,1.203,0.241c0.339,0.229,0.685,0.641,0.879,1.191c0.209,0.546,0.279,1.199,0.377,1.886
							c0.388,2.738,1.317,6.595,3.755,10.078c2.403,3.516,5.956,5.471,8.624,6.116C361.145,149.019,362.909,148.624,362.909,148.747
							z"/>
					</g>
				</g>
			</g>
			<g>
				<path style="fill:#EBEBEB;" d="M275.185,465.511l141.977-0.921l-14.331-85.818l-2.493-147.547l-28.313-8.669l-14.066-7.899
					l-46.072,5.833l-5.916,7.501c0,0-20.16,6.802-28.887,10.786c-0.201,0.092-0.398,0.182-0.592,0.27
					c-6.186,2.824-11.423,7.366-15.097,13.089l-38.394,59.809l-56.2-32.773l-19.844,28.844c0,0,68.962,57.448,81.508,56.271
					c12.545-1.176,16.858-1.176,21.17-7.057c3.313-4.517,16.325-19.828,22.524-30.06l6.324,70.685L275.185,465.511z"/>
			</g>
			<g>
				<g>
					<path style="fill:#263238;" d="M320.166,465.603c-0.144,0.005-1.281-31.443-2.541-70.23c-1.26-38.801-2.164-70.25-2.02-70.254
						c0.144-0.005,1.281,31.436,2.541,70.237C319.405,434.143,320.31,465.598,320.166,465.603z"/>
				</g>
			</g>
			<g>
				<polygon style="fill:#FFBE9D;" points="312.108,219.909 315.676,327.247 357.96,214.656 				"/>
			</g>
			<g>
				<g>
					<path style="fill:#263238;" d="M316.007,333.298c-0.009,0.003-0.056-0.108-0.139-0.325c-0.093-0.243-0.216-0.562-0.371-0.966
						c-0.343-0.877-0.828-2.12-1.448-3.706c-1.284-3.207-3.183-7.834-5.803-13.424c-1.334-2.783-2.835-5.814-4.62-8.97
						c-1.819-3.124-3.859-6.46-6.638-9.406c-1.393-1.444-3.065-2.951-3.662-5.157c-0.297-1.091-0.179-2.253,0.087-3.326
						c0.271-1.083,0.651-2.114,0.99-3.172c1.393-4.222,2.835-8.593,4.311-13.07l0.09-0.274l0.271,0.341
						c-5.915,0.535-11.649,1.053-17.011,1.538l-0.046-0.501c3.271-6.48,6.325-12.531,9.069-17.967
						c2.791-5.483,5.318-10.313,7.484-14.295c2.166-3.982,3.974-7.115,5.274-9.229c0.647-1.059,1.164-1.866,1.525-2.403
						c0.171-0.251,0.307-0.451,0.414-0.608c0.095-0.135,0.147-0.202,0.153-0.198c0.006,0.004-0.033,0.079-0.115,0.222
						c-0.097,0.163-0.221,0.37-0.377,0.631c-0.346,0.583-0.831,1.4-1.452,2.444c-1.252,2.14-3.014,5.293-5.14,9.293
						c-2.126,3.999-4.617,8.844-7.379,14.339c-1.374,2.753-2.826,5.661-4.344,8.702c-0.759,1.522-1.534,3.077-2.324,4.662
						c-0.4,0.791-0.804,1.589-1.211,2.395c-0.209,0.401-0.419,0.804-0.629,1.209l-0.33,0.606c-0.057,0.101-0.11,0.201-0.178,0.306
						l-0.097,0.155c0.002,0.029-0.182,0.212-0.296,0.238l-0.046-0.501c5.362-0.49,11.095-1.015,17.01-1.556l0.396-0.036
						l-0.125,0.377l-0.09,0.274c-1.48,4.476-2.925,8.846-4.321,13.067c-0.656,2.096-1.612,4.197-1.079,6.215
						c0.529,2.009,2.121,3.495,3.523,4.944c2.829,3.019,4.857,6.38,6.672,9.53c1.777,3.18,3.262,6.228,4.577,9.027
						c2.583,5.622,4.431,10.275,5.659,13.507c0.607,1.619,1.064,2.881,1.357,3.743c0.145,0.432,0.259,0.759,0.323,0.984
						C315.985,333.18,316.015,333.296,316.007,333.298z"/>
				</g>
			</g>
			<g>
				<g>
					<path style="fill:#263238;" d="M315.859,334.311c-0.009-0.001,0.005-0.119,0.038-0.349c0.041-0.255,0.094-0.592,0.163-1.021
						c0.099-0.91,0.508-2.196,1.054-3.839c1.167-3.268,3.484-7.755,6.865-12.983c1.708-2.603,3.664-5.404,5.876-8.336
						c2.223-2.918,4.623-6.05,7.497-9.053c2.85-3.012,6.002-6.067,9.659-8.776c1.822-1.36,3.768-2.625,5.789-3.822
						c2.02-1.199,4.103-2.348,6.1-3.678l-0.072,0.36c-0.882-1.306-1.921-2.643-3.097-3.872c-2.248-2.383-4.868-4.337-7.65-5.812
						l-0.361-0.191l0.326-0.244c6.606-4.941,14.081-7.79,21.025-8.888l-0.196,0.214c0.893-12.245,1.645-22.558,2.176-29.841
						c0.279-3.604,0.5-6.457,0.654-8.44c0.082-0.954,0.146-1.697,0.192-2.232c0.024-0.235,0.043-0.422,0.059-0.572
						c0.015-0.128,0.026-0.193,0.033-0.193c0.006,0,0.008,0.066,0.005,0.195c-0.006,0.151-0.013,0.339-0.021,0.575
						c-0.029,0.535-0.069,1.281-0.12,2.237c-0.123,1.986-0.3,4.842-0.524,8.449c-0.485,7.287-1.172,17.604-1.988,29.854
						l-0.012,0.185l-0.184,0.03c-6.871,1.111-14.261,3.948-20.79,8.84l-0.034-0.435c2.834,1.499,5.499,3.486,7.787,5.911
						c1.197,1.251,2.254,2.612,3.151,3.941l0.146,0.216l-0.217,0.144c-2.023,1.345-4.116,2.496-6.127,3.688
						c-2.013,1.19-3.941,2.44-5.75,3.785c-3.63,2.678-6.77,5.704-9.617,8.693c-2.868,2.976-5.268,6.08-7.504,8.984
						c-2.222,2.914-4.19,5.695-5.913,8.278c-3.409,5.187-5.764,9.627-6.98,12.855c-0.57,1.622-1.008,2.892-1.138,3.789
						c-0.089,0.423-0.158,0.757-0.211,1.009C315.898,334.196,315.868,334.312,315.859,334.311z"/>
				</g>
			</g>
			<g>
				<rect x="339.782" y="301.579" style="fill:#263238;" width="29.864" height="5.81"/>
			</g>
			<g>
				<g>
					<g>
						<path style="fill:#263238;" d="M362.9,353.915c0.003,0.018-0.172,0.068-0.51,0.147c-0.397,0.085-0.886,0.19-1.482,0.317
							c-1.291,0.25-3.166,0.619-5.526,0.792c-2.343,0.154-5.248,0.111-8.227-0.986c-2.952-1.051-5.955-3.281-7.591-6.591
							c-1.644-3.291-2.004-6.825-2.072-9.929c0.007-3.13,0.103-5.906,0.111-8.264c0.029-2.351,0.082-4.255,0.15-5.569
							c0.034-0.657,0.067-1.167,0.099-1.512c0.031-0.345,0.056-0.526,0.074-0.525s0.028,0.183,0.031,0.53
							c0,0.405-0.001,0.905-0.001,1.513c0.004,1.391,0.009,3.273,0.016,5.565c0,2.373,0.001,5.165,0.001,8.252
							c0.092,3.068,0.47,6.533,2.057,9.703c1.575,3.18,4.435,5.329,7.294,6.377c2.879,1.089,5.716,1.174,8.038,1.068
							c2.335-0.124,4.214-0.436,5.513-0.624c0.602-0.089,1.097-0.161,1.498-0.22C362.715,353.913,362.897,353.897,362.9,353.915z"/>
					</g>
				</g>
				<g>
					<g>
						<path style="fill:#263238;" d="M368.299,321.09c0.003,0.144-6.794,0.418-15.18,0.612c-8.389,0.194-15.19,0.235-15.194,0.091
							c-0.003-0.144,6.792-0.418,15.181-0.612C361.493,320.987,368.296,320.947,368.299,321.09z"/>
					</g>
				</g>
				<g>
					<path style="fill:#E8505B;" d="M353.505,321.296v-9.909c0-1.608,1.303-2.911,2.911-2.911l0,0c1.608,0,2.911,1.303,2.911,2.911
						v16.333c0,1.248-1.883,1.385-2,0.142c-0.012-0.125-0.018-0.257-0.018-0.395c0-2.488-0.278-6.291-0.278-6.291L353.505,321.296z"
						/>
				</g>
				<g>
					<g>
						<path style="fill:#263238;" d="M352.99,338.416c-0.144,0-0.26-3.123-0.26-6.974c0-3.853,0.117-6.975,0.26-6.975
							s0.26,3.122,0.26,6.975C353.251,335.293,353.134,338.416,352.99,338.416z"/>
					</g>
				</g>
				<g>
					<g>
						<path style="fill:#263238;" d="M358.633,351.386c-0.144,0-0.26-4.988-0.26-11.138c0-6.153,0.117-11.14,0.26-11.14
							c0.144,0,0.26,4.986,0.26,11.14C358.893,346.398,358.776,351.386,358.633,351.386z"/>
					</g>
				</g>
			</g>
			<g>
				<g>
					<path style="fill:#E8505B;" d="M312.858,242.487l13.895,16.953c9.803-9.898,16.853-19.676,23.032-23.965
						c0,0-34.058,93.324-34.109,91.772S312.858,242.487,312.858,242.487z"/>
				</g>
				<g>
					<g>
						<path style="fill:#263238;" d="M349.785,235.475c0.012,0.013-0.109,0.148-0.35,0.391c-0.287,0.28-0.641,0.625-1.071,1.044
							c-0.944,0.891-2.285,2.207-3.925,3.847c-3.286,3.277-7.655,7.969-12.432,13.203c-4.779,5.236-9.201,9.9-12.56,13.116
							c-1.677,1.61-3.059,2.888-4.046,3.734c-0.457,0.39-0.833,0.712-1.138,0.973c-0.264,0.218-0.408,0.326-0.42,0.313
							c-0.012-0.013,0.109-0.148,0.35-0.391c0.287-0.28,0.641-0.625,1.071-1.044c0.944-0.891,2.284-2.207,3.925-3.847
							c3.287-3.277,7.656-7.969,12.435-13.206c4.777-5.234,9.198-9.898,12.558-13.114c1.677-1.61,3.059-2.888,4.046-3.734
							c0.457-0.391,0.833-0.712,1.138-0.973C349.629,235.57,349.773,235.462,349.785,235.475z"/>
					</g>
				</g>
				<g>
					<g>
						<path style="fill:#263238;" d="M326.664,259.372c-0.111,0.091-3.292-3.615-7.103-8.277c-3.813-4.663-6.812-8.516-6.701-8.607
							c0.111-0.091,3.291,3.614,7.104,8.277C323.775,255.428,326.775,259.281,326.664,259.372z"/>
					</g>
				</g>
			</g>
			<g>
				<g>
					<path style="fill:#263238;" d="M267.62,274.907c0.018-0.002,0.06,0.239,0.123,0.698c0.064,0.512,0.147,1.181,0.251,2.013
						c0.21,1.75,0.48,4.285,0.793,7.419c0.629,6.269,1.386,14.939,2.165,24.518c0.784,9.555,1.494,18.201,2.013,24.531
						c0.261,3.094,0.475,5.618,0.628,7.432c0.064,0.837,0.115,1.508,0.154,2.023c0.03,0.463,0.036,0.707,0.018,0.709
						c-0.018,0.002-0.06-0.239-0.123-0.698c-0.064-0.512-0.147-1.181-0.251-2.013c-0.21-1.749-0.48-4.284-0.793-7.419
						c-0.629-6.269-1.386-14.94-2.166-24.523c-0.784-9.551-1.493-18.197-2.013-24.527c-0.262-3.094-0.475-5.618-0.628-7.433
						c-0.064-0.837-0.115-1.509-0.154-2.023C267.609,275.153,267.602,274.909,267.62,274.907z"/>
				</g>
			</g>
			<g>
				<g>
					<path style="fill:#EBEBEB;" d="M398.311,231.019c0,0,22.26,0.023,27.843,42.824s17.865,121.332-4.466,136.219
						c-22.331,14.887-125.664,13.838-125.664,13.838v-41.479l84.815-9.358c0,0-0.323-7.719,4.003-7.663l-4.838-97.884
						C380.004,267.515,379.028,232.857,398.311,231.019z"/>
				</g>
				<g>
					<g>
						<path style="fill:#263238;" d="M380.216,300.047c0,0,0.041,0.403,0.09,1.188c0.047,0.799,0.114,1.961,0.202,3.477
							c0.165,3.066,0.405,7.551,0.714,13.29c0.591,11.513,1.439,28.047,2.473,48.199l0.011,0.207l-0.217,0.012
							c-0.705,0.039-1.405,0.263-1.954,0.754c-0.561,0.477-0.917,1.185-1.193,1.908c-0.534,1.471-0.687,3.145-0.64,4.78l0.006,0.21
							l-0.203,0.021c-24.009,2.47-52.672,5.42-83.455,8.587l0.234-0.259c0,1.198,0,2.493,0,3.793
							c-0.002,13.029-0.005,25.701-0.007,37.686l-0.249-0.253c36.107,0.391,67.603-1.046,89.857-3.844
							c5.561-0.711,10.539-1.518,14.865-2.368c4.319-0.882,7.978-1.827,10.908-2.756c1.456-0.486,2.737-0.956,3.833-1.384
							c1.07-0.49,1.994-0.865,2.706-1.233c0.69-0.389,1.218-0.687,1.587-0.896c0.359-0.199,0.548-0.292,0.548-0.292
							s-0.173,0.118-0.524,0.33c-0.365,0.218-0.887,0.53-1.57,0.937c-0.708,0.382-1.628,0.771-2.697,1.276
							c-1.094,0.443-2.373,0.927-3.83,1.428c-2.93,0.958-6.59,1.931-10.912,2.839c-4.328,0.876-9.31,1.707-14.874,2.441
							c-22.27,2.89-53.774,4.392-89.907,4.029l-0.249-0.003v-0.251c-0.002-11.985-0.005-24.657-0.007-37.686
							c0-1.299,0-2.595,0-3.793v-0.235l0.234-0.024c30.787-3.138,59.453-6.059,83.464-8.506l-0.197,0.231
							c-0.044-1.704,0.11-3.393,0.676-4.954c0.294-0.765,0.676-1.529,1.313-2.075c0.624-0.559,1.442-0.82,2.231-0.856l-0.206,0.219
							c-0.959-20.156-1.745-36.693-2.293-48.208c-0.259-5.742-0.462-10.228-0.6-13.296c-0.062-1.517-0.109-2.68-0.142-3.48
							C380.215,300.452,380.216,300.047,380.216,300.047z"/>
					</g>
				</g>
				<g>
					<g>
						<path style="fill:#263238;" d="M395.697,376.299c-0.085,0.031-0.415-0.857-1.179-2.157c-0.758-1.3-2.023-2.979-3.786-4.45
							c-1.77-1.464-3.652-2.401-5.069-2.908c-1.418-0.513-2.351-0.674-2.336-0.764c0.005-0.052,0.967-0.02,2.452,0.414
							c1.48,0.428,3.458,1.344,5.286,2.857c1.821,1.519,3.084,3.296,3.775,4.673C395.54,375.345,395.748,376.285,395.697,376.299z"
							/>
					</g>
				</g>
				<g>
					<g>
						<path style="fill:#263238;" d="M385.734,383.984c-0.161,0.044-0.726-2.717-2.536-5.603c-1.777-2.907-3.996-4.644-3.885-4.768
							c0.038-0.05,0.642,0.316,1.492,1.076c0.849,0.756,1.916,1.936,2.836,3.418c0.916,1.484,1.496,2.965,1.795,4.062
							C385.737,383.268,385.796,383.972,385.734,383.984z"/>
					</g>
				</g>
			</g>
		</g>
		<g>
			<g>
				<g>
					<g>
						<polygon style="fill:#E8505B;" points="92.665,262.34 153.471,424.002 282.444,426.61 229.287,263.449 						"/>
					</g>
					<g>
						<g style="opacity:0.5;">
							<path style="fill:#FFFFFF;" d="M173.878,424.287c0,0-30.849-59.331-40.468-98.852c-5.471-22.362-10.342-62.893-10.342-62.893
								l80.5,0.709c0,0,26.7,42.49,42.069,84.944c15.362,42.454,20.162,78.119,20.162,78.119l-41.306-0.911L210.9,385.778
								c0,0-4.242,2.294-10.073-0.671l14.024,40.084L173.878,424.287z"/>
						</g>
						<g>
							<path style="fill:#FFFFFF;" d="M218.034,360.606c-0.752-2.173-4.002-9.872-3.485-13.715
								c0.515-3.843,4.319-7.995,4.531-11.848c0.21-3.854,0.318-12.43-0.658-16.613c-0.978-4.183-3.795-10.864-3.795-10.864
								s-5.826-9.223-11.685-9.438c-5.859-0.216-7.128-0.262-7.128-0.262s-5.162,1.24-2.666,7.625
								c2.496,6.384,8.408,17.328,9.256,19.218c0.848,1.89,4.827,9.187,3.925,13.874c-0.907,4.687-7.703,17.742-6.807,20.921
								l-3.652-0.133c0,0-3.364-5.844-8.1-8.306c-4.732-2.461-14.874-13.132-17.039-19.505c-2.165-6.374-4.496-21.193-5.926-25.68
								c-1.431-4.487-3.641-8.43-7.353-9.425c-3.71-0.995-8.684,0.252-8.684,0.252s-6.636,2.331-3.662,12.311
								c2.972,9.981,4.637,10.614,8.157,16.466c3.523,5.852,4.404,7.601,7.2,10.135c2.798,2.534,9.384,5.35,12.233,11.463
								c2.851,6.113,4.27,13.175,9.39,21.945c5.126,8.77,7,11.986,11.014,11.988c4.013,0.002,5.303-4.529,5.452-7.242
								c0.147-2.713-0.002-4.292-0.002-4.292l4.846,0.176c0,0,5.462,10.221,11.21,12.142c5.752,1.92,5.34-3.244,5.629-5.236
								C220.522,374.571,218.786,362.779,218.034,360.606z M189.683,372.407c-1.524-0.773-4.176-5.896-6.803-10.334
								c-1.97-3.328-1.791-5.078-1.579-5.746c0.071-0.222,0.145-0.324,0.145-0.324l-0.074,0.102c0.195-1.16,2.144-0.649,3.577-0.077
								c1.056,0.421,6.048,2.374,7.68,9.613C194.258,372.881,191.208,373.18,189.683,372.407z M214.758,373.317
								c-1.027,0.681-4.363,0.149-7.714-7.152c-3.349-7.301,0.414-8.935,1.205-9.289c1.073-0.48,2.717-0.861,3.722,0.343
								l-0.147-0.11c0,0,0.147,0.11,0.374,0.343c0.68,0.7,2.078,2.507,2.368,5.773C214.95,367.581,215.784,372.637,214.758,373.317z
								"/>
						</g>
						<g>
							<path style="fill:#FFFFFF;" d="M197.553,356.969c1.199-0.082,0.351-4.643,0.351-4.643s0.251-3.011,0.027-5.158
								c-0.225-2.147,0.893-4.12,1.663-6.105c0.769-1.985-0.038-7.299-0.961-9.975c-0.923-2.676-0.301-2.905-0.301-2.905
								c3.077-1.02,0.234-7.414-1.836-13.403c-2.07-5.989-4.131-5.561-4.131-5.561s-1.377-0.051-2.161,4.827
								c-0.788,4.878-2.146,6.61-5.105,6.607l-1.583-0.058c-2.96,0.053-5.628-2.094-9.824-7.155
								c-4.192-5.061-5.569-5.112-5.569-5.112s-2.41-0.592-0.372,5.397c2.038,5.989,3.565,12.336,7.427,13.61
								c0,0,0.796,0.281,1.709,2.957c0.912,2.676,3.774,8.065,5.941,10.158c2.167,2.092,4.682,4.198,5.942,6.383
								c1.261,2.185,3.607,5.291,3.607,5.291s2.871,4.635,4.157,4.807L197.553,356.969z"/>
						</g>
						<g>
							<path style="fill:#FFFFFF;" d="M160.123,264.012c0,0-1.578,0.452-0.447,3.081c1.131,2.629,1.04,4.177,1.652,4.89
								c0.612,0.712,2.202,1.978,2.202,1.978s-1.805,0.623-0.471,3.432c1.334,2.809,1.676,5.581,2.284,6.81
								c0.608,1.23,1.902,1.622,2.493,2.334c0.592,0.712-1.952-0.072-1.315,2.366c0.637,2.438,2.22,4.221,2.209,6.463
								c-0.011,2.242,1.094,5.214,3.233,6.328c2.139,1.113,1.734,2.651,1.799,3.86c0.064,1.21,0.124,1.729,0.964,4.865
								c0.84,3.135,5.654,7.969,8.6,7.732c2.946-0.237,5.779-3.755,5.077-5.85c-0.702-2.095-3.562-6.684-4.808-7.937
								c-1.245-1.253-2.306-1.292-2.079-2.663c0.226-1.371,1.772,0.755,1.7-1.145c-0.073-1.9-0.263-3.804-1.453-5.572
								c-1.189-1.768-1.555-3.506-2.69-5.79c-1.134-2.284-3.369-2.711-3.197-3.222c0.172-0.511,1.407-0.293,0.391-2.572
								c-1.016-2.279-1.062-0.729-2.146-4.218c-1.084-3.489-1.571-5.576-2.623-5.27c-1.052,0.306-0.889-1.24-1.261-3.668
								c-0.373-2.428,0.513-1.533-0.973-4.175C167.777,263.426,160.123,264.012,160.123,264.012z"/>
						</g>
						<g>
							<path style="fill:#FFFFFF;" d="M162.138,349.899l1.334-3.183l-2.155-6.387c0,0,3.607-2.192,8.617,5.084
								c5.017,7.276,4.677,10.72,4.677,10.72l-5.94-0.216c0,0-1.42,3.247-0.211,6.522c1.209,3.275,2.964,2.878,4.59,8.63
								c1.625,5.753,1.774,8.066,1.774,8.066l18.512,44.866l-8.267-0.297l-19.975-47.537c0,0-2.28-1.468-5.958-8.681
								c-3.676-7.213-7.23-16.576-4.834-19.104C156.696,345.854,162.138,349.899,162.138,349.899z"/>
						</g>
						<g>
							<path style="fill:#FFFFFF;" d="M228.195,352.307l-3.578-3.361l-2.225-6.387c0,0-5.223-2.514-5.311,4.574
								c-0.094,7.088,2.645,10.643,2.645,10.643l5.944,0.216c0,0,3.711,3.432,4.744,6.7c1.033,3.268-1.044,2.731,1.28,8.507
								c2.324,5.776,3.777,8.136,3.777,8.136l12.121,44.618l8.273,0.297l-12.472-47.243c0,0,1.321-1.336,0.09-8.456
								c-1.234-7.12-4.086-16.452-8.301-19.22C230.97,348.563,228.195,352.307,228.195,352.307z"/>
						</g>
					</g>
				</g>
				<g>
					<g>
						<path style="fill:#263238;" d="M92.665,262.34c1.811,0.012,54.327,0.355,136.623,0.892l0.156,0.001l0.049,0.149
							c14.926,45.773,32.881,100.835,52.186,160.039c0.34,1.043,0.68,2.085,1.013,3.108l0.114,0.349l-0.367-0.008
							c-46.416-0.948-90.313-1.844-128.973-2.634l-0.159-0.003l-0.056-0.149C117.338,328.209,93.389,264.271,92.665,262.34
							c0.728,1.928,24.852,65.801,61.025,161.579l-0.215-0.152c38.66,0.774,82.557,1.653,128.974,2.582l-0.253,0.341
							c-0.333-1.023-0.673-2.065-1.013-3.108c-19.275-59.214-37.201-114.285-52.104-160.066l0.205,0.15
							C146.991,262.868,94.475,262.358,92.665,262.34z"/>
					</g>
				</g>
			</g>
			<g>
				<g>
					<path style="fill:#FFBE9D;" d="M296.204,385.804h-12.935c0,0-6.618-6.395-8.415-7.293c-1.797-0.898-10.643-3.569-10.643-3.569
						l3.41,9.458c0,0,0.387,0.089,1.574,0.552c2.255,0.88,1.627,2.874-0.17,2.874c-1.797,0-13.028,0-13.028,0
						s-13.333-6.396-15.314-5.226c-1.664,0.983-2.243,2.755-0.54,5.226c1.703,2.471,13.383,8.311,14.731,8.76l3.819,1.123
						l-3.594,1.123l-16.991-5.937c-1.103-0.197-2.626-0.38-3.124,0.26c-0.685,0.88-1.1,2.049,0.089,3.285
						c2.102,2.187,7.688,6.044,7.688,6.044s-2.712,3.985-0.466,6.006c2.246,2.022,8.76,8.087,8.76,8.087s0.674,3.369,2.695,4.942
						c2.022,1.572,24.26,1.572,25.832,1.572c1.572,0,10.557-5.166,10.557-5.166l5.884-0.613L296.204,385.804z"/>
				</g>
				<g>
					<g>
						<path style="fill:#EB996E;" d="M257.654,408.91c0.006,0.053-0.901,0.299-2.433,0.327c-0.762,0.005-1.699-0.103-2.659-0.466
							c-0.961-0.352-1.929-0.915-2.894-1.541c-1.926-1.252-3.649-2.41-4.884-3.27c-1.234-0.86-1.978-1.422-1.939-1.482
							c0.039-0.06,0.854,0.393,2.14,1.174c1.285,0.78,3.043,1.892,4.965,3.141c0.958,0.621,1.884,1.174,2.784,1.531
							c0.897,0.365,1.76,0.503,2.498,0.546C256.711,408.936,257.647,408.821,257.654,408.91z"/>
					</g>
				</g>
				<g>
					<g>
						<path style="fill:#EB996E;" d="M258.674,417.231c0.043,0.029-0.486,0.644-1.688,0.947c-1.167,0.312-2.991,0.186-4.585-0.77
							c-1.603-0.889-2.859-1.961-3.723-2.77c-0.857-0.82-1.314-1.395-1.266-1.442c0.118-0.135,2.159,2,5.239,3.755
							c1.517,0.906,3.142,1.059,4.26,0.867C258.038,417.63,258.624,417.154,258.674,417.231z"/>
					</g>
				</g>
				<g>
					<g>
						<path style="fill:#EB996E;" d="M264.972,398.825c-0.01,0.139-1.604,0.125-3.52-0.274c-1.918-0.393-3.387-1.011-3.341-1.143
							c0.047-0.141,1.563,0.247,3.446,0.633C263.439,398.433,264.985,398.677,264.972,398.825z"/>
					</g>
				</g>
			</g>
			<g>
				<g>
					<path style="fill:#FFBE9D;" d="M87.63,291.569c-2.658-1.522-3.516-4.943-1.91-7.551c0.604-0.98,1.273-1.814,1.947-2.17
						c2.174-1.15,21.377-4.743,23.436-5.038c2.167-0.31,2.44,3.668-0.25,5.62C108.163,284.381,87.63,291.569,87.63,291.569
						L87.63,291.569z"/>
				</g>
				<g>
					<path style="fill:#FFBE9D;" d="M92.101,305.487c-2.658-1.522-3.516-4.943-1.91-7.551c0.604-0.981,1.273-1.814,1.947-2.17
						c2.174-1.15,21.778-6.294,23.436-5.038c1.988,1.505,2.44,3.668-0.25,5.62C112.633,298.299,92.101,305.487,92.101,305.487
						L92.101,305.487z"/>
				</g>
				<g>
					<path style="fill:#FFBE9D;" d="M95.999,302.612c-1.822,0.454-3.425,1.632-4.229,3.32c-0.406,0.852-0.63,1.844-0.388,2.902
						c0.584,2.552,2.331,5.143,5.839,6.239c3.507,1.096,14.937-1.47,14.937-1.47l-2.638-7.371l8.012-2.622
						c3.26-1.295,1.684-6.397-2.245-5.413C113.985,298.523,100.584,301.47,95.999,302.612z"/>
				</g>
				<g>
					<path style="fill:#FFBE9D;" d="M90.019,298.139c-2.658-1.522-3.516-4.943-1.91-7.551c0.604-0.981,1.273-1.814,1.947-2.17
						c2.174-1.15,19.63-4.256,21.665-4.692c2.006-0.431,4.212,3.322,1.522,5.274C110.552,290.952,90.019,298.139,90.019,298.139
						L90.019,298.139z"/>
				</g>
				<g>
					<g>
						<path style="fill:#EB996E;" d="M109.733,291.127c0.012,0.071-1.159,0.366-3.06,0.785c-1.9,0.421-4.534,0.96-7.442,1.534
							c-2.893,0.599-5.446,1.434-7.006,2.569c-1.57,1.099-2.1,2.253-2.188,2.184c-0.027-0.015,0.081-0.301,0.375-0.769
							c0.292-0.465,0.801-1.109,1.596-1.712c0.789-0.599,1.825-1.191,3.053-1.642c1.222-0.455,2.6-0.83,4.063-1.139
							c2.919-0.577,5.564-1.059,7.484-1.387C108.529,291.223,109.721,291.056,109.733,291.127z"/>
					</g>
				</g>
				<g>
					<g>
						<path style="fill:#EB996E;" d="M106.357,284.752c0.012,0.071-1.11,0.338-2.931,0.712c-1.983,0.384-4.424,0.857-7.124,1.38
							c-2.754,0.606-5.192,1.437-6.628,2.582c-1.442,1.122-1.957,2.208-2.044,2.143c-0.028-0.016,0.076-0.289,0.349-0.74
							c0.274-0.448,0.734-1.076,1.465-1.691c1.447-1.276,3.97-2.195,6.744-2.802c2.795-0.554,5.333-0.94,7.173-1.234
							C105.202,284.82,106.345,284.681,106.357,284.752z"/>
					</g>
				</g>
				<g>
					<g>
						<path style="fill:#EB996E;" d="M109.979,299.3c0.016,0.07-1.035,0.382-2.746,0.844c-1.707,0.458-4.099,1.068-6.767,1.504
							c-2.637,0.485-4.995,1.18-6.429,2.165c-1.46,0.961-1.991,1.968-2.068,1.91c-0.026-0.015,0.072-0.278,0.355-0.696
							c0.284-0.415,0.771-0.977,1.502-1.515c1.457-1.116,3.881-1.886,6.545-2.376c2.669-0.436,5.039-0.982,6.776-1.35
							C108.879,299.415,109.963,299.229,109.979,299.3z"/>
					</g>
				</g>
				<g>
					<g>
						<path style="fill:#EB996E;" d="M111.078,305.722c0.044,0.137-1.824,0.882-4.172,1.664c-2.349,0.782-4.298,1.309-4.354,1.176
							c-0.056-0.133,1.812-0.877,4.172-1.664C109.084,306.112,111.033,305.585,111.078,305.722z"/>
					</g>
				</g>
			</g>
		</g>
	</g>
</g>
<g id="Character_2">
	<g>
		<g>
			<g>
				<g>
					<path style="fill:#263238;" d="M519.308,190.257c3.238-4.723,9.595-7.057,15.12-5.551c5.525,1.507,9.817,6.745,10.208,12.458
						c0.391,5.713-3.146,11.488-8.414,13.734c4.29,2.193,6.263,8.025,4.185,12.372c-2.078,4.347-7.854,6.475-12.256,4.515
						c-1.092,3.839-5.387,6.16-9.37,5.895c-3.983-0.264-7.568-2.627-10.289-5.549c-5.652-6.07-8.188-15.037-6.07-23.057
						c2.118-8.019,9.025-14.695,17.204-16.074"/>
				</g>
				<g>
					<g>
						<path style="fill:#455A64;" d="M525.635,184.012c0.013-0.006,0.069,0.09,0.164,0.281c0.088,0.194,0.246,0.471,0.384,0.858
							c0.298,0.764,0.638,1.928,0.769,3.435c0.126,1.501,0.031,3.358-0.595,5.332c-0.594,1.974-1.759,4.059-3.568,5.78l0.031-0.331
							c1.295,1.747,2.268,3.963,2.652,6.376c0.533,3.292-0.083,6.565-1.448,9.106c-1.36,2.557-3.348,4.361-5.186,5.492
							c-1.85,1.141-3.554,1.667-4.736,1.892c-0.596,0.102-1.058,0.169-1.377,0.178c-0.317,0.02-0.483,0.022-0.484,0.004
							c-0.005-0.054,0.659-0.102,1.817-0.38c1.152-0.282,2.802-0.853,4.582-2.005c1.768-1.142,3.67-2.925,4.959-5.406
							c1.292-2.462,1.873-5.619,1.358-8.8c-0.371-2.331-1.303-4.469-2.538-6.161l-0.131-0.179l0.162-0.152
							c1.745-1.64,2.896-3.637,3.501-5.544c0.637-1.907,0.769-3.711,0.688-5.181C526.458,185.638,525.522,184.044,525.635,184.012z"
							/>
					</g>
				</g>
				<g>
					<g>
						<path style="fill:#E8505B;" d="M565.621,181.22c0.017,0.032-0.51,0.342-1.478,0.876c-0.966,0.536-2.379,1.284-4.136,2.186
							c-3.513,1.806-8.42,4.199-13.925,6.655c-5.508,2.455-10.568,4.507-14.258,5.914c-1.845,0.704-3.346,1.255-4.39,1.616
							c-1.043,0.363-1.626,0.548-1.639,0.514c-0.013-0.034,0.546-0.283,1.566-0.704c1.102-0.451,2.561-1.047,4.326-1.769
							c3.652-1.493,8.682-3.596,14.182-6.047c5.497-2.453,10.421-4.79,13.973-6.509c1.716-0.831,3.135-1.517,4.207-2.036
							C565.046,181.437,565.604,181.188,565.621,181.22z"/>
					</g>
				</g>
				<g>
					<g>
						<path style="fill:#E8505B;" d="M552.585,168.261c0.098,0.105-5.393,5.354-12.263,11.721
							c-6.872,6.37-12.52,11.446-12.618,11.34c-0.098-0.105,5.392-5.353,12.264-11.722
							C546.838,173.233,552.488,168.156,552.585,168.261z"/>
					</g>
				</g>
			</g>
			<g>
				<g>
					<path style="fill:#263238;" d="M492.79,146.601c0-10.757-12.857-11.293-19.362-8.605c-3.498-4.794-6.015-7.214-14.047-7.72
						c-5.908-0.372-14.921,2.592-19.463,8.544c-4.542,5.952-5.439,14.424-2.413,21.273c1.001,2.265,2.428,4.545,2.147,7.005
						c-0.408,3.559-4.058,5.646-6.424,8.336c-3.964,4.506-4.243,11.829-0.633,16.623c2.286,3.037,5.927,5.169,7.141,8.771
						c1.018,3.018,0.059,6.317,0.249,9.496c0.349,5.842,4.783,10.962,10.228,13.108c5.444,2.146,11.669,1.636,17.17-0.36"/>
				</g>
				<g>
					<g>
						<g>
							<g>
								<g>
									<g>
										<g>
											<g>
												<g>
													<g>
														<g>
															<g>
																<g>
																	<g>
																		<path style="fill:#A36957;" d="M445.754,259.473l20.162-9.034l0.692-13.486c0,0-15.161-2.241-18.643-21.907
																			c-1.732-9.78-1.525-25.87-0.93-39.03c0.535-11.844,13.073-23.886,24.885-22.849l38.364,6.594l-0.013,6.368
																			l0.354,81.237l19.845,9.664l-45.002,53.157L445.754,259.473z"/>
																	</g>
																</g>
															</g>
														</g>
													</g>
												</g>
											</g>
											<g>
												<g>
													<g>
														<g>
															<g>
																<g>
																	<g>
																		<g>
																			<path style="fill:#263238;" d="M454.196,189.976c-0.023,1.336,1.089,2.458,2.484,2.508
																				c1.393,0.05,2.543-0.99,2.566-2.327c0.023-1.336-1.089-2.46-2.481-2.51
																				C455.37,187.597,454.219,188.639,454.196,189.976z"/>
																		</g>
																	</g>
																</g>
															</g>
														</g>
													</g>
												</g>
												<g>
													<g>
														<g>
															<g>
																<g>
																	<g>
																		<g>
																			<g>
																				<path style="fill:#263238;" d="M450.672,184.32c0.319,0.324,2.211-1.128,4.933-1.169
																					c2.718-0.08,4.74,1.284,5.03,0.946c0.143-0.15-0.187-0.74-1.069-1.357c-0.867-0.615-2.338-1.203-4.034-1.165
																					c-1.695,0.039-3.11,0.689-3.918,1.342C450.788,183.573,450.515,184.175,450.672,184.32z"/>
																			</g>
																		</g>
																	</g>
																</g>
															</g>
														</g>
													</g>
												</g>
											</g>
											<g>
												<g>
													<g>
														<g>
															<g>
																<g>
																	<g>
																		<g>
																			<path style="fill:#263238;" d="M479.626,190.01c-0.024,1.337,1.089,2.458,2.484,2.508
																				c1.393,0.05,2.543-0.99,2.566-2.327c0.024-1.336-1.089-2.46-2.482-2.51
																				C480.8,187.632,479.65,188.674,479.626,190.01z"/>
																		</g>
																	</g>
																</g>
															</g>
														</g>
													</g>
												</g>
												<g>
													<g>
														<g>
															<g>
																<g>
																	<g>
																		<g>
																			<g>
																				<path style="fill:#263238;" d="M477.434,184.352c0.32,0.324,2.213-1.128,4.933-1.169
																					c2.718-0.08,4.741,1.285,5.03,0.946c0.141-0.15-0.185-0.739-1.069-1.357c-0.867-0.616-2.338-1.203-4.033-1.165
																					c-1.695,0.039-3.11,0.689-3.919,1.342C477.553,183.606,477.278,184.207,477.434,184.352z"/>
																			</g>
																		</g>
																	</g>
																</g>
															</g>
														</g>
													</g>
												</g>
											</g>
											<g>
												<g>
													<g>
														<g>
															<g>
																<g>
																	<g>
																		<g>
																			<path style="fill:#263238;" d="M467.915,204.712c0.01-0.155-1.687-0.417-4.435-0.719
																				c-0.696-0.059-1.356-0.186-1.482-0.658c-0.173-0.499,0.105-1.254,0.427-2.068
																				c0.623-1.694,1.276-3.468,1.961-5.329c2.72-7.586,4.676-13.818,4.37-13.925c-0.307-0.107-2.76,5.955-5.481,13.54
																				c-0.654,1.87-1.279,3.653-1.874,5.359c-0.249,0.794-0.685,1.698-0.312,2.734
																				c0.196,0.516,0.714,0.884,1.161,0.996c0.448,0.128,0.839,0.128,1.183,0.143
																				C466.196,204.885,467.908,204.867,467.915,204.712z"/>
																		</g>
																	</g>
																</g>
															</g>
														</g>
													</g>
												</g>
											</g>
											<g>
												<g>
													<g>
														<g>
															<g>
																<g>
																	<g>
																		<path style="fill:#7C3B29;" d="M466.608,236.953c0,0,13.283,0.62,26.287-7.515c0,0-6.767,13.904-26.538,12.409
																			L466.608,236.953z"/>
																	</g>
																</g>
															</g>
														</g>
													</g>
												</g>
											</g>
											<g>
												<g>
													<g>
														<g>
															<g>
																<g>
																	<g>
																		<path style="fill:#7C3B29;" d="M469.183,211.251c0.956-1.312,2.658-2.053,4.364-1.9
																			c1.183,0.106,2.387,0.654,3.121,1.604c0.735,0.949,0.909,2.312,0.273,3.24c-0.716,1.046-2.246,1.311-3.552,0.966
																			c-1.306-0.346-2.439-1.182-3.516-2.014c-0.298-0.231-0.602-0.471-0.792-0.791
																			c-0.189-0.32-0.235-0.742-0.014-1.013"/>
																	</g>
																</g>
															</g>
														</g>
													</g>
												</g>
											</g>
											<g>
												<g>
													<g>
														<g>
															<g>
																<g>
																	<g>
																		<g>
																			<path style="fill:#263238;" d="M475.959,206.453c-0.443-0.018-0.396,2.936-2.888,5.078
																				c-2.487,2.149-5.642,1.873-5.658,2.286c-0.038,0.186,0.711,0.561,2.041,0.573
																				c1.305,0.022,3.201-0.431,4.726-1.741c1.52-1.314,2.153-3.041,2.232-4.255
																				C476.503,207.158,476.16,206.432,475.959,206.453z"/>
																		</g>
																	</g>
																</g>
															</g>
														</g>
													</g>
												</g>
											</g>
										</g>
									</g>
								</g>
								<g>
									<g>
										<g>
											<g>
												<g>
													<g>
														<g>
															<path style="fill:#263238;" d="M476.542,173.699c0.282,0.735,2.993,0.336,6.193,0.664
																c3.207,0.264,5.798,1.153,6.21,0.482c0.183-0.321-0.278-1.009-1.332-1.707c-1.044-0.697-2.703-1.348-4.624-1.527
																c-1.92-0.175-3.671,0.16-4.825,0.654C477,172.757,476.421,173.349,476.542,173.699z"/>
														</g>
													</g>
												</g>
											</g>
										</g>
									</g>
								</g>
								<g>
									<g>
										<g>
											<g>
												<g>
													<g>
														<g>
															<path style="fill:#263238;" d="M451.533,176.425c0.49,0.609,2.353-0.065,4.608-0.135
																c2.251-0.149,4.171,0.341,4.599-0.313c0.187-0.317-0.125-0.931-0.97-1.501c-0.832-0.569-2.216-1.021-3.764-0.946
																c-1.548,0.077-2.881,0.661-3.654,1.308C451.566,175.486,451.316,176.127,451.533,176.425z"/>
														</g>
													</g>
												</g>
											</g>
										</g>
									</g>
								</g>
							</g>
						</g>
					</g>
				</g>
				<g>
					<path style="fill:#263238;" d="M441.833,152.025c3.012,6.967,9.891,17.389,17.426,18.303
						c7.535,0.914,15.444-2.433,20.033-8.478c1.142,5.618,7.376,8.602,13.034,9.529c4,0.656,8.22,0.696,11.983-0.811
						c3.764-1.506,6.987-4.786,7.595-8.794c0.607-4.008-5.095-13.853-9.08-14.599"/>
				</g>
				<g>
					<path style="fill:#263238;" d="M493.683,165.995c-1.306,2.913-1.41,6.343-0.284,9.331c1.126,2.987,3.47,5.494,6.374,6.82
						c-2.785,3.457-3.279,8.348-2.22,12.659c1.059,4.311,3.49,8.151,6.098,11.744c0,0-6.784,9.809,6.87,16.973
						c0,0,9.584-2.969,5.304-17.415c-0.303-1.023-0.326-2.201,0.171-3.145c0.477-0.904,1.479-1.371,2.373-1.867
						c3.559-1.978,6.291-5.396,7.435-9.304c1.144-3.908,0.687-8.259-1.244-11.844c-0.516-0.958-1.143-1.892-1.326-2.965
						c-0.277-1.621-1.513-5.856-0.953-7.402c2.93-8.089-0.841-18.139-10.331-23.132c-7.614-4.005-17.14-4.667-22.965,1.664"/>
				</g>
			</g>
		</g>
		<g>
			<g>
				<path style="fill:#E8505B;" d="M546.666,323.306l12.969-50.841l-36.462-20.074l-35.196,54.255l-31.885-52.758l-32.852,14.875
					c-2.16,0.978-3.896,2.703-4.888,4.857l-29.702,80.36l40.161,12.967l4.6-18.629l5.29,32.171l-15.279,84.42l131.131-0.479
					l-23.24-86.669l3.227-19.329L546.666,323.306z"/>
			</g>
			<g style="opacity:0.3;">
				<g>
					<path d="M436.576,389.219c8.984,1.521,17.108-6.452,26.22-6.518c8.414-0.06,15.39,6.529,23.584,8.439
						c3.606,0.84,7.548,0.809,10.674,2.792c2.397,1.52,3.963,4.015,5.633,6.311c7.888,10.848,19.813,18.688,32.9,21.629
						c2.008,0.451,6.482,1.956,7.718,0.31l-1.333-5.233c-0.38-5.238-0.76-10.476-1.141-15.714l-43.94-31.951l-50.155,2.453
						L436.576,389.219z"/>
				</g>
			</g>
			<g>
				<rect x="505.766" y="315.631" style="fill:#263238;" width="27.132" height="4.492"/>
			</g>
			<g>
				<g>
					<path style="fill:#E8505B;" d="M534.744,370.49c10.947,3.901,22.974,3.311,34.471,1.616c2.73-0.403,5.584-0.922,7.736-2.651
						c0.722-0.58,2.455-2.046,2.43-2.389c-0.078-1.046-1.983-2.448-3.092-3.315c-8.29-6.482-19.48-9.099-29.785-6.966
						c-2.744,0.568-5.457,1.471-7.787,3.028c-2.33,1.557-3.789,2.417-4.588,5.104"/>
				</g>
				<g style="opacity:0.3;">
					<g>
						<path d="M534.744,370.49c10.947,3.901,22.974,3.311,34.471,1.616c2.73-0.403,5.584-0.922,7.736-2.651
							c0.722-0.58,2.455-2.046,2.43-2.389c-0.078-1.046-1.983-2.448-3.092-3.315c-8.29-6.482-19.48-9.099-29.785-6.966
							c-2.744,0.568-5.457,1.471-7.787,3.028c-2.33,1.557-3.789,2.417-4.588,5.104"/>
					</g>
				</g>
			</g>
			<g>
				<path style="fill:#E8505B;" d="M579.381,367.066c0,0-11.516-68.71-12.234-74.836c-1.782-15.198-7.511-20.061-7.511-20.061
					l-26.737,81.833l1.85,16.488C534.748,370.489,543.197,357.775,579.381,367.066z"/>
			</g>
			<g>
				<g>
					<path style="fill:#263238;" d="M564.64,311.887c0.034,0.012-0.145,0.616-0.498,1.702c-0.345,1.088-0.908,2.641-1.656,4.54
						c-1.496,3.796-3.846,8.943-7.018,14.312c-3.173,5.37-6.551,9.913-9.177,13.036c-1.309,1.566-2.41,2.798-3.203,3.618
						c-0.788,0.825-1.236,1.269-1.262,1.245c-0.026-0.025,0.371-0.515,1.111-1.38c0.746-0.86,1.801-2.126,3.069-3.716
						c2.544-3.173,5.856-7.725,9.014-13.069c3.156-5.343,5.547-10.439,7.125-14.187c0.788-1.875,1.402-3.404,1.805-4.469
						C564.362,312.458,564.606,311.875,564.64,311.887z"/>
				</g>
			</g>
			<g>
				<g>
					<path style="fill:#263238;" d="M438.527,378.833c-0.009,0.001-0.028-0.075-0.057-0.224c-0.032-0.181-0.07-0.399-0.117-0.665
						c-0.098-0.63-0.231-1.484-0.399-2.561c-0.381-2.268-0.918-5.468-1.578-9.403c-1.369-7.934-3.343-18.882-5.552-30.968
						c-2.198-12.072-4.187-22.998-5.637-30.961c-0.687-3.932-1.247-7.129-1.643-9.395c-0.168-1.078-0.302-1.934-0.4-2.564
						c-0.03-0.27-0.055-0.491-0.075-0.674c-0.014-0.151-0.017-0.228-0.008-0.228s0.03,0.077,0.061,0.226
						c0.034,0.179,0.075,0.396,0.126,0.66c0.122,0.625,0.287,1.474,0.496,2.544c0.435,2.258,1.05,5.445,1.805,9.364
						c1.512,7.91,3.579,18.843,5.788,30.935c2.209,12.087,4.126,23.048,5.403,31.001c0.643,3.976,1.112,7.202,1.415,9.435
						c0.127,1.084,0.228,1.944,0.302,2.577c0.026,0.269,0.048,0.489,0.065,0.672C438.534,378.754,438.536,378.832,438.527,378.833z"
						/>
				</g>
			</g>
			<g>
				<g>
					<path style="fill:#263238;" d="M548.651,296.006c0.018,0.004-0.031,0.27-0.137,0.772c-0.123,0.549-0.285,1.278-0.489,2.191
						c-0.454,1.952-1.089,4.686-1.869,8.041c-1.585,6.788-3.784,16.163-6.117,26.538c-2.337,10.378-4.355,19.793-5.698,26.631
						c-0.664,3.42-1.204,6.188-1.526,8.109c-0.167,0.92-0.3,1.655-0.4,2.208c-0.097,0.504-0.157,0.768-0.175,0.765
						c-0.018-0.003,0.007-0.271,0.071-0.781c0.076-0.557,0.177-1.298,0.304-2.225c0.261-1.934,0.746-4.714,1.364-8.146
						c1.252-6.861,3.214-16.295,5.552-26.676c2.333-10.379,4.59-19.742,6.267-26.51c0.847-3.339,1.537-6.06,2.03-8.003
						c0.243-0.904,0.438-1.625,0.584-2.168C548.551,296.259,548.633,296.001,548.651,296.006z"/>
				</g>
			</g>
			<g>
				<g>
					<path style="fill:#263238;" d="M447.66,257.409c0.008-0.005,0.083,0.102,0.224,0.315c0.152,0.235,0.356,0.551,0.615,0.952
						c0.547,0.868,1.327,2.106,2.326,3.691c2.017,3.243,4.911,7.899,8.489,13.652c7.148,11.589,17.02,27.594,27.985,45.372
						l-0.434-0.014c0.42-0.591,0.873-1.229,1.328-1.87c1.421-1.999,2.826-3.976,4.148-5.835l-0.01,0.284
						c-10.205-16.921-19.289-31.985-25.84-42.846c-3.238-5.414-5.849-9.779-7.665-12.817c-0.881-1.493-1.568-2.659-2.051-3.477
						c-0.219-0.382-0.392-0.683-0.521-0.908c-0.115-0.206-0.17-0.313-0.163-0.318c0.007-0.004,0.077,0.094,0.206,0.292
						c0.14,0.219,0.326,0.511,0.563,0.883c0.501,0.807,1.215,1.956,2.13,3.429c1.849,3.018,4.506,7.355,7.802,12.734
						c6.586,10.839,15.721,25.873,25.982,42.76l0.088,0.145l-0.099,0.139c-1.321,1.86-2.726,3.837-4.146,5.836
						c-0.455,0.64-0.909,1.279-1.329,1.869l-0.228,0.321l-0.206-0.336c-10.913-17.81-20.737-33.845-27.851-45.454
						c-3.519-5.79-6.366-10.474-8.349-13.738c-0.963-1.607-1.716-2.862-2.244-3.742c-0.241-0.413-0.431-0.737-0.572-0.979
						C447.714,257.53,447.653,257.414,447.66,257.409z"/>
				</g>
			</g>
			<g>
				<g>
					<path style="fill:#263238;" d="M523.173,252.095c0.007,0.005-0.046,0.102-0.157,0.288c-0.127,0.206-0.293,0.477-0.503,0.82
						c-0.468,0.742-1.131,1.792-1.979,3.136c-1.756,2.742-4.276,6.675-7.399,11.552c-6.325,9.789-15.093,23.359-24.941,38.599
						l0.004-0.276c1.102,1.799,2.274,3.711,3.458,5.645c0.384,0.626,0.766,1.25,1.12,1.828l-0.438-0.009
						c5.338-7.981,10.267-15.658,14.77-22.612c4.5-6.956,8.62-13.161,12.201-18.278c3.573-5.123,6.575-9.178,8.676-11.956
						c1.049-1.36,1.87-2.424,2.448-3.174c0.271-0.342,0.485-0.612,0.648-0.816c0.148-0.182,0.227-0.272,0.234-0.267
						c0.007,0.005-0.058,0.107-0.193,0.299c-0.152,0.212-0.353,0.491-0.607,0.846c-0.56,0.763-1.355,1.846-2.37,3.23
						c-2.05,2.813-5.006,6.898-8.537,12.043c-3.539,5.14-7.624,11.36-12.1,18.33c-4.479,6.968-9.397,14.656-14.736,22.644
						l-0.226,0.338l-0.212-0.347c-0.354-0.578-0.736-1.202-1.12-1.828c-1.184-1.934-2.355-3.847-3.456-5.646l-0.086-0.14
						l0.089-0.137c9.903-15.205,18.72-28.742,25.081-38.508c3.18-4.84,5.745-8.744,7.533-11.465
						c0.881-1.322,1.571-2.356,2.057-3.086c0.227-0.332,0.407-0.594,0.544-0.794C523.099,252.179,523.166,252.09,523.173,252.095z"
						/>
				</g>
			</g>
		</g>
		<g>
			<g>
				<g>
					<g>
						<path style="fill:#EBEBEB;" d="M451.558,348.28c-4.783-2.058-9.447,0.609-11.081,3.758c-1.634,3.15-1.174,7.486,1.2,10.01
							c2.375,2.525,8.111,4.237,10.78,1.197L451.558,348.28z"/>
					</g>
					<g>
						<g>
							<path style="fill:#263238;" d="M451.558,348.28c0.022-0.015,0.066,0.354,0.13,1.056c0.064,0.78,0.147,1.801,0.249,3.053
								c0.191,2.73,0.452,6.464,0.758,10.843l0.007,0.097l-0.066,0.075c-1.097,1.248-2.909,1.846-4.663,1.698
								c-1.765-0.104-3.546-0.703-5.112-1.74c-1.524-0.97-2.589-2.513-3.108-4.112c-0.537-1.607-0.596-3.279-0.33-4.801
								c0.284-1.516,0.916-2.919,1.849-3.942c0.903-1.045,1.984-1.778,3.042-2.261c2.136-0.988,4.123-0.905,5.369-0.639
								C450.94,347.889,451.595,348.295,451.558,348.28c-0.053,0.039-0.662-0.248-1.913-0.475c-1.23-0.199-3.144-0.218-5.174,0.772
								c-2.009,0.929-4.119,2.99-4.575,5.954c-0.24,1.447-0.173,3.04,0.341,4.555c0.505,1.515,1.481,2.927,2.914,3.841
								c1.48,0.983,3.193,1.562,4.851,1.665c1.66,0.144,3.283-0.401,4.277-1.504l-0.059,0.171c-0.218-4.339-0.404-8.039-0.54-10.744
								c-0.049-1.271-0.09-2.306-0.12-3.098C451.538,348.694,451.536,348.296,451.558,348.28z"/>
						</g>
					</g>
				</g>
				<g>
					<path style="fill:#263238;" d="M444.414,348.28c0,0,2.848-58.741,4.315-67.161c1.467-8.42,5.25-22.044,11.199-30.271
						c5.689-7.868,6.251-8.421,6.251-8.421l-0.376,7.333c0,0-8.212,13.566-11.424,30.466c-3.163,16.641-5.345,68.053-5.345,68.053
						H444.414z"/>
				</g>
			</g>
			<g>
				<g>
					<path style="fill:#E0E0E0;" d="M527.885,358.778c-1.574,0-3.214-0.335-4.852-0.999l0.752-1.853
						c1.58,0.642,3.983,1.252,6.471,0.52c2.149-0.634,3.965-2.282,4.738-4.303c0.821-2.146,0.507-4.587,0.098-6.259
						c-0.369-1.514-0.917-2.949-1.497-4.469c-0.248-0.651-0.497-1.303-0.731-1.96c-4.201-11.811-3.478-25.032-2.839-36.697
						l1.996,0.109c-0.628,11.477-1.34,24.484,2.727,35.918c0.229,0.643,0.472,1.279,0.715,1.917c0.576,1.51,1.172,3.071,1.571,4.707
						c0.683,2.793,0.623,5.369-0.174,7.448c-1.005,2.63-3.264,4.688-6.041,5.506C529.88,358.64,528.896,358.778,527.885,358.778z"/>
				</g>
				<g>
					<g>
						<path style="fill:#EBEBEB;" d="M527.704,359.66c-3.339,0-6.259-1.568-8.807-4.706c-3.297-4.061-3.822-14.137-4.285-23.026
							c-0.166-3.18-0.323-6.183-0.602-8.355c-0.984-7.686-5.389-17.988-5.434-18.091l1.838-0.791
							c0.185,0.432,4.559,10.661,5.58,18.628c0.288,2.248,0.446,5.287,0.614,8.505c0.426,8.16,0.955,18.314,3.841,21.87
							c4.358,5.365,9.646,5.314,17.148-0.172l1.18,1.615C534.654,358.153,530.977,359.66,527.704,359.66z"/>
					</g>
					<g>
						<path style="fill:#263238;" d="M534.748,355.251c0.417-1.016,0.865-2.033,1.527-2.879c0.662-0.846,1.569-1.514,2.582-1.633
							s2.117,0.406,2.562,1.408c0.424,0.956,0.171,2.163-0.463,2.968c-0.634,0.805-1.585,1.249-2.544,1.422
							c-0.959,0.172-1.94,0.099-2.909,0.025"/>
					</g>
				</g>
				<g>
					<path style="fill:#263238;" d="M514.79,268.095c2.282,2.816,12.276,16.139,13.497,34.885h4.163c0,0-0.011-20.888-16.229-39.359
						c1.044-3.479,1.924-7.028,2.292-10.167c0.917-7.818-7.655-12.545-7.655-12.545l0.026,5.921c0,0,3.677,1.928,3.494,6.137
						c-0.183,4.21-3.347,13.161-6.442,20.879c-1.492,3.72-3.734,9.994-3.402,20.011c0.29,8.754,3.708,12.721,3.708,12.721
						l4.128-1.747c0,0-2.473-3.093-3.54-11.546c-0.815-6.452,1.095-11.506,2.753-16.177
						C512.402,274.797,513.605,271.601,514.79,268.095z"/>
				</g>
			</g>
		</g>
		<g>
			<path style="fill:#A36957;" d="M395.272,355.901l-5.021,19.066c-1.623,6.162-0.111,12.859,4.372,17.387
				c0.268,0.271,0.545,0.534,0.831,0.79l0,0c5.327,4.764,12.889,6.107,19.531,3.469l51.808-20.574l-7.649-23.351l-39.212,11.176
				L395.272,355.901z"/>
		</g>
		<g>
			<g>
				<path style="fill:#455A64;" d="M437.789,324.121l9.39,49.972c0.41,2.181,2.355,3.733,4.572,3.648l71.741-2.736
					c2.466-0.094,4.391-2.165,4.305-4.631l-1.638-47.236c-0.084-2.412-2.063-4.323-4.476-4.323H442.19
					C439.385,318.815,437.271,321.364,437.789,324.121z"/>
			</g>
			<g>
				<g>
					<g>
						<g>
							<path style="fill:#A36957;" d="M516.17,344.475L516.17,344.475c-2.753,0-5.234,1.68-6.222,4.25
								c-1.039,2.703-2.557,5.86-4.242,6.779c-3.111,1.697-8.484,3.051-11.312,1.667c-2.828-1.384-14.14-11.565-16.119-10.434
								c-1.98,1.131-3.676,3.676-1.697,5.939c1.979,2.262,12.443,9.049,10.464,11.312c-1.98,2.262-24.037-7.695-27.431-6.817
								c-3.393,0.878-5.373,2.964-3.393,4.325c1.979,1.361,16.967,7.016,17.816,8.996c0,0-22.623-5.939-23.472-4.525
								c-0.848,1.414-2.262,3.676,0,4.525c2.262,0.848,21.775,5.939,23.472,6.787c1.697,0.848,7.545,2.545,8.721,2.545
								c0.618,0,5.047,1.483,9.112,2.89c4.582,1.586,9.58,1.453,14.071-0.376l2.29-0.933c3.564-1.452,5.807-5.013,5.577-8.855
								l-0.463-7.713l2.468-6.365L516.17,344.475z"/>
						</g>
					</g>
				</g>
			</g>
			<g>
				<g>
					<path style="fill:#A36957;" d="M498.047,383.814c0,0,41.285,37.366,55.186,37.472c14.647,0.112,22.895-15.09,21.334-24.534
						c-0.833-5.041-3.006-31.393-3.006-31.393c-9.812-2.684-24.469-3.881-34.918,3.072l3.802,15.383l-27.552-13.325L498.047,383.814
						z"/>
				</g>
				<g>
					<g>
						<path style="fill:#263238;" d="M579.381,367.066c-0.005,0.017-0.168-0.009-0.475-0.076c-0.364-0.086-0.803-0.191-1.332-0.316
							c-1.155-0.283-2.824-0.695-4.895-1.162c-4.135-0.903-9.932-2.066-16.399-1.897c-3.228,0.091-6.288,0.486-9.037,1.017
							c-2.752,0.512-5.175,1.234-7.102,2.09c-1.932,0.852-3.339,1.846-4.239,2.605c-0.896,0.77-1.322,1.275-1.36,1.241
							c-0.014-0.012,0.084-0.145,0.283-0.388c0.192-0.25,0.513-0.586,0.943-1.003c0.871-0.817,2.275-1.878,4.221-2.789
							c1.941-0.914,4.392-1.684,7.163-2.226c2.764-0.561,5.854-0.975,9.116-1.067c6.541-0.17,12.373,1.063,16.497,2.059
							c2.067,0.514,3.725,0.982,4.864,1.325c0.519,0.163,0.951,0.298,1.308,0.411C579.232,366.988,579.385,367.048,579.381,367.066z
							"/>
					</g>
				</g>
			</g>
		</g>
	</g>
</g>
<g id="Desk">
	<g>
		<g>
			<path style="fill:#263238;" d="M699.795,464.701c0,0.144-145.427,0.26-324.78,0.26c-179.415,0-324.811-0.117-324.811-0.26
				c0-0.144,145.396-0.26,324.811-0.26C554.368,464.44,699.795,464.557,699.795,464.701z"/>
		</g>
	</g>
</g>
<g id="Plant">
	<g>
		<g>
			<g>
				<path style="fill:#E8505B;" d="M613.024,419.874c2.104,2.957,6.142,1.941,8.004,0.112c1.862-1.829,2.634-4.465,3.336-6.978
					c1.604-5.742,3.22-11.766,1.949-17.592c-0.38-1.742-1.046-3.476-2.282-4.761c-1.236-1.285-3.127-2.04-4.847-1.571
					c-2.035,0.555-3.288,2.562-4.189,4.469c-2.65,5.607-4.028,11.81-4.001,18.012C611.007,414.461,611.372,417.496,613.024,419.874"
					/>
			</g>
		</g>
		<g style="opacity:0.2;">
			<g>
				<path d="M613.024,419.874c2.104,2.957,6.142,1.941,8.004,0.112c1.862-1.829,2.634-4.465,3.336-6.978
					c1.604-5.742,3.22-11.766,1.949-17.592c-0.38-1.742-1.046-3.476-2.282-4.761c-1.236-1.285-3.127-2.04-4.847-1.571
					c-2.035,0.555-3.288,2.562-4.189,4.469c-2.65,5.607-4.028,11.81-4.001,18.012C611.007,414.461,611.372,417.496,613.024,419.874"
					/>
			</g>
		</g>
		<g>
			<g>
				<path style="fill:#E8505B;" d="M620.939,434.868c3.39-1.783,7.396-2.042,11.18-1.447c2.033,0.32,4.154,0.911,5.547,2.425
					c1.393,1.514,1.676,4.196,0.1,5.518c-0.938,0.787-2.254,0.916-3.478,0.911c-2.959-0.011-6.245-0.507-8.595,1.291
					c-1.34,1.026-2.225,2.721-3.833,3.233c-1.573,0.501-3.36-0.416-4.208-1.833c-0.847-1.417-0.889-3.196-0.512-4.803
					C617.14,440.163,617.524,436.663,620.939,434.868z"/>
			</g>
		</g>
		<g>
			<g>
				<path style="fill:#E8505B;" d="M607.341,424.184c2.239-2.699,2.638-6.615,1.606-9.967c-1.032-3.352-3.326-6.193-5.962-8.506
					c-3.091-2.712-6.716-4.813-10.605-6.147c-1.531-0.525-3.144-0.936-4.754-0.77c-1.61,0.166-3.226,1.003-3.966,2.442
					c-1.095,2.128-0.01,4.689,1.159,6.777c2.058,3.679,4.407,7.195,7.016,10.505c2.099,2.663,4.5,5.288,7.677,6.474
					c3.177,1.186,6.466,1.018,8.128-1.191"/>
			</g>
		</g>
		<g>
			<g>
				<g>
					<path style="fill:#263238;" d="M613.23,464.717c0.039,0.002,0.099-0.48,0.178-1.352c0.088-0.984,0.199-2.219,0.33-3.689
						c0.16-1.553,0.372-3.4,0.787-5.414c0.414-2.008,1.07-4.187,1.916-6.397c0.877-2.198,1.952-4.197,3.214-5.8
						c1.253-1.609,2.715-2.779,4.093-3.457c1.373-0.692,2.607-0.978,3.461-1.107c0.861-0.095,1.343-0.167,1.343-0.205
						c0-0.039-0.483-0.041-1.369-0.01c-0.877,0.065-2.163,0.297-3.611,0.97c-1.453,0.658-3.005,1.845-4.319,3.489
						c-1.325,1.636-2.44,3.68-3.332,5.917c-0.861,2.249-1.506,4.45-1.901,6.501c-0.393,2.048-0.566,3.916-0.677,5.481
						c-0.105,1.566-0.139,2.834-0.154,3.711C613.179,464.23,613.193,464.715,613.23,464.717z"/>
				</g>
			</g>
		</g>
		<g>
			<g>
				<g>
					<path style="fill:#263238;" d="M613.462,461.879c0.019-0.001,0.03-0.217,0.031-0.627c-0.005-0.471-0.011-1.064-0.019-1.792
						c-0.016-1.555-0.033-3.806,0.029-6.586c0.095-5.56,0.514-13.238,1.373-21.68c0.866-8.445,2.041-16.044,3.124-21.498
						c0.255-1.367,0.514-2.598,0.757-3.675c0.232-1.08,0.43-2.011,0.622-2.764c0.165-0.709,0.299-1.287,0.405-1.745
						c0.087-0.401,0.123-0.614,0.105-0.619c-0.019-0.005-0.091,0.198-0.213,0.589c-0.133,0.452-0.301,1.022-0.507,1.721
						c-0.225,0.747-0.454,1.672-0.716,2.748c-0.273,1.073-0.559,2.301-0.84,3.666c-1.185,5.447-2.425,13.057-3.293,21.52
						c-0.861,8.46-1.219,16.159-1.212,21.733c-0.011,2.787,0.065,5.042,0.148,6.598c0.05,0.728,0.091,1.32,0.123,1.79
						C613.416,461.666,613.443,461.88,613.462,461.879z"/>
				</g>
			</g>
		</g>
		<g>
			<g>
				<g>
					<path style="fill:#263238;" d="M613.385,447.035c0.038-0.002,0.027-0.667-0.028-1.872c-0.078-1.202-0.257-2.94-0.613-5.068
						c-0.376-2.123-0.897-4.642-1.707-7.378c-0.771-2.746-1.825-5.709-3.158-8.721c-2.611-6.061-6.132-11.006-9.185-14.062
						c-0.717-0.812-1.513-1.395-2.15-1.968c-0.33-0.275-0.622-0.548-0.918-0.765c-0.298-0.202-0.576-0.39-0.833-0.565
						c-1.002-0.674-1.564-1.029-1.584-0.997c-0.088,0.122,2.245,1.471,5.203,4.569c2.945,3.091,6.369,8.002,8.958,14.013
						c1.322,2.986,2.382,5.921,3.175,8.64c0.832,2.709,1.389,5.203,1.812,7.304c0.403,2.106,0.64,3.826,0.784,5.017
						C613.261,446.375,613.346,447.036,613.385,447.035z"/>
				</g>
			</g>
		</g>
	</g>
</g>
<g id="Speech_Bubble">
	<g>
		<g>
			<g>
				<path style="fill:#E0E0E0;" d="M569.618,127.077h-0.246c-2.27,0-4.111-1.84-4.111-4.111V82.733c0-2.27,1.84-4.111,4.111-4.111
					h0.246c2.27,0,4.111,1.84,4.111,4.111v40.233C573.728,125.236,571.888,127.077,569.618,127.077z"/>
			</g>
			<g>
				<path style="fill:#E8505B;" d="M569.618,127.077h-0.246c-2.27,0-4.111-1.84-4.111-4.111V97.214c0-2.27,1.84-4.111,4.111-4.111
					h0.246c2.27,0,4.111,1.84,4.111,4.111v25.752C573.728,125.236,571.888,127.077,569.618,127.077z"/>
			</g>
			<g>
				<path style="fill:#E0E0E0;" d="M583.484,127.077h-0.246c-2.27,0-4.111-1.84-4.111-4.111V82.733c0-2.27,1.84-4.111,4.111-4.111
					h0.246c2.27,0,4.111,1.84,4.111,4.111v40.233C587.595,125.236,585.755,127.077,583.484,127.077z"/>
			</g>
			<g>
				<path style="fill:#E8505B;" d="M583.484,127.077h-0.246c-2.27,0-4.111-1.84-4.111-4.111v-18.243c0-2.27,1.84-4.111,4.111-4.111
					h0.246c2.27,0,4.111,1.84,4.111,4.111v18.243C587.595,125.236,585.755,127.077,583.484,127.077z"/>
			</g>
			<g>
				<path style="fill:#E0E0E0;" d="M599.173,127.077h-0.246c-2.27,0-4.111-1.84-4.111-4.111V82.733c0-2.27,1.84-4.111,4.111-4.111
					h0.246c2.27,0,4.111,1.84,4.111,4.111v40.233C603.284,125.236,601.443,127.077,599.173,127.077z"/>
			</g>
			<g>
				<path style="fill:#E8505B;" d="M599.173,127.077h-0.246c-2.27,0-4.111-1.84-4.111-4.111v-31.48c0-2.27,1.84-4.111,4.111-4.111
					h0.246c2.27,0,4.111,1.84,4.111,4.111v31.48C603.284,125.236,601.443,127.077,599.173,127.077z"/>
			</g>
			<g>
				<g>
					<path style="fill:#263238;" d="M569.618,127.077c-0.003-0.032,0.38-0.007,1.058-0.197c0.657-0.188,1.671-0.674,2.357-1.821
						c0.345-0.561,0.568-1.283,0.571-2.082c-0.006-0.824-0.013-1.717-0.021-2.674c-0.011-1.925-0.024-4.109-0.039-6.519
						c-0.016-4.843-0.035-10.591-0.056-16.97c-0.005-3.195-0.01-6.547-0.015-10.021c-0.001-0.869-0.002-1.745-0.002-2.629
						c-0.023-0.892,0.081-1.786-0.175-2.577c-0.491-1.628-2.144-2.82-3.922-2.705c-1.747-0.023-3.362,1.269-3.737,2.925
						c-0.199,0.798-0.087,1.721-0.119,2.6c-0.001,0.884-0.001,1.76-0.002,2.63c-0.005,3.475-0.01,6.827-0.015,10.023
						c-0.021,6.38-0.04,12.128-0.056,16.971c-0.014,2.41-0.027,4.594-0.039,6.519c-0.001,0.956-0.027,1.86-0.009,2.666
						c0.035,0.799,0.321,1.503,0.689,2.045c0.761,1.1,1.796,1.52,2.462,1.68C569.237,127.083,569.62,127.045,569.618,127.077
						c0,0-0.375,0.078-1.09-0.033c-0.69-0.131-1.78-0.53-2.607-1.666c-0.399-0.56-0.718-1.298-0.771-2.146
						c-0.034-0.837-0.022-1.719-0.035-2.682c-0.011-1.925-0.024-4.109-0.039-6.519c-0.016-4.843-0.035-10.591-0.056-16.971
						c-0.005-3.195-0.01-6.548-0.015-10.023c-0.001-0.869-0.002-1.746-0.002-2.63c0-0.442-0.001-0.886-0.001-1.331
						c-0.011-0.431,0.014-0.938,0.131-1.393c0.424-1.88,2.256-3.348,4.24-3.321c0.949-0.045,1.957,0.234,2.743,0.789
						c0.797,0.551,1.382,1.375,1.673,2.283c0.14,0.455,0.194,0.94,0.196,1.4c0,0.445-0.001,0.889-0.001,1.331
						c-0.001,0.883-0.002,1.76-0.002,2.629c-0.005,3.474-0.01,6.826-0.015,10.021c-0.021,6.379-0.04,12.126-0.056,16.97
						c-0.014,2.41-0.027,4.594-0.039,6.519c-0.008,0.957-0.015,1.85-0.022,2.675c-0.018,0.848-0.271,1.606-0.647,2.187
						c-0.749,1.188-1.82,1.657-2.502,1.817C569.998,127.142,569.618,127.077,569.618,127.077z"/>
				</g>
			</g>
			<g>
				<g>
					<path style="fill:#263238;" d="M583.484,127.077c-0.003-0.032,0.38-0.007,1.058-0.197c0.657-0.188,1.671-0.674,2.357-1.821
						c0.345-0.561,0.568-1.283,0.571-2.082c-0.006-0.824-0.013-1.717-0.021-2.674c-0.011-1.925-0.024-4.109-0.039-6.519
						c-0.016-4.843-0.035-10.591-0.056-16.97c-0.005-3.195-0.01-6.547-0.015-10.021c-0.001-0.869-0.002-1.745-0.002-2.629
						c-0.023-0.892,0.081-1.786-0.175-2.577c-0.491-1.628-2.144-2.82-3.922-2.705c-1.747-0.023-3.363,1.269-3.737,2.925
						c-0.199,0.798-0.087,1.721-0.119,2.6c-0.001,0.884-0.002,1.76-0.002,2.63c-0.005,3.475-0.01,6.827-0.015,10.023
						c-0.021,6.38-0.04,12.128-0.056,16.971c-0.014,2.41-0.027,4.594-0.039,6.519c-0.001,0.956-0.027,1.86-0.009,2.666
						c0.035,0.799,0.321,1.503,0.689,2.045c0.761,1.1,1.796,1.52,2.462,1.68C583.104,127.083,583.486,127.045,583.484,127.077
						c0,0-0.375,0.078-1.09-0.033c-0.69-0.131-1.78-0.53-2.607-1.666c-0.399-0.56-0.718-1.298-0.77-2.146
						c-0.034-0.837-0.022-1.719-0.035-2.682c-0.011-1.925-0.024-4.109-0.039-6.519c-0.016-4.843-0.035-10.591-0.056-16.971
						c-0.005-3.195-0.01-6.548-0.015-10.023c-0.001-0.869-0.002-1.746-0.002-2.63c0-0.442-0.001-0.886-0.001-1.331
						c-0.011-0.431,0.014-0.938,0.131-1.393c0.424-1.88,2.256-3.348,4.24-3.321c0.949-0.045,1.957,0.234,2.743,0.789
						c0.797,0.551,1.382,1.375,1.673,2.283c0.14,0.455,0.194,0.94,0.196,1.4c0,0.445-0.001,0.889-0.001,1.331
						c-0.001,0.883-0.002,1.76-0.002,2.629c-0.005,3.474-0.01,6.826-0.015,10.021c-0.021,6.379-0.04,12.126-0.056,16.97
						c-0.014,2.41-0.027,4.594-0.039,6.519c-0.008,0.957-0.015,1.85-0.022,2.675c-0.018,0.848-0.271,1.606-0.646,2.187
						c-0.749,1.188-1.82,1.657-2.502,1.817C583.865,127.142,583.484,127.077,583.484,127.077z"/>
				</g>
			</g>
			<g>
				<g>
					<path style="fill:#263238;" d="M599.173,127.077c-0.003-0.032,0.38-0.007,1.058-0.197c0.657-0.188,1.671-0.674,2.357-1.821
						c0.345-0.561,0.568-1.283,0.571-2.082c-0.006-0.824-0.013-1.717-0.021-2.674c-0.011-1.925-0.024-4.109-0.039-6.519
						c-0.016-4.843-0.035-10.591-0.056-16.97c-0.005-3.195-0.01-6.547-0.015-10.021c-0.001-0.869-0.002-1.745-0.002-2.629
						c-0.023-0.892,0.081-1.786-0.175-2.577c-0.491-1.628-2.144-2.82-3.922-2.705c-1.747-0.023-3.362,1.269-3.737,2.925
						c-0.199,0.798-0.087,1.721-0.118,2.6c-0.001,0.884-0.002,1.76-0.002,2.63c-0.005,3.475-0.01,6.827-0.015,10.023
						c-0.021,6.38-0.04,12.128-0.056,16.971c-0.014,2.41-0.027,4.594-0.039,6.519c-0.001,0.956-0.027,1.86-0.009,2.666
						c0.035,0.799,0.321,1.503,0.689,2.045c0.761,1.1,1.796,1.52,2.462,1.68C598.792,127.083,599.175,127.045,599.173,127.077
						c0,0-0.375,0.078-1.09-0.033c-0.69-0.131-1.78-0.53-2.607-1.666c-0.399-0.56-0.718-1.298-0.771-2.146
						c-0.034-0.837-0.022-1.719-0.035-2.682c-0.011-1.925-0.024-4.109-0.039-6.519c-0.016-4.843-0.035-10.591-0.056-16.971
						c-0.005-3.195-0.01-6.548-0.015-10.023c-0.001-0.869-0.002-1.746-0.002-2.63c0-0.442-0.001-0.886-0.001-1.331
						c-0.011-0.431,0.014-0.938,0.131-1.393c0.424-1.88,2.256-3.348,4.24-3.321c0.948-0.045,1.957,0.234,2.743,0.789
						c0.797,0.551,1.382,1.375,1.673,2.283c0.14,0.455,0.194,0.94,0.196,1.4c0,0.445-0.001,0.889-0.001,1.331
						c-0.001,0.883-0.002,1.76-0.002,2.629c-0.005,3.474-0.01,6.826-0.015,10.021c-0.021,6.379-0.04,12.126-0.056,16.97
						c-0.014,2.41-0.027,4.594-0.039,6.519c-0.008,0.957-0.015,1.85-0.022,2.675c-0.018,0.848-0.271,1.606-0.647,2.187
						c-0.749,1.188-1.82,1.657-2.502,1.817C599.554,127.142,599.173,127.077,599.173,127.077z"/>
				</g>
			</g>
		</g>
		<g>
			<g>
				<g>
					<g>
						<path style="fill:#263238;" d="M584.276,47.283c0-0.021,0.31-0.026,0.916-0.015c0.664,0.019,1.555,0.044,2.691,0.076
							c0.591,0.028,1.256,0.027,1.984,0.088c0.728,0.102,1.52,0.213,2.373,0.333c0.861,0.124,1.785,0.257,2.77,0.398
							c0.971,0.241,2.003,0.497,3.094,0.767c4.347,1.118,9.615,3.029,15,6.54c5.381,3.454,10.974,8.394,15.513,15.108
							c4.454,6.722,7.891,15.18,8.801,24.678c0.089,2.377,0.376,4.795,0.146,7.253c-0.086,1.226-0.061,2.474-0.24,3.71
							c-0.186,1.236-0.374,2.481-0.563,3.736c-1.012,4.955-2.487,10.032-5.041,14.76c-2.494,4.739-5.712,9.249-9.641,13.266
							c-4.005,3.934-8.683,7.348-13.89,9.978c-5.191,2.652-10.943,4.484-16.931,5.197c-1.483,0.294-3.001,0.293-4.516,0.384
							c-1.515,0.099-3.037,0.155-4.565,0.083c-3.053-0.124-6.117-0.507-9.143-1.155c-6.576-1.4-12.766-4.077-18.203-7.66
							l0.552,0.056c-6.31,2.532-12.499,5.016-18.541,7.441l-1.098,0.441l0.313-1.14c1.871-6.804,3.69-13.421,5.45-19.822
							l0.094,0.489c-5.203-6.915-8.52-14.81-9.894-22.65c-0.689-3.917-0.981-7.826-0.721-11.604c0.081-1.893,0.171-3.76,0.527-5.574
							c0.141-0.91,0.281-1.814,0.421-2.712c0.166-0.892,0.437-1.756,0.648-2.625c3.582-13.953,12.175-24.258,20.686-30.156
							c4.261-3.001,8.462-5.153,12.311-6.495c0.959-0.343,1.883-0.674,2.773-0.993c0.914-0.232,1.791-0.455,2.633-0.669
							c0.839-0.208,1.643-0.407,2.408-0.597c0.773-0.148,1.518-0.228,2.217-0.335c1.402-0.178,2.633-0.42,3.713-0.473
							c1.062-0.036,1.969-0.066,2.725-0.092c0.69-0.015,1.238-0.027,1.664-0.037C584.086,47.261,584.276,47.267,584.276,47.283
							c0,0.017-0.19,0.042-0.562,0.077c-0.424,0.033-0.97,0.077-1.657,0.131c-0.751,0.051-1.651,0.111-2.707,0.183
							c-1.071,0.083-2.291,0.354-3.678,0.559c-5.457,1-13.637,3.176-21.994,9.287c-8.345,5.901-16.72,16.108-20.166,29.824
							c-0.203,0.855-0.466,1.703-0.624,2.58c-0.132,0.882-0.265,1.77-0.4,2.665c-0.341,1.781-0.421,3.614-0.491,5.473
							c-0.241,3.708,0.062,7.54,0.751,11.376c1.374,7.678,4.647,15.398,9.758,22.157l0.167,0.221l-0.073,0.269
							c-1.747,6.404-3.553,13.025-5.41,19.833l-0.784-0.699c6.039-2.432,12.226-4.923,18.532-7.463l0.29-0.117l0.263,0.173
							c5.319,3.499,11.37,6.113,17.796,7.481c2.958,0.633,5.952,1.008,8.937,1.131c1.494,0.071,2.982,0.016,4.463-0.081
							c1.481-0.089,2.966-0.084,4.415-0.373c5.854-0.692,11.478-2.476,16.558-5.063c5.094-2.565,9.677-5.895,13.605-9.737
							c3.852-3.923,7.012-8.33,9.469-12.963c2.516-4.622,3.972-9.59,4.985-14.443c0.19-1.229,0.378-2.449,0.566-3.66
							c0.181-1.212,0.16-2.435,0.249-3.638c0.237-2.411-0.037-4.784-0.112-7.117c-0.851-9.325-4.177-17.65-8.514-24.296
							c-4.421-6.637-9.892-11.552-15.171-15.016c-5.281-3.521-10.466-5.476-14.757-6.653c-1.077-0.287-2.096-0.559-3.056-0.814
							c-0.975-0.16-1.889-0.31-2.74-0.45c-0.846-0.14-1.63-0.269-2.351-0.388c-0.721-0.08-1.381-0.098-1.968-0.146
							c-1.13-0.082-2.016-0.147-2.677-0.195C584.586,47.34,584.276,47.304,584.276,47.283z"/>
					</g>
				</g>
			</g>
		</g>
	</g>
</g>
</svg>
