<?xml version="1.0" encoding="UTF-8"?>
<svg xmlns="http://www.w3.org/2000/svg" viewBox="0 0 453.95 445.64">
  <defs>
    <style>
      .cls-1 {
        opacity: .3;
      }

      .cls-2 {
        opacity: .6;
      }

      .cls-3, .cls-4, .cls-5, .cls-6, .cls-7, .cls-8, .cls-9, .cls-10, .cls-11, .cls-12, .cls-13 {
        stroke-width: 0px;
      }

      .cls-4 {
        fill: #263238;
      }

      .cls-5 {
        fill: #455a64;
      }

      .cls-6 {
        fill: #e0e0e0;
      }

      .cls-7 {
        fill: #fff;
      }

      .cls-8 {
        fill: #e8505b;
      }

      .cls-9 {
        fill: #ff9a6c;
      }

      .cls-10 {
        fill: #ffbf9d;
      }

      .cls-11 {
        fill: #fafafa;
      }

      .cls-12 {
        fill: #ebebeb;
      }

      .cls-13 {
        fill: #f5f5f5;
      }
    </style>
  </defs>
  <g id="Background_Complete" data-name="Background Complete">
    <g>
      <rect class="cls-12" x="33.43" y="269.48" width="48.65" height="12.87"/>
      <path class="cls-6" d="m61.51,295.91s0-.08-.02-.23c0-.17,0-.39-.02-.66,0-.61-.02-1.45-.04-2.53-.02-2.22-.05-5.42-.08-9.44l.15.15c-11.11.02-28.78.06-48.65.1.11-.11-.25.25.24-.25h0v.82s0,.83,0,.83c0,.55,0,1.1,0,1.64,0,1.09,0,2.17,0,3.25,0,2.15,0,4.26,0,6.33l-.24-.24c13.85.04,25.98.08,34.67.11,4.33.03,7.81.05,10.23.07,1.18.01,2.11.02,2.77.03.3,0,.54.01.72.02.16,0,.25.01.26.02,0,0-.07.01-.23.02-.18,0-.41,0-.69.02-.65,0-1.56.02-2.71.03-2.41.02-5.87.04-10.18.07-8.74.03-20.92.07-34.84.11h-.24s0-.24,0-.24c0-2.07,0-4.18,0-6.33,0-1.07,0-2.16,0-3.25,0-.55,0-1.09,0-1.64v-.83s0-.41,0-.41v-.39h0v-.02h0c.5-.5.14-.14.25-.25,19.87.04,37.54.07,48.65.1h.15s0,.15,0,.15c-.04,4.07-.06,7.29-.08,9.53-.02,1.07-.03,1.9-.04,2.5,0,.26-.01.47-.02.63,0,.14,0,.21-.01.2Z"/>
    </g>
    <g>
      <rect class="cls-12" x="218.74" width="48.65" height="12.87"/>
      <path class="cls-6" d="m246.82,26.43s-.01-.08-.02-.23c0-.17,0-.39-.02-.66,0-.61-.02-1.45-.04-2.53-.02-2.22-.05-5.42-.08-9.44l.15.15c-11.11.02-28.78.06-48.65.1.11-.11-.25.25.24-.25h0v.82s0,.83,0,.83c0,.55,0,1.1,0,1.64,0,1.09,0,2.17,0,3.25,0,2.15,0,4.26,0,6.33l-.24-.24c13.85.04,25.98.08,34.67.11,4.33.03,7.81.05,10.23.07,1.18.01,2.11.02,2.77.03.3,0,.54.01.72.02.16,0,.25.01.26.02,0,0-.07.01-.23.02-.18,0-.41,0-.69.02-.65,0-1.56.02-2.71.03-2.41.02-5.87.04-10.18.07-8.74.03-20.92.07-34.84.11h-.24s0-.24,0-.24c0-2.07,0-4.18,0-6.33,0-1.07,0-2.16,0-3.25,0-.55,0-1.09,0-1.64v-.83s0-.41,0-.41v-.39h0v-.02h0c.5-.5.14-.14.25-.25,19.87.04,37.54.07,48.65.1h.15s0,.15,0,.15c-.04,4.07-.06,7.29-.08,9.53-.02,1.07-.03,1.9-.04,2.5,0,.26-.01.47-.02.63,0,.14-.01.21-.01.2Z"/>
    </g>
    <g>
      <path class="cls-6" d="m278.25,302.15s0-.08-.01-.23c0-.17,0-.39-.02-.66,0-.61-.02-1.45-.04-2.53-.02-2.22-.05-5.42-.08-9.44l.15.15c-11.11.02-28.78.06-48.65.1.11-.11-.25.25.24-.25h0v.41s0,.41,0,.41v.83c0,.55,0,1.1,0,1.64,0,1.09,0,2.17,0,3.25,0,2.15,0,4.26,0,6.33l-.24-.24c13.85.04,25.98.08,34.67.11,4.33.03,7.81.05,10.23.07,1.18.01,2.11.02,2.77.03.3,0,.54.01.72.02.16,0,.25.01.26.02,0,0-.07.01-.23.02-.18,0-.41,0-.69.02-.65,0-1.56.02-2.71.03-2.41.02-5.87.04-10.18.07-8.74.03-20.92.07-34.84.11h-.24s0-.24,0-.24c0-2.07,0-4.18,0-6.33,0-1.07,0-2.16,0-3.25,0-.55,0-1.09,0-1.64v-.83s0-.41,0-.41v-.39h0v-.02h0c.5-.5.14-.14.25-.25,19.87.04,37.54.07,48.65.1h.15s0,.15,0,.15c-.04,4.07-.06,7.29-.08,9.53-.02,1.07-.03,1.9-.04,2.5,0,.26-.01.47-.02.63,0,.14,0,.21-.02.2Z"/>
      <path class="cls-6" d="m284.84,289.28s-.01-.09-.02-.25c0-.18-.01-.41-.02-.68-.01-.63-.03-1.49-.04-2.58-.02-2.26-.06-5.44-.1-9.36l.18.18c-7.57.02-17.88.04-29.23.07-.22.22.3-.3.25-.25h0v.42s0,.42,0,.42v.84c0,.56,0,1.12,0,1.67,0,1.11,0,2.2,0,3.28,0,2.15,0,4.24,0,6.24l-.24-.24c8.44.05,15.7.08,20.91.11,2.57.03,4.63.05,6.09.07.68.01,1.23.02,1.64.03.38,0,.58.02.59.03,0,0-.17.02-.53.03-.4,0-.93.02-1.59.03-1.45.02-3.49.04-6.04.07-5.25.03-12.57.07-21.07.11h-.24s0-.24,0-.24c0-2,0-4.09,0-6.24,0-1.08,0-2.17,0-3.28,0-.55,0-1.11,0-1.67v-.84s0-.42,0-.42v-.4h0v-.02h0c-.05.05.47-.47.25-.25,11.35.03,21.66.05,29.23.07h.18s0,.18,0,.18c-.04,3.96-.07,7.19-.1,9.47-.02,1.07-.03,1.92-.04,2.54-.01.58-.03.87-.04.86Z"/>
    </g>
    <g>
      <path class="cls-6" d="m48.9,117.91s0-.08-.01-.23c0-.17,0-.39-.02-.66,0-.61-.02-1.45-.04-2.53-.02-2.22-.05-5.42-.08-9.44l.15.15c-11.11.02-28.78.06-48.65.1.11-.11-.25.25.24-.25H.5v.41s0,.41,0,.41v.83c0,.55,0,1.1,0,1.64,0,1.09,0,2.17,0,3.25,0,2.15,0,4.26,0,6.33l-.24-.24c13.85.04,25.98.08,34.67.11,4.33.03,7.81.05,10.23.07,1.18.01,2.11.02,2.77.03.3,0,.54.01.72.02.16,0,.25.01.26.02,0,0-.07.01-.23.02-.18,0-.41,0-.69.02-.65,0-1.56.02-2.71.03-2.41.02-5.87.04-10.18.07-8.74.03-20.92.07-34.84.11H0s0-.24,0-.24c0-2.07,0-4.18,0-6.33,0-1.07,0-2.16,0-3.25,0-.55,0-1.09,0-1.64v-.83s0-.41,0-.41v-.39h0v-.02h0c.5-.5.14-.14.25-.25,19.87.04,37.54.07,48.65.1h.15s0,.15,0,.15c-.04,4.07-.06,7.29-.08,9.53-.02,1.07-.03,1.9-.04,2.5,0,.26-.01.47-.02.63,0,.14,0,.21-.02.2Z"/>
      <path class="cls-6" d="m55.5,105.04s-.01-.09-.02-.24c0-.18-.01-.41-.02-.68-.01-.63-.03-1.49-.04-2.58-.02-2.26-.06-5.44-.1-9.36l.18.18c-7.57.02-17.88.04-29.23.07-.22.22.3-.3.25-.25h0v.42s0,.42,0,.42v.84c0,.56,0,1.12,0,1.67,0,1.11,0,2.2,0,3.28,0,2.15,0,4.24,0,6.24l-.24-.24c8.44.05,15.7.08,20.91.11,2.57.03,4.63.05,6.09.07.68.01,1.23.02,1.64.03.38,0,.58.02.59.03,0,0-.17.02-.53.03-.4,0-.93.02-1.59.03-1.45.02-3.49.04-6.04.07-5.25.03-12.57.07-21.07.11h-.24s0-.24,0-.24c0-2,0-4.09,0-6.24,0-1.08,0-2.17,0-3.28,0-.55,0-1.11,0-1.67v-.84s0-.42,0-.42v-.4h0v-.02h0c-.05.05.47-.47.25-.25,11.35.03,21.66.05,29.23.07h.18s0,.18,0,.18c-.04,3.96-.07,7.19-.1,9.47-.02,1.07-.03,1.92-.04,2.54-.01.58-.03.87-.04.86Z"/>
    </g>
    <g>
      <path class="cls-6" d="m447.17,145.04s0-.08-.01-.23c0-.17,0-.39-.02-.66,0-.61-.02-1.45-.04-2.53-.02-2.22-.05-5.42-.08-9.44l.15.15c-11.11.02-28.78.06-48.65.1.11-.11-.25.25.24-.25h0v.41s0,.41,0,.41v.83c0,.55,0,1.1,0,1.64,0,1.09,0,2.17,0,3.25,0,2.15,0,4.26,0,6.33l-.24-.24c13.85.04,25.98.08,34.67.11,4.33.03,7.81.05,10.23.07,1.18.01,2.11.02,2.77.03.3,0,.54.01.72.02.16,0,.25.01.26.02,0,0-.07.01-.23.02-.18,0-.41,0-.69.02-.65,0-1.56.02-2.71.03-2.41.02-5.87.04-10.18.07-8.74.03-20.92.07-34.84.11h-.24s0-.24,0-.24c0-2.07,0-4.18,0-6.33,0-1.07,0-2.16,0-3.25,0-.55,0-1.09,0-1.64v-.83s0-.41,0-.41v-.39h0v-.02h0c.5-.5.14-.14.25-.25,19.87.04,37.54.07,48.65.1h.15s0,.15,0,.15c-.04,4.07-.06,7.29-.08,9.53-.02,1.07-.03,1.9-.04,2.5,0,.26-.01.47-.02.63,0,.14,0,.21-.02.2Z"/>
      <path class="cls-6" d="m453.77,132.17s-.01-.09-.02-.25c0-.18-.01-.41-.02-.68-.01-.63-.03-1.49-.04-2.58-.02-2.26-.06-5.44-.1-9.36l.18.18c-7.57.02-17.88.04-29.23.07-.22.22.3-.3.25-.25h0v.42s0,.42,0,.42v.84c0,.56,0,1.12,0,1.67,0,1.11,0,2.2,0,3.28,0,2.15,0,4.24,0,6.24l-.24-.24c8.44.05,15.7.08,20.91.11,2.57.03,4.63.05,6.09.07.68.01,1.23.02,1.64.03.38,0,.58.02.59.03,0,0-.17.02-.53.03-.4,0-.93.02-1.59.03-1.45.02-3.49.04-6.04.07-5.25.03-12.57.07-21.07.11h-.24s0-.24,0-.24c0-2,0-4.09,0-6.24,0-1.08,0-2.17,0-3.28,0-.55,0-1.11,0-1.67v-.84s0-.42,0-.42v-.4h0v-.02h0c-.05.05.47-.47.25-.25,11.35.03,21.66.05,29.23.07h.18s0,.18,0,.18c-.04,3.96-.07,7.19-.1,9.47-.02,1.07-.03,1.92-.04,2.54-.01.58-.03.87-.04.86Z"/>
    </g>
    <g>
      <rect class="cls-13" x="116.66" y="361.02" width="108.28" height="83.52" transform="translate(341.6 805.56) rotate(180)"/>
      <path class="cls-12" d="m143.79,443.95c.15,0,.27-18.62.27-41.57s-.12-41.58-.27-41.58-.27,18.61-.27,41.58.12,41.57.27,41.57Z"/>
      <rect class="cls-11" x="125.84" y="425.53" width="8.3" height="9.38" transform="translate(259.98 860.44) rotate(180)"/>
      <rect class="cls-12" x="179.61" y="361.24" width="12.3" height="17.82"/>
      <rect class="cls-12" x="179.61" y="426.47" width="12.3" height="17.82"/>
    </g>
    <g>
      <rect class="cls-12" x="218.58" y="338.75" width="136.7" height="105.44"/>
      <path class="cls-6" d="m321.03,443.44c-.15,0-.27-23.5-.27-52.49s.12-52.49.27-52.49.27,23.5.27,52.49-.12,52.49-.27,52.49Z"/>
      <rect class="cls-11" x="333.21" y="420.19" width="10.48" height="11.85"/>
      <rect class="cls-6" x="260.29" y="339.02" width="15.53" height="22.5"/>
      <rect class="cls-6" x="260.29" y="421.37" width="15.53" height="22.5"/>
    </g>
  </g>
  <g id="Plant">
    <g>
      <g>
        <path class="cls-4" d="m64.68,415.61s-4.34-29.83-3.98-47.19c.36-17.36-.02-36.89-.02-36.89h2s-1.35,34.45.12,55.24c1.47,20.76,5.35,28.84,5.35,28.84h-3.47"/>
        <path class="cls-5" d="m77.6,297.97c-.4-1.02-.9-2.08-1.82-2.67-1.27-.8-2.93-.47-4.35.03-6.04,2.14-11.4,13.4-13.84,19.33l8.02,27.03c14.48-13.43,16.99-31.05,11.99-43.72Z"/>
        <path class="cls-4" d="m75.31,296.39s-.03.13-.12.35c-.1.26-.23.58-.39.98-.35.85-.84,2.09-1.43,3.62-1.18,3.07-2.69,7.36-4.03,12.19-1.34,4.84-2.26,9.29-2.83,12.53-.29,1.62-.5,2.93-.64,3.84-.07.43-.13.77-.17,1.05-.04.24-.07.36-.08.36-.01,0,0-.13.02-.37.03-.28.07-.63.11-1.06.1-.92.28-2.24.53-3.86.51-3.26,1.4-7.73,2.74-12.58,1.35-4.85,2.89-9.14,4.13-12.19.62-1.53,1.15-2.75,1.53-3.59.18-.39.33-.71.45-.96.11-.22.17-.33.18-.33Z"/>
        <path class="cls-5" d="m62.05,348.16c-7.52-4.15-11.95-11.97-12.36-20.55-.29-6,1.55-11.88,3.64-17.51.18-.49.4-1.01.85-1.27.63-.36,1.42-.04,2.05.32,5.46,3.11,8.77,9.04,10.54,15.08,1.17,4.02,1.78,8.25,1.24,12.4-.54,4.15-2.91,8.66-5.95,11.54"/>
        <path class="cls-4" d="m62.05,348.16s-.02-.13-.03-.36c0-.27-.01-.62-.02-1.04,0-.9-.04-2.2-.11-3.81-.14-3.21-.57-7.65-1.4-12.49-.83-4.84-1.85-9.18-2.59-12.31-.37-1.53-.67-2.79-.89-3.71-.09-.41-.17-.74-.23-1.01-.05-.23-.07-.36-.06-.36.01,0,.05.11.12.34.08.26.17.59.29,1,.25.87.59,2.13.99,3.69.8,3.12,1.85,7.46,2.69,12.31.83,4.85,1.22,9.31,1.3,12.53.04,1.61.04,2.92,0,3.82-.02.42-.03.76-.04,1.04-.01.24-.03.36-.04.36Z"/>
        <g class="cls-1">
          <path class="cls-3" d="m62.05,348.16c-7.52-4.15-11.95-11.97-12.36-20.55-.29-6,1.55-11.88,3.64-17.51.18-.49.4-1.01.85-1.27.63-.36,1.42-.04,2.05.32,5.46,3.11,8.77,9.04,10.54,15.08,1.17,4.02,1.78,8.25,1.24,12.4-.54,4.15-2.91,8.66-5.95,11.54"/>
        </g>
        <path class="cls-5" d="m70.53,393.81c7.4,1.63,13.49,6.85,20.63,9.38,4.72,1.68,10.06,2.27,13.84,5.58-.9-2.28-3.05-3.81-5.13-5.11-5.87-3.67-12.16-6.67-18.7-8.93-3.36-1.16-7-2.13-10.43-1.17"/>
        <path class="cls-5" d="m59.84,400.41c-9.27-.15-19.02-8.04-28.25-8.51,9.65-3.12,23.47-.57,28.25,8.51"/>
        <path class="cls-5" d="m63.46,378.18c4.71-1.7,9.87-1.78,14.82-1.01,4.94.77,9.72,2.35,14.46,3.93-.48-3.22-3.08-5.63-5.53-7.77-1.84-1.61-3.7-3.23-5.81-4.46-2.11-1.23-4.52-2.07-6.97-1.97-2.95.12-5.75,1.65-7.69,3.87-1.93,2.23-2.97,4.47-3.29,7.4"/>
        <path class="cls-5" d="m44.44,367.94c-5.83-4.98-14.67-4.49-22.34-4.32,11.79,5.64,24.49,13.36,34.64,21.59.31-5.42-4.94-10.98-12.31-17.27Z"/>
        <g class="cls-1">
          <path class="cls-3" d="m44.44,367.94c-5.83-4.98-14.67-4.49-22.34-4.32,11.79,5.64,24.49,13.36,34.64,21.59.31-5.42-4.94-10.98-12.31-17.27Z"/>
        </g>
        <path class="cls-5" d="m66.08,361.07c2.93-1.96,5.9-3.82,8.97-5.21,3.07-1.4,5.94-3.62,8.9-5.22,3.85-2.08,7.18-4.98,10.71-7.56,3.53-2.58,7.41-4.91,11.73-5.6-3.52-.73-7.2-.33-10.67.62-3.47.95-6.76,2.43-10.04,3.91-4.55,2.05-9.18,4.15-12.9,7.48-3.72,3.33-7.08,6.61-6.69,11.59"/>
        <path class="cls-4" d="m91,400.41s-.11-.03-.29-.13c-.22-.11-.49-.25-.81-.42-.7-.37-1.7-.92-2.96-1.56-.62-.33-1.32-.67-2.07-1.03-.74-.37-1.55-.73-2.41-1.1-1.71-.73-3.62-1.49-5.71-1.99-2.08-.51-4.15-.62-5.94-.15-.91.22-1.76.44-2.52.75-.76.31-1.44.67-2.03,1.04-1.19.75-2.02,1.54-2.56,2.11-.54.58-.8.93-.82.91,0,0,.05-.1.17-.27.12-.17.3-.42.56-.72.51-.6,1.33-1.43,2.52-2.22.59-.39,1.28-.77,2.06-1.1.77-.34,1.65-.57,2.55-.79,1.84-.5,3.99-.39,6.09.12,2.12.5,4.04,1.28,5.75,2.03.86.38,1.66.75,2.4,1.14.75.36,1.44.72,2.06,1.07,1.25.66,2.24,1.24,2.92,1.65.31.19.57.35.78.47.18.11.27.17.26.18Z"/>
        <path class="cls-4" d="m52.92,395.81s.21.04.58.17c.37.12.89.35,1.51.66,1.25.62,2.89,1.66,4.43,3.14,1.54,1.48,2.65,3.08,3.32,4.3.33.61.58,1.12.72,1.48.14.36.21.56.19.57-.05.02-.4-.76-1.11-1.94-.71-1.18-1.83-2.72-3.34-4.18-1.51-1.45-3.1-2.51-4.31-3.17-1.2-.66-2-.98-1.98-1.03Z"/>
        <path class="cls-4" d="m32.42,367.48s.14.03.39.12c.29.1.66.23,1.11.4.49.18,1.08.4,1.75.65.68.25,1.43.63,2.27,1,3.34,1.51,7.78,4.06,12.06,7.69,2.11,1.84,4.03,3.71,5.63,5.54,1.59,1.83,2.94,3.56,3.99,5.06,1.06,1.5,1.86,2.75,2.41,3.61.26.41.47.74.63.99.14.23.21.35.21.36,0,0-.1-.1-.26-.32-.16-.22-.4-.54-.69-.96-.58-.84-1.41-2.07-2.49-3.55-1.07-1.48-2.43-3.18-4.03-4.99-1.6-1.81-3.51-3.66-5.61-5.49-4.26-3.6-8.65-6.16-11.95-7.73-.83-.38-1.56-.77-2.24-1.04-.66-.27-1.24-.5-1.73-.7-.45-.19-.81-.34-1.09-.45-.25-.11-.38-.17-.37-.18Z"/>
        <path class="cls-4" d="m77.36,372.97s-.27-.01-.74-.1c-.25-.05-.54-.1-.85-.16-.33-.06-.72-.07-1.14-.11-1.67-.12-4.09.02-6.37,1.26-1.15.58-2.11,1.36-2.9,2.15-.8.78-1.41,1.59-1.86,2.3-.93,1.42-1.22,2.45-1.27,2.43-.02,0,.03-.27.19-.72.17-.45.43-1.1.89-1.83.44-.74,1.04-1.58,1.84-2.39.79-.82,1.78-1.63,2.96-2.23,2.35-1.28,4.86-1.38,6.54-1.2.43.06.82.08,1.15.16.31.08.59.15.85.21.46.12.72.2.71.22Z"/>
        <path class="cls-4" d="m86.68,344.07s-.12.08-.35.22c-.27.14-.61.33-1.03.56-.9.48-2.19,1.2-3.76,2.13-1.56.94-3.41,2.09-5.37,3.49-1.95,1.4-4.06,3.04-5.99,5.02-.96,1-1.84,2.04-2.45,3.17-.61,1.17-1.19,2.29-1.72,3.37-1.07,2.16-1.94,4.15-2.57,5.86-.63,1.71-1.02,3.13-1.25,4.13-.24.99-.32,1.55-.36,1.55-.01,0,0-.14.04-.41.03-.27.09-.66.19-1.16.19-1.01.55-2.45,1.16-4.18.61-1.73,1.46-3.74,2.52-5.92.53-1.09,1.1-2.22,1.71-3.39.64-1.19,1.53-2.24,2.5-3.25,1.96-2.01,4.08-3.64,6.06-5.04,1.98-1.4,3.84-2.53,5.43-3.45,1.59-.9,2.9-1.59,3.82-2.04.44-.21.79-.38,1.06-.51.24-.11.38-.17.38-.16Z"/>
        <path class="cls-4" d="m60.69,372.13s-.09-.28-.18-.78c-.11-.57-.24-1.29-.41-2.14-.35-1.8-.89-4.29-1.75-6.95-.85-2.67-1.89-4.99-2.65-6.67-.36-.79-.66-1.45-.9-1.98-.21-.47-.32-.74-.3-.75.02-.01.17.24.41.69.25.45.59,1.11,1,1.94.81,1.65,1.89,3.98,2.75,6.67.87,2.69,1.37,5.19,1.67,7.01.15.91.25,1.65.3,2.16.06.51.08.8.06.8Z"/>
        <path class="cls-5" d="m60.02,351.05c-.23-3.5-1.37-6.9-3.01-10.01-4.5-8.5-12.95-14.81-22.39-16.69,6.91,10.3,13.82,20.59,20.72,30.89l2.68,5.51c1.83-3,2.23-6.2,2-9.7Z"/>
      </g>
      <g>
        <rect class="cls-8" x="41.56" y="411.92" width="48.19" height="8.54"/>
        <polygon class="cls-8" points="45.16 418.77 49.26 445.27 81.25 445.27 86.15 418.77 45.16 418.77"/>
        <path class="cls-4" d="m89.72,420.48c0,.09-10.87.17-24.28.17s-24.28-.08-24.28-.17,10.87-.17,24.28-.17,24.28.08,24.28.17Z"/>
      </g>
    </g>
  </g>
  <g id="Box">
    <g>
      <g>
        <rect class="cls-8" x="205.84" y="381.43" width="82.68" height="63.77" transform="translate(494.35 826.63) rotate(180)"/>
        <rect class="cls-11" x="212.85" y="430.68" width="6.34" height="7.17" transform="translate(432.04 868.53) rotate(180)"/>
        <g class="cls-1">
          <rect class="cls-7" x="253.9" y="381.59" width="9.39" height="13.61"/>
        </g>
        <g class="cls-1">
          <rect class="cls-7" x="253.9" y="431.4" width="9.39" height="13.61"/>
        </g>
      </g>
      <path class="cls-4" d="m226.47,445.64c-.25,0-.45-14.02-.45-31.32s.2-31.32.45-31.32.45,14.02.45,31.32-.2,31.32-.45,31.32Z"/>
    </g>
  </g>
  <g id="Barcode">
    <g>
      <rect class="cls-4" x="59.32" y="49.53" width="4.92" height="189.81"/>
      <rect class="cls-4" x="68.22" y="49.53" width="4.17" height="189.81"/>
      <rect class="cls-4" x="77.22" y="49.53" width="15.3" height="156.9"/>
      <rect class="cls-4" x="96.4" y="49.53" width="3.77" height="156.9"/>
      <rect class="cls-4" x="108.79" y="49.53" width="3.77" height="156.9"/>
      <rect class="cls-4" x="124.95" y="49.53" width="3.77" height="156.9"/>
      <rect class="cls-4" x="138.41" y="49.53" width="3.77" height="156.9"/>
      <rect class="cls-4" x="182.33" y="49.53" width="3.77" height="156.9"/>
      <rect class="cls-4" x="246.95" y="49.53" width="8.14" height="184.12"/>
      <rect class="cls-4" x="290.9" y="49.53" width="3.77" height="156.9"/>
      <rect class="cls-4" x="307.34" y="49.53" width="3.77" height="156.9"/>
      <rect class="cls-4" x="319.87" y="49.28" width="9.24" height="193.12"/>
      <rect class="cls-4" x="218.63" y="49.53" width="3.77" height="156.9"/>
      <rect class="cls-4" x="161.96" y="49.53" width="7.73" height="156.9"/>
      <rect class="cls-4" x="193.99" y="49.53" width="7.73" height="156.9"/>
      <rect class="cls-4" x="206.19" y="49.53" width="7.73" height="156.9"/>
      <rect class="cls-4" x="263.9" y="49.53" width="7.73" height="156.9"/>
      <rect class="cls-4" x="275.59" y="49.53" width="7.73" height="156.9"/>
      <rect class="cls-4" x="227.24" y="49.53" width="14.53" height="156.9"/>
      <rect class="cls-4" x="145.89" y="49.53" width="11.91" height="156.9"/>
      <g>
        <path class="cls-4" d="m93.99,215.01v33.62h-3.46v-30.55h-7.93v-3.07h11.38Z"/>
        <path class="cls-4" d="m126.15,234.18c1.14,1.41,1.71,3.11,1.71,5.09s-.53,3.66-1.59,5.12c-1.06,1.46-2.57,2.58-4.54,3.36-1.97.79-4.28,1.18-6.94,1.18-4.03,0-7.2-.86-9.51-2.59-2.31-1.73-3.46-4.08-3.46-7.06,0-2.02.55-3.72,1.66-5.12,1.1-1.39,2.71-2.44,4.83-3.15-1.73-.67-3.04-1.64-3.94-2.91-.9-1.26-1.35-2.76-1.35-4.49,0-2.72,1.06-4.88,3.19-6.48,2.13-1.6,4.99-2.4,8.57-2.4,2.37,0,4.44.36,6.22,1.08,1.78.72,3.16,1.75,4.15,3.1.99,1.35,1.49,2.91,1.49,4.71s-.46,3.23-1.39,4.49c-.93,1.27-2.26,2.23-3.99,2.91,2.11.7,3.74,1.76,4.88,3.17Zm-4.37,9.99c1.68-1.22,2.52-2.87,2.52-4.95s-.84-3.72-2.52-4.92c-1.68-1.2-4.01-1.8-6.99-1.8s-5.26.6-6.94,1.8c-1.68,1.2-2.52,2.84-2.52,4.92s.83,3.77,2.5,4.97c1.66,1.2,3.99,1.8,6.96,1.8s5.31-.61,6.99-1.83Zm-13.09-16.04c1.47,1.09,3.51,1.63,6.1,1.63s4.64-.54,6.12-1.63c1.49-1.09,2.23-2.54,2.23-4.37s-.76-3.38-2.28-4.47c-1.52-1.09-3.55-1.63-6.08-1.63s-4.59.54-6.08,1.63c-1.49,1.09-2.23,2.56-2.23,4.42s.74,3.33,2.21,4.42Z"/>
        <path class="cls-4" d="m153.36,219.12c2.37,2.93,3.55,7.07,3.55,12.42,0,3.75-.64,6.92-1.92,9.51-1.28,2.59-3.07,4.56-5.38,5.88-2.31,1.33-5,1.99-8.07,1.99-3.33,0-5.99-.61-7.97-1.83l1.39-2.79c1.6,1.06,3.78,1.59,6.53,1.59,3.71,0,6.63-1.18,8.74-3.53,2.11-2.35,3.17-5.77,3.17-10.25,0-.83-.05-1.75-.14-2.74-.83,1.83-2.16,3.24-3.99,4.25-1.83,1.01-3.92,1.51-6.29,1.51-2.21,0-4.17-.42-5.88-1.25-1.71-.83-3.05-2.01-4.01-3.53-.96-1.52-1.44-3.29-1.44-5.31s.5-3.86,1.49-5.43c.99-1.57,2.36-2.78,4.11-3.63,1.75-.85,3.71-1.27,5.88-1.27,4.45,0,7.86,1.46,10.23,4.4Zm-5.36,12.13c1.3-.64,2.31-1.52,3.05-2.64.74-1.12,1.1-2.37,1.1-3.75,0-1.28-.34-2.47-1.03-3.55-.69-1.09-1.71-1.97-3.05-2.64-1.34-.67-2.95-1.01-4.8-1.01-2.43,0-4.41.67-5.93,1.99-1.52,1.33-2.28,3.1-2.28,5.31s.76,3.97,2.28,5.28c1.52,1.31,3.58,1.97,6.17,1.97,1.7,0,3.19-.32,4.49-.96Z"/>
        <path class="cls-4" d="m171.13,215.01v33.62h-3.46v-30.55h-7.93v-3.07h11.38Z"/>
        <path class="cls-4" d="m198.63,231.42c2.23,1.75,3.34,4.19,3.34,7.33,0,1.95-.46,3.7-1.37,5.24s-2.28,2.75-4.11,3.63c-1.83.88-4.07,1.32-6.72,1.32-2.4,0-4.68-.39-6.84-1.18-2.16-.78-3.9-1.83-5.21-3.15l1.68-2.74c1.12,1.15,2.59,2.09,4.42,2.81,1.83.72,3.79,1.08,5.91,1.08,2.79,0,4.94-.62,6.46-1.87,1.52-1.25,2.28-2.91,2.28-5,0-2.31-.86-4.05-2.57-5.24-1.71-1.18-4.6-1.78-8.67-1.78h-7.16l1.73-16.86h18.4v3.07h-15.37l-1.15,10.71h4.32c4.87,0,8.41.87,10.64,2.62Z"/>
        <path class="cls-4" d="m212.8,246.86c-2.03-1.38-3.62-3.35-4.75-5.93-1.14-2.58-1.71-5.61-1.71-9.1s.57-6.52,1.71-9.1c1.14-2.58,2.72-4.55,4.75-5.93,2.03-1.38,4.35-2.07,6.94-2.07s4.91.69,6.94,2.07c2.03,1.38,3.63,3.35,4.78,5.93,1.15,2.58,1.73,5.61,1.73,9.1s-.58,6.52-1.73,9.1c-1.15,2.58-2.75,4.56-4.78,5.93-2.03,1.38-4.35,2.07-6.94,2.07s-4.91-.69-6.94-2.07Zm12.1-2.74c1.49-1.09,2.65-2.67,3.48-4.75.83-2.08,1.25-4.59,1.25-7.54s-.42-5.46-1.25-7.54c-.83-2.08-1.99-3.67-3.48-4.76-1.49-1.09-3.21-1.63-5.16-1.63s-3.67.54-5.16,1.63c-1.49,1.09-2.65,2.67-3.48,4.76-.83,2.08-1.25,4.59-1.25,7.54s.42,5.46,1.25,7.54c.83,2.08,1.99,3.67,3.48,4.75,1.49,1.09,3.21,1.63,5.16,1.63s3.67-.54,5.16-1.63Z"/>
      </g>
      <g>
        <path class="cls-4" d="m287.35,214.65v2.33l-13.38,29.63h-3.56l13.15-29.04h-16.44v5.98h-3.24v-8.9h23.47Z"/>
        <path class="cls-4" d="m313.51,243.69v2.92h-22.42v-2.33l13.29-13.01c1.67-1.64,2.81-3.07,3.4-4.27.59-1.2.89-2.41.89-3.63,0-1.89-.65-3.36-1.94-4.41-1.29-1.05-3.14-1.58-5.55-1.58-3.74,0-6.65,1.19-8.72,3.56l-2.33-2.01c1.25-1.46,2.84-2.59,4.77-3.38,1.93-.79,4.12-1.19,6.55-1.19,3.26,0,5.84.77,7.74,2.31,1.9,1.54,2.85,3.65,2.85,6.32,0,1.64-.37,3.23-1.1,4.75-.73,1.52-2.12,3.27-4.15,5.25l-10.87,10.68h17.58Z"/>
      </g>
    </g>
  </g>
  <g id="Character">
    <g>
      <g>
        <polygon class="cls-8" points="255.94 137.71 235.97 160.26 263.15 170.62 283.3 146.03 255.94 137.71"/>
        <path class="cls-8" d="m283.3,146.03s57.68,59.9,57.13,60.27c-.55.37-17.01,20.15-17.01,20.15l-60.27-55.83,20.15-24.59Z"/>
        <polygon class="cls-8" points="235.97 160.26 293.47 215.54 323.42 226.45 263.15 170.62 235.97 160.26"/>
        <g class="cls-1">
          <polygon class="cls-3" points="235.97 160.26 293.47 215.54 323.42 226.45 263.15 170.62 235.97 160.26"/>
        </g>
        <g class="cls-1">
          <polygon class="cls-7" points="255.94 137.71 235.97 160.26 263.15 170.62 283.3 146.03 255.94 137.71"/>
        </g>
      </g>
      <path class="cls-10" d="m311.75,175.5s6.58.25,7.32.99,6.58,12.53,6.58,12.53l1.99,1.24.56,17.54-17.49,1.53-5.9,3.51-5.81-.52c-.99-.05-1.8-.8-1.93-1.79l-.47-3.76s2.4-.57,3,1.16l.22.81,3.22.24,3.44-2.54.22-1.35-11.22.75-4.64-3.29s1.98-2.49,3.98-1.45c.47.25.62.2,1.53.75l9.38-2.21-18.1.18s-.33-3.72,3.58-3.84c2.77-.09,9.8-.83,9.8-.83,0,0,5.39-.45,5.61-2.24.22-1.8-15.19-5.91-15.94-7.86-.75-1.95.15-3.89,3.74-2.77,3.59,1.12,13.92,5.54,16.84,5.31,2.92-.22,5.54-2.84,5.69-3.97.15-1.12-1.5-4.71-1.5-4.71,0,0-3.99-.29-3.72-3.4Z"/>
      <path class="cls-7" d="m264.05,140.17c-.26-.08-7.94,8.65-7.94,8.65l5.89,1.8,8.3-8.55-6.26-1.9Z"/>
      <path class="cls-4" d="m246.23,164.17c-.11-.1,4.51-5.38,10.3-11.8,5.8-6.42,10.58-11.55,10.69-11.45.11.1-4.5,5.38-10.3,11.8-5.79,6.42-10.58,11.54-10.69,11.45Z"/>
      <path class="cls-4" d="m306.1,220.14c-.1.11-13.58-12.08-30.11-27.21-16.54-15.14-29.86-27.49-29.76-27.6.1-.11,13.58,12.08,30.11,27.22,16.53,15.13,29.86,27.49,29.76,27.6Z"/>
      <g>
        <path class="cls-5" d="m333.46,145.48l2.59,2.96c.19,14.63,15.09,35.02,15.09,35.02l7.84-33.18-2.85-12.66-8.55-.99-3.36-4.49-10.75,13.34Z"/>
        <g>
          <path class="cls-8" d="m320.26,113.77c-3.09.92-7.65,5.64-11.6,10.04-1.9,2.11-.86,5.8,1.15,7.81l2.57,2.57c.86.86,1.98,1.4,3.19,1.53h0c1.41.16,2.83-.25,3.94-1.14l1.79-1.43c2.24-1.8,5.5-1.5,7.38.66l7.43,8.55c2.05,2.36,5.68,2.46,7.86.23l.03-.03c1.9-1.94,2.04-5,.32-7.11l-16.59-20.4c-.44-.54-.97-.99-1.58-1.32-1.2-.64-2.99-.82-5.88.04Z"/>
          <path class="cls-10" d="m319.69,134.43s1.81,1.45,2.63,1.74c0,0-1.47,2.06-.06,3.47s3.39,1.63,3.39,1.63c0,0-.25,2.88,2.75,3.58,3,.71,11.35-.52,11.65-1.28.29-.76,1.02-2.84-.92-3.31-1.94-.47-4.55-.46-4.55-.46,0,0,3.96-1.47,1.61-4.65-1.08-1.46-5.9-.02-5.9-.02l-3.61.41s3.31-2.33.73-4.67c-1.73-1.58-3.02,0-3.02,0l-4.69,3.56Z"/>
          <path class="cls-10" d="m334.33,128.55s-2.92-.37-2.25-2.17c.67-1.8,2.85-4.64,3.9-5.69,1.05-1.05,2.25-1.42,3.15-1.05.9.37,3.97,2.7,4.49,5.39s1.05,5.84.6,7.12c-.45,1.27-.89,2.02-.89,2.02l-5.15-6.33s-2.62,1.06-3.85.71Z"/>
          <path class="cls-4" d="m323.52,131.57s.11-.58.44-1.58v.05c-.03-.47-.15-1.05-.51-1.61-.34-.54-.98-1.05-1.56-1.67-1.23-1.24-2.61-2.65-4.09-4.14-1.12-1.03-2.73-1.27-3.96-.86-.64.19-1.14.54-1.63.93-.47.37-.92.73-1.34,1.06-.74.6-1.37,1.12-1.92,1.57-.46.37-.69.58-.71.57-.1-.08.81-1.04,2.39-2.42.39-.35.83-.72,1.31-1.12.46-.39,1.05-.83,1.75-1.05,1.37-.49,3.2-.24,4.46.93,1.53,1.53,2.88,2.97,4.07,4.21.57.64,1.17,1.14,1.56,1.79.37.64.47,1.29.45,1.8v.03s0,.02,0,.02c-.4.97-.64,1.5-.69,1.49Z"/>
          <path class="cls-4" d="m330.11,124.99c.11.09-.91,1.47-2.43,2.92-1.52,1.46-2.94,2.42-3.02,2.31-.09-.12,1.17-1.24,2.66-2.68,1.5-1.43,2.68-2.64,2.79-2.55Z"/>
        </g>
        <path class="cls-9" d="m328.01,135.36c.02.14-1.24.46-2.82.7-1.58.25-2.87.33-2.9.19-.02-.14,1.24-.46,2.82-.71,1.58-.25,2.87-.33,2.9-.19Z"/>
        <path class="cls-9" d="m335.46,139.56c.05.12-2.03,1.08-4.79,1.6-2.76.54-5.05.41-5.05.28,0-.15,2.24-.26,4.95-.79,2.71-.51,4.84-1.24,4.89-1.09Z"/>
        <path class="cls-9" d="m340.48,123.77c.14-.03.27,1.35-.65,2.68-.9,1.34-2.23,1.72-2.25,1.58-.07-.14,1.03-.68,1.82-1.88.82-1.18.93-2.39,1.08-2.38Z"/>
        <g>
          <path class="cls-4" d="m310.08,128.03s3.79,5.33,5.49,5.43c1.19.07,3-2.05,3.97-3.32.4-.52.33-1.25-.13-1.7l-4.11-3.98-.96-.26-4.26,3.83Z"/>
          <g class="cls-2">
            <path class="cls-7" d="m310.28,127.87l-25.05,20.17,23.37,24.36,11.09-42.51c.17-.49.16-.96-.16-1.33l-4.23-4.1-.96-.26-4.07,3.67h0Z"/>
          </g>
        </g>
      </g>
      <g>
        <g>
          <path class="cls-10" d="m403.87,60.51l-2.77,46.48c-.47,7.9-2.78,19.42-15.24,18.1h0c-10.73-1.96-12.86-12.4-12.41-19.77.21-3.5.38-6.42.38-6.78,0,0-11.76-1.82-11.92-13.58-.08-5.68.72-17.4,1.56-28,.91-11.38,10.41-20.14,21.82-20.16h1.13c12.24.7,18.48,11.49,17.44,23.7Z"/>
          <path class="cls-9" d="m373.83,98.54s7.41.43,15.31-4.54c0,0-3.73,8.59-15.46,7.55l.15-3Z"/>
          <path class="cls-4" d="m383.12,63.2c.22.25,1.64-.74,3.61-.65,1.96.06,3.36,1.15,3.58.92.11-.1-.1-.55-.71-1.05-.6-.49-1.63-.99-2.85-1.04-1.22-.04-2.27.37-2.88.82-.62.45-.85.88-.74.99Z"/>
          <path class="cls-4" d="m382.34,68.89c-.03.84.66,1.56,1.53,1.6.87.05,1.61-.6,1.64-1.43.03-.84-.66-1.56-1.53-1.6-.88-.05-1.61.6-1.64,1.44Z"/>
          <path class="cls-4" d="m377.23,76.47c0-.1-1.12-.3-2.94-.53-.46-.05-.9-.14-.98-.45-.11-.33.08-.83.31-1.37.43-1.12.89-2.29,1.36-3.52,1.89-5.01,3.26-9.12,3.06-9.2-.2-.07-1.9,3.92-3.79,8.93-.46,1.23-.89,2.41-1.3,3.54-.17.52-.47,1.12-.24,1.81.12.34.46.59.76.67.3.09.56.09.78.11,1.83.1,2.97.1,2.98,0Z"/>
          <path class="cls-6" d="m383.09,57c.2.43,1.76.06,3.65.1,1.88,0,3.44.42,3.65,0,.09-.2-.21-.6-.86-.97-.64-.37-1.65-.68-2.78-.7-1.13-.01-2.13.27-2.78.63-.65.35-.96.74-.87.94Z"/>
          <path class="cls-6" d="m365.28,57.73c.18.37,1.74.09,3.59.16,1.86.04,3.38.42,3.6.07.1-.17-.18-.51-.81-.84-.62-.33-1.59-.61-2.71-.65-1.11-.03-2.12.19-2.77.47-.66.29-.98.61-.9.78Z"/>
          <path class="cls-10" d="m402.92,69.22c.2-.09,8.08-2.4,7.83,5.64-.25,8.04-8.27,6.13-8.28,5.9,0-.23.45-11.54.45-11.54Z"/>
          <path class="cls-9" d="m405.02,77.8s.14.1.37.22c.23.11.62.2,1.05.05.86-.29,1.62-1.61,1.7-3.06.04-.73-.09-1.43-.33-2.02-.23-.6-.6-1.02-1.02-1.11-.42-.11-.73.14-.84.36-.11.22-.07.38-.11.4-.02.02-.17-.14-.09-.47.04-.16.14-.35.33-.49.2-.15.48-.22.78-.18.62.06,1.16.65,1.42,1.29.3.65.46,1.44.42,2.26-.1,1.62-.98,3.11-2.15,3.41-.57.13-1.04-.06-1.27-.25-.24-.21-.28-.39-.25-.4Z"/>
          <path class="cls-6" d="m414.51,57.01c-1.47-2.95-1.61-6.35-2.3-9.57-.69-3.22-2.21-6.62-5.22-7.94l-.07.03c-2.7-1.32-6.12-1.58-8.54.18-.27-4.21-3.68-7.77-7.67-9.13-3.99-1.36-10.56-1.19-14.57.1-3.1,1-6.2,3.27-10,6.67-1.6,1.43-3.1,2.99-4.45,4.66l-4.32,10.67,2.62,5.94c.15.4.31.81.51,1.21v-.03s1.87,12.27,1.87,12.27c.41-3.28.99-14.74,1.4-18.02,5.09.15,9.84-1.57,13.52-5.1,1.94-1.86,3.53-4.25,6.02-5.27,3.21-1.31,6.82.07,10.01,1.44l-.13-.13c1.64.91,3.11,2.14,4.29,3.59-1.2,6.43-1,13.11.58,19.45.24.96.94,2.94,1.83,3.36,1.75.83,2.37-.97,3.52-1.87.85-.66,2.04-.67,3.33-.57.9-1.94,1.93-5.26,2.8-8.16,1.06.41,2.22.58,3.35.47-.29-.85-.57-1.7-.86-2.55.43.32.87.64,1.39.76.52.11,1.14-.04,1.41-.5.35-.59-.01-1.33-.32-1.95Z"/>
          <path class="cls-7" d="m394.6,40.79s.47.34,1.1,1.16c.62.81,1.29,2.19,1.52,4.01.12.91.16,1.92.08,2.99-.07,1.08-.24,2.22-.41,3.43-.17,1.21-.35,2.49-.36,3.83,0,.67.02,1.35.12,2.04.1.68.22,1.41.68,2.02.37.5,1.02.75,1.61.67.59-.06,1.13-.34,1.55-.73.82-.82,1.08-1.92,1.34-2.89h-.25c.34.92.69,1.82,1.25,2.56.55.74,1.35,1.27,2.19,1.4.42.07.85.03,1.22-.12.38-.15.67-.44.88-.75.2-.32.32-.67.32-1.02,0-.35-.11-.69-.31-.94l-.13.1c.83,1.09,1.74,1.71,2.38,2.07.32.18.58.29.76.36.18.07.27.1.27.09,0,0-.09-.05-.26-.13-.17-.08-.42-.21-.73-.39-.62-.37-1.5-1.01-2.29-2.09l-.13.1c.36.45.33,1.18-.05,1.74-.19.28-.46.53-.79.66-.33.13-.72.17-1.11.1-.77-.13-1.51-.62-2.03-1.33-.53-.71-.86-1.58-1.2-2.5l-.14-.39-.11.4c-.26.97-.53,2.02-1.28,2.76-.37.36-.86.6-1.38.65-.52.06-1.05-.15-1.37-.57-.4-.53-.53-1.22-.63-1.89-.09-.67-.13-1.34-.12-2,.01-1.32.19-2.59.35-3.8.16-1.21.32-2.36.39-3.45.07-1.09.01-2.11-.12-3.03-.26-1.85-.96-3.25-1.62-4.05-.67-.81-1.18-1.09-1.18-1.09Z"/>
          <path class="cls-7" d="m357.61,49.56s.03.03.09.09c.07.06.17.14.28.23.12.1.28.23.47.35.19.13.41.29.68.43,1.05.59,2.75,1.23,4.94,1.26,2.17.03,4.81-.54,7.24-2.1,2.46-1.51,4.69-3.84,6.57-6.55.95-1.35,1.75-2.76,2.61-4.04.86-1.29,1.78-2.47,2.87-3.37,1.07-.91,2.29-1.55,3.52-1.8.61-.13,1.22-.13,1.79-.08.57.07,1.11.23,1.6.43.98.41,1.76,1.03,2.33,1.64.58.62.95,1.26,1.2,1.81.45,1.11.43,1.81.48,1.8,0,0,0-.04,0-.12,0-.1-.02-.22-.03-.36-.03-.32-.14-.78-.35-1.35-.24-.56-.6-1.22-1.18-1.87-.58-.64-1.36-1.28-2.37-1.72-.5-.21-1.06-.38-1.65-.46-.59-.06-1.23-.07-1.86.06-1.27.25-2.53.9-3.63,1.83-1.12.92-2.06,2.12-2.93,3.42-.87,1.29-1.67,2.69-2.61,4.03-1.87,2.69-4.06,4.99-6.47,6.49-2.39,1.54-4.97,2.13-7.11,2.12-2.15,0-3.84-.6-4.89-1.16-1.06-.57-1.55-1.04-1.57-1.01Z"/>
          <path class="cls-4" d="m365.21,62.65c.22.25,1.64-.74,3.61-.65,1.96.06,3.36,1.15,3.58.92.11-.11-.1-.55-.71-1.05-.6-.49-1.63-.99-2.85-1.04-1.22-.04-2.27.37-2.88.82-.62.45-.85.88-.74.99Z"/>
          <path class="cls-4" d="m366.34,68.52c-.03.84.66,1.55,1.53,1.6.87.05,1.61-.6,1.64-1.43.03-.84-.66-1.56-1.53-1.6-.88-.05-1.61.6-1.64,1.44Z"/>
          <path class="cls-6" d="m362.76,40.73c-1.07,1.26-2.68,2.36-4.31,2.09-.48-.08-1.71-.62-1.71-.62-.59.31-.58,2.28-.21,2.85.36.56,1.15,1.35,1.15,1.35-1.99.92-3.71.31-5.71-.57.15,3.51,2.34,6.86,5.49,8.42,1.01.5,2.25.81,3.23.25.86-.49,1.26-1.49,1.57-2.43,1.13-3.45,1.83-7.05,2.08-10.67l-1.57-.67Z"/>
        </g>
        <path class="cls-4" d="m376.55,83.01c-.02.07.43.26,1.21.25.76,0,1.86-.25,2.81-.99.95-.74,1.46-1.75,1.65-2.49.19-.75.11-1.23.05-1.23-.09,0-.16.45-.43,1.1-.26.65-.78,1.51-1.61,2.17-.84.65-1.8.94-2.49,1.04-.7.1-1.16.06-1.17.15Z"/>
      </g>
      <g>
        <g>
          <path class="cls-5" d="m367.74,400.36l6.96,24.71s-22.18,15.55-21.33,20.24l47.25-12.11-9.31-38.96-23.58,6.11Z"/>
          <path class="cls-6" d="m388.8,419.23c.98.02,1.87.91,1.89,1.91.02,1-.86,1.94-1.84,1.93-.98,0-2.08-1.04-1.99-2.04.09-1,1.18-2.04,2.13-1.79"/>
          <path class="cls-4" d="m400.63,433.21l-1.09-3.89-44.9,13.06s-1.87,1.48-1.27,2.93l47.25-12.11Z"/>
          <path class="cls-4" d="m374.52,425.19c.07.23,1.25.05,2.57.52,1.33.43,2.17,1.31,2.36,1.16.2-.1-.49-1.43-2.1-1.96-1.6-.55-2.93.09-2.83.29Z"/>
          <path class="cls-4" d="m370.26,428.71c0,.24,1.1.39,2.13,1.19,1.05.77,1.51,1.8,1.74,1.73.23-.02.05-1.44-1.25-2.41-1.29-.98-2.67-.73-2.62-.5Z"/>
          <path class="cls-4" d="m368.59,435.56c.22,0,.25-1.27-.65-2.41-.9-1.15-2.11-1.38-2.16-1.16-.08.23.79.74,1.52,1.69.75.93,1.06,1.91,1.3,1.88Z"/>
          <path class="cls-4" d="m372.9,419.21c.15.19,1.13-.41,2.45-.65,1.32-.27,2.45-.08,2.52-.32.09-.21-1.11-.83-2.67-.52-1.56.3-2.46,1.33-2.3,1.48Z"/>
        </g>
        <g>
          <path class="cls-5" d="m383.43,401.99l.73,27.01s-26.46,11.39-26.88,16.33l52.46-.42-.11-43.2-26.2.28Z"/>
          <path class="cls-6" d="m400.82,427.2c1.02.28,1.73,1.44,1.5,2.49-.23,1.05-1.38,1.8-2.4,1.55-1.02-.26-1.92-1.63-1.58-2.65.34-1.02,1.74-1.83,2.67-1.32"/>
          <path class="cls-4" d="m409.76,445.32l-.19-4.77-50.23,2.03s-2.33,1.06-2.05,2.74h52.47Z"/>
          <path class="cls-4" d="m384.67,429.64c.01.26,1.29.37,2.56,1.2,1.29.8,1.95,1.93,2.18,1.83.24-.05-.16-1.62-1.71-2.6-1.54-1-3.09-.67-3.03-.43Z"/>
          <path class="cls-4" d="m378.88,432.04c-.06.25,1.06.69,1.93,1.8.91,1.08,1.14,2.27,1.39,2.26.24.04.41-1.5-.71-2.85-1.11-1.36-2.61-1.46-2.62-1.21Z"/>
          <path class="cls-4" d="m375.66,438.93c.23.05.58-1.26-.09-2.69-.66-1.44-1.87-1.99-1.98-1.77-.14.22.64.98,1.17,2.17.56,1.17.64,2.28.89,2.3Z"/>
          <path class="cls-4" d="m384.17,423.06c.11.24,1.28-.13,2.73-.04,1.45.06,2.58.55,2.71.32.15-.19-.96-1.15-2.67-1.23-1.71-.09-2.9.75-2.77.96Z"/>
        </g>
        <g>
          <path class="cls-4" d="m411.59,220.14l1.71,12.47c.56,4.05.56,8.15.02,12.2l-1.16,8.63s-2.33,64.47-2.44,62.11c0,0,1.26,47.27,2.2,57.3,1.71,18.23.17,51.73.17,51.73h-29.83l-10.74-105.89-6.67-66.04-11.6-30.06,58.33-2.45Z"/>
          <path class="cls-4" d="m341.37,223.15l.33,12.62,1.79,91.71c.24,4.3,1.08,8.55,2.49,12.63l24.43,70.44,1.4,4.82,17.94-4.44-13.34-189.51-35.04,1.73Z"/>
          <path class="cls-5" d="m364.94,253.44s-.01.15-.01.44c0,.32.01.75.02,1.3.04,1.18.09,2.86.15,5.01.12,4.35.43,10.65.86,18.43.91,15.55,2.6,37.01,5.23,60.63,2.59,23.63,5.46,44.95,7.55,60.38,1.06,7.69,1.92,13.92,2.53,18.26.31,2.13.55,3.8.71,4.96.08.54.15.97.2,1.29.05.29.08.44.09.44,0,0,0-.15-.03-.44-.04-.32-.08-.75-.14-1.3-.14-1.17-.35-2.84-.61-4.98-.56-4.35-1.36-10.59-2.35-18.29-1.99-15.44-4.8-36.77-7.39-60.39-2.63-23.61-4.39-45.05-5.39-60.59-.48-7.77-.85-14.06-1.03-18.41-.11-2.15-.2-3.83-.26-5.01-.03-.55-.06-.98-.08-1.3-.02-.29-.04-.44-.05-.44Z"/>
        </g>
        <path class="cls-4" d="m384.17,424.68s.06.4.09,1.14c.02.83.05,1.89.08,3.17l-.33-.03s0,.13.08.17c.08.04.1.02.09.02h0s.01,0,0,0h-.03s-.06.04-.06.04l-.14.06-.28.14c-.19.1-.39.19-.59.3-.41.21-.84.43-1.28.65-.9.46-1.88.96-2.91,1.49-2.09,1.08-4.41,2.28-6.85,3.54-4.4,2.33-8.52,4.22-11.1,6.18-1.29.97-2.24,1.89-2.76,2.62-.55.72-.64,1.23-.67,1.22-.04,0,0-.55.51-1.33.48-.79,1.41-1.78,2.7-2.8,2.58-2.08,6.69-4.02,11.08-6.35,2.46-1.27,4.79-2.46,6.88-3.5,1.04-.51,2.02-.99,2.94-1.44.45-.22.89-.42,1.3-.62.21-.1.41-.19.61-.28l.3-.13.15-.06.08-.03.05-.02h.04s.03-.01.03-.01c0,0,.02-.01.1.02.08.04.09.15.08.17l-.36,1.03.03-1.06c.03-1.28.06-2.34.08-3.17.03-.74.06-1.14.09-1.14Z"/>
      </g>
      <g>
        <g class="cls-1">
          <path class="cls-3" d="m341.8,240.8s9.76,5.27,28.05,7.35c26.13,2.97,43.86-10.73,43.86-10.73l-1.37-11.85-70.54,4.65v10.58Z"/>
        </g>
        <path class="cls-8" d="m414.84,114.32c8.88,12.39,5.13,42.81,5.13,42.81l-4.15,63.5v7.51s.31,6.18-22.1,13.66c-22.42,7.47-55.53-5.61-55.53-5.61,0,0,6.09-46.34,10.54-72.05.58-3.36,1.17-6.5,1.76-9.42,3.49-17.42,11.83-33.49,24.01-46.42l.21-.22,27.2-6.41s7.56,5.15,12.93,12.64Z"/>
        <path class="cls-6" d="m339.14,229.02s22.34,11.02,42.3,8.35c19.96-2.66,34.38-13.44,34.38-13.44v6.97s-15.81,13.22-37.59,13.2c-21.79-.02-40.04-7.91-40.04-7.91l.96-7.17Z"/>
        <polygon class="cls-6" points="346.68 176.65 418.37 181.59 417.3 198.61 344.52 190.85 346.68 176.65"/>
        <g class="cls-1">
          <path class="cls-3" d="m341.01,215.37s6.37,4.79,20.59,2.2c14.23-2.59,36.86-5.82,41.82-10.13,4.96-4.31,7.9-10.56,8.48-17.68s-1-40.8-1-40.8l-23,41.02-45.6,16.17-1.29,9.23Z"/>
        </g>
        <path class="cls-5" d="m397.9,108.09c6.89,0,14.25,11.15,15,17.69.75,6.54-1.9,59.28-2.98,65.29-2.17,12.08-12.1,14.21-12.1,14.21,0,0-23.82,6.88-39.85,8.13-16.03,1.25-27.41-5.28-27.41-5.28l-3.89.25.97-20.06,4.04.68,43.97-10.77s-2.8-45.08-2.55-45.83c0,0,2.25-24.28,24.8-24.29Z"/>
        <path class="cls-4" d="m333.98,188.42s.2-.09.6-.2c.45-.12,1.03-.28,1.75-.47,1.59-.41,3.77-.97,6.45-1.65,5.51-1.36,13.02-3.21,21.32-5.26,4.07-1.01,7.95-1.98,11.5-2.86l.13-.03.1.09c1.02.96,2.02,1.88,3,2.73.96.87,1.98,1.53,2.93,2.21,1.91,1.34,3.51,2.68,4.62,3.98,1.12,1.29,1.83,2.46,2.27,3.27.22.41.37.73.46.95.1.22.14.34.12.34-.03.01-.25-.43-.72-1.22-.48-.78-1.21-1.91-2.35-3.15-1.13-1.25-2.72-2.53-4.63-3.85-.94-.66-2.01-1.33-2.99-2.2-.99-.84-2-1.76-3.04-2.72l.22.06c-3.54.89-7.42,1.87-11.49,2.9-8.31,1.99-15.83,3.79-21.36,5.11-2.69.62-4.89,1.12-6.49,1.49-.72.16-1.31.28-1.77.38-.41.08-.62.12-.63.1Z"/>
        <path class="cls-5" d="m395.76,106.43c-1.65-.21-27.55,9.67-30.67,37.92-.97,8.77.02,28.15,10.97,31.25,10.94,3.1,32.97-6.42,32.97-6.42,0,0,10.25-37.11,7.93-43.79-2.32-6.68-11.71-17.74-21.19-18.96Z"/>
        <path class="cls-4" d="m376.65,130.79s.02.17.02.48c-.01.38-.03.83-.04,1.38-.06,1.28-.13,3-.23,5.08-.19,4.29-.43,10.21-.56,16.76-.13,6.55-.13,12.48-.13,16.77,0,2.08,0,3.8,0,5.08,0,.55-.01,1.01-.02,1.38-.01.32-.02.48-.04.48-.02,0-.04-.17-.06-.48-.02-.38-.05-.83-.08-1.38-.06-1.2-.12-2.94-.17-5.08-.1-4.29-.15-10.23-.03-16.79.13-6.55.42-12.48.71-16.77.14-2.14.28-3.88.39-5.07.06-.55.1-1,.14-1.38.04-.31.07-.48.08-.48Z"/>
        <g class="cls-1">
          <path class="cls-3" d="m369.85,156.99c-.34,10.56,5.64,21.26,5.64,21.26l.97-44.5c-4.35,3.62-6.32,14.49-6.6,23.23Z"/>
        </g>
        <path class="cls-6" d="m395.45,104.13c-12.71,2.55-25.31,13.26-33.52,26.66-8.21,13.4-10.7,49.09-10.7,49.09l8.23.27s-3.48-20.16,5.35-45.05c8.83-24.89,30.71-29.27,30.71-29.27l-.07-1.7Z"/>
        <path class="cls-4" d="m412.9,125.77s.03.19.05.55c.01.42.02.94.04,1.58.03,1.37.02,3.35-.02,5.8-.08,4.9-.38,11.65-.8,19.1-.43,7.45-.79,14.2-.96,19.09-.08,2.39-.14,4.35-.18,5.79-.02.64-.04,1.16-.06,1.57-.02.36-.04.55-.06.55s-.03-.19-.05-.55c-.01-.42-.02-.94-.04-1.58-.03-1.37-.02-3.35.02-5.8.07-4.89.38-11.65.8-19.11.43-7.45.79-14.2.96-19.08.08-2.39.14-4.35.18-5.79.02-.64.04-1.16.06-1.57.02-.36.04-.55.06-.55Z"/>
        <path class="cls-4" d="m401.9,112.38c-.04.1-1.43-.69-3.88-1.24-2.43-.56-6.02-.72-9.62.58-3.6,1.3-6.26,3.72-7.78,5.69-1.54,1.99-2.1,3.48-2.2,3.43-.03-.01.09-.39.38-1.04.29-.65.78-1.57,1.53-2.61,1.47-2.07,4.17-4.62,7.89-5.96,3.72-1.34,7.43-1.11,9.88-.45,1.24.32,2.2.71,2.84,1.03.64.32.97.54.95.56Z"/>
        <polygon class="cls-5" points="371.36 105.83 402.69 97.74 403.19 102.61 391.05 104.49 368.88 114.84 371.36 105.83"/>
        <path class="cls-6" d="m395.64,105.83s20.26,3.82,23.65,19.95c0,0-1.23-8.69-5.75-13.17-9.13-9.04-18.09-8.48-18.09-8.48l.2,1.7Z"/>
      </g>
      <path class="cls-4" d="m395.38,103.7c.14-.02.32.57.39,1.32.07.75.02,1.37-.13,1.37-.14,0-.32-.59-.39-1.32-.07-.73-.01-1.35.13-1.37Z"/>
    </g>
  </g>
</svg>